<?xml version="1.0" encoding="utf-8" standalone="no"?>
<!DOCTYPE svg PUBLIC "-//W3C//DTD SVG 1.1//EN"
  "http://www.w3.org/Graphics/SVG/1.1/DTD/svg11.dtd">
<!-- Created with matplotlib (http://matplotlib.org/) -->
<svg height="306.373625pt" version="1.1" viewBox="0 0 415.294948 306.373625" width="415.294948pt" xmlns="http://www.w3.org/2000/svg" xmlns:xlink="http://www.w3.org/1999/xlink">
 <defs>
  <style type="text/css">
*{stroke-linecap:butt;stroke-linejoin:round;}
  </style>
 </defs>
 <g id="figure_1">
  <g id="patch_1">
   <path d="M 0 306.373625 
L 415.294948 306.373625 
L 415.294948 0 
L 0 0 
z
" style="fill:#ffffff;"/>
  </g>
  <g id="axes_1">
   <g id="patch_2">
    <path d="M 58.31375 255.98175 
L 393.11375 255.98175 
L 393.11375 38.54175 
L 58.31375 38.54175 
z
" style="fill:#eeeeee;"/>
   </g>
   <g id="patch_3">
    <path clip-path="url(#padcca14676)" d="M 73.531932 49319.746032 
L 76.606312 49319.746032 
L 76.606312 48.425386 
L 73.531932 48.425386 
z
" style="fill:#348abd;"/>
   </g>
   <g id="patch_4">
    <path clip-path="url(#padcca14676)" d="M 76.606312 49319.746032 
L 79.680692 49319.746032 
L 79.680692 60.45378 
L 76.606312 60.45378 
z
" style="fill:#348abd;"/>
   </g>
   <g id="patch_5">
    <path clip-path="url(#padcca14676)" d="M 79.680692 49319.746032 
L 82.755072 49319.746032 
L 82.755072 75.893658 
L 79.680692 75.893658 
z
" style="fill:#348abd;"/>
   </g>
   <g id="patch_6">
    <path clip-path="url(#padcca14676)" d="M 82.755072 49319.746032 
L 85.829452 49319.746032 
L 85.829452 86.044373 
L 82.755072 86.044373 
z
" style="fill:#348abd;"/>
   </g>
   <g id="patch_7">
    <path clip-path="url(#padcca14676)" d="M 85.829452 49319.746032 
L 88.903833 49319.746032 
L 88.903833 94.361488 
L 85.829452 94.361488 
z
" style="fill:#348abd;"/>
   </g>
   <g id="patch_8">
    <path clip-path="url(#padcca14676)" d="M 88.903833 49319.746032 
L 91.978213 49319.746032 
L 91.978213 102.265753 
L 88.903833 102.265753 
z
" style="fill:#348abd;"/>
   </g>
   <g id="patch_9">
    <path clip-path="url(#padcca14676)" d="M 91.978213 49319.746032 
L 95.052593 49319.746032 
L 95.052593 108.156787 
L 91.978213 108.156787 
z
" style="fill:#348abd;"/>
   </g>
   <g id="patch_10">
    <path clip-path="url(#padcca14676)" d="M 95.052593 49319.746032 
L 98.126973 49319.746032 
L 98.126973 114.387037 
L 95.052593 114.387037 
z
" style="fill:#348abd;"/>
   </g>
   <g id="patch_11">
    <path clip-path="url(#padcca14676)" d="M 98.126973 49319.746032 
L 101.201353 49319.746032 
L 101.201353 120.415526 
L 98.126973 120.415526 
z
" style="fill:#348abd;"/>
   </g>
   <g id="patch_12">
    <path clip-path="url(#padcca14676)" d="M 101.201353 49319.746032 
L 104.275733 49319.746032 
L 104.275733 124.679296 
L 101.201353 124.679296 
z
" style="fill:#348abd;"/>
   </g>
   <g id="patch_13">
    <path clip-path="url(#padcca14676)" d="M 104.275733 49319.746032 
L 107.350114 49319.746032 
L 107.350114 127.423248 
L 104.275733 127.423248 
z
" style="fill:#348abd;"/>
   </g>
   <g id="patch_14">
    <path clip-path="url(#padcca14676)" d="M 107.350114 49319.746032 
L 110.424494 49319.746032 
L 110.424494 131.243983 
L 107.350114 131.243983 
z
" style="fill:#348abd;"/>
   </g>
   <g id="patch_15">
    <path clip-path="url(#padcca14676)" d="M 110.424494 49319.746032 
L 113.498874 49319.746032 
L 113.498874 135.30559 
L 110.424494 135.30559 
z
" style="fill:#348abd;"/>
   </g>
   <g id="patch_16">
    <path clip-path="url(#padcca14676)" d="M 113.498874 49319.746032 
L 116.573254 49319.746032 
L 116.573254 136.024054 
L 113.498874 136.024054 
z
" style="fill:#348abd;"/>
   </g>
   <g id="patch_17">
    <path clip-path="url(#padcca14676)" d="M 116.573254 49319.746032 
L 119.647634 49319.746032 
L 119.647634 141.554864 
L 116.573254 141.554864 
z
" style="fill:#348abd;"/>
   </g>
   <g id="patch_18">
    <path clip-path="url(#padcca14676)" d="M 119.647634 49319.746032 
L 122.722014 49319.746032 
L 122.722014 143.025269 
L 119.647634 143.025269 
z
" style="fill:#348abd;"/>
   </g>
   <g id="patch_19">
    <path clip-path="url(#padcca14676)" d="M 122.722014 49319.746032 
L 125.796395 49319.746032 
L 125.796395 147.950818 
L 122.722014 147.950818 
z
" style="fill:#348abd;"/>
   </g>
   <g id="patch_20">
    <path clip-path="url(#padcca14676)" d="M 125.796395 49319.746032 
L 128.870775 49319.746032 
L 128.870775 150.675256 
L 125.796395 150.675256 
z
" style="fill:#348abd;"/>
   </g>
   <g id="patch_21">
    <path clip-path="url(#padcca14676)" d="M 128.870775 49319.746032 
L 131.945155 49319.746032 
L 131.945155 154.952033 
L 128.870775 154.952033 
z
" style="fill:#348abd;"/>
   </g>
   <g id="patch_22">
    <path clip-path="url(#padcca14676)" d="M 131.945155 49319.746032 
L 135.019535 49319.746032 
L 135.019535 155.250113 
L 131.945155 155.250113 
z
" style="fill:#348abd;"/>
   </g>
   <g id="patch_23">
    <path clip-path="url(#padcca14676)" d="M 135.019535 49319.746032 
L 138.093915 49319.746032 
L 138.093915 158.138915 
L 135.019535 158.138915 
z
" style="fill:#348abd;"/>
   </g>
   <g id="patch_24">
    <path clip-path="url(#padcca14676)" d="M 138.093915 49319.746032 
L 141.168295 49319.746032 
L 141.168295 158.485466 
L 138.093915 158.485466 
z
" style="fill:#348abd;"/>
   </g>
   <g id="patch_25">
    <path clip-path="url(#padcca14676)" d="M 141.168295 49319.746032 
L 144.242676 49319.746032 
L 144.242676 163.593473 
L 141.168295 163.593473 
z
" style="fill:#348abd;"/>
   </g>
   <g id="patch_26">
    <path clip-path="url(#padcca14676)" d="M 144.242676 49319.746032 
L 147.317056 49319.746032 
L 147.317056 158.837745 
L 144.242676 158.837745 
z
" style="fill:#348abd;"/>
   </g>
   <g id="patch_27">
    <path clip-path="url(#padcca14676)" d="M 147.317056 49319.746032 
L 150.391436 49319.746032 
L 150.391436 161.481607 
L 147.317056 161.481607 
z
" style="fill:#348abd;"/>
   </g>
   <g id="patch_28">
    <path clip-path="url(#padcca14676)" d="M 150.391436 49319.746032 
L 153.465816 49319.746032 
L 153.465816 170.325062 
L 150.391436 170.325062 
z
" style="fill:#348abd;"/>
   </g>
   <g id="patch_29">
    <path clip-path="url(#padcca14676)" d="M 153.465816 49319.746032 
L 156.540196 49319.746032 
L 156.540196 177.496098 
L 153.465816 177.496098 
z
" style="fill:#348abd;"/>
   </g>
   <g id="patch_30">
    <path clip-path="url(#padcca14676)" d="M 156.540196 49319.746032 
L 159.614576 49319.746032 
L 159.614576 171.579095 
L 156.540196 171.579095 
z
" style="fill:#348abd;"/>
   </g>
   <g id="patch_31">
    <path clip-path="url(#padcca14676)" d="M 159.614576 49319.746032 
L 162.688957 49319.746032 
L 162.688957 178.366113 
L 159.614576 178.366113 
z
" style="fill:#348abd;"/>
   </g>
   <g id="patch_32">
    <path clip-path="url(#padcca14676)" d="M 162.688957 49319.746032 
L 165.763337 49319.746032 
L 165.763337 181.211989 
L 162.688957 181.211989 
z
" style="fill:#348abd;"/>
   </g>
   <g id="patch_33">
    <path clip-path="url(#padcca14676)" d="M 165.763337 49319.746032 
L 168.837717 49319.746032 
L 168.837717 175.855872 
L 165.763337 175.855872 
z
" style="fill:#348abd;"/>
   </g>
   <g id="patch_34">
    <path clip-path="url(#padcca14676)" d="M 168.837717 49319.746032 
L 171.912097 49319.746032 
L 171.912097 177.496098 
L 168.837717 177.496098 
z
" style="fill:#348abd;"/>
   </g>
   <g id="patch_35">
    <path clip-path="url(#padcca14676)" d="M 171.912097 49319.746032 
L 174.986477 49319.746032 
L 174.986477 177.496098 
L 171.912097 177.496098 
z
" style="fill:#348abd;"/>
   </g>
   <g id="patch_36">
    <path clip-path="url(#padcca14676)" d="M 174.986477 49319.746032 
L 178.060857 49319.746032 
L 178.060857 180.220536 
L 174.986477 180.220536 
z
" style="fill:#348abd;"/>
   </g>
   <g id="patch_37">
    <path clip-path="url(#padcca14676)" d="M 178.060857 49319.746032 
L 181.135238 49319.746032 
L 181.135238 185.715496 
L 178.060857 185.715496 
z
" style="fill:#348abd;"/>
   </g>
   <g id="patch_38">
    <path clip-path="url(#padcca14676)" d="M 181.135238 49319.746032 
L 184.209618 49319.746032 
L 184.209618 191.43285 
L 181.135238 191.43285 
z
" style="fill:#348abd;"/>
   </g>
   <g id="patch_39">
    <path clip-path="url(#padcca14676)" d="M 184.209618 49319.746032 
L 187.283998 49319.746032 
L 187.283998 194.993176 
L 184.209618 194.993176 
z
" style="fill:#348abd;"/>
   </g>
   <g id="patch_40">
    <path clip-path="url(#padcca14676)" d="M 187.283998 49319.746032 
L 190.358378 49319.746032 
L 190.358378 189.85343 
L 187.283998 189.85343 
z
" style="fill:#348abd;"/>
   </g>
   <g id="patch_41">
    <path clip-path="url(#padcca14676)" d="M 190.358378 49319.746032 
L 193.432758 49319.746032 
L 193.432758 184.497313 
L 190.358378 184.497313 
z
" style="fill:#348abd;"/>
   </g>
   <g id="patch_42">
    <path clip-path="url(#padcca14676)" d="M 193.432758 49319.746032 
L 196.507138 49319.746032 
L 196.507138 199.269953 
L 193.432758 199.269953 
z
" style="fill:#348abd;"/>
   </g>
   <g id="patch_43">
    <path clip-path="url(#padcca14676)" d="M 196.507138 49319.746032 
L 199.581519 49319.746032 
L 199.581519 204.62607 
L 196.507138 204.62607 
z
" style="fill:#348abd;"/>
   </g>
   <g id="patch_44">
    <path clip-path="url(#padcca14676)" d="M 199.581519 49319.746032 
L 202.655899 49319.746032 
L 202.655899 201.780194 
L 199.581519 201.780194 
z
" style="fill:#348abd;"/>
   </g>
   <g id="patch_45">
    <path clip-path="url(#padcca14676)" d="M 202.655899 49319.746032 
L 205.730279 49319.746032 
L 205.730279 201.780194 
L 202.655899 201.780194 
z
" style="fill:#348abd;"/>
   </g>
   <g id="patch_46">
    <path clip-path="url(#padcca14676)" d="M 205.730279 49319.746032 
L 208.804659 49319.746032 
L 208.804659 193.138753 
L 205.730279 193.138753 
z
" style="fill:#348abd;"/>
   </g>
   <g id="patch_47">
    <path clip-path="url(#padcca14676)" d="M 208.804659 49319.746032 
L 211.879039 49319.746032 
L 211.879039 204.62607 
L 208.804659 204.62607 
z
" style="fill:#348abd;"/>
   </g>
   <g id="patch_48">
    <path clip-path="url(#padcca14676)" d="M 211.879039 49319.746032 
L 214.953419 49319.746032 
L 214.953419 207.911393 
L 211.879039 207.911393 
z
" style="fill:#348abd;"/>
   </g>
   <g id="patch_49">
    <path clip-path="url(#padcca14676)" d="M 214.953419 49319.746032 
L 218.0278 49319.746032 
L 218.0278 197.024466 
L 214.953419 197.024466 
z
" style="fill:#348abd;"/>
   </g>
   <g id="patch_50">
    <path clip-path="url(#padcca14676)" d="M 218.0278 49319.746032 
L 221.10218 49319.746032 
L 221.10218 204.62607 
L 218.0278 204.62607 
z
" style="fill:#348abd;"/>
   </g>
   <g id="patch_51">
    <path clip-path="url(#padcca14676)" d="M 221.10218 49319.746032 
L 224.17656 49319.746032 
L 224.17656 201.780194 
L 221.10218 201.780194 
z
" style="fill:#348abd;"/>
   </g>
   <g id="patch_52">
    <path clip-path="url(#padcca14676)" d="M 224.17656 49319.746032 
L 227.25094 49319.746032 
L 227.25094 211.797106 
L 224.17656 211.797106 
z
" style="fill:#348abd;"/>
   </g>
   <g id="patch_53">
    <path clip-path="url(#padcca14676)" d="M 227.25094 49319.746032 
L 230.32532 49319.746032 
L 230.32532 222.684033 
L 227.25094 222.684033 
z
" style="fill:#348abd;"/>
   </g>
   <g id="patch_54">
    <path clip-path="url(#padcca14676)" d="M 230.32532 49319.746032 
L 233.3997 49319.746032 
L 233.3997 231.325474 
L 230.32532 231.325474 
z
" style="fill:#348abd;"/>
   </g>
   <g id="patch_55">
    <path clip-path="url(#padcca14676)" d="M 233.3997 49319.746032 
L 236.474081 49319.746032 
L 236.474081 231.325474 
L 233.3997 231.325474 
z
" style="fill:#348abd;"/>
   </g>
   <g id="patch_56">
    <path clip-path="url(#padcca14676)" d="M 236.474081 49319.746032 
L 239.548461 49319.746032 
L 239.548461 207.911393 
L 236.474081 207.911393 
z
" style="fill:#348abd;"/>
   </g>
   <g id="patch_57">
    <path clip-path="url(#padcca14676)" d="M 239.548461 49319.746032 
L 242.622841 49319.746032 
L 242.622841 211.797106 
L 239.548461 211.797106 
z
" style="fill:#348abd;"/>
   </g>
   <g id="patch_58">
    <path clip-path="url(#padcca14676)" d="M 242.622841 49319.746032 
L 245.697221 49319.746032 
L 245.697221 222.684033 
L 242.622841 222.684033 
z
" style="fill:#348abd;"/>
   </g>
   <g id="patch_59">
    <path clip-path="url(#padcca14676)" d="M 245.697221 49319.746032 
L 248.771601 49319.746032 
L 248.771601 211.797106 
L 245.697221 211.797106 
z
" style="fill:#348abd;"/>
   </g>
   <g id="patch_60">
    <path clip-path="url(#padcca14676)" d="M 248.771601 49319.746032 
L 251.845981 49319.746032 
L 251.845981 199.269953 
L 248.771601 199.269953 
z
" style="fill:#348abd;"/>
   </g>
   <g id="patch_61">
    <path clip-path="url(#padcca14676)" d="M 251.845981 49319.746032 
L 254.920362 49319.746032 
L 254.920362 216.552834 
L 251.845981 216.552834 
z
" style="fill:#348abd;"/>
   </g>
   <g id="patch_62">
    <path clip-path="url(#padcca14676)" d="M 254.920362 49319.746032 
L 257.994742 49319.746032 
L 257.994742 246.098114 
L 254.920362 246.098114 
z
" style="fill:#348abd;"/>
   </g>
   <g id="patch_63">
    <path clip-path="url(#padcca14676)" d="M 257.994742 49319.746032 
L 261.069122 49319.746032 
L 261.069122 207.911393 
L 257.994742 207.911393 
z
" style="fill:#348abd;"/>
   </g>
   <g id="patch_64">
    <path clip-path="url(#padcca14676)" d="M 261.069122 49319.746032 
L 264.143502 49319.746032 
L 264.143502 222.684033 
L 261.069122 222.684033 
z
" style="fill:#348abd;"/>
   </g>
   <g id="patch_65">
    <path clip-path="url(#padcca14676)" d="M 264.143502 49319.746032 
L 267.217882 49319.746032 
L 267.217882 246.098114 
L 264.143502 246.098114 
z
" style="fill:#348abd;"/>
   </g>
   <g id="patch_66">
    <path clip-path="url(#padcca14676)" d="M 267.217882 49319.746032 
L 270.292262 49319.746032 
L 270.292262 216.552834 
L 267.217882 216.552834 
z
" style="fill:#348abd;"/>
   </g>
   <g id="patch_67">
    <path clip-path="url(#padcca14676)" d="M 270.292262 49319.746032 
L 273.366643 49319.746032 
L 273.366643 246.098114 
L 270.292262 246.098114 
z
" style="fill:#348abd;"/>
   </g>
   <g id="patch_68">
    <path clip-path="url(#padcca14676)" d="M 273.366643 49319.746032 
L 276.441023 49319.746032 
L 276.441023 216.552834 
L 273.366643 216.552834 
z
" style="fill:#348abd;"/>
   </g>
   <g id="patch_69">
    <path clip-path="url(#padcca14676)" d="M 276.441023 49319.746032 
L 279.515403 49319.746032 
L 279.515403 246.098114 
L 276.441023 246.098114 
z
" style="fill:#348abd;"/>
   </g>
   <g id="patch_70">
    <path clip-path="url(#padcca14676)" d="M 279.515403 49319.746032 
L 282.589783 49319.746032 
L 282.589783 222.684033 
L 279.515403 222.684033 
z
" style="fill:#348abd;"/>
   </g>
   <g id="patch_71">
    <path clip-path="url(#padcca14676)" d="M 282.589783 49319.746032 
L 285.664163 49319.746032 
L 285.664163 211.797106 
L 282.589783 211.797106 
z
" style="fill:#348abd;"/>
   </g>
   <g id="patch_72">
    <path clip-path="url(#padcca14676)" d="M 285.664163 49319.746032 
L 288.738543 49319.746032 
L 288.738543 231.325474 
L 285.664163 231.325474 
z
" style="fill:#348abd;"/>
   </g>
   <g id="patch_73">
    <path clip-path="url(#padcca14676)" d="M 288.738543 49319.746032 
L 291.812924 49319.746032 
L 291.812924 216.552834 
L 288.738543 216.552834 
z
" style="fill:#348abd;"/>
   </g>
   <g id="patch_74">
    <path clip-path="url(#padcca14676)" d="M 291.812924 49319.746032 
L 294.887304 49319.746032 
L 294.887304 222.684033 
L 291.812924 222.684033 
z
" style="fill:#348abd;"/>
   </g>
   <g id="patch_75">
    <path clip-path="url(#padcca14676)" d="M 294.887304 49319.746032 
L 297.961684 49319.746032 
L 297.961684 231.325474 
L 294.887304 231.325474 
z
" style="fill:#348abd;"/>
   </g>
   <g id="patch_76">
    <path clip-path="url(#padcca14676)" d="M 297.961684 49319.746032 
L 301.036064 49319.746032 
L 301.036064 231.325474 
L 297.961684 231.325474 
z
" style="fill:#348abd;"/>
   </g>
   <g id="patch_77">
    <path clip-path="url(#padcca14676)" d="M 301.036064 49319.746032 
L 304.110444 49319.746032 
L 304.110444 49319.746032 
L 301.036064 49319.746032 
z
" style="fill:#348abd;"/>
   </g>
   <g id="patch_78">
    <path clip-path="url(#padcca14676)" d="M 304.110444 49319.746032 
L 307.184824 49319.746032 
L 307.184824 49319.746032 
L 304.110444 49319.746032 
z
" style="fill:#348abd;"/>
   </g>
   <g id="patch_79">
    <path clip-path="url(#padcca14676)" d="M 307.184824 49319.746032 
L 310.259205 49319.746032 
L 310.259205 231.325474 
L 307.184824 231.325474 
z
" style="fill:#348abd;"/>
   </g>
   <g id="patch_80">
    <path clip-path="url(#padcca14676)" d="M 310.259205 49319.746032 
L 313.333585 49319.746032 
L 313.333585 222.684033 
L 310.259205 222.684033 
z
" style="fill:#348abd;"/>
   </g>
   <g id="patch_81">
    <path clip-path="url(#padcca14676)" d="M 313.333585 49319.746032 
L 316.407965 49319.746032 
L 316.407965 231.325474 
L 313.333585 231.325474 
z
" style="fill:#348abd;"/>
   </g>
   <g id="patch_82">
    <path clip-path="url(#padcca14676)" d="M 316.407965 49319.746032 
L 319.482345 49319.746032 
L 319.482345 49319.746032 
L 316.407965 49319.746032 
z
" style="fill:#348abd;"/>
   </g>
   <g id="patch_83">
    <path clip-path="url(#padcca14676)" d="M 319.482345 49319.746032 
L 322.556725 49319.746032 
L 322.556725 231.325474 
L 319.482345 231.325474 
z
" style="fill:#348abd;"/>
   </g>
   <g id="patch_84">
    <path clip-path="url(#padcca14676)" d="M 322.556725 49319.746032 
L 325.631105 49319.746032 
L 325.631105 231.325474 
L 322.556725 231.325474 
z
" style="fill:#348abd;"/>
   </g>
   <g id="patch_85">
    <path clip-path="url(#padcca14676)" d="M 325.631105 49319.746032 
L 328.705486 49319.746032 
L 328.705486 231.325474 
L 325.631105 231.325474 
z
" style="fill:#348abd;"/>
   </g>
   <g id="patch_86">
    <path clip-path="url(#padcca14676)" d="M 328.705486 49319.746032 
L 331.779866 49319.746032 
L 331.779866 246.098114 
L 328.705486 246.098114 
z
" style="fill:#348abd;"/>
   </g>
   <g id="patch_87">
    <path clip-path="url(#padcca14676)" d="M 331.779866 49319.746032 
L 334.854246 49319.746032 
L 334.854246 231.325474 
L 331.779866 231.325474 
z
" style="fill:#348abd;"/>
   </g>
   <g id="patch_88">
    <path clip-path="url(#padcca14676)" d="M 334.854246 49319.746032 
L 337.928626 49319.746032 
L 337.928626 49319.746032 
L 334.854246 49319.746032 
z
" style="fill:#348abd;"/>
   </g>
   <g id="patch_89">
    <path clip-path="url(#padcca14676)" d="M 337.928626 49319.746032 
L 341.003006 49319.746032 
L 341.003006 246.098114 
L 337.928626 246.098114 
z
" style="fill:#348abd;"/>
   </g>
   <g id="patch_90">
    <path clip-path="url(#padcca14676)" d="M 341.003006 49319.746032 
L 344.077386 49319.746032 
L 344.077386 246.098114 
L 341.003006 246.098114 
z
" style="fill:#348abd;"/>
   </g>
   <g id="patch_91">
    <path clip-path="url(#padcca14676)" d="M 344.077386 49319.746032 
L 347.151767 49319.746032 
L 347.151767 246.098114 
L 344.077386 246.098114 
z
" style="fill:#348abd;"/>
   </g>
   <g id="patch_92">
    <path clip-path="url(#padcca14676)" d="M 347.151767 49319.746032 
L 350.226147 49319.746032 
L 350.226147 246.098114 
L 347.151767 246.098114 
z
" style="fill:#348abd;"/>
   </g>
   <g id="patch_93">
    <path clip-path="url(#padcca14676)" d="M 350.226147 49319.746032 
L 353.300527 49319.746032 
L 353.300527 231.325474 
L 350.226147 231.325474 
z
" style="fill:#348abd;"/>
   </g>
   <g id="patch_94">
    <path clip-path="url(#padcca14676)" d="M 353.300527 49319.746032 
L 356.374907 49319.746032 
L 356.374907 246.098114 
L 353.300527 246.098114 
z
" style="fill:#348abd;"/>
   </g>
   <g id="patch_95">
    <path clip-path="url(#padcca14676)" d="M 356.374907 49319.746032 
L 359.449287 49319.746032 
L 359.449287 49319.746032 
L 356.374907 49319.746032 
z
" style="fill:#348abd;"/>
   </g>
   <g id="patch_96">
    <path clip-path="url(#padcca14676)" d="M 359.449287 49319.746032 
L 362.523667 49319.746032 
L 362.523667 246.098114 
L 359.449287 246.098114 
z
" style="fill:#348abd;"/>
   </g>
   <g id="patch_97">
    <path clip-path="url(#padcca14676)" d="M 362.523667 49319.746032 
L 365.598048 49319.746032 
L 365.598048 49319.746032 
L 362.523667 49319.746032 
z
" style="fill:#348abd;"/>
   </g>
   <g id="patch_98">
    <path clip-path="url(#padcca14676)" d="M 365.598048 49319.746032 
L 368.672428 49319.746032 
L 368.672428 222.684033 
L 365.598048 222.684033 
z
" style="fill:#348abd;"/>
   </g>
   <g id="patch_99">
    <path clip-path="url(#padcca14676)" d="M 368.672428 49319.746032 
L 371.746808 49319.746032 
L 371.746808 49319.746032 
L 368.672428 49319.746032 
z
" style="fill:#348abd;"/>
   </g>
   <g id="patch_100">
    <path clip-path="url(#padcca14676)" d="M 371.746808 49319.746032 
L 374.821188 49319.746032 
L 374.821188 231.325474 
L 371.746808 231.325474 
z
" style="fill:#348abd;"/>
   </g>
   <g id="patch_101">
    <path clip-path="url(#padcca14676)" d="M 374.821188 49319.746032 
L 377.895568 49319.746032 
L 377.895568 246.098114 
L 374.821188 246.098114 
z
" style="fill:#348abd;"/>
   </g>
   <g id="matplotlib.axis_1">
    <g id="xtick_1">
     <g id="line2d_1">
      <path clip-path="url(#padcca14676)" d="M 73.531932 255.98175 
L 73.531932 38.54175 
" style="fill:none;stroke:#b2b2b2;stroke-dasharray:1.85,0.8;stroke-dashoffset:0;stroke-width:0.5;"/>
     </g>
     <g id="line2d_2">
      <defs>
       <path d="M 0 0 
L 0 -3.5 
" id="me29a873b72" style="stroke:#000000;stroke-width:0.8;"/>
      </defs>
      <g>
       <use style="stroke:#000000;stroke-width:0.8;" x="73.531932" xlink:href="#me29a873b72" y="255.98175"/>
      </g>
     </g>
     <g id="text_1">
      <!-- 0 -->
      <defs>
       <path d="M 31.78125 66.40625 
Q 24.171875 66.40625 20.328125 58.90625 
Q 16.5 51.421875 16.5 36.375 
Q 16.5 21.390625 20.328125 13.890625 
Q 24.171875 6.390625 31.78125 6.390625 
Q 39.453125 6.390625 43.28125 13.890625 
Q 47.125 21.390625 47.125 36.375 
Q 47.125 51.421875 43.28125 58.90625 
Q 39.453125 66.40625 31.78125 66.40625 
z
M 31.78125 74.21875 
Q 44.046875 74.21875 50.515625 64.515625 
Q 56.984375 54.828125 56.984375 36.375 
Q 56.984375 17.96875 50.515625 8.265625 
Q 44.046875 -1.421875 31.78125 -1.421875 
Q 19.53125 -1.421875 13.0625 8.265625 
Q 6.59375 17.96875 6.59375 36.375 
Q 6.59375 54.828125 13.0625 64.515625 
Q 19.53125 74.21875 31.78125 74.21875 
z
" id="DejaVuSans-30"/>
      </defs>
      <g transform="translate(70.350682 267.080187)scale(0.1 -0.1)">
       <use xlink:href="#DejaVuSans-30"/>
      </g>
     </g>
    </g>
    <g id="xtick_2">
     <g id="line2d_3">
      <path clip-path="url(#padcca14676)" d="M 135.019535 255.98175 
L 135.019535 38.54175 
" style="fill:none;stroke:#b2b2b2;stroke-dasharray:1.85,0.8;stroke-dashoffset:0;stroke-width:0.5;"/>
     </g>
     <g id="line2d_4">
      <g>
       <use style="stroke:#000000;stroke-width:0.8;" x="135.019535" xlink:href="#me29a873b72" y="255.98175"/>
      </g>
     </g>
     <g id="text_2">
      <!-- 200 -->
      <defs>
       <path d="M 19.1875 8.296875 
L 53.609375 8.296875 
L 53.609375 0 
L 7.328125 0 
L 7.328125 8.296875 
Q 12.9375 14.109375 22.625 23.890625 
Q 32.328125 33.6875 34.8125 36.53125 
Q 39.546875 41.84375 41.421875 45.53125 
Q 43.3125 49.21875 43.3125 52.78125 
Q 43.3125 58.59375 39.234375 62.25 
Q 35.15625 65.921875 28.609375 65.921875 
Q 23.96875 65.921875 18.8125 64.3125 
Q 13.671875 62.703125 7.8125 59.421875 
L 7.8125 69.390625 
Q 13.765625 71.78125 18.9375 73 
Q 24.125 74.21875 28.421875 74.21875 
Q 39.75 74.21875 46.484375 68.546875 
Q 53.21875 62.890625 53.21875 53.421875 
Q 53.21875 48.921875 51.53125 44.890625 
Q 49.859375 40.875 45.40625 35.40625 
Q 44.1875 33.984375 37.640625 27.21875 
Q 31.109375 20.453125 19.1875 8.296875 
z
" id="DejaVuSans-32"/>
      </defs>
      <g transform="translate(125.475785 267.080187)scale(0.1 -0.1)">
       <use xlink:href="#DejaVuSans-32"/>
       <use x="63.623047" xlink:href="#DejaVuSans-30"/>
       <use x="127.246094" xlink:href="#DejaVuSans-30"/>
      </g>
     </g>
    </g>
    <g id="xtick_3">
     <g id="line2d_5">
      <path clip-path="url(#padcca14676)" d="M 196.507138 255.98175 
L 196.507138 38.54175 
" style="fill:none;stroke:#b2b2b2;stroke-dasharray:1.85,0.8;stroke-dashoffset:0;stroke-width:0.5;"/>
     </g>
     <g id="line2d_6">
      <g>
       <use style="stroke:#000000;stroke-width:0.8;" x="196.507138" xlink:href="#me29a873b72" y="255.98175"/>
      </g>
     </g>
     <g id="text_3">
      <!-- 400 -->
      <defs>
       <path d="M 37.796875 64.3125 
L 12.890625 25.390625 
L 37.796875 25.390625 
z
M 35.203125 72.90625 
L 47.609375 72.90625 
L 47.609375 25.390625 
L 58.015625 25.390625 
L 58.015625 17.1875 
L 47.609375 17.1875 
L 47.609375 0 
L 37.796875 0 
L 37.796875 17.1875 
L 4.890625 17.1875 
L 4.890625 26.703125 
z
" id="DejaVuSans-34"/>
      </defs>
      <g transform="translate(186.963388 267.080187)scale(0.1 -0.1)">
       <use xlink:href="#DejaVuSans-34"/>
       <use x="63.623047" xlink:href="#DejaVuSans-30"/>
       <use x="127.246094" xlink:href="#DejaVuSans-30"/>
      </g>
     </g>
    </g>
    <g id="xtick_4">
     <g id="line2d_7">
      <path clip-path="url(#padcca14676)" d="M 257.994742 255.98175 
L 257.994742 38.54175 
" style="fill:none;stroke:#b2b2b2;stroke-dasharray:1.85,0.8;stroke-dashoffset:0;stroke-width:0.5;"/>
     </g>
     <g id="line2d_8">
      <g>
       <use style="stroke:#000000;stroke-width:0.8;" x="257.994742" xlink:href="#me29a873b72" y="255.98175"/>
      </g>
     </g>
     <g id="text_4">
      <!-- 600 -->
      <defs>
       <path d="M 33.015625 40.375 
Q 26.375 40.375 22.484375 35.828125 
Q 18.609375 31.296875 18.609375 23.390625 
Q 18.609375 15.53125 22.484375 10.953125 
Q 26.375 6.390625 33.015625 6.390625 
Q 39.65625 6.390625 43.53125 10.953125 
Q 47.40625 15.53125 47.40625 23.390625 
Q 47.40625 31.296875 43.53125 35.828125 
Q 39.65625 40.375 33.015625 40.375 
z
M 52.59375 71.296875 
L 52.59375 62.3125 
Q 48.875 64.0625 45.09375 64.984375 
Q 41.3125 65.921875 37.59375 65.921875 
Q 27.828125 65.921875 22.671875 59.328125 
Q 17.53125 52.734375 16.796875 39.40625 
Q 19.671875 43.65625 24.015625 45.921875 
Q 28.375 48.1875 33.59375 48.1875 
Q 44.578125 48.1875 50.953125 41.515625 
Q 57.328125 34.859375 57.328125 23.390625 
Q 57.328125 12.15625 50.6875 5.359375 
Q 44.046875 -1.421875 33.015625 -1.421875 
Q 20.359375 -1.421875 13.671875 8.265625 
Q 6.984375 17.96875 6.984375 36.375 
Q 6.984375 53.65625 15.1875 63.9375 
Q 23.390625 74.21875 37.203125 74.21875 
Q 40.921875 74.21875 44.703125 73.484375 
Q 48.484375 72.75 52.59375 71.296875 
z
" id="DejaVuSans-36"/>
      </defs>
      <g transform="translate(248.450992 267.080187)scale(0.1 -0.1)">
       <use xlink:href="#DejaVuSans-36"/>
       <use x="63.623047" xlink:href="#DejaVuSans-30"/>
       <use x="127.246094" xlink:href="#DejaVuSans-30"/>
      </g>
     </g>
    </g>
    <g id="xtick_5">
     <g id="line2d_9">
      <path clip-path="url(#padcca14676)" d="M 319.482345 255.98175 
L 319.482345 38.54175 
" style="fill:none;stroke:#b2b2b2;stroke-dasharray:1.85,0.8;stroke-dashoffset:0;stroke-width:0.5;"/>
     </g>
     <g id="line2d_10">
      <g>
       <use style="stroke:#000000;stroke-width:0.8;" x="319.482345" xlink:href="#me29a873b72" y="255.98175"/>
      </g>
     </g>
     <g id="text_5">
      <!-- 800 -->
      <defs>
       <path d="M 31.78125 34.625 
Q 24.75 34.625 20.71875 30.859375 
Q 16.703125 27.09375 16.703125 20.515625 
Q 16.703125 13.921875 20.71875 10.15625 
Q 24.75 6.390625 31.78125 6.390625 
Q 38.8125 6.390625 42.859375 10.171875 
Q 46.921875 13.96875 46.921875 20.515625 
Q 46.921875 27.09375 42.890625 30.859375 
Q 38.875 34.625 31.78125 34.625 
z
M 21.921875 38.8125 
Q 15.578125 40.375 12.03125 44.71875 
Q 8.5 49.078125 8.5 55.328125 
Q 8.5 64.0625 14.71875 69.140625 
Q 20.953125 74.21875 31.78125 74.21875 
Q 42.671875 74.21875 48.875 69.140625 
Q 55.078125 64.0625 55.078125 55.328125 
Q 55.078125 49.078125 51.53125 44.71875 
Q 48 40.375 41.703125 38.8125 
Q 48.828125 37.15625 52.796875 32.3125 
Q 56.78125 27.484375 56.78125 20.515625 
Q 56.78125 9.90625 50.3125 4.234375 
Q 43.84375 -1.421875 31.78125 -1.421875 
Q 19.734375 -1.421875 13.25 4.234375 
Q 6.78125 9.90625 6.78125 20.515625 
Q 6.78125 27.484375 10.78125 32.3125 
Q 14.796875 37.15625 21.921875 38.8125 
z
M 18.3125 54.390625 
Q 18.3125 48.734375 21.84375 45.5625 
Q 25.390625 42.390625 31.78125 42.390625 
Q 38.140625 42.390625 41.71875 45.5625 
Q 45.3125 48.734375 45.3125 54.390625 
Q 45.3125 60.0625 41.71875 63.234375 
Q 38.140625 66.40625 31.78125 66.40625 
Q 25.390625 66.40625 21.84375 63.234375 
Q 18.3125 60.0625 18.3125 54.390625 
z
" id="DejaVuSans-38"/>
      </defs>
      <g transform="translate(309.938595 267.080187)scale(0.1 -0.1)">
       <use xlink:href="#DejaVuSans-38"/>
       <use x="63.623047" xlink:href="#DejaVuSans-30"/>
       <use x="127.246094" xlink:href="#DejaVuSans-30"/>
      </g>
     </g>
    </g>
    <g id="xtick_6">
     <g id="line2d_11">
      <path clip-path="url(#padcca14676)" d="M 380.969948 255.98175 
L 380.969948 38.54175 
" style="fill:none;stroke:#b2b2b2;stroke-dasharray:1.85,0.8;stroke-dashoffset:0;stroke-width:0.5;"/>
     </g>
     <g id="line2d_12">
      <g>
       <use style="stroke:#000000;stroke-width:0.8;" x="380.969948" xlink:href="#me29a873b72" y="255.98175"/>
      </g>
     </g>
     <g id="text_6">
      <!-- 1000 -->
      <defs>
       <path d="M 12.40625 8.296875 
L 28.515625 8.296875 
L 28.515625 63.921875 
L 10.984375 60.40625 
L 10.984375 69.390625 
L 28.421875 72.90625 
L 38.28125 72.90625 
L 38.28125 8.296875 
L 54.390625 8.296875 
L 54.390625 0 
L 12.40625 0 
z
" id="DejaVuSans-31"/>
      </defs>
      <g transform="translate(368.244948 267.080187)scale(0.1 -0.1)">
       <use xlink:href="#DejaVuSans-31"/>
       <use x="63.623047" xlink:href="#DejaVuSans-30"/>
       <use x="127.246094" xlink:href="#DejaVuSans-30"/>
       <use x="190.869141" xlink:href="#DejaVuSans-30"/>
      </g>
     </g>
    </g>
    <g id="text_7">
     <!-- cantidad de usuarios -->
     <defs>
      <path d="M 48.78125 52.59375 
L 48.78125 44.1875 
Q 44.96875 46.296875 41.140625 47.34375 
Q 37.3125 48.390625 33.40625 48.390625 
Q 24.65625 48.390625 19.8125 42.84375 
Q 14.984375 37.3125 14.984375 27.296875 
Q 14.984375 17.28125 19.8125 11.734375 
Q 24.65625 6.203125 33.40625 6.203125 
Q 37.3125 6.203125 41.140625 7.25 
Q 44.96875 8.296875 48.78125 10.40625 
L 48.78125 2.09375 
Q 45.015625 0.34375 40.984375 -0.53125 
Q 36.96875 -1.421875 32.421875 -1.421875 
Q 20.0625 -1.421875 12.78125 6.34375 
Q 5.515625 14.109375 5.515625 27.296875 
Q 5.515625 40.671875 12.859375 48.328125 
Q 20.21875 56 33.015625 56 
Q 37.15625 56 41.109375 55.140625 
Q 45.0625 54.296875 48.78125 52.59375 
z
" id="DejaVuSans-63"/>
      <path d="M 34.28125 27.484375 
Q 23.390625 27.484375 19.1875 25 
Q 14.984375 22.515625 14.984375 16.5 
Q 14.984375 11.71875 18.140625 8.90625 
Q 21.296875 6.109375 26.703125 6.109375 
Q 34.1875 6.109375 38.703125 11.40625 
Q 43.21875 16.703125 43.21875 25.484375 
L 43.21875 27.484375 
z
M 52.203125 31.203125 
L 52.203125 0 
L 43.21875 0 
L 43.21875 8.296875 
Q 40.140625 3.328125 35.546875 0.953125 
Q 30.953125 -1.421875 24.3125 -1.421875 
Q 15.921875 -1.421875 10.953125 3.296875 
Q 6 8.015625 6 15.921875 
Q 6 25.140625 12.171875 29.828125 
Q 18.359375 34.515625 30.609375 34.515625 
L 43.21875 34.515625 
L 43.21875 35.40625 
Q 43.21875 41.609375 39.140625 45 
Q 35.0625 48.390625 27.6875 48.390625 
Q 23 48.390625 18.546875 47.265625 
Q 14.109375 46.140625 10.015625 43.890625 
L 10.015625 52.203125 
Q 14.9375 54.109375 19.578125 55.046875 
Q 24.21875 56 28.609375 56 
Q 40.484375 56 46.34375 49.84375 
Q 52.203125 43.703125 52.203125 31.203125 
z
" id="DejaVuSans-61"/>
      <path d="M 54.890625 33.015625 
L 54.890625 0 
L 45.90625 0 
L 45.90625 32.71875 
Q 45.90625 40.484375 42.875 44.328125 
Q 39.84375 48.1875 33.796875 48.1875 
Q 26.515625 48.1875 22.3125 43.546875 
Q 18.109375 38.921875 18.109375 30.90625 
L 18.109375 0 
L 9.078125 0 
L 9.078125 54.6875 
L 18.109375 54.6875 
L 18.109375 46.1875 
Q 21.34375 51.125 25.703125 53.5625 
Q 30.078125 56 35.796875 56 
Q 45.21875 56 50.046875 50.171875 
Q 54.890625 44.34375 54.890625 33.015625 
z
" id="DejaVuSans-6e"/>
      <path d="M 18.3125 70.21875 
L 18.3125 54.6875 
L 36.8125 54.6875 
L 36.8125 47.703125 
L 18.3125 47.703125 
L 18.3125 18.015625 
Q 18.3125 11.328125 20.140625 9.421875 
Q 21.96875 7.515625 27.59375 7.515625 
L 36.8125 7.515625 
L 36.8125 0 
L 27.59375 0 
Q 17.1875 0 13.234375 3.875 
Q 9.28125 7.765625 9.28125 18.015625 
L 9.28125 47.703125 
L 2.6875 47.703125 
L 2.6875 54.6875 
L 9.28125 54.6875 
L 9.28125 70.21875 
z
" id="DejaVuSans-74"/>
      <path d="M 9.421875 54.6875 
L 18.40625 54.6875 
L 18.40625 0 
L 9.421875 0 
z
M 9.421875 75.984375 
L 18.40625 75.984375 
L 18.40625 64.59375 
L 9.421875 64.59375 
z
" id="DejaVuSans-69"/>
      <path d="M 45.40625 46.390625 
L 45.40625 75.984375 
L 54.390625 75.984375 
L 54.390625 0 
L 45.40625 0 
L 45.40625 8.203125 
Q 42.578125 3.328125 38.25 0.953125 
Q 33.9375 -1.421875 27.875 -1.421875 
Q 17.96875 -1.421875 11.734375 6.484375 
Q 5.515625 14.40625 5.515625 27.296875 
Q 5.515625 40.1875 11.734375 48.09375 
Q 17.96875 56 27.875 56 
Q 33.9375 56 38.25 53.625 
Q 42.578125 51.265625 45.40625 46.390625 
z
M 14.796875 27.296875 
Q 14.796875 17.390625 18.875 11.75 
Q 22.953125 6.109375 30.078125 6.109375 
Q 37.203125 6.109375 41.296875 11.75 
Q 45.40625 17.390625 45.40625 27.296875 
Q 45.40625 37.203125 41.296875 42.84375 
Q 37.203125 48.484375 30.078125 48.484375 
Q 22.953125 48.484375 18.875 42.84375 
Q 14.796875 37.203125 14.796875 27.296875 
z
" id="DejaVuSans-64"/>
      <path id="DejaVuSans-20"/>
      <path d="M 56.203125 29.59375 
L 56.203125 25.203125 
L 14.890625 25.203125 
Q 15.484375 15.921875 20.484375 11.0625 
Q 25.484375 6.203125 34.421875 6.203125 
Q 39.59375 6.203125 44.453125 7.46875 
Q 49.3125 8.734375 54.109375 11.28125 
L 54.109375 2.78125 
Q 49.265625 0.734375 44.1875 -0.34375 
Q 39.109375 -1.421875 33.890625 -1.421875 
Q 20.796875 -1.421875 13.15625 6.1875 
Q 5.515625 13.8125 5.515625 26.8125 
Q 5.515625 40.234375 12.765625 48.109375 
Q 20.015625 56 32.328125 56 
Q 43.359375 56 49.78125 48.890625 
Q 56.203125 41.796875 56.203125 29.59375 
z
M 47.21875 32.234375 
Q 47.125 39.59375 43.09375 43.984375 
Q 39.0625 48.390625 32.421875 48.390625 
Q 24.90625 48.390625 20.390625 44.140625 
Q 15.875 39.890625 15.1875 32.171875 
z
" id="DejaVuSans-65"/>
      <path d="M 8.5 21.578125 
L 8.5 54.6875 
L 17.484375 54.6875 
L 17.484375 21.921875 
Q 17.484375 14.15625 20.5 10.265625 
Q 23.53125 6.390625 29.59375 6.390625 
Q 36.859375 6.390625 41.078125 11.03125 
Q 45.3125 15.671875 45.3125 23.6875 
L 45.3125 54.6875 
L 54.296875 54.6875 
L 54.296875 0 
L 45.3125 0 
L 45.3125 8.40625 
Q 42.046875 3.421875 37.71875 1 
Q 33.40625 -1.421875 27.6875 -1.421875 
Q 18.265625 -1.421875 13.375 4.4375 
Q 8.5 10.296875 8.5 21.578125 
z
M 31.109375 56 
z
" id="DejaVuSans-75"/>
      <path d="M 44.28125 53.078125 
L 44.28125 44.578125 
Q 40.484375 46.53125 36.375 47.5 
Q 32.28125 48.484375 27.875 48.484375 
Q 21.1875 48.484375 17.84375 46.4375 
Q 14.5 44.390625 14.5 40.28125 
Q 14.5 37.15625 16.890625 35.375 
Q 19.28125 33.59375 26.515625 31.984375 
L 29.59375 31.296875 
Q 39.15625 29.25 43.1875 25.515625 
Q 47.21875 21.78125 47.21875 15.09375 
Q 47.21875 7.46875 41.1875 3.015625 
Q 35.15625 -1.421875 24.609375 -1.421875 
Q 20.21875 -1.421875 15.453125 -0.5625 
Q 10.6875 0.296875 5.421875 2 
L 5.421875 11.28125 
Q 10.40625 8.6875 15.234375 7.390625 
Q 20.0625 6.109375 24.8125 6.109375 
Q 31.15625 6.109375 34.5625 8.28125 
Q 37.984375 10.453125 37.984375 14.40625 
Q 37.984375 18.0625 35.515625 20.015625 
Q 33.0625 21.96875 24.703125 23.78125 
L 21.578125 24.515625 
Q 13.234375 26.265625 9.515625 29.90625 
Q 5.8125 33.546875 5.8125 39.890625 
Q 5.8125 47.609375 11.28125 51.796875 
Q 16.75 56 26.8125 56 
Q 31.78125 56 36.171875 55.265625 
Q 40.578125 54.546875 44.28125 53.078125 
z
" id="DejaVuSans-73"/>
      <path d="M 41.109375 46.296875 
Q 39.59375 47.171875 37.8125 47.578125 
Q 36.03125 48 33.890625 48 
Q 26.265625 48 22.1875 43.046875 
Q 18.109375 38.09375 18.109375 28.8125 
L 18.109375 0 
L 9.078125 0 
L 9.078125 54.6875 
L 18.109375 54.6875 
L 18.109375 46.1875 
Q 20.953125 51.171875 25.484375 53.578125 
Q 30.03125 56 36.53125 56 
Q 37.453125 56 38.578125 55.875 
Q 39.703125 55.765625 41.0625 55.515625 
z
" id="DejaVuSans-72"/>
      <path d="M 30.609375 48.390625 
Q 23.390625 48.390625 19.1875 42.75 
Q 14.984375 37.109375 14.984375 27.296875 
Q 14.984375 17.484375 19.15625 11.84375 
Q 23.34375 6.203125 30.609375 6.203125 
Q 37.796875 6.203125 41.984375 11.859375 
Q 46.1875 17.53125 46.1875 27.296875 
Q 46.1875 37.015625 41.984375 42.703125 
Q 37.796875 48.390625 30.609375 48.390625 
z
M 30.609375 56 
Q 42.328125 56 49.015625 48.375 
Q 55.71875 40.765625 55.71875 27.296875 
Q 55.71875 13.875 49.015625 6.21875 
Q 42.328125 -1.421875 30.609375 -1.421875 
Q 18.84375 -1.421875 12.171875 6.21875 
Q 5.515625 13.875 5.515625 27.296875 
Q 5.515625 40.765625 12.171875 48.375 
Q 18.84375 56 30.609375 56 
z
" id="DejaVuSans-6f"/>
     </defs>
     <g transform="translate(162.96875 282.278)scale(0.12 -0.12)">
      <use xlink:href="#DejaVuSans-63"/>
      <use x="54.980469" xlink:href="#DejaVuSans-61"/>
      <use x="116.259766" xlink:href="#DejaVuSans-6e"/>
      <use x="179.638672" xlink:href="#DejaVuSans-74"/>
      <use x="218.847656" xlink:href="#DejaVuSans-69"/>
      <use x="246.630859" xlink:href="#DejaVuSans-64"/>
      <use x="310.107422" xlink:href="#DejaVuSans-61"/>
      <use x="371.386719" xlink:href="#DejaVuSans-64"/>
      <use x="434.863281" xlink:href="#DejaVuSans-20"/>
      <use x="466.650391" xlink:href="#DejaVuSans-64"/>
      <use x="530.126953" xlink:href="#DejaVuSans-65"/>
      <use x="591.650391" xlink:href="#DejaVuSans-20"/>
      <use x="623.4375" xlink:href="#DejaVuSans-75"/>
      <use x="686.816406" xlink:href="#DejaVuSans-73"/>
      <use x="738.916016" xlink:href="#DejaVuSans-75"/>
      <use x="802.294922" xlink:href="#DejaVuSans-61"/>
      <use x="863.574219" xlink:href="#DejaVuSans-72"/>
      <use x="904.6875" xlink:href="#DejaVuSans-69"/>
      <use x="932.470703" xlink:href="#DejaVuSans-6f"/>
      <use x="993.652344" xlink:href="#DejaVuSans-73"/>
     </g>
    </g>
   </g>
   <g id="matplotlib.axis_2">
    <g id="ytick_1">
     <g id="line2d_13">
      <path clip-path="url(#padcca14676)" d="M 58.31375 246.098114 
L 393.11375 246.098114 
" style="fill:none;stroke:#b2b2b2;stroke-dasharray:1.85,0.8;stroke-dashoffset:0;stroke-width:0.5;"/>
     </g>
     <g id="line2d_14">
      <defs>
       <path d="M 0 0 
L 3.5 0 
" id="m3ddd050a46" style="stroke:#000000;stroke-width:0.8;"/>
      </defs>
      <g>
       <use style="stroke:#000000;stroke-width:0.8;" x="58.31375" xlink:href="#m3ddd050a46" y="246.098114"/>
      </g>
     </g>
     <g id="text_8">
      <!-- $\mathdefault{10^{0}}$ -->
      <g transform="translate(37.21375 249.897332)scale(0.1 -0.1)">
       <use transform="translate(0 0.765625)" xlink:href="#DejaVuSans-31"/>
       <use transform="translate(63.623047 0.765625)" xlink:href="#DejaVuSans-30"/>
       <use transform="translate(128.203125 39.046875)scale(0.7)" xlink:href="#DejaVuSans-30"/>
      </g>
     </g>
    </g>
    <g id="ytick_2">
     <g id="line2d_15">
      <path clip-path="url(#padcca14676)" d="M 58.31375 197.024466 
L 393.11375 197.024466 
" style="fill:none;stroke:#b2b2b2;stroke-dasharray:1.85,0.8;stroke-dashoffset:0;stroke-width:0.5;"/>
     </g>
     <g id="line2d_16">
      <g>
       <use style="stroke:#000000;stroke-width:0.8;" x="58.31375" xlink:href="#m3ddd050a46" y="197.024466"/>
      </g>
     </g>
     <g id="text_9">
      <!-- $\mathdefault{10^{1}}$ -->
      <g transform="translate(37.21375 200.823684)scale(0.1 -0.1)">
       <use transform="translate(0 0.684375)" xlink:href="#DejaVuSans-31"/>
       <use transform="translate(63.623047 0.684375)" xlink:href="#DejaVuSans-30"/>
       <use transform="translate(128.203125 38.965625)scale(0.7)" xlink:href="#DejaVuSans-31"/>
      </g>
     </g>
    </g>
    <g id="ytick_3">
     <g id="line2d_17">
      <path clip-path="url(#padcca14676)" d="M 58.31375 147.950818 
L 393.11375 147.950818 
" style="fill:none;stroke:#b2b2b2;stroke-dasharray:1.85,0.8;stroke-dashoffset:0;stroke-width:0.5;"/>
     </g>
     <g id="line2d_18">
      <g>
       <use style="stroke:#000000;stroke-width:0.8;" x="58.31375" xlink:href="#m3ddd050a46" y="147.950818"/>
      </g>
     </g>
     <g id="text_10">
      <!-- $\mathdefault{10^{2}}$ -->
      <g transform="translate(37.21375 151.750037)scale(0.1 -0.1)">
       <use transform="translate(0 0.765625)" xlink:href="#DejaVuSans-31"/>
       <use transform="translate(63.623047 0.765625)" xlink:href="#DejaVuSans-30"/>
       <use transform="translate(128.203125 39.046875)scale(0.7)" xlink:href="#DejaVuSans-32"/>
      </g>
     </g>
    </g>
    <g id="ytick_4">
     <g id="line2d_19">
      <path clip-path="url(#padcca14676)" d="M 58.31375 98.87717 
L 393.11375 98.87717 
" style="fill:none;stroke:#b2b2b2;stroke-dasharray:1.85,0.8;stroke-dashoffset:0;stroke-width:0.5;"/>
     </g>
     <g id="line2d_20">
      <g>
       <use style="stroke:#000000;stroke-width:0.8;" x="58.31375" xlink:href="#m3ddd050a46" y="98.87717"/>
      </g>
     </g>
     <g id="text_11">
      <!-- $\mathdefault{10^{3}}$ -->
      <defs>
       <path d="M 40.578125 39.3125 
Q 47.65625 37.796875 51.625 33 
Q 55.609375 28.21875 55.609375 21.1875 
Q 55.609375 10.40625 48.1875 4.484375 
Q 40.765625 -1.421875 27.09375 -1.421875 
Q 22.515625 -1.421875 17.65625 -0.515625 
Q 12.796875 0.390625 7.625 2.203125 
L 7.625 11.71875 
Q 11.71875 9.328125 16.59375 8.109375 
Q 21.484375 6.890625 26.8125 6.890625 
Q 36.078125 6.890625 40.9375 10.546875 
Q 45.796875 14.203125 45.796875 21.1875 
Q 45.796875 27.640625 41.28125 31.265625 
Q 36.765625 34.90625 28.71875 34.90625 
L 20.21875 34.90625 
L 20.21875 43.015625 
L 29.109375 43.015625 
Q 36.375 43.015625 40.234375 45.921875 
Q 44.09375 48.828125 44.09375 54.296875 
Q 44.09375 59.90625 40.109375 62.90625 
Q 36.140625 65.921875 28.71875 65.921875 
Q 24.65625 65.921875 20.015625 65.03125 
Q 15.375 64.15625 9.8125 62.3125 
L 9.8125 71.09375 
Q 15.4375 72.65625 20.34375 73.4375 
Q 25.25 74.21875 29.59375 74.21875 
Q 40.828125 74.21875 47.359375 69.109375 
Q 53.90625 64.015625 53.90625 55.328125 
Q 53.90625 49.265625 50.4375 45.09375 
Q 46.96875 40.921875 40.578125 39.3125 
z
" id="DejaVuSans-33"/>
      </defs>
      <g transform="translate(37.21375 102.676389)scale(0.1 -0.1)">
       <use transform="translate(0 0.765625)" xlink:href="#DejaVuSans-31"/>
       <use transform="translate(63.623047 0.765625)" xlink:href="#DejaVuSans-30"/>
       <use transform="translate(128.203125 39.046875)scale(0.7)" xlink:href="#DejaVuSans-33"/>
      </g>
     </g>
    </g>
    <g id="ytick_5">
     <g id="line2d_21">
      <path clip-path="url(#padcca14676)" d="M 58.31375 49.803522 
L 393.11375 49.803522 
" style="fill:none;stroke:#b2b2b2;stroke-dasharray:1.85,0.8;stroke-dashoffset:0;stroke-width:0.5;"/>
     </g>
     <g id="line2d_22">
      <g>
       <use style="stroke:#000000;stroke-width:0.8;" x="58.31375" xlink:href="#m3ddd050a46" y="49.803522"/>
      </g>
     </g>
     <g id="text_12">
      <!-- $\mathdefault{10^{4}}$ -->
      <g transform="translate(37.21375 53.602741)scale(0.1 -0.1)">
       <use transform="translate(0 0.684375)" xlink:href="#DejaVuSans-31"/>
       <use transform="translate(63.623047 0.684375)" xlink:href="#DejaVuSans-30"/>
       <use transform="translate(128.203125 38.965625)scale(0.7)" xlink:href="#DejaVuSans-34"/>
      </g>
     </g>
    </g>
    <g id="ytick_6">
     <g id="line2d_23">
      <defs>
       <path d="M 0 0 
L 2 0 
" id="mfc9a2bc444" style="stroke:#000000;stroke-width:0.6;"/>
      </defs>
      <g>
       <use style="stroke:#000000;stroke-width:0.6;" x="58.31375" xlink:href="#mfc9a2bc444" y="253.699718"/>
      </g>
     </g>
    </g>
    <g id="ytick_7">
     <g id="line2d_24">
      <g>
       <use style="stroke:#000000;stroke-width:0.6;" x="58.31375" xlink:href="#mfc9a2bc444" y="250.853841"/>
      </g>
     </g>
    </g>
    <g id="ytick_8">
     <g id="line2d_25">
      <g>
       <use style="stroke:#000000;stroke-width:0.6;" x="58.31375" xlink:href="#mfc9a2bc444" y="248.343601"/>
      </g>
     </g>
    </g>
    <g id="ytick_9">
     <g id="line2d_26">
      <g>
       <use style="stroke:#000000;stroke-width:0.6;" x="58.31375" xlink:href="#mfc9a2bc444" y="231.325474"/>
      </g>
     </g>
    </g>
    <g id="ytick_10">
     <g id="line2d_27">
      <g>
       <use style="stroke:#000000;stroke-width:0.6;" x="58.31375" xlink:href="#mfc9a2bc444" y="222.684033"/>
      </g>
     </g>
    </g>
    <g id="ytick_11">
     <g id="line2d_28">
      <g>
       <use style="stroke:#000000;stroke-width:0.6;" x="58.31375" xlink:href="#mfc9a2bc444" y="216.552834"/>
      </g>
     </g>
    </g>
    <g id="ytick_12">
     <g id="line2d_29">
      <g>
       <use style="stroke:#000000;stroke-width:0.6;" x="58.31375" xlink:href="#mfc9a2bc444" y="211.797106"/>
      </g>
     </g>
    </g>
    <g id="ytick_13">
     <g id="line2d_30">
      <g>
       <use style="stroke:#000000;stroke-width:0.6;" x="58.31375" xlink:href="#mfc9a2bc444" y="207.911393"/>
      </g>
     </g>
    </g>
    <g id="ytick_14">
     <g id="line2d_31">
      <g>
       <use style="stroke:#000000;stroke-width:0.6;" x="58.31375" xlink:href="#mfc9a2bc444" y="204.62607"/>
      </g>
     </g>
    </g>
    <g id="ytick_15">
     <g id="line2d_32">
      <g>
       <use style="stroke:#000000;stroke-width:0.6;" x="58.31375" xlink:href="#mfc9a2bc444" y="201.780194"/>
      </g>
     </g>
    </g>
    <g id="ytick_16">
     <g id="line2d_33">
      <g>
       <use style="stroke:#000000;stroke-width:0.6;" x="58.31375" xlink:href="#mfc9a2bc444" y="199.269953"/>
      </g>
     </g>
    </g>
    <g id="ytick_17">
     <g id="line2d_34">
      <g>
       <use style="stroke:#000000;stroke-width:0.6;" x="58.31375" xlink:href="#mfc9a2bc444" y="182.251826"/>
      </g>
     </g>
    </g>
    <g id="ytick_18">
     <g id="line2d_35">
      <g>
       <use style="stroke:#000000;stroke-width:0.6;" x="58.31375" xlink:href="#mfc9a2bc444" y="173.610385"/>
      </g>
     </g>
    </g>
    <g id="ytick_19">
     <g id="line2d_36">
      <g>
       <use style="stroke:#000000;stroke-width:0.6;" x="58.31375" xlink:href="#mfc9a2bc444" y="167.479186"/>
      </g>
     </g>
    </g>
    <g id="ytick_20">
     <g id="line2d_37">
      <g>
       <use style="stroke:#000000;stroke-width:0.6;" x="58.31375" xlink:href="#mfc9a2bc444" y="162.723458"/>
      </g>
     </g>
    </g>
    <g id="ytick_21">
     <g id="line2d_38">
      <g>
       <use style="stroke:#000000;stroke-width:0.6;" x="58.31375" xlink:href="#mfc9a2bc444" y="158.837745"/>
      </g>
     </g>
    </g>
    <g id="ytick_22">
     <g id="line2d_39">
      <g>
       <use style="stroke:#000000;stroke-width:0.6;" x="58.31375" xlink:href="#mfc9a2bc444" y="155.552422"/>
      </g>
     </g>
    </g>
    <g id="ytick_23">
     <g id="line2d_40">
      <g>
       <use style="stroke:#000000;stroke-width:0.6;" x="58.31375" xlink:href="#mfc9a2bc444" y="152.706546"/>
      </g>
     </g>
    </g>
    <g id="ytick_24">
     <g id="line2d_41">
      <g>
       <use style="stroke:#000000;stroke-width:0.6;" x="58.31375" xlink:href="#mfc9a2bc444" y="150.196305"/>
      </g>
     </g>
    </g>
    <g id="ytick_25">
     <g id="line2d_42">
      <g>
       <use style="stroke:#000000;stroke-width:0.6;" x="58.31375" xlink:href="#mfc9a2bc444" y="133.178178"/>
      </g>
     </g>
    </g>
    <g id="ytick_26">
     <g id="line2d_43">
      <g>
       <use style="stroke:#000000;stroke-width:0.6;" x="58.31375" xlink:href="#mfc9a2bc444" y="124.536737"/>
      </g>
     </g>
    </g>
    <g id="ytick_27">
     <g id="line2d_44">
      <g>
       <use style="stroke:#000000;stroke-width:0.6;" x="58.31375" xlink:href="#mfc9a2bc444" y="118.405538"/>
      </g>
     </g>
    </g>
    <g id="ytick_28">
     <g id="line2d_45">
      <g>
       <use style="stroke:#000000;stroke-width:0.6;" x="58.31375" xlink:href="#mfc9a2bc444" y="113.64981"/>
      </g>
     </g>
    </g>
    <g id="ytick_29">
     <g id="line2d_46">
      <g>
       <use style="stroke:#000000;stroke-width:0.6;" x="58.31375" xlink:href="#mfc9a2bc444" y="109.764097"/>
      </g>
     </g>
    </g>
    <g id="ytick_30">
     <g id="line2d_47">
      <g>
       <use style="stroke:#000000;stroke-width:0.6;" x="58.31375" xlink:href="#mfc9a2bc444" y="106.478774"/>
      </g>
     </g>
    </g>
    <g id="ytick_31">
     <g id="line2d_48">
      <g>
       <use style="stroke:#000000;stroke-width:0.6;" x="58.31375" xlink:href="#mfc9a2bc444" y="103.632898"/>
      </g>
     </g>
    </g>
    <g id="ytick_32">
     <g id="line2d_49">
      <g>
       <use style="stroke:#000000;stroke-width:0.6;" x="58.31375" xlink:href="#mfc9a2bc444" y="101.122657"/>
      </g>
     </g>
    </g>
    <g id="ytick_33">
     <g id="line2d_50">
      <g>
       <use style="stroke:#000000;stroke-width:0.6;" x="58.31375" xlink:href="#mfc9a2bc444" y="84.10453"/>
      </g>
     </g>
    </g>
    <g id="ytick_34">
     <g id="line2d_51">
      <g>
       <use style="stroke:#000000;stroke-width:0.6;" x="58.31375" xlink:href="#mfc9a2bc444" y="75.463089"/>
      </g>
     </g>
    </g>
    <g id="ytick_35">
     <g id="line2d_52">
      <g>
       <use style="stroke:#000000;stroke-width:0.6;" x="58.31375" xlink:href="#mfc9a2bc444" y="69.33189"/>
      </g>
     </g>
    </g>
    <g id="ytick_36">
     <g id="line2d_53">
      <g>
       <use style="stroke:#000000;stroke-width:0.6;" x="58.31375" xlink:href="#mfc9a2bc444" y="64.576162"/>
      </g>
     </g>
    </g>
    <g id="ytick_37">
     <g id="line2d_54">
      <g>
       <use style="stroke:#000000;stroke-width:0.6;" x="58.31375" xlink:href="#mfc9a2bc444" y="60.690449"/>
      </g>
     </g>
    </g>
    <g id="ytick_38">
     <g id="line2d_55">
      <g>
       <use style="stroke:#000000;stroke-width:0.6;" x="58.31375" xlink:href="#mfc9a2bc444" y="57.405126"/>
      </g>
     </g>
    </g>
    <g id="ytick_39">
     <g id="line2d_56">
      <g>
       <use style="stroke:#000000;stroke-width:0.6;" x="58.31375" xlink:href="#mfc9a2bc444" y="54.55925"/>
      </g>
     </g>
    </g>
    <g id="ytick_40">
     <g id="line2d_57">
      <g>
       <use style="stroke:#000000;stroke-width:0.6;" x="58.31375" xlink:href="#mfc9a2bc444" y="52.049009"/>
      </g>
     </g>
    </g>
    <g id="text_13">
     <!-- Cantidad de eventos -->
     <defs>
      <path d="M 64.40625 67.28125 
L 64.40625 56.890625 
Q 59.421875 61.53125 53.78125 63.8125 
Q 48.140625 66.109375 41.796875 66.109375 
Q 29.296875 66.109375 22.65625 58.46875 
Q 16.015625 50.828125 16.015625 36.375 
Q 16.015625 21.96875 22.65625 14.328125 
Q 29.296875 6.6875 41.796875 6.6875 
Q 48.140625 6.6875 53.78125 8.984375 
Q 59.421875 11.28125 64.40625 15.921875 
L 64.40625 5.609375 
Q 59.234375 2.09375 53.4375 0.328125 
Q 47.65625 -1.421875 41.21875 -1.421875 
Q 24.65625 -1.421875 15.125 8.703125 
Q 5.609375 18.84375 5.609375 36.375 
Q 5.609375 53.953125 15.125 64.078125 
Q 24.65625 74.21875 41.21875 74.21875 
Q 47.75 74.21875 53.53125 72.484375 
Q 59.328125 70.75 64.40625 67.28125 
z
" id="DejaVuSans-43"/>
      <path d="M 2.984375 54.6875 
L 12.5 54.6875 
L 29.59375 8.796875 
L 46.6875 54.6875 
L 56.203125 54.6875 
L 35.6875 0 
L 23.484375 0 
z
" id="DejaVuSans-76"/>
     </defs>
     <g transform="translate(30.718125 209.446125)rotate(-90)scale(0.12 -0.12)">
      <use xlink:href="#DejaVuSans-43"/>
      <use x="69.824219" xlink:href="#DejaVuSans-61"/>
      <use x="131.103516" xlink:href="#DejaVuSans-6e"/>
      <use x="194.482422" xlink:href="#DejaVuSans-74"/>
      <use x="233.691406" xlink:href="#DejaVuSans-69"/>
      <use x="261.474609" xlink:href="#DejaVuSans-64"/>
      <use x="324.951172" xlink:href="#DejaVuSans-61"/>
      <use x="386.230469" xlink:href="#DejaVuSans-64"/>
      <use x="449.707031" xlink:href="#DejaVuSans-20"/>
      <use x="481.494141" xlink:href="#DejaVuSans-64"/>
      <use x="544.970703" xlink:href="#DejaVuSans-65"/>
      <use x="606.494141" xlink:href="#DejaVuSans-20"/>
      <use x="638.28125" xlink:href="#DejaVuSans-65"/>
      <use x="699.804688" xlink:href="#DejaVuSans-76"/>
      <use x="758.984375" xlink:href="#DejaVuSans-65"/>
      <use x="820.507812" xlink:href="#DejaVuSans-6e"/>
      <use x="883.886719" xlink:href="#DejaVuSans-74"/>
      <use x="923.095703" xlink:href="#DejaVuSans-6f"/>
      <use x="984.277344" xlink:href="#DejaVuSans-73"/>
     </g>
    </g>
   </g>
   <g id="patch_102">
    <path d="M 58.31375 255.98175 
L 58.31375 38.54175 
" style="fill:none;stroke:#bcbcbc;stroke-linecap:square;stroke-linejoin:miter;stroke-width:0.8;"/>
   </g>
   <g id="patch_103">
    <path d="M 393.11375 255.98175 
L 393.11375 38.54175 
" style="fill:none;stroke:#bcbcbc;stroke-linecap:square;stroke-linejoin:miter;stroke-width:0.8;"/>
   </g>
   <g id="patch_104">
    <path d="M 58.31375 255.98175 
L 393.11375 255.98175 
" style="fill:none;stroke:#bcbcbc;stroke-linecap:square;stroke-linejoin:miter;stroke-width:0.8;"/>
   </g>
   <g id="patch_105">
    <path d="M 58.31375 38.54175 
L 393.11375 38.54175 
" style="fill:none;stroke:#bcbcbc;stroke-linecap:square;stroke-linejoin:miter;stroke-width:0.8;"/>
   </g>
   <g id="text_14">
    <!-- cantidad de eventos por persona -->
    <defs>
     <path d="M 18.109375 8.203125 
L 18.109375 -20.796875 
L 9.078125 -20.796875 
L 9.078125 54.6875 
L 18.109375 54.6875 
L 18.109375 46.390625 
Q 20.953125 51.265625 25.265625 53.625 
Q 29.59375 56 35.59375 56 
Q 45.5625 56 51.78125 48.09375 
Q 58.015625 40.1875 58.015625 27.296875 
Q 58.015625 14.40625 51.78125 6.484375 
Q 45.5625 -1.421875 35.59375 -1.421875 
Q 29.59375 -1.421875 25.265625 0.953125 
Q 20.953125 3.328125 18.109375 8.203125 
z
M 48.6875 27.296875 
Q 48.6875 37.203125 44.609375 42.84375 
Q 40.53125 48.484375 33.40625 48.484375 
Q 26.265625 48.484375 22.1875 42.84375 
Q 18.109375 37.203125 18.109375 27.296875 
Q 18.109375 17.390625 22.1875 11.75 
Q 26.265625 6.109375 33.40625 6.109375 
Q 40.53125 6.109375 44.609375 11.75 
Q 48.6875 17.390625 48.6875 27.296875 
z
" id="DejaVuSans-70"/>
    </defs>
    <g transform="translate(106.556 32.54175)scale(0.144 -0.144)">
     <use xlink:href="#DejaVuSans-63"/>
     <use x="54.980469" xlink:href="#DejaVuSans-61"/>
     <use x="116.259766" xlink:href="#DejaVuSans-6e"/>
     <use x="179.638672" xlink:href="#DejaVuSans-74"/>
     <use x="218.847656" xlink:href="#DejaVuSans-69"/>
     <use x="246.630859" xlink:href="#DejaVuSans-64"/>
     <use x="310.107422" xlink:href="#DejaVuSans-61"/>
     <use x="371.386719" xlink:href="#DejaVuSans-64"/>
     <use x="434.863281" xlink:href="#DejaVuSans-20"/>
     <use x="466.650391" xlink:href="#DejaVuSans-64"/>
     <use x="530.126953" xlink:href="#DejaVuSans-65"/>
     <use x="591.650391" xlink:href="#DejaVuSans-20"/>
     <use x="623.4375" xlink:href="#DejaVuSans-65"/>
     <use x="684.960938" xlink:href="#DejaVuSans-76"/>
     <use x="744.140625" xlink:href="#DejaVuSans-65"/>
     <use x="805.664062" xlink:href="#DejaVuSans-6e"/>
     <use x="869.042969" xlink:href="#DejaVuSans-74"/>
     <use x="908.251953" xlink:href="#DejaVuSans-6f"/>
     <use x="969.433594" xlink:href="#DejaVuSans-73"/>
     <use x="1021.533203" xlink:href="#DejaVuSans-20"/>
     <use x="1053.320312" xlink:href="#DejaVuSans-70"/>
     <use x="1116.796875" xlink:href="#DejaVuSans-6f"/>
     <use x="1177.978516" xlink:href="#DejaVuSans-72"/>
     <use x="1219.091797" xlink:href="#DejaVuSans-20"/>
     <use x="1250.878906" xlink:href="#DejaVuSans-70"/>
     <use x="1314.355469" xlink:href="#DejaVuSans-65"/>
     <use x="1375.878906" xlink:href="#DejaVuSans-72"/>
     <use x="1416.992188" xlink:href="#DejaVuSans-73"/>
     <use x="1469.091797" xlink:href="#DejaVuSans-6f"/>
     <use x="1530.273438" xlink:href="#DejaVuSans-6e"/>
     <use x="1593.652344" xlink:href="#DejaVuSans-61"/>
    </g>
   </g>
  </g>
 </g>
 <defs>
  <clipPath id="padcca14676">
   <rect height="217.44" width="334.8" x="58.31375" y="38.54175"/>
  </clipPath>
 </defs>
</svg>
