<?xml version="1.0" encoding="utf-8" standalone="no"?>
<!DOCTYPE svg PUBLIC "-//W3C//DTD SVG 1.1//EN"
  "http://www.w3.org/Graphics/SVG/1.1/DTD/svg11.dtd">
<!-- Created with matplotlib (http://matplotlib.org/) -->
<svg height="306.373625pt" version="1.1" viewBox="0 0 490.116875 306.373625" width="490.116875pt" xmlns="http://www.w3.org/2000/svg" xmlns:xlink="http://www.w3.org/1999/xlink">
 <defs>
  <style type="text/css">
*{stroke-linecap:butt;stroke-linejoin:round;}
  </style>
 </defs>
 <g id="figure_1">
  <g id="patch_1">
   <path d="M 0 306.373625 
L 490.116875 306.373625 
L 490.116875 0 
L 0 0 
z
" style="fill:#ffffff;"/>
  </g>
  <g id="axes_1">
   <g id="patch_2">
    <path d="M 133.716875 255.98175 
L 468.516875 255.98175 
L 468.516875 38.54175 
L 133.716875 38.54175 
z
" style="fill:#eeeeee;"/>
   </g>
   <g id="patch_3">
    <path clip-path="url(#pd80f3a06ef)" d="M -99186.536515 251.039932 
L 453.298693 251.039932 
L 453.298693 241.156295 
L -99186.536515 241.156295 
z
" style="fill:#348abd;"/>
   </g>
   <g id="patch_4">
    <path clip-path="url(#pd80f3a06ef)" d="M -99186.536515 231.272659 
L 381.038164 231.272659 
L 381.038164 221.389023 
L -99186.536515 221.389023 
z
" style="fill:#a60628;"/>
   </g>
   <g id="patch_5">
    <path clip-path="url(#pd80f3a06ef)" d="M -99186.536515 211.505386 
L 375.824067 211.505386 
L 375.824067 201.62175 
L -99186.536515 201.62175 
z
" style="fill:#7a68a6;"/>
   </g>
   <g id="patch_6">
    <path clip-path="url(#pd80f3a06ef)" d="M -99186.536515 191.738114 
L 373.522589 191.738114 
L 373.522589 181.854477 
L -99186.536515 181.854477 
z
" style="fill:#467821;"/>
   </g>
   <g id="patch_7">
    <path clip-path="url(#pd80f3a06ef)" d="M -99186.536515 171.970841 
L 364.739839 171.970841 
L 364.739839 162.087205 
L -99186.536515 162.087205 
z
" style="fill:#d55e00;"/>
   </g>
   <g id="patch_8">
    <path clip-path="url(#pd80f3a06ef)" d="M -99186.536515 152.203568 
L 356.737859 152.203568 
L 356.737859 142.319932 
L -99186.536515 142.319932 
z
" style="fill:#cc79a7;"/>
   </g>
   <g id="patch_9">
    <path clip-path="url(#pd80f3a06ef)" d="M -99186.536515 132.436295 
L 352.62139 132.436295 
L 352.62139 122.552659 
L -99186.536515 122.552659 
z
" style="fill:#56b4e9;"/>
   </g>
   <g id="patch_10">
    <path clip-path="url(#pd80f3a06ef)" d="M -99186.536515 112.669023 
L 334.875159 112.669023 
L 334.875159 102.785386 
L -99186.536515 102.785386 
z
" style="fill:#009e73;"/>
   </g>
   <g id="patch_11">
    <path clip-path="url(#pd80f3a06ef)" d="M -99186.536515 92.90175 
L 238.574458 92.90175 
L 238.574458 83.018114 
L -99186.536515 83.018114 
z
" style="fill:#f0e442;"/>
   </g>
   <g id="patch_12">
    <path clip-path="url(#pd80f3a06ef)" d="M -99186.536515 73.134477 
L 190.312773 73.134477 
L 190.312773 63.250841 
L -99186.536515 63.250841 
z
" style="fill:#0072b2;"/>
   </g>
   <g id="patch_13">
    <path clip-path="url(#pd80f3a06ef)" d="M -99186.536515 53.367205 
L 148.935057 53.367205 
L 148.935057 43.483568 
L -99186.536515 43.483568 
z
" style="fill:#348abd;"/>
   </g>
   <g id="matplotlib.axis_1">
    <g id="xtick_1">
     <g id="line2d_1">
      <path clip-path="url(#pd80f3a06ef)" d="M 183.483921 255.98175 
L 183.483921 38.54175 
" style="fill:none;stroke:#b2b2b2;stroke-dasharray:1.85,0.8;stroke-dashoffset:0;stroke-width:0.5;"/>
     </g>
     <g id="line2d_2">
      <defs>
       <path d="M 0 0 
L 0 -3.5 
" id="md593f281e1" style="stroke:#000000;stroke-width:0.8;"/>
      </defs>
      <g>
       <use style="stroke:#000000;stroke-width:0.8;" x="183.483921" xlink:href="#md593f281e1" y="255.98175"/>
      </g>
     </g>
     <g id="text_1">
      <!-- $\mathdefault{10^{3}}$ -->
      <defs>
       <path d="M 12.40625 8.296875 
L 28.515625 8.296875 
L 28.515625 63.921875 
L 10.984375 60.40625 
L 10.984375 69.390625 
L 28.421875 72.90625 
L 38.28125 72.90625 
L 38.28125 8.296875 
L 54.390625 8.296875 
L 54.390625 0 
L 12.40625 0 
z
" id="DejaVuSans-31"/>
       <path d="M 31.78125 66.40625 
Q 24.171875 66.40625 20.328125 58.90625 
Q 16.5 51.421875 16.5 36.375 
Q 16.5 21.390625 20.328125 13.890625 
Q 24.171875 6.390625 31.78125 6.390625 
Q 39.453125 6.390625 43.28125 13.890625 
Q 47.125 21.390625 47.125 36.375 
Q 47.125 51.421875 43.28125 58.90625 
Q 39.453125 66.40625 31.78125 66.40625 
z
M 31.78125 74.21875 
Q 44.046875 74.21875 50.515625 64.515625 
Q 56.984375 54.828125 56.984375 36.375 
Q 56.984375 17.96875 50.515625 8.265625 
Q 44.046875 -1.421875 31.78125 -1.421875 
Q 19.53125 -1.421875 13.0625 8.265625 
Q 6.59375 17.96875 6.59375 36.375 
Q 6.59375 54.828125 13.0625 64.515625 
Q 19.53125 74.21875 31.78125 74.21875 
z
" id="DejaVuSans-30"/>
       <path d="M 40.578125 39.3125 
Q 47.65625 37.796875 51.625 33 
Q 55.609375 28.21875 55.609375 21.1875 
Q 55.609375 10.40625 48.1875 4.484375 
Q 40.765625 -1.421875 27.09375 -1.421875 
Q 22.515625 -1.421875 17.65625 -0.515625 
Q 12.796875 0.390625 7.625 2.203125 
L 7.625 11.71875 
Q 11.71875 9.328125 16.59375 8.109375 
Q 21.484375 6.890625 26.8125 6.890625 
Q 36.078125 6.890625 40.9375 10.546875 
Q 45.796875 14.203125 45.796875 21.1875 
Q 45.796875 27.640625 41.28125 31.265625 
Q 36.765625 34.90625 28.71875 34.90625 
L 20.21875 34.90625 
L 20.21875 43.015625 
L 29.109375 43.015625 
Q 36.375 43.015625 40.234375 45.921875 
Q 44.09375 48.828125 44.09375 54.296875 
Q 44.09375 59.90625 40.109375 62.90625 
Q 36.140625 65.921875 28.71875 65.921875 
Q 24.65625 65.921875 20.015625 65.03125 
Q 15.375 64.15625 9.8125 62.3125 
L 9.8125 71.09375 
Q 15.4375 72.65625 20.34375 73.4375 
Q 25.25 74.21875 29.59375 74.21875 
Q 40.828125 74.21875 47.359375 69.109375 
Q 53.90625 64.015625 53.90625 55.328125 
Q 53.90625 49.265625 50.4375 45.09375 
Q 46.96875 40.921875 40.578125 39.3125 
z
" id="DejaVuSans-33"/>
      </defs>
      <g transform="translate(174.683921 267.080187)scale(0.1 -0.1)">
       <use transform="translate(0 0.765625)" xlink:href="#DejaVuSans-31"/>
       <use transform="translate(63.623047 0.765625)" xlink:href="#DejaVuSans-30"/>
       <use transform="translate(128.203125 39.046875)scale(0.7)" xlink:href="#DejaVuSans-33"/>
      </g>
     </g>
    </g>
    <g id="xtick_2">
     <g id="line2d_3">
      <path clip-path="url(#pd80f3a06ef)" d="M 282.556723 255.98175 
L 282.556723 38.54175 
" style="fill:none;stroke:#b2b2b2;stroke-dasharray:1.85,0.8;stroke-dashoffset:0;stroke-width:0.5;"/>
     </g>
     <g id="line2d_4">
      <g>
       <use style="stroke:#000000;stroke-width:0.8;" x="282.556723" xlink:href="#md593f281e1" y="255.98175"/>
      </g>
     </g>
     <g id="text_2">
      <!-- $\mathdefault{10^{4}}$ -->
      <defs>
       <path d="M 37.796875 64.3125 
L 12.890625 25.390625 
L 37.796875 25.390625 
z
M 35.203125 72.90625 
L 47.609375 72.90625 
L 47.609375 25.390625 
L 58.015625 25.390625 
L 58.015625 17.1875 
L 47.609375 17.1875 
L 47.609375 0 
L 37.796875 0 
L 37.796875 17.1875 
L 4.890625 17.1875 
L 4.890625 26.703125 
z
" id="DejaVuSans-34"/>
      </defs>
      <g transform="translate(273.756723 267.080187)scale(0.1 -0.1)">
       <use transform="translate(0 0.684375)" xlink:href="#DejaVuSans-31"/>
       <use transform="translate(63.623047 0.684375)" xlink:href="#DejaVuSans-30"/>
       <use transform="translate(128.203125 38.965625)scale(0.7)" xlink:href="#DejaVuSans-34"/>
      </g>
     </g>
    </g>
    <g id="xtick_3">
     <g id="line2d_5">
      <path clip-path="url(#pd80f3a06ef)" d="M 381.629525 255.98175 
L 381.629525 38.54175 
" style="fill:none;stroke:#b2b2b2;stroke-dasharray:1.85,0.8;stroke-dashoffset:0;stroke-width:0.5;"/>
     </g>
     <g id="line2d_6">
      <g>
       <use style="stroke:#000000;stroke-width:0.8;" x="381.629525" xlink:href="#md593f281e1" y="255.98175"/>
      </g>
     </g>
     <g id="text_3">
      <!-- $\mathdefault{10^{5}}$ -->
      <defs>
       <path d="M 10.796875 72.90625 
L 49.515625 72.90625 
L 49.515625 64.59375 
L 19.828125 64.59375 
L 19.828125 46.734375 
Q 21.96875 47.46875 24.109375 47.828125 
Q 26.265625 48.1875 28.421875 48.1875 
Q 40.625 48.1875 47.75 41.5 
Q 54.890625 34.8125 54.890625 23.390625 
Q 54.890625 11.625 47.5625 5.09375 
Q 40.234375 -1.421875 26.90625 -1.421875 
Q 22.3125 -1.421875 17.546875 -0.640625 
Q 12.796875 0.140625 7.71875 1.703125 
L 7.71875 11.625 
Q 12.109375 9.234375 16.796875 8.0625 
Q 21.484375 6.890625 26.703125 6.890625 
Q 35.15625 6.890625 40.078125 11.328125 
Q 45.015625 15.765625 45.015625 23.390625 
Q 45.015625 31 40.078125 35.4375 
Q 35.15625 39.890625 26.703125 39.890625 
Q 22.75 39.890625 18.8125 39.015625 
Q 14.890625 38.140625 10.796875 36.28125 
z
" id="DejaVuSans-35"/>
      </defs>
      <g transform="translate(372.829525 267.080187)scale(0.1 -0.1)">
       <use transform="translate(0 0.684375)" xlink:href="#DejaVuSans-31"/>
       <use transform="translate(63.623047 0.684375)" xlink:href="#DejaVuSans-30"/>
       <use transform="translate(128.203125 38.965625)scale(0.7)" xlink:href="#DejaVuSans-35"/>
      </g>
     </g>
    </g>
    <g id="xtick_4">
     <g id="line2d_7">
      <defs>
       <path d="M 0 0 
L 0 -2 
" id="m8710a1bed2" style="stroke:#000000;stroke-width:0.6;"/>
      </defs>
      <g>
       <use style="stroke:#000000;stroke-width:0.6;" x="144.058889" xlink:href="#m8710a1bed2" y="255.98175"/>
      </g>
     </g>
    </g>
    <g id="xtick_5">
     <g id="line2d_8">
      <g>
       <use style="stroke:#000000;stroke-width:0.6;" x="153.660036" xlink:href="#m8710a1bed2" y="255.98175"/>
      </g>
     </g>
    </g>
    <g id="xtick_6">
     <g id="line2d_9">
      <g>
       <use style="stroke:#000000;stroke-width:0.6;" x="161.504744" xlink:href="#m8710a1bed2" y="255.98175"/>
      </g>
     </g>
    </g>
    <g id="xtick_7">
     <g id="line2d_10">
      <g>
       <use style="stroke:#000000;stroke-width:0.6;" x="168.13735" xlink:href="#m8710a1bed2" y="255.98175"/>
      </g>
     </g>
    </g>
    <g id="xtick_8">
     <g id="line2d_11">
      <g>
       <use style="stroke:#000000;stroke-width:0.6;" x="173.882775" xlink:href="#m8710a1bed2" y="255.98175"/>
      </g>
     </g>
    </g>
    <g id="xtick_9">
     <g id="line2d_12">
      <g>
       <use style="stroke:#000000;stroke-width:0.6;" x="178.950598" xlink:href="#m8710a1bed2" y="255.98175"/>
      </g>
     </g>
    </g>
    <g id="xtick_10">
     <g id="line2d_13">
      <g>
       <use style="stroke:#000000;stroke-width:0.6;" x="213.307806" xlink:href="#m8710a1bed2" y="255.98175"/>
      </g>
     </g>
    </g>
    <g id="xtick_11">
     <g id="line2d_14">
      <g>
       <use style="stroke:#000000;stroke-width:0.6;" x="230.753661" xlink:href="#m8710a1bed2" y="255.98175"/>
      </g>
     </g>
    </g>
    <g id="xtick_12">
     <g id="line2d_15">
      <g>
       <use style="stroke:#000000;stroke-width:0.6;" x="243.131691" xlink:href="#m8710a1bed2" y="255.98175"/>
      </g>
     </g>
    </g>
    <g id="xtick_13">
     <g id="line2d_16">
      <g>
       <use style="stroke:#000000;stroke-width:0.6;" x="252.732838" xlink:href="#m8710a1bed2" y="255.98175"/>
      </g>
     </g>
    </g>
    <g id="xtick_14">
     <g id="line2d_17">
      <g>
       <use style="stroke:#000000;stroke-width:0.6;" x="260.577546" xlink:href="#m8710a1bed2" y="255.98175"/>
      </g>
     </g>
    </g>
    <g id="xtick_15">
     <g id="line2d_18">
      <g>
       <use style="stroke:#000000;stroke-width:0.6;" x="267.210152" xlink:href="#m8710a1bed2" y="255.98175"/>
      </g>
     </g>
    </g>
    <g id="xtick_16">
     <g id="line2d_19">
      <g>
       <use style="stroke:#000000;stroke-width:0.6;" x="272.955577" xlink:href="#m8710a1bed2" y="255.98175"/>
      </g>
     </g>
    </g>
    <g id="xtick_17">
     <g id="line2d_20">
      <g>
       <use style="stroke:#000000;stroke-width:0.6;" x="278.0234" xlink:href="#m8710a1bed2" y="255.98175"/>
      </g>
     </g>
    </g>
    <g id="xtick_18">
     <g id="line2d_21">
      <g>
       <use style="stroke:#000000;stroke-width:0.6;" x="312.380608" xlink:href="#m8710a1bed2" y="255.98175"/>
      </g>
     </g>
    </g>
    <g id="xtick_19">
     <g id="line2d_22">
      <g>
       <use style="stroke:#000000;stroke-width:0.6;" x="329.826463" xlink:href="#m8710a1bed2" y="255.98175"/>
      </g>
     </g>
    </g>
    <g id="xtick_20">
     <g id="line2d_23">
      <g>
       <use style="stroke:#000000;stroke-width:0.6;" x="342.204493" xlink:href="#m8710a1bed2" y="255.98175"/>
      </g>
     </g>
    </g>
    <g id="xtick_21">
     <g id="line2d_24">
      <g>
       <use style="stroke:#000000;stroke-width:0.6;" x="351.80564" xlink:href="#m8710a1bed2" y="255.98175"/>
      </g>
     </g>
    </g>
    <g id="xtick_22">
     <g id="line2d_25">
      <g>
       <use style="stroke:#000000;stroke-width:0.6;" x="359.650348" xlink:href="#m8710a1bed2" y="255.98175"/>
      </g>
     </g>
    </g>
    <g id="xtick_23">
     <g id="line2d_26">
      <g>
       <use style="stroke:#000000;stroke-width:0.6;" x="366.282954" xlink:href="#m8710a1bed2" y="255.98175"/>
      </g>
     </g>
    </g>
    <g id="xtick_24">
     <g id="line2d_27">
      <g>
       <use style="stroke:#000000;stroke-width:0.6;" x="372.028379" xlink:href="#m8710a1bed2" y="255.98175"/>
      </g>
     </g>
    </g>
    <g id="xtick_25">
     <g id="line2d_28">
      <g>
       <use style="stroke:#000000;stroke-width:0.6;" x="377.096202" xlink:href="#m8710a1bed2" y="255.98175"/>
      </g>
     </g>
    </g>
    <g id="xtick_26">
     <g id="line2d_29">
      <g>
       <use style="stroke:#000000;stroke-width:0.6;" x="411.45341" xlink:href="#m8710a1bed2" y="255.98175"/>
      </g>
     </g>
    </g>
    <g id="xtick_27">
     <g id="line2d_30">
      <g>
       <use style="stroke:#000000;stroke-width:0.6;" x="428.899265" xlink:href="#m8710a1bed2" y="255.98175"/>
      </g>
     </g>
    </g>
    <g id="xtick_28">
     <g id="line2d_31">
      <g>
       <use style="stroke:#000000;stroke-width:0.6;" x="441.277295" xlink:href="#m8710a1bed2" y="255.98175"/>
      </g>
     </g>
    </g>
    <g id="xtick_29">
     <g id="line2d_32">
      <g>
       <use style="stroke:#000000;stroke-width:0.6;" x="450.878442" xlink:href="#m8710a1bed2" y="255.98175"/>
      </g>
     </g>
    </g>
    <g id="xtick_30">
     <g id="line2d_33">
      <g>
       <use style="stroke:#000000;stroke-width:0.6;" x="458.72315" xlink:href="#m8710a1bed2" y="255.98175"/>
      </g>
     </g>
    </g>
    <g id="xtick_31">
     <g id="line2d_34">
      <g>
       <use style="stroke:#000000;stroke-width:0.6;" x="465.355756" xlink:href="#m8710a1bed2" y="255.98175"/>
      </g>
     </g>
    </g>
    <g id="text_4">
     <!-- Cantidad por evento -->
     <defs>
      <path d="M 64.40625 67.28125 
L 64.40625 56.890625 
Q 59.421875 61.53125 53.78125 63.8125 
Q 48.140625 66.109375 41.796875 66.109375 
Q 29.296875 66.109375 22.65625 58.46875 
Q 16.015625 50.828125 16.015625 36.375 
Q 16.015625 21.96875 22.65625 14.328125 
Q 29.296875 6.6875 41.796875 6.6875 
Q 48.140625 6.6875 53.78125 8.984375 
Q 59.421875 11.28125 64.40625 15.921875 
L 64.40625 5.609375 
Q 59.234375 2.09375 53.4375 0.328125 
Q 47.65625 -1.421875 41.21875 -1.421875 
Q 24.65625 -1.421875 15.125 8.703125 
Q 5.609375 18.84375 5.609375 36.375 
Q 5.609375 53.953125 15.125 64.078125 
Q 24.65625 74.21875 41.21875 74.21875 
Q 47.75 74.21875 53.53125 72.484375 
Q 59.328125 70.75 64.40625 67.28125 
z
" id="DejaVuSans-43"/>
      <path d="M 34.28125 27.484375 
Q 23.390625 27.484375 19.1875 25 
Q 14.984375 22.515625 14.984375 16.5 
Q 14.984375 11.71875 18.140625 8.90625 
Q 21.296875 6.109375 26.703125 6.109375 
Q 34.1875 6.109375 38.703125 11.40625 
Q 43.21875 16.703125 43.21875 25.484375 
L 43.21875 27.484375 
z
M 52.203125 31.203125 
L 52.203125 0 
L 43.21875 0 
L 43.21875 8.296875 
Q 40.140625 3.328125 35.546875 0.953125 
Q 30.953125 -1.421875 24.3125 -1.421875 
Q 15.921875 -1.421875 10.953125 3.296875 
Q 6 8.015625 6 15.921875 
Q 6 25.140625 12.171875 29.828125 
Q 18.359375 34.515625 30.609375 34.515625 
L 43.21875 34.515625 
L 43.21875 35.40625 
Q 43.21875 41.609375 39.140625 45 
Q 35.0625 48.390625 27.6875 48.390625 
Q 23 48.390625 18.546875 47.265625 
Q 14.109375 46.140625 10.015625 43.890625 
L 10.015625 52.203125 
Q 14.9375 54.109375 19.578125 55.046875 
Q 24.21875 56 28.609375 56 
Q 40.484375 56 46.34375 49.84375 
Q 52.203125 43.703125 52.203125 31.203125 
z
" id="DejaVuSans-61"/>
      <path d="M 54.890625 33.015625 
L 54.890625 0 
L 45.90625 0 
L 45.90625 32.71875 
Q 45.90625 40.484375 42.875 44.328125 
Q 39.84375 48.1875 33.796875 48.1875 
Q 26.515625 48.1875 22.3125 43.546875 
Q 18.109375 38.921875 18.109375 30.90625 
L 18.109375 0 
L 9.078125 0 
L 9.078125 54.6875 
L 18.109375 54.6875 
L 18.109375 46.1875 
Q 21.34375 51.125 25.703125 53.5625 
Q 30.078125 56 35.796875 56 
Q 45.21875 56 50.046875 50.171875 
Q 54.890625 44.34375 54.890625 33.015625 
z
" id="DejaVuSans-6e"/>
      <path d="M 18.3125 70.21875 
L 18.3125 54.6875 
L 36.8125 54.6875 
L 36.8125 47.703125 
L 18.3125 47.703125 
L 18.3125 18.015625 
Q 18.3125 11.328125 20.140625 9.421875 
Q 21.96875 7.515625 27.59375 7.515625 
L 36.8125 7.515625 
L 36.8125 0 
L 27.59375 0 
Q 17.1875 0 13.234375 3.875 
Q 9.28125 7.765625 9.28125 18.015625 
L 9.28125 47.703125 
L 2.6875 47.703125 
L 2.6875 54.6875 
L 9.28125 54.6875 
L 9.28125 70.21875 
z
" id="DejaVuSans-74"/>
      <path d="M 9.421875 54.6875 
L 18.40625 54.6875 
L 18.40625 0 
L 9.421875 0 
z
M 9.421875 75.984375 
L 18.40625 75.984375 
L 18.40625 64.59375 
L 9.421875 64.59375 
z
" id="DejaVuSans-69"/>
      <path d="M 45.40625 46.390625 
L 45.40625 75.984375 
L 54.390625 75.984375 
L 54.390625 0 
L 45.40625 0 
L 45.40625 8.203125 
Q 42.578125 3.328125 38.25 0.953125 
Q 33.9375 -1.421875 27.875 -1.421875 
Q 17.96875 -1.421875 11.734375 6.484375 
Q 5.515625 14.40625 5.515625 27.296875 
Q 5.515625 40.1875 11.734375 48.09375 
Q 17.96875 56 27.875 56 
Q 33.9375 56 38.25 53.625 
Q 42.578125 51.265625 45.40625 46.390625 
z
M 14.796875 27.296875 
Q 14.796875 17.390625 18.875 11.75 
Q 22.953125 6.109375 30.078125 6.109375 
Q 37.203125 6.109375 41.296875 11.75 
Q 45.40625 17.390625 45.40625 27.296875 
Q 45.40625 37.203125 41.296875 42.84375 
Q 37.203125 48.484375 30.078125 48.484375 
Q 22.953125 48.484375 18.875 42.84375 
Q 14.796875 37.203125 14.796875 27.296875 
z
" id="DejaVuSans-64"/>
      <path id="DejaVuSans-20"/>
      <path d="M 18.109375 8.203125 
L 18.109375 -20.796875 
L 9.078125 -20.796875 
L 9.078125 54.6875 
L 18.109375 54.6875 
L 18.109375 46.390625 
Q 20.953125 51.265625 25.265625 53.625 
Q 29.59375 56 35.59375 56 
Q 45.5625 56 51.78125 48.09375 
Q 58.015625 40.1875 58.015625 27.296875 
Q 58.015625 14.40625 51.78125 6.484375 
Q 45.5625 -1.421875 35.59375 -1.421875 
Q 29.59375 -1.421875 25.265625 0.953125 
Q 20.953125 3.328125 18.109375 8.203125 
z
M 48.6875 27.296875 
Q 48.6875 37.203125 44.609375 42.84375 
Q 40.53125 48.484375 33.40625 48.484375 
Q 26.265625 48.484375 22.1875 42.84375 
Q 18.109375 37.203125 18.109375 27.296875 
Q 18.109375 17.390625 22.1875 11.75 
Q 26.265625 6.109375 33.40625 6.109375 
Q 40.53125 6.109375 44.609375 11.75 
Q 48.6875 17.390625 48.6875 27.296875 
z
" id="DejaVuSans-70"/>
      <path d="M 30.609375 48.390625 
Q 23.390625 48.390625 19.1875 42.75 
Q 14.984375 37.109375 14.984375 27.296875 
Q 14.984375 17.484375 19.15625 11.84375 
Q 23.34375 6.203125 30.609375 6.203125 
Q 37.796875 6.203125 41.984375 11.859375 
Q 46.1875 17.53125 46.1875 27.296875 
Q 46.1875 37.015625 41.984375 42.703125 
Q 37.796875 48.390625 30.609375 48.390625 
z
M 30.609375 56 
Q 42.328125 56 49.015625 48.375 
Q 55.71875 40.765625 55.71875 27.296875 
Q 55.71875 13.875 49.015625 6.21875 
Q 42.328125 -1.421875 30.609375 -1.421875 
Q 18.84375 -1.421875 12.171875 6.21875 
Q 5.515625 13.875 5.515625 27.296875 
Q 5.515625 40.765625 12.171875 48.375 
Q 18.84375 56 30.609375 56 
z
" id="DejaVuSans-6f"/>
      <path d="M 41.109375 46.296875 
Q 39.59375 47.171875 37.8125 47.578125 
Q 36.03125 48 33.890625 48 
Q 26.265625 48 22.1875 43.046875 
Q 18.109375 38.09375 18.109375 28.8125 
L 18.109375 0 
L 9.078125 0 
L 9.078125 54.6875 
L 18.109375 54.6875 
L 18.109375 46.1875 
Q 20.953125 51.171875 25.484375 53.578125 
Q 30.03125 56 36.53125 56 
Q 37.453125 56 38.578125 55.875 
Q 39.703125 55.765625 41.0625 55.515625 
z
" id="DejaVuSans-72"/>
      <path d="M 56.203125 29.59375 
L 56.203125 25.203125 
L 14.890625 25.203125 
Q 15.484375 15.921875 20.484375 11.0625 
Q 25.484375 6.203125 34.421875 6.203125 
Q 39.59375 6.203125 44.453125 7.46875 
Q 49.3125 8.734375 54.109375 11.28125 
L 54.109375 2.78125 
Q 49.265625 0.734375 44.1875 -0.34375 
Q 39.109375 -1.421875 33.890625 -1.421875 
Q 20.796875 -1.421875 13.15625 6.1875 
Q 5.515625 13.8125 5.515625 26.8125 
Q 5.515625 40.234375 12.765625 48.109375 
Q 20.015625 56 32.328125 56 
Q 43.359375 56 49.78125 48.890625 
Q 56.203125 41.796875 56.203125 29.59375 
z
M 47.21875 32.234375 
Q 47.125 39.59375 43.09375 43.984375 
Q 39.0625 48.390625 32.421875 48.390625 
Q 24.90625 48.390625 20.390625 44.140625 
Q 15.875 39.890625 15.1875 32.171875 
z
" id="DejaVuSans-65"/>
      <path d="M 2.984375 54.6875 
L 12.5 54.6875 
L 29.59375 8.796875 
L 46.6875 54.6875 
L 56.203125 54.6875 
L 35.6875 0 
L 23.484375 0 
z
" id="DejaVuSans-76"/>
     </defs>
     <g transform="translate(239.612188 282.278)scale(0.12 -0.12)">
      <use xlink:href="#DejaVuSans-43"/>
      <use x="69.824219" xlink:href="#DejaVuSans-61"/>
      <use x="131.103516" xlink:href="#DejaVuSans-6e"/>
      <use x="194.482422" xlink:href="#DejaVuSans-74"/>
      <use x="233.691406" xlink:href="#DejaVuSans-69"/>
      <use x="261.474609" xlink:href="#DejaVuSans-64"/>
      <use x="324.951172" xlink:href="#DejaVuSans-61"/>
      <use x="386.230469" xlink:href="#DejaVuSans-64"/>
      <use x="449.707031" xlink:href="#DejaVuSans-20"/>
      <use x="481.494141" xlink:href="#DejaVuSans-70"/>
      <use x="544.970703" xlink:href="#DejaVuSans-6f"/>
      <use x="606.152344" xlink:href="#DejaVuSans-72"/>
      <use x="647.265625" xlink:href="#DejaVuSans-20"/>
      <use x="679.052734" xlink:href="#DejaVuSans-65"/>
      <use x="740.576172" xlink:href="#DejaVuSans-76"/>
      <use x="799.755859" xlink:href="#DejaVuSans-65"/>
      <use x="861.279297" xlink:href="#DejaVuSans-6e"/>
      <use x="924.658203" xlink:href="#DejaVuSans-74"/>
      <use x="963.867188" xlink:href="#DejaVuSans-6f"/>
     </g>
    </g>
   </g>
   <g id="matplotlib.axis_2">
    <g id="ytick_1">
     <g id="line2d_35">
      <path clip-path="url(#pd80f3a06ef)" d="M 133.716875 246.098114 
L 468.516875 246.098114 
" style="fill:none;stroke:#b2b2b2;stroke-dasharray:1.85,0.8;stroke-dashoffset:0;stroke-width:0.5;"/>
     </g>
     <g id="line2d_36">
      <defs>
       <path d="M 0 0 
L 3.5 0 
" id="m0971786d2a" style="stroke:#000000;stroke-width:0.8;"/>
      </defs>
      <g>
       <use style="stroke:#000000;stroke-width:0.8;" x="133.716875" xlink:href="#m0971786d2a" y="246.098114"/>
      </g>
     </g>
     <g id="text_5">
      <!-- viewed product -->
      <defs>
       <path d="M 4.203125 54.6875 
L 13.1875 54.6875 
L 24.421875 12.015625 
L 35.59375 54.6875 
L 46.1875 54.6875 
L 57.421875 12.015625 
L 68.609375 54.6875 
L 77.59375 54.6875 
L 63.28125 0 
L 52.6875 0 
L 40.921875 44.828125 
L 29.109375 0 
L 18.5 0 
z
" id="DejaVuSans-77"/>
       <path d="M 8.5 21.578125 
L 8.5 54.6875 
L 17.484375 54.6875 
L 17.484375 21.921875 
Q 17.484375 14.15625 20.5 10.265625 
Q 23.53125 6.390625 29.59375 6.390625 
Q 36.859375 6.390625 41.078125 11.03125 
Q 45.3125 15.671875 45.3125 23.6875 
L 45.3125 54.6875 
L 54.296875 54.6875 
L 54.296875 0 
L 45.3125 0 
L 45.3125 8.40625 
Q 42.046875 3.421875 37.71875 1 
Q 33.40625 -1.421875 27.6875 -1.421875 
Q 18.265625 -1.421875 13.375 4.4375 
Q 8.5 10.296875 8.5 21.578125 
z
M 31.109375 56 
z
" id="DejaVuSans-75"/>
       <path d="M 48.78125 52.59375 
L 48.78125 44.1875 
Q 44.96875 46.296875 41.140625 47.34375 
Q 37.3125 48.390625 33.40625 48.390625 
Q 24.65625 48.390625 19.8125 42.84375 
Q 14.984375 37.3125 14.984375 27.296875 
Q 14.984375 17.28125 19.8125 11.734375 
Q 24.65625 6.203125 33.40625 6.203125 
Q 37.3125 6.203125 41.140625 7.25 
Q 44.96875 8.296875 48.78125 10.40625 
L 48.78125 2.09375 
Q 45.015625 0.34375 40.984375 -0.53125 
Q 36.96875 -1.421875 32.421875 -1.421875 
Q 20.0625 -1.421875 12.78125 6.34375 
Q 5.515625 14.109375 5.515625 27.296875 
Q 5.515625 40.671875 12.859375 48.328125 
Q 20.21875 56 33.015625 56 
Q 37.15625 56 41.109375 55.140625 
Q 45.0625 54.296875 48.78125 52.59375 
z
" id="DejaVuSans-63"/>
      </defs>
      <g transform="translate(52.829375 249.897332)scale(0.1 -0.1)">
       <use xlink:href="#DejaVuSans-76"/>
       <use x="59.179688" xlink:href="#DejaVuSans-69"/>
       <use x="86.962891" xlink:href="#DejaVuSans-65"/>
       <use x="148.486328" xlink:href="#DejaVuSans-77"/>
       <use x="230.273438" xlink:href="#DejaVuSans-65"/>
       <use x="291.796875" xlink:href="#DejaVuSans-64"/>
       <use x="355.273438" xlink:href="#DejaVuSans-20"/>
       <use x="387.060547" xlink:href="#DejaVuSans-70"/>
       <use x="450.537109" xlink:href="#DejaVuSans-72"/>
       <use x="491.619141" xlink:href="#DejaVuSans-6f"/>
       <use x="552.800781" xlink:href="#DejaVuSans-64"/>
       <use x="616.277344" xlink:href="#DejaVuSans-75"/>
       <use x="679.65625" xlink:href="#DejaVuSans-63"/>
       <use x="734.636719" xlink:href="#DejaVuSans-74"/>
      </g>
     </g>
    </g>
    <g id="ytick_2">
     <g id="line2d_37">
      <path clip-path="url(#pd80f3a06ef)" d="M 133.716875 226.330841 
L 468.516875 226.330841 
" style="fill:none;stroke:#b2b2b2;stroke-dasharray:1.85,0.8;stroke-dashoffset:0;stroke-width:0.5;"/>
     </g>
     <g id="line2d_38">
      <g>
       <use style="stroke:#000000;stroke-width:0.8;" x="133.716875" xlink:href="#m0971786d2a" y="226.330841"/>
      </g>
     </g>
     <g id="text_6">
      <!-- brand listing -->
      <defs>
       <path d="M 48.6875 27.296875 
Q 48.6875 37.203125 44.609375 42.84375 
Q 40.53125 48.484375 33.40625 48.484375 
Q 26.265625 48.484375 22.1875 42.84375 
Q 18.109375 37.203125 18.109375 27.296875 
Q 18.109375 17.390625 22.1875 11.75 
Q 26.265625 6.109375 33.40625 6.109375 
Q 40.53125 6.109375 44.609375 11.75 
Q 48.6875 17.390625 48.6875 27.296875 
z
M 18.109375 46.390625 
Q 20.953125 51.265625 25.265625 53.625 
Q 29.59375 56 35.59375 56 
Q 45.5625 56 51.78125 48.09375 
Q 58.015625 40.1875 58.015625 27.296875 
Q 58.015625 14.40625 51.78125 6.484375 
Q 45.5625 -1.421875 35.59375 -1.421875 
Q 29.59375 -1.421875 25.265625 0.953125 
Q 20.953125 3.328125 18.109375 8.203125 
L 18.109375 0 
L 9.078125 0 
L 9.078125 75.984375 
L 18.109375 75.984375 
z
" id="DejaVuSans-62"/>
       <path d="M 9.421875 75.984375 
L 18.40625 75.984375 
L 18.40625 0 
L 9.421875 0 
z
" id="DejaVuSans-6c"/>
       <path d="M 44.28125 53.078125 
L 44.28125 44.578125 
Q 40.484375 46.53125 36.375 47.5 
Q 32.28125 48.484375 27.875 48.484375 
Q 21.1875 48.484375 17.84375 46.4375 
Q 14.5 44.390625 14.5 40.28125 
Q 14.5 37.15625 16.890625 35.375 
Q 19.28125 33.59375 26.515625 31.984375 
L 29.59375 31.296875 
Q 39.15625 29.25 43.1875 25.515625 
Q 47.21875 21.78125 47.21875 15.09375 
Q 47.21875 7.46875 41.1875 3.015625 
Q 35.15625 -1.421875 24.609375 -1.421875 
Q 20.21875 -1.421875 15.453125 -0.5625 
Q 10.6875 0.296875 5.421875 2 
L 5.421875 11.28125 
Q 10.40625 8.6875 15.234375 7.390625 
Q 20.0625 6.109375 24.8125 6.109375 
Q 31.15625 6.109375 34.5625 8.28125 
Q 37.984375 10.453125 37.984375 14.40625 
Q 37.984375 18.0625 35.515625 20.015625 
Q 33.0625 21.96875 24.703125 23.78125 
L 21.578125 24.515625 
Q 13.234375 26.265625 9.515625 29.90625 
Q 5.8125 33.546875 5.8125 39.890625 
Q 5.8125 47.609375 11.28125 51.796875 
Q 16.75 56 26.8125 56 
Q 31.78125 56 36.171875 55.265625 
Q 40.578125 54.546875 44.28125 53.078125 
z
" id="DejaVuSans-73"/>
       <path d="M 45.40625 27.984375 
Q 45.40625 37.75 41.375 43.109375 
Q 37.359375 48.484375 30.078125 48.484375 
Q 22.859375 48.484375 18.828125 43.109375 
Q 14.796875 37.75 14.796875 27.984375 
Q 14.796875 18.265625 18.828125 12.890625 
Q 22.859375 7.515625 30.078125 7.515625 
Q 37.359375 7.515625 41.375 12.890625 
Q 45.40625 18.265625 45.40625 27.984375 
z
M 54.390625 6.78125 
Q 54.390625 -7.171875 48.1875 -13.984375 
Q 42 -20.796875 29.203125 -20.796875 
Q 24.46875 -20.796875 20.265625 -20.09375 
Q 16.0625 -19.390625 12.109375 -17.921875 
L 12.109375 -9.1875 
Q 16.0625 -11.328125 19.921875 -12.34375 
Q 23.78125 -13.375 27.78125 -13.375 
Q 36.625 -13.375 41.015625 -8.765625 
Q 45.40625 -4.15625 45.40625 5.171875 
L 45.40625 9.625 
Q 42.625 4.78125 38.28125 2.390625 
Q 33.9375 0 27.875 0 
Q 17.828125 0 11.671875 7.65625 
Q 5.515625 15.328125 5.515625 27.984375 
Q 5.515625 40.671875 11.671875 48.328125 
Q 17.828125 56 27.875 56 
Q 33.9375 56 38.28125 53.609375 
Q 42.625 51.21875 45.40625 46.390625 
L 45.40625 54.6875 
L 54.390625 54.6875 
z
" id="DejaVuSans-67"/>
      </defs>
      <g transform="translate(67.615313 230.13006)scale(0.1 -0.1)">
       <use xlink:href="#DejaVuSans-62"/>
       <use x="63.476562" xlink:href="#DejaVuSans-72"/>
       <use x="104.589844" xlink:href="#DejaVuSans-61"/>
       <use x="165.869141" xlink:href="#DejaVuSans-6e"/>
       <use x="229.248047" xlink:href="#DejaVuSans-64"/>
       <use x="292.724609" xlink:href="#DejaVuSans-20"/>
       <use x="324.511719" xlink:href="#DejaVuSans-6c"/>
       <use x="352.294922" xlink:href="#DejaVuSans-69"/>
       <use x="380.078125" xlink:href="#DejaVuSans-73"/>
       <use x="432.177734" xlink:href="#DejaVuSans-74"/>
       <use x="471.386719" xlink:href="#DejaVuSans-69"/>
       <use x="499.169922" xlink:href="#DejaVuSans-6e"/>
       <use x="562.548828" xlink:href="#DejaVuSans-67"/>
      </g>
     </g>
    </g>
    <g id="ytick_3">
     <g id="line2d_39">
      <path clip-path="url(#pd80f3a06ef)" d="M 133.716875 206.563568 
L 468.516875 206.563568 
" style="fill:none;stroke:#b2b2b2;stroke-dasharray:1.85,0.8;stroke-dashoffset:0;stroke-width:0.5;"/>
     </g>
     <g id="line2d_40">
      <g>
       <use style="stroke:#000000;stroke-width:0.8;" x="133.716875" xlink:href="#m0971786d2a" y="206.563568"/>
      </g>
     </g>
     <g id="text_7">
      <!-- visited site -->
      <g transform="translate(75.871563 210.362787)scale(0.1 -0.1)">
       <use xlink:href="#DejaVuSans-76"/>
       <use x="59.179688" xlink:href="#DejaVuSans-69"/>
       <use x="86.962891" xlink:href="#DejaVuSans-73"/>
       <use x="139.0625" xlink:href="#DejaVuSans-69"/>
       <use x="166.845703" xlink:href="#DejaVuSans-74"/>
       <use x="206.054688" xlink:href="#DejaVuSans-65"/>
       <use x="267.578125" xlink:href="#DejaVuSans-64"/>
       <use x="331.054688" xlink:href="#DejaVuSans-20"/>
       <use x="362.841797" xlink:href="#DejaVuSans-73"/>
       <use x="414.941406" xlink:href="#DejaVuSans-69"/>
       <use x="442.724609" xlink:href="#DejaVuSans-74"/>
       <use x="481.933594" xlink:href="#DejaVuSans-65"/>
      </g>
     </g>
    </g>
    <g id="ytick_4">
     <g id="line2d_41">
      <path clip-path="url(#pd80f3a06ef)" d="M 133.716875 186.796295 
L 468.516875 186.796295 
" style="fill:none;stroke:#b2b2b2;stroke-dasharray:1.85,0.8;stroke-dashoffset:0;stroke-width:0.5;"/>
     </g>
     <g id="line2d_42">
      <g>
       <use style="stroke:#000000;stroke-width:0.8;" x="133.716875" xlink:href="#m0971786d2a" y="186.796295"/>
      </g>
     </g>
     <g id="text_8">
      <!-- ad campaign hit -->
      <defs>
       <path d="M 52 44.1875 
Q 55.375 50.25 60.0625 53.125 
Q 64.75 56 71.09375 56 
Q 79.640625 56 84.28125 50.015625 
Q 88.921875 44.046875 88.921875 33.015625 
L 88.921875 0 
L 79.890625 0 
L 79.890625 32.71875 
Q 79.890625 40.578125 77.09375 44.375 
Q 74.3125 48.1875 68.609375 48.1875 
Q 61.625 48.1875 57.5625 43.546875 
Q 53.515625 38.921875 53.515625 30.90625 
L 53.515625 0 
L 44.484375 0 
L 44.484375 32.71875 
Q 44.484375 40.625 41.703125 44.40625 
Q 38.921875 48.1875 33.109375 48.1875 
Q 26.21875 48.1875 22.15625 43.53125 
Q 18.109375 38.875 18.109375 30.90625 
L 18.109375 0 
L 9.078125 0 
L 9.078125 54.6875 
L 18.109375 54.6875 
L 18.109375 46.1875 
Q 21.1875 51.21875 25.484375 53.609375 
Q 29.78125 56 35.6875 56 
Q 41.65625 56 45.828125 52.96875 
Q 50 49.953125 52 44.1875 
z
" id="DejaVuSans-6d"/>
       <path d="M 54.890625 33.015625 
L 54.890625 0 
L 45.90625 0 
L 45.90625 32.71875 
Q 45.90625 40.484375 42.875 44.328125 
Q 39.84375 48.1875 33.796875 48.1875 
Q 26.515625 48.1875 22.3125 43.546875 
Q 18.109375 38.921875 18.109375 30.90625 
L 18.109375 0 
L 9.078125 0 
L 9.078125 75.984375 
L 18.109375 75.984375 
L 18.109375 46.1875 
Q 21.34375 51.125 25.703125 53.5625 
Q 30.078125 56 35.796875 56 
Q 45.21875 56 50.046875 50.171875 
Q 54.890625 44.34375 54.890625 33.015625 
z
" id="DejaVuSans-68"/>
      </defs>
      <g transform="translate(49.040313 190.595514)scale(0.1 -0.1)">
       <use xlink:href="#DejaVuSans-61"/>
       <use x="61.279297" xlink:href="#DejaVuSans-64"/>
       <use x="124.755859" xlink:href="#DejaVuSans-20"/>
       <use x="156.542969" xlink:href="#DejaVuSans-63"/>
       <use x="211.523438" xlink:href="#DejaVuSans-61"/>
       <use x="272.802734" xlink:href="#DejaVuSans-6d"/>
       <use x="370.214844" xlink:href="#DejaVuSans-70"/>
       <use x="433.691406" xlink:href="#DejaVuSans-61"/>
       <use x="494.970703" xlink:href="#DejaVuSans-69"/>
       <use x="522.753906" xlink:href="#DejaVuSans-67"/>
       <use x="586.230469" xlink:href="#DejaVuSans-6e"/>
       <use x="649.609375" xlink:href="#DejaVuSans-20"/>
       <use x="681.396484" xlink:href="#DejaVuSans-68"/>
       <use x="744.775391" xlink:href="#DejaVuSans-69"/>
       <use x="772.558594" xlink:href="#DejaVuSans-74"/>
      </g>
     </g>
    </g>
    <g id="ytick_5">
     <g id="line2d_43">
      <path clip-path="url(#pd80f3a06ef)" d="M 133.716875 167.029023 
L 468.516875 167.029023 
" style="fill:none;stroke:#b2b2b2;stroke-dasharray:1.85,0.8;stroke-dashoffset:0;stroke-width:0.5;"/>
     </g>
     <g id="line2d_44">
      <g>
       <use style="stroke:#000000;stroke-width:0.8;" x="133.716875" xlink:href="#m0971786d2a" y="167.029023"/>
      </g>
     </g>
     <g id="text_9">
      <!-- generic listing -->
      <g transform="translate(59.509063 170.828241)scale(0.1 -0.1)">
       <use xlink:href="#DejaVuSans-67"/>
       <use x="63.476562" xlink:href="#DejaVuSans-65"/>
       <use x="125" xlink:href="#DejaVuSans-6e"/>
       <use x="188.378906" xlink:href="#DejaVuSans-65"/>
       <use x="249.902344" xlink:href="#DejaVuSans-72"/>
       <use x="291.015625" xlink:href="#DejaVuSans-69"/>
       <use x="318.798828" xlink:href="#DejaVuSans-63"/>
       <use x="373.779297" xlink:href="#DejaVuSans-20"/>
       <use x="405.566406" xlink:href="#DejaVuSans-6c"/>
       <use x="433.349609" xlink:href="#DejaVuSans-69"/>
       <use x="461.132812" xlink:href="#DejaVuSans-73"/>
       <use x="513.232422" xlink:href="#DejaVuSans-74"/>
       <use x="552.441406" xlink:href="#DejaVuSans-69"/>
       <use x="580.224609" xlink:href="#DejaVuSans-6e"/>
       <use x="643.603516" xlink:href="#DejaVuSans-67"/>
      </g>
     </g>
    </g>
    <g id="ytick_6">
     <g id="line2d_45">
      <path clip-path="url(#pd80f3a06ef)" d="M 133.716875 147.26175 
L 468.516875 147.26175 
" style="fill:none;stroke:#b2b2b2;stroke-dasharray:1.85,0.8;stroke-dashoffset:0;stroke-width:0.5;"/>
     </g>
     <g id="line2d_46">
      <g>
       <use style="stroke:#000000;stroke-width:0.8;" x="133.716875" xlink:href="#m0971786d2a" y="147.26175"/>
      </g>
     </g>
     <g id="text_10">
      <!-- searched products -->
      <g transform="translate(37.21375 151.060969)scale(0.1 -0.1)">
       <use xlink:href="#DejaVuSans-73"/>
       <use x="52.099609" xlink:href="#DejaVuSans-65"/>
       <use x="113.623047" xlink:href="#DejaVuSans-61"/>
       <use x="174.902344" xlink:href="#DejaVuSans-72"/>
       <use x="215.984375" xlink:href="#DejaVuSans-63"/>
       <use x="270.964844" xlink:href="#DejaVuSans-68"/>
       <use x="334.34375" xlink:href="#DejaVuSans-65"/>
       <use x="395.867188" xlink:href="#DejaVuSans-64"/>
       <use x="459.34375" xlink:href="#DejaVuSans-20"/>
       <use x="491.130859" xlink:href="#DejaVuSans-70"/>
       <use x="554.607422" xlink:href="#DejaVuSans-72"/>
       <use x="595.689453" xlink:href="#DejaVuSans-6f"/>
       <use x="656.871094" xlink:href="#DejaVuSans-64"/>
       <use x="720.347656" xlink:href="#DejaVuSans-75"/>
       <use x="783.726562" xlink:href="#DejaVuSans-63"/>
       <use x="838.707031" xlink:href="#DejaVuSans-74"/>
       <use x="877.916016" xlink:href="#DejaVuSans-73"/>
      </g>
     </g>
    </g>
    <g id="ytick_7">
     <g id="line2d_47">
      <path clip-path="url(#pd80f3a06ef)" d="M 133.716875 127.494477 
L 468.516875 127.494477 
" style="fill:none;stroke:#b2b2b2;stroke-dasharray:1.85,0.8;stroke-dashoffset:0;stroke-width:0.5;"/>
     </g>
     <g id="line2d_48">
      <g>
       <use style="stroke:#000000;stroke-width:0.8;" x="133.716875" xlink:href="#m0971786d2a" y="127.494477"/>
      </g>
     </g>
     <g id="text_11">
      <!-- search engine hit -->
      <g transform="translate(43.2825 131.293696)scale(0.1 -0.1)">
       <use xlink:href="#DejaVuSans-73"/>
       <use x="52.099609" xlink:href="#DejaVuSans-65"/>
       <use x="113.623047" xlink:href="#DejaVuSans-61"/>
       <use x="174.902344" xlink:href="#DejaVuSans-72"/>
       <use x="215.984375" xlink:href="#DejaVuSans-63"/>
       <use x="270.964844" xlink:href="#DejaVuSans-68"/>
       <use x="334.34375" xlink:href="#DejaVuSans-20"/>
       <use x="366.130859" xlink:href="#DejaVuSans-65"/>
       <use x="427.654297" xlink:href="#DejaVuSans-6e"/>
       <use x="491.033203" xlink:href="#DejaVuSans-67"/>
       <use x="554.509766" xlink:href="#DejaVuSans-69"/>
       <use x="582.292969" xlink:href="#DejaVuSans-6e"/>
       <use x="645.671875" xlink:href="#DejaVuSans-65"/>
       <use x="707.195312" xlink:href="#DejaVuSans-20"/>
       <use x="738.982422" xlink:href="#DejaVuSans-68"/>
       <use x="802.361328" xlink:href="#DejaVuSans-69"/>
       <use x="830.144531" xlink:href="#DejaVuSans-74"/>
      </g>
     </g>
    </g>
    <g id="ytick_8">
     <g id="line2d_49">
      <path clip-path="url(#pd80f3a06ef)" d="M 133.716875 107.727205 
L 468.516875 107.727205 
" style="fill:none;stroke:#b2b2b2;stroke-dasharray:1.85,0.8;stroke-dashoffset:0;stroke-width:0.5;"/>
     </g>
     <g id="line2d_50">
      <g>
       <use style="stroke:#000000;stroke-width:0.8;" x="133.716875" xlink:href="#m0971786d2a" y="107.727205"/>
      </g>
     </g>
     <g id="text_12">
      <!-- checkout -->
      <defs>
       <path d="M 9.078125 75.984375 
L 18.109375 75.984375 
L 18.109375 31.109375 
L 44.921875 54.6875 
L 56.390625 54.6875 
L 27.390625 29.109375 
L 57.625 0 
L 45.90625 0 
L 18.109375 26.703125 
L 18.109375 0 
L 9.078125 0 
z
" id="DejaVuSans-6b"/>
      </defs>
      <g transform="translate(84.566875 111.526423)scale(0.1 -0.1)">
       <use xlink:href="#DejaVuSans-63"/>
       <use x="54.980469" xlink:href="#DejaVuSans-68"/>
       <use x="118.359375" xlink:href="#DejaVuSans-65"/>
       <use x="179.882812" xlink:href="#DejaVuSans-63"/>
       <use x="234.863281" xlink:href="#DejaVuSans-6b"/>
       <use x="292.726562" xlink:href="#DejaVuSans-6f"/>
       <use x="353.908203" xlink:href="#DejaVuSans-75"/>
       <use x="417.287109" xlink:href="#DejaVuSans-74"/>
      </g>
     </g>
    </g>
    <g id="ytick_9">
     <g id="line2d_51">
      <path clip-path="url(#pd80f3a06ef)" d="M 133.716875 87.959932 
L 468.516875 87.959932 
" style="fill:none;stroke:#b2b2b2;stroke-dasharray:1.85,0.8;stroke-dashoffset:0;stroke-width:0.5;"/>
     </g>
     <g id="line2d_52">
      <g>
       <use style="stroke:#000000;stroke-width:0.8;" x="133.716875" xlink:href="#m0971786d2a" y="87.959932"/>
      </g>
     </g>
     <g id="text_13">
      <!-- staticpage -->
      <g transform="translate(77.784063 91.759151)scale(0.1 -0.1)">
       <use xlink:href="#DejaVuSans-73"/>
       <use x="52.099609" xlink:href="#DejaVuSans-74"/>
       <use x="91.308594" xlink:href="#DejaVuSans-61"/>
       <use x="152.587891" xlink:href="#DejaVuSans-74"/>
       <use x="191.796875" xlink:href="#DejaVuSans-69"/>
       <use x="219.580078" xlink:href="#DejaVuSans-63"/>
       <use x="274.560547" xlink:href="#DejaVuSans-70"/>
       <use x="338.037109" xlink:href="#DejaVuSans-61"/>
       <use x="399.316406" xlink:href="#DejaVuSans-67"/>
       <use x="462.792969" xlink:href="#DejaVuSans-65"/>
      </g>
     </g>
    </g>
    <g id="ytick_10">
     <g id="line2d_53">
      <path clip-path="url(#pd80f3a06ef)" d="M 133.716875 68.192659 
L 468.516875 68.192659 
" style="fill:none;stroke:#b2b2b2;stroke-dasharray:1.85,0.8;stroke-dashoffset:0;stroke-width:0.5;"/>
     </g>
     <g id="line2d_54">
      <g>
       <use style="stroke:#000000;stroke-width:0.8;" x="133.716875" xlink:href="#m0971786d2a" y="68.192659"/>
      </g>
     </g>
     <g id="text_14">
      <!-- conversion -->
      <g transform="translate(75.635625 71.991878)scale(0.1 -0.1)">
       <use xlink:href="#DejaVuSans-63"/>
       <use x="54.980469" xlink:href="#DejaVuSans-6f"/>
       <use x="116.162109" xlink:href="#DejaVuSans-6e"/>
       <use x="179.541016" xlink:href="#DejaVuSans-76"/>
       <use x="238.720703" xlink:href="#DejaVuSans-65"/>
       <use x="300.244141" xlink:href="#DejaVuSans-72"/>
       <use x="341.357422" xlink:href="#DejaVuSans-73"/>
       <use x="393.457031" xlink:href="#DejaVuSans-69"/>
       <use x="421.240234" xlink:href="#DejaVuSans-6f"/>
       <use x="482.421875" xlink:href="#DejaVuSans-6e"/>
      </g>
     </g>
    </g>
    <g id="ytick_11">
     <g id="line2d_55">
      <path clip-path="url(#pd80f3a06ef)" d="M 133.716875 48.425386 
L 468.516875 48.425386 
" style="fill:none;stroke:#b2b2b2;stroke-dasharray:1.85,0.8;stroke-dashoffset:0;stroke-width:0.5;"/>
     </g>
     <g id="line2d_56">
      <g>
       <use style="stroke:#000000;stroke-width:0.8;" x="133.716875" xlink:href="#m0971786d2a" y="48.425386"/>
      </g>
     </g>
     <g id="text_15">
      <!-- lead -->
      <g transform="translate(108.809063 52.224605)scale(0.1 -0.1)">
       <use xlink:href="#DejaVuSans-6c"/>
       <use x="27.783203" xlink:href="#DejaVuSans-65"/>
       <use x="89.306641" xlink:href="#DejaVuSans-61"/>
       <use x="150.585938" xlink:href="#DejaVuSans-64"/>
      </g>
     </g>
    </g>
    <g id="text_16">
     <!-- Tipo de evento -->
     <defs>
      <path d="M -0.296875 72.90625 
L 61.375 72.90625 
L 61.375 64.59375 
L 35.5 64.59375 
L 35.5 0 
L 25.59375 0 
L 25.59375 64.59375 
L -0.296875 64.59375 
z
" id="DejaVuSans-54"/>
     </defs>
     <g transform="translate(30.718125 192.146437)rotate(-90)scale(0.12 -0.12)">
      <use xlink:href="#DejaVuSans-54"/>
      <use x="61.037109" xlink:href="#DejaVuSans-69"/>
      <use x="88.820312" xlink:href="#DejaVuSans-70"/>
      <use x="152.296875" xlink:href="#DejaVuSans-6f"/>
      <use x="213.478516" xlink:href="#DejaVuSans-20"/>
      <use x="245.265625" xlink:href="#DejaVuSans-64"/>
      <use x="308.742188" xlink:href="#DejaVuSans-65"/>
      <use x="370.265625" xlink:href="#DejaVuSans-20"/>
      <use x="402.052734" xlink:href="#DejaVuSans-65"/>
      <use x="463.576172" xlink:href="#DejaVuSans-76"/>
      <use x="522.755859" xlink:href="#DejaVuSans-65"/>
      <use x="584.279297" xlink:href="#DejaVuSans-6e"/>
      <use x="647.658203" xlink:href="#DejaVuSans-74"/>
      <use x="686.867188" xlink:href="#DejaVuSans-6f"/>
     </g>
    </g>
   </g>
   <g id="patch_14">
    <path d="M 133.716875 255.98175 
L 133.716875 38.54175 
" style="fill:none;stroke:#bcbcbc;stroke-linecap:square;stroke-linejoin:miter;stroke-width:0.8;"/>
   </g>
   <g id="patch_15">
    <path d="M 468.516875 255.98175 
L 468.516875 38.54175 
" style="fill:none;stroke:#bcbcbc;stroke-linecap:square;stroke-linejoin:miter;stroke-width:0.8;"/>
   </g>
   <g id="patch_16">
    <path d="M 133.716875 255.98175 
L 468.516875 255.98175 
" style="fill:none;stroke:#bcbcbc;stroke-linecap:square;stroke-linejoin:miter;stroke-width:0.8;"/>
   </g>
   <g id="patch_17">
    <path d="M 133.716875 38.54175 
L 468.516875 38.54175 
" style="fill:none;stroke:#bcbcbc;stroke-linecap:square;stroke-linejoin:miter;stroke-width:0.8;"/>
   </g>
   <g id="text_17">
    <!-- Cantidad de tipos de eventos -->
    <g transform="translate(195.368 32.54175)scale(0.144 -0.144)">
     <use xlink:href="#DejaVuSans-43"/>
     <use x="69.824219" xlink:href="#DejaVuSans-61"/>
     <use x="131.103516" xlink:href="#DejaVuSans-6e"/>
     <use x="194.482422" xlink:href="#DejaVuSans-74"/>
     <use x="233.691406" xlink:href="#DejaVuSans-69"/>
     <use x="261.474609" xlink:href="#DejaVuSans-64"/>
     <use x="324.951172" xlink:href="#DejaVuSans-61"/>
     <use x="386.230469" xlink:href="#DejaVuSans-64"/>
     <use x="449.707031" xlink:href="#DejaVuSans-20"/>
     <use x="481.494141" xlink:href="#DejaVuSans-64"/>
     <use x="544.970703" xlink:href="#DejaVuSans-65"/>
     <use x="606.494141" xlink:href="#DejaVuSans-20"/>
     <use x="638.28125" xlink:href="#DejaVuSans-74"/>
     <use x="677.490234" xlink:href="#DejaVuSans-69"/>
     <use x="705.273438" xlink:href="#DejaVuSans-70"/>
     <use x="768.75" xlink:href="#DejaVuSans-6f"/>
     <use x="829.931641" xlink:href="#DejaVuSans-73"/>
     <use x="882.03125" xlink:href="#DejaVuSans-20"/>
     <use x="913.818359" xlink:href="#DejaVuSans-64"/>
     <use x="977.294922" xlink:href="#DejaVuSans-65"/>
     <use x="1038.818359" xlink:href="#DejaVuSans-20"/>
     <use x="1070.605469" xlink:href="#DejaVuSans-65"/>
     <use x="1132.128906" xlink:href="#DejaVuSans-76"/>
     <use x="1191.308594" xlink:href="#DejaVuSans-65"/>
     <use x="1252.832031" xlink:href="#DejaVuSans-6e"/>
     <use x="1316.210938" xlink:href="#DejaVuSans-74"/>
     <use x="1355.419922" xlink:href="#DejaVuSans-6f"/>
     <use x="1416.601562" xlink:href="#DejaVuSans-73"/>
    </g>
   </g>
  </g>
 </g>
 <defs>
  <clipPath id="pd80f3a06ef">
   <rect height="217.44" width="334.8" x="133.716875" y="38.54175"/>
  </clipPath>
 </defs>
</svg>
