<?xml version="1.0" encoding="utf-8" standalone="no"?>
<!DOCTYPE svg PUBLIC "-//W3C//DTD SVG 1.1//EN"
  "http://www.w3.org/Graphics/SVG/1.1/DTD/svg11.dtd">
<!-- Created with matplotlib (http://matplotlib.org/) -->
<svg height="288pt" version="1.1" viewBox="0 0 432 288" width="432pt" xmlns="http://www.w3.org/2000/svg" xmlns:xlink="http://www.w3.org/1999/xlink">
 <defs>
  <style type="text/css">
*{stroke-linecap:butt;stroke-linejoin:round;}
  </style>
 </defs>
 <g id="figure_1">
  <g id="patch_1">
   <path d="M 0 288 
L 432 288 
L 432 0 
L 0 0 
z
" style="fill:#ffffff;"/>
  </g>
  <g id="axes_1">
   <g id="patch_2">
    <path d="M 54 252 
L 388.8 252 
L 388.8 34.56 
L 54 34.56 
z
" style="fill:#eeeeee;"/>
   </g>
   <g id="patch_3">
    <path clip-path="url(#pdd81be8a2a)" d="M 69.218182 49315.764282 
L 72.292562 49315.764282 
L 72.292562 44.443636 
L 69.218182 44.443636 
z
" style="fill:#348abd;"/>
   </g>
   <g id="patch_4">
    <path clip-path="url(#pdd81be8a2a)" d="M 72.292562 49315.764282 
L 75.366942 49315.764282 
L 75.366942 56.47203 
L 72.292562 56.47203 
z
" style="fill:#348abd;"/>
   </g>
   <g id="patch_5">
    <path clip-path="url(#pdd81be8a2a)" d="M 75.366942 49315.764282 
L 78.441322 49315.764282 
L 78.441322 71.911908 
L 75.366942 71.911908 
z
" style="fill:#348abd;"/>
   </g>
   <g id="patch_6">
    <path clip-path="url(#pdd81be8a2a)" d="M 78.441322 49315.764282 
L 81.515702 49315.764282 
L 81.515702 82.062623 
L 78.441322 82.062623 
z
" style="fill:#348abd;"/>
   </g>
   <g id="patch_7">
    <path clip-path="url(#pdd81be8a2a)" d="M 81.515702 49315.764282 
L 84.590083 49315.764282 
L 84.590083 90.379738 
L 81.515702 90.379738 
z
" style="fill:#348abd;"/>
   </g>
   <g id="patch_8">
    <path clip-path="url(#pdd81be8a2a)" d="M 84.590083 49315.764282 
L 87.664463 49315.764282 
L 87.664463 98.284003 
L 84.590083 98.284003 
z
" style="fill:#348abd;"/>
   </g>
   <g id="patch_9">
    <path clip-path="url(#pdd81be8a2a)" d="M 87.664463 49315.764282 
L 90.738843 49315.764282 
L 90.738843 104.175037 
L 87.664463 104.175037 
z
" style="fill:#348abd;"/>
   </g>
   <g id="patch_10">
    <path clip-path="url(#pdd81be8a2a)" d="M 90.738843 49315.764282 
L 93.813223 49315.764282 
L 93.813223 110.405287 
L 90.738843 110.405287 
z
" style="fill:#348abd;"/>
   </g>
   <g id="patch_11">
    <path clip-path="url(#pdd81be8a2a)" d="M 93.813223 49315.764282 
L 96.887603 49315.764282 
L 96.887603 116.433776 
L 93.813223 116.433776 
z
" style="fill:#348abd;"/>
   </g>
   <g id="patch_12">
    <path clip-path="url(#pdd81be8a2a)" d="M 96.887603 49315.764282 
L 99.961983 49315.764282 
L 99.961983 120.697546 
L 96.887603 120.697546 
z
" style="fill:#348abd;"/>
   </g>
   <g id="patch_13">
    <path clip-path="url(#pdd81be8a2a)" d="M 99.961983 49315.764282 
L 103.036364 49315.764282 
L 103.036364 123.441498 
L 99.961983 123.441498 
z
" style="fill:#348abd;"/>
   </g>
   <g id="patch_14">
    <path clip-path="url(#pdd81be8a2a)" d="M 103.036364 49315.764282 
L 106.110744 49315.764282 
L 106.110744 127.262233 
L 103.036364 127.262233 
z
" style="fill:#348abd;"/>
   </g>
   <g id="patch_15">
    <path clip-path="url(#pdd81be8a2a)" d="M 106.110744 49315.764282 
L 109.185124 49315.764282 
L 109.185124 131.32384 
L 106.110744 131.32384 
z
" style="fill:#348abd;"/>
   </g>
   <g id="patch_16">
    <path clip-path="url(#pdd81be8a2a)" d="M 109.185124 49315.764282 
L 112.259504 49315.764282 
L 112.259504 132.042304 
L 109.185124 132.042304 
z
" style="fill:#348abd;"/>
   </g>
   <g id="patch_17">
    <path clip-path="url(#pdd81be8a2a)" d="M 112.259504 49315.764282 
L 115.333884 49315.764282 
L 115.333884 137.573114 
L 112.259504 137.573114 
z
" style="fill:#348abd;"/>
   </g>
   <g id="patch_18">
    <path clip-path="url(#pdd81be8a2a)" d="M 115.333884 49315.764282 
L 118.408264 49315.764282 
L 118.408264 139.043519 
L 115.333884 139.043519 
z
" style="fill:#348abd;"/>
   </g>
   <g id="patch_19">
    <path clip-path="url(#pdd81be8a2a)" d="M 118.408264 49315.764282 
L 121.482645 49315.764282 
L 121.482645 143.969068 
L 118.408264 143.969068 
z
" style="fill:#348abd;"/>
   </g>
   <g id="patch_20">
    <path clip-path="url(#pdd81be8a2a)" d="M 121.482645 49315.764282 
L 124.557025 49315.764282 
L 124.557025 146.693506 
L 121.482645 146.693506 
z
" style="fill:#348abd;"/>
   </g>
   <g id="patch_21">
    <path clip-path="url(#pdd81be8a2a)" d="M 124.557025 49315.764282 
L 127.631405 49315.764282 
L 127.631405 150.970283 
L 124.557025 150.970283 
z
" style="fill:#348abd;"/>
   </g>
   <g id="patch_22">
    <path clip-path="url(#pdd81be8a2a)" d="M 127.631405 49315.764282 
L 130.705785 49315.764282 
L 130.705785 151.268363 
L 127.631405 151.268363 
z
" style="fill:#348abd;"/>
   </g>
   <g id="patch_23">
    <path clip-path="url(#pdd81be8a2a)" d="M 130.705785 49315.764282 
L 133.780165 49315.764282 
L 133.780165 154.157165 
L 130.705785 154.157165 
z
" style="fill:#348abd;"/>
   </g>
   <g id="patch_24">
    <path clip-path="url(#pdd81be8a2a)" d="M 133.780165 49315.764282 
L 136.854545 49315.764282 
L 136.854545 154.503716 
L 133.780165 154.503716 
z
" style="fill:#348abd;"/>
   </g>
   <g id="patch_25">
    <path clip-path="url(#pdd81be8a2a)" d="M 136.854545 49315.764282 
L 139.928926 49315.764282 
L 139.928926 159.611723 
L 136.854545 159.611723 
z
" style="fill:#348abd;"/>
   </g>
   <g id="patch_26">
    <path clip-path="url(#pdd81be8a2a)" d="M 139.928926 49315.764282 
L 143.003306 49315.764282 
L 143.003306 154.855995 
L 139.928926 154.855995 
z
" style="fill:#348abd;"/>
   </g>
   <g id="patch_27">
    <path clip-path="url(#pdd81be8a2a)" d="M 143.003306 49315.764282 
L 146.077686 49315.764282 
L 146.077686 157.499857 
L 143.003306 157.499857 
z
" style="fill:#348abd;"/>
   </g>
   <g id="patch_28">
    <path clip-path="url(#pdd81be8a2a)" d="M 146.077686 49315.764282 
L 149.152066 49315.764282 
L 149.152066 166.343312 
L 146.077686 166.343312 
z
" style="fill:#348abd;"/>
   </g>
   <g id="patch_29">
    <path clip-path="url(#pdd81be8a2a)" d="M 149.152066 49315.764282 
L 152.226446 49315.764282 
L 152.226446 173.514348 
L 149.152066 173.514348 
z
" style="fill:#348abd;"/>
   </g>
   <g id="patch_30">
    <path clip-path="url(#pdd81be8a2a)" d="M 152.226446 49315.764282 
L 155.300826 49315.764282 
L 155.300826 167.597345 
L 152.226446 167.597345 
z
" style="fill:#348abd;"/>
   </g>
   <g id="patch_31">
    <path clip-path="url(#pdd81be8a2a)" d="M 155.300826 49315.764282 
L 158.375207 49315.764282 
L 158.375207 174.384363 
L 155.300826 174.384363 
z
" style="fill:#348abd;"/>
   </g>
   <g id="patch_32">
    <path clip-path="url(#pdd81be8a2a)" d="M 158.375207 49315.764282 
L 161.449587 49315.764282 
L 161.449587 177.230239 
L 158.375207 177.230239 
z
" style="fill:#348abd;"/>
   </g>
   <g id="patch_33">
    <path clip-path="url(#pdd81be8a2a)" d="M 161.449587 49315.764282 
L 164.523967 49315.764282 
L 164.523967 171.874122 
L 161.449587 171.874122 
z
" style="fill:#348abd;"/>
   </g>
   <g id="patch_34">
    <path clip-path="url(#pdd81be8a2a)" d="M 164.523967 49315.764282 
L 167.598347 49315.764282 
L 167.598347 173.514348 
L 164.523967 173.514348 
z
" style="fill:#348abd;"/>
   </g>
   <g id="patch_35">
    <path clip-path="url(#pdd81be8a2a)" d="M 167.598347 49315.764282 
L 170.672727 49315.764282 
L 170.672727 173.514348 
L 167.598347 173.514348 
z
" style="fill:#348abd;"/>
   </g>
   <g id="patch_36">
    <path clip-path="url(#pdd81be8a2a)" d="M 170.672727 49315.764282 
L 173.747107 49315.764282 
L 173.747107 176.238786 
L 170.672727 176.238786 
z
" style="fill:#348abd;"/>
   </g>
   <g id="patch_37">
    <path clip-path="url(#pdd81be8a2a)" d="M 173.747107 49315.764282 
L 176.821488 49315.764282 
L 176.821488 181.733746 
L 173.747107 181.733746 
z
" style="fill:#348abd;"/>
   </g>
   <g id="patch_38">
    <path clip-path="url(#pdd81be8a2a)" d="M 176.821488 49315.764282 
L 179.895868 49315.764282 
L 179.895868 187.4511 
L 176.821488 187.4511 
z
" style="fill:#348abd;"/>
   </g>
   <g id="patch_39">
    <path clip-path="url(#pdd81be8a2a)" d="M 179.895868 49315.764282 
L 182.970248 49315.764282 
L 182.970248 191.011426 
L 179.895868 191.011426 
z
" style="fill:#348abd;"/>
   </g>
   <g id="patch_40">
    <path clip-path="url(#pdd81be8a2a)" d="M 182.970248 49315.764282 
L 186.044628 49315.764282 
L 186.044628 185.87168 
L 182.970248 185.87168 
z
" style="fill:#348abd;"/>
   </g>
   <g id="patch_41">
    <path clip-path="url(#pdd81be8a2a)" d="M 186.044628 49315.764282 
L 189.119008 49315.764282 
L 189.119008 180.515563 
L 186.044628 180.515563 
z
" style="fill:#348abd;"/>
   </g>
   <g id="patch_42">
    <path clip-path="url(#pdd81be8a2a)" d="M 189.119008 49315.764282 
L 192.193388 49315.764282 
L 192.193388 195.288203 
L 189.119008 195.288203 
z
" style="fill:#348abd;"/>
   </g>
   <g id="patch_43">
    <path clip-path="url(#pdd81be8a2a)" d="M 192.193388 49315.764282 
L 195.267769 49315.764282 
L 195.267769 200.64432 
L 192.193388 200.64432 
z
" style="fill:#348abd;"/>
   </g>
   <g id="patch_44">
    <path clip-path="url(#pdd81be8a2a)" d="M 195.267769 49315.764282 
L 198.342149 49315.764282 
L 198.342149 197.798444 
L 195.267769 197.798444 
z
" style="fill:#348abd;"/>
   </g>
   <g id="patch_45">
    <path clip-path="url(#pdd81be8a2a)" d="M 198.342149 49315.764282 
L 201.416529 49315.764282 
L 201.416529 197.798444 
L 198.342149 197.798444 
z
" style="fill:#348abd;"/>
   </g>
   <g id="patch_46">
    <path clip-path="url(#pdd81be8a2a)" d="M 201.416529 49315.764282 
L 204.490909 49315.764282 
L 204.490909 189.157003 
L 201.416529 189.157003 
z
" style="fill:#348abd;"/>
   </g>
   <g id="patch_47">
    <path clip-path="url(#pdd81be8a2a)" d="M 204.490909 49315.764282 
L 207.565289 49315.764282 
L 207.565289 200.64432 
L 204.490909 200.64432 
z
" style="fill:#348abd;"/>
   </g>
   <g id="patch_48">
    <path clip-path="url(#pdd81be8a2a)" d="M 207.565289 49315.764282 
L 210.639669 49315.764282 
L 210.639669 203.929643 
L 207.565289 203.929643 
z
" style="fill:#348abd;"/>
   </g>
   <g id="patch_49">
    <path clip-path="url(#pdd81be8a2a)" d="M 210.639669 49315.764282 
L 213.71405 49315.764282 
L 213.71405 193.042716 
L 210.639669 193.042716 
z
" style="fill:#348abd;"/>
   </g>
   <g id="patch_50">
    <path clip-path="url(#pdd81be8a2a)" d="M 213.71405 49315.764282 
L 216.78843 49315.764282 
L 216.78843 200.64432 
L 213.71405 200.64432 
z
" style="fill:#348abd;"/>
   </g>
   <g id="patch_51">
    <path clip-path="url(#pdd81be8a2a)" d="M 216.78843 49315.764282 
L 219.86281 49315.764282 
L 219.86281 197.798444 
L 216.78843 197.798444 
z
" style="fill:#348abd;"/>
   </g>
   <g id="patch_52">
    <path clip-path="url(#pdd81be8a2a)" d="M 219.86281 49315.764282 
L 222.93719 49315.764282 
L 222.93719 207.815356 
L 219.86281 207.815356 
z
" style="fill:#348abd;"/>
   </g>
   <g id="patch_53">
    <path clip-path="url(#pdd81be8a2a)" d="M 222.93719 49315.764282 
L 226.01157 49315.764282 
L 226.01157 218.702283 
L 222.93719 218.702283 
z
" style="fill:#348abd;"/>
   </g>
   <g id="patch_54">
    <path clip-path="url(#pdd81be8a2a)" d="M 226.01157 49315.764282 
L 229.08595 49315.764282 
L 229.08595 227.343724 
L 226.01157 227.343724 
z
" style="fill:#348abd;"/>
   </g>
   <g id="patch_55">
    <path clip-path="url(#pdd81be8a2a)" d="M 229.08595 49315.764282 
L 232.160331 49315.764282 
L 232.160331 227.343724 
L 229.08595 227.343724 
z
" style="fill:#348abd;"/>
   </g>
   <g id="patch_56">
    <path clip-path="url(#pdd81be8a2a)" d="M 232.160331 49315.764282 
L 235.234711 49315.764282 
L 235.234711 203.929643 
L 232.160331 203.929643 
z
" style="fill:#348abd;"/>
   </g>
   <g id="patch_57">
    <path clip-path="url(#pdd81be8a2a)" d="M 235.234711 49315.764282 
L 238.309091 49315.764282 
L 238.309091 207.815356 
L 235.234711 207.815356 
z
" style="fill:#348abd;"/>
   </g>
   <g id="patch_58">
    <path clip-path="url(#pdd81be8a2a)" d="M 238.309091 49315.764282 
L 241.383471 49315.764282 
L 241.383471 218.702283 
L 238.309091 218.702283 
z
" style="fill:#348abd;"/>
   </g>
   <g id="patch_59">
    <path clip-path="url(#pdd81be8a2a)" d="M 241.383471 49315.764282 
L 244.457851 49315.764282 
L 244.457851 207.815356 
L 241.383471 207.815356 
z
" style="fill:#348abd;"/>
   </g>
   <g id="patch_60">
    <path clip-path="url(#pdd81be8a2a)" d="M 244.457851 49315.764282 
L 247.532231 49315.764282 
L 247.532231 195.288203 
L 244.457851 195.288203 
z
" style="fill:#348abd;"/>
   </g>
   <g id="patch_61">
    <path clip-path="url(#pdd81be8a2a)" d="M 247.532231 49315.764282 
L 250.606612 49315.764282 
L 250.606612 212.571084 
L 247.532231 212.571084 
z
" style="fill:#348abd;"/>
   </g>
   <g id="patch_62">
    <path clip-path="url(#pdd81be8a2a)" d="M 250.606612 49315.764282 
L 253.680992 49315.764282 
L 253.680992 242.116364 
L 250.606612 242.116364 
z
" style="fill:#348abd;"/>
   </g>
   <g id="patch_63">
    <path clip-path="url(#pdd81be8a2a)" d="M 253.680992 49315.764282 
L 256.755372 49315.764282 
L 256.755372 203.929643 
L 253.680992 203.929643 
z
" style="fill:#348abd;"/>
   </g>
   <g id="patch_64">
    <path clip-path="url(#pdd81be8a2a)" d="M 256.755372 49315.764282 
L 259.829752 49315.764282 
L 259.829752 218.702283 
L 256.755372 218.702283 
z
" style="fill:#348abd;"/>
   </g>
   <g id="patch_65">
    <path clip-path="url(#pdd81be8a2a)" d="M 259.829752 49315.764282 
L 262.904132 49315.764282 
L 262.904132 242.116364 
L 259.829752 242.116364 
z
" style="fill:#348abd;"/>
   </g>
   <g id="patch_66">
    <path clip-path="url(#pdd81be8a2a)" d="M 262.904132 49315.764282 
L 265.978512 49315.764282 
L 265.978512 212.571084 
L 262.904132 212.571084 
z
" style="fill:#348abd;"/>
   </g>
   <g id="patch_67">
    <path clip-path="url(#pdd81be8a2a)" d="M 265.978512 49315.764282 
L 269.052893 49315.764282 
L 269.052893 242.116364 
L 265.978512 242.116364 
z
" style="fill:#348abd;"/>
   </g>
   <g id="patch_68">
    <path clip-path="url(#pdd81be8a2a)" d="M 269.052893 49315.764282 
L 272.127273 49315.764282 
L 272.127273 212.571084 
L 269.052893 212.571084 
z
" style="fill:#348abd;"/>
   </g>
   <g id="patch_69">
    <path clip-path="url(#pdd81be8a2a)" d="M 272.127273 49315.764282 
L 275.201653 49315.764282 
L 275.201653 242.116364 
L 272.127273 242.116364 
z
" style="fill:#348abd;"/>
   </g>
   <g id="patch_70">
    <path clip-path="url(#pdd81be8a2a)" d="M 275.201653 49315.764282 
L 278.276033 49315.764282 
L 278.276033 218.702283 
L 275.201653 218.702283 
z
" style="fill:#348abd;"/>
   </g>
   <g id="patch_71">
    <path clip-path="url(#pdd81be8a2a)" d="M 278.276033 49315.764282 
L 281.350413 49315.764282 
L 281.350413 207.815356 
L 278.276033 207.815356 
z
" style="fill:#348abd;"/>
   </g>
   <g id="patch_72">
    <path clip-path="url(#pdd81be8a2a)" d="M 281.350413 49315.764282 
L 284.424793 49315.764282 
L 284.424793 227.343724 
L 281.350413 227.343724 
z
" style="fill:#348abd;"/>
   </g>
   <g id="patch_73">
    <path clip-path="url(#pdd81be8a2a)" d="M 284.424793 49315.764282 
L 287.499174 49315.764282 
L 287.499174 212.571084 
L 284.424793 212.571084 
z
" style="fill:#348abd;"/>
   </g>
   <g id="patch_74">
    <path clip-path="url(#pdd81be8a2a)" d="M 287.499174 49315.764282 
L 290.573554 49315.764282 
L 290.573554 218.702283 
L 287.499174 218.702283 
z
" style="fill:#348abd;"/>
   </g>
   <g id="patch_75">
    <path clip-path="url(#pdd81be8a2a)" d="M 290.573554 49315.764282 
L 293.647934 49315.764282 
L 293.647934 227.343724 
L 290.573554 227.343724 
z
" style="fill:#348abd;"/>
   </g>
   <g id="patch_76">
    <path clip-path="url(#pdd81be8a2a)" d="M 293.647934 49315.764282 
L 296.722314 49315.764282 
L 296.722314 227.343724 
L 293.647934 227.343724 
z
" style="fill:#348abd;"/>
   </g>
   <g id="patch_77">
    <path clip-path="url(#pdd81be8a2a)" d="M 296.722314 49315.764282 
L 299.796694 49315.764282 
L 299.796694 49315.764282 
L 296.722314 49315.764282 
z
" style="fill:#348abd;"/>
   </g>
   <g id="patch_78">
    <path clip-path="url(#pdd81be8a2a)" d="M 299.796694 49315.764282 
L 302.871074 49315.764282 
L 302.871074 49315.764282 
L 299.796694 49315.764282 
z
" style="fill:#348abd;"/>
   </g>
   <g id="patch_79">
    <path clip-path="url(#pdd81be8a2a)" d="M 302.871074 49315.764282 
L 305.945455 49315.764282 
L 305.945455 227.343724 
L 302.871074 227.343724 
z
" style="fill:#348abd;"/>
   </g>
   <g id="patch_80">
    <path clip-path="url(#pdd81be8a2a)" d="M 305.945455 49315.764282 
L 309.019835 49315.764282 
L 309.019835 218.702283 
L 305.945455 218.702283 
z
" style="fill:#348abd;"/>
   </g>
   <g id="patch_81">
    <path clip-path="url(#pdd81be8a2a)" d="M 309.019835 49315.764282 
L 312.094215 49315.764282 
L 312.094215 227.343724 
L 309.019835 227.343724 
z
" style="fill:#348abd;"/>
   </g>
   <g id="patch_82">
    <path clip-path="url(#pdd81be8a2a)" d="M 312.094215 49315.764282 
L 315.168595 49315.764282 
L 315.168595 49315.764282 
L 312.094215 49315.764282 
z
" style="fill:#348abd;"/>
   </g>
   <g id="patch_83">
    <path clip-path="url(#pdd81be8a2a)" d="M 315.168595 49315.764282 
L 318.242975 49315.764282 
L 318.242975 227.343724 
L 315.168595 227.343724 
z
" style="fill:#348abd;"/>
   </g>
   <g id="patch_84">
    <path clip-path="url(#pdd81be8a2a)" d="M 318.242975 49315.764282 
L 321.317355 49315.764282 
L 321.317355 227.343724 
L 318.242975 227.343724 
z
" style="fill:#348abd;"/>
   </g>
   <g id="patch_85">
    <path clip-path="url(#pdd81be8a2a)" d="M 321.317355 49315.764282 
L 324.391736 49315.764282 
L 324.391736 227.343724 
L 321.317355 227.343724 
z
" style="fill:#348abd;"/>
   </g>
   <g id="patch_86">
    <path clip-path="url(#pdd81be8a2a)" d="M 324.391736 49315.764282 
L 327.466116 49315.764282 
L 327.466116 242.116364 
L 324.391736 242.116364 
z
" style="fill:#348abd;"/>
   </g>
   <g id="patch_87">
    <path clip-path="url(#pdd81be8a2a)" d="M 327.466116 49315.764282 
L 330.540496 49315.764282 
L 330.540496 227.343724 
L 327.466116 227.343724 
z
" style="fill:#348abd;"/>
   </g>
   <g id="patch_88">
    <path clip-path="url(#pdd81be8a2a)" d="M 330.540496 49315.764282 
L 333.614876 49315.764282 
L 333.614876 49315.764282 
L 330.540496 49315.764282 
z
" style="fill:#348abd;"/>
   </g>
   <g id="patch_89">
    <path clip-path="url(#pdd81be8a2a)" d="M 333.614876 49315.764282 
L 336.689256 49315.764282 
L 336.689256 242.116364 
L 333.614876 242.116364 
z
" style="fill:#348abd;"/>
   </g>
   <g id="patch_90">
    <path clip-path="url(#pdd81be8a2a)" d="M 336.689256 49315.764282 
L 339.763636 49315.764282 
L 339.763636 242.116364 
L 336.689256 242.116364 
z
" style="fill:#348abd;"/>
   </g>
   <g id="patch_91">
    <path clip-path="url(#pdd81be8a2a)" d="M 339.763636 49315.764282 
L 342.838017 49315.764282 
L 342.838017 242.116364 
L 339.763636 242.116364 
z
" style="fill:#348abd;"/>
   </g>
   <g id="patch_92">
    <path clip-path="url(#pdd81be8a2a)" d="M 342.838017 49315.764282 
L 345.912397 49315.764282 
L 345.912397 242.116364 
L 342.838017 242.116364 
z
" style="fill:#348abd;"/>
   </g>
   <g id="patch_93">
    <path clip-path="url(#pdd81be8a2a)" d="M 345.912397 49315.764282 
L 348.986777 49315.764282 
L 348.986777 227.343724 
L 345.912397 227.343724 
z
" style="fill:#348abd;"/>
   </g>
   <g id="patch_94">
    <path clip-path="url(#pdd81be8a2a)" d="M 348.986777 49315.764282 
L 352.061157 49315.764282 
L 352.061157 242.116364 
L 348.986777 242.116364 
z
" style="fill:#348abd;"/>
   </g>
   <g id="patch_95">
    <path clip-path="url(#pdd81be8a2a)" d="M 352.061157 49315.764282 
L 355.135537 49315.764282 
L 355.135537 49315.764282 
L 352.061157 49315.764282 
z
" style="fill:#348abd;"/>
   </g>
   <g id="patch_96">
    <path clip-path="url(#pdd81be8a2a)" d="M 355.135537 49315.764282 
L 358.209917 49315.764282 
L 358.209917 242.116364 
L 355.135537 242.116364 
z
" style="fill:#348abd;"/>
   </g>
   <g id="patch_97">
    <path clip-path="url(#pdd81be8a2a)" d="M 358.209917 49315.764282 
L 361.284298 49315.764282 
L 361.284298 49315.764282 
L 358.209917 49315.764282 
z
" style="fill:#348abd;"/>
   </g>
   <g id="patch_98">
    <path clip-path="url(#pdd81be8a2a)" d="M 361.284298 49315.764282 
L 364.358678 49315.764282 
L 364.358678 218.702283 
L 361.284298 218.702283 
z
" style="fill:#348abd;"/>
   </g>
   <g id="patch_99">
    <path clip-path="url(#pdd81be8a2a)" d="M 364.358678 49315.764282 
L 367.433058 49315.764282 
L 367.433058 49315.764282 
L 364.358678 49315.764282 
z
" style="fill:#348abd;"/>
   </g>
   <g id="patch_100">
    <path clip-path="url(#pdd81be8a2a)" d="M 367.433058 49315.764282 
L 370.507438 49315.764282 
L 370.507438 227.343724 
L 367.433058 227.343724 
z
" style="fill:#348abd;"/>
   </g>
   <g id="patch_101">
    <path clip-path="url(#pdd81be8a2a)" d="M 370.507438 49315.764282 
L 373.581818 49315.764282 
L 373.581818 242.116364 
L 370.507438 242.116364 
z
" style="fill:#348abd;"/>
   </g>
   <g id="matplotlib.axis_1">
    <g id="xtick_1">
     <g id="line2d_1">
      <path clip-path="url(#pdd81be8a2a)" d="M 69.218182 252 
L 69.218182 34.56 
" style="fill:none;stroke:#b2b2b2;stroke-dasharray:1.85,0.8;stroke-dashoffset:0;stroke-width:0.5;"/>
     </g>
     <g id="line2d_2">
      <defs>
       <path d="M 0 0 
L 0 -3.5 
" id="m2d56d9fc0b" style="stroke:#000000;stroke-width:0.8;"/>
      </defs>
      <g>
       <use style="stroke:#000000;stroke-width:0.8;" x="69.218182" xlink:href="#m2d56d9fc0b" y="252"/>
      </g>
     </g>
     <g id="text_1">
      <!-- 0 -->
      <defs>
       <path d="M 31.78125 66.40625 
Q 24.171875 66.40625 20.328125 58.90625 
Q 16.5 51.421875 16.5 36.375 
Q 16.5 21.390625 20.328125 13.890625 
Q 24.171875 6.390625 31.78125 6.390625 
Q 39.453125 6.390625 43.28125 13.890625 
Q 47.125 21.390625 47.125 36.375 
Q 47.125 51.421875 43.28125 58.90625 
Q 39.453125 66.40625 31.78125 66.40625 
z
M 31.78125 74.21875 
Q 44.046875 74.21875 50.515625 64.515625 
Q 56.984375 54.828125 56.984375 36.375 
Q 56.984375 17.96875 50.515625 8.265625 
Q 44.046875 -1.421875 31.78125 -1.421875 
Q 19.53125 -1.421875 13.0625 8.265625 
Q 6.59375 17.96875 6.59375 36.375 
Q 6.59375 54.828125 13.0625 64.515625 
Q 19.53125 74.21875 31.78125 74.21875 
z
" id="DejaVuSans-30"/>
      </defs>
      <g transform="translate(66.036932 263.098437)scale(0.1 -0.1)">
       <use xlink:href="#DejaVuSans-30"/>
      </g>
     </g>
    </g>
    <g id="xtick_2">
     <g id="line2d_3">
      <path clip-path="url(#pdd81be8a2a)" d="M 130.705785 252 
L 130.705785 34.56 
" style="fill:none;stroke:#b2b2b2;stroke-dasharray:1.85,0.8;stroke-dashoffset:0;stroke-width:0.5;"/>
     </g>
     <g id="line2d_4">
      <g>
       <use style="stroke:#000000;stroke-width:0.8;" x="130.705785" xlink:href="#m2d56d9fc0b" y="252"/>
      </g>
     </g>
     <g id="text_2">
      <!-- 200 -->
      <defs>
       <path d="M 19.1875 8.296875 
L 53.609375 8.296875 
L 53.609375 0 
L 7.328125 0 
L 7.328125 8.296875 
Q 12.9375 14.109375 22.625 23.890625 
Q 32.328125 33.6875 34.8125 36.53125 
Q 39.546875 41.84375 41.421875 45.53125 
Q 43.3125 49.21875 43.3125 52.78125 
Q 43.3125 58.59375 39.234375 62.25 
Q 35.15625 65.921875 28.609375 65.921875 
Q 23.96875 65.921875 18.8125 64.3125 
Q 13.671875 62.703125 7.8125 59.421875 
L 7.8125 69.390625 
Q 13.765625 71.78125 18.9375 73 
Q 24.125 74.21875 28.421875 74.21875 
Q 39.75 74.21875 46.484375 68.546875 
Q 53.21875 62.890625 53.21875 53.421875 
Q 53.21875 48.921875 51.53125 44.890625 
Q 49.859375 40.875 45.40625 35.40625 
Q 44.1875 33.984375 37.640625 27.21875 
Q 31.109375 20.453125 19.1875 8.296875 
z
" id="DejaVuSans-32"/>
      </defs>
      <g transform="translate(121.162035 263.098437)scale(0.1 -0.1)">
       <use xlink:href="#DejaVuSans-32"/>
       <use x="63.623047" xlink:href="#DejaVuSans-30"/>
       <use x="127.246094" xlink:href="#DejaVuSans-30"/>
      </g>
     </g>
    </g>
    <g id="xtick_3">
     <g id="line2d_5">
      <path clip-path="url(#pdd81be8a2a)" d="M 192.193388 252 
L 192.193388 34.56 
" style="fill:none;stroke:#b2b2b2;stroke-dasharray:1.85,0.8;stroke-dashoffset:0;stroke-width:0.5;"/>
     </g>
     <g id="line2d_6">
      <g>
       <use style="stroke:#000000;stroke-width:0.8;" x="192.193388" xlink:href="#m2d56d9fc0b" y="252"/>
      </g>
     </g>
     <g id="text_3">
      <!-- 400 -->
      <defs>
       <path d="M 37.796875 64.3125 
L 12.890625 25.390625 
L 37.796875 25.390625 
z
M 35.203125 72.90625 
L 47.609375 72.90625 
L 47.609375 25.390625 
L 58.015625 25.390625 
L 58.015625 17.1875 
L 47.609375 17.1875 
L 47.609375 0 
L 37.796875 0 
L 37.796875 17.1875 
L 4.890625 17.1875 
L 4.890625 26.703125 
z
" id="DejaVuSans-34"/>
      </defs>
      <g transform="translate(182.649638 263.098437)scale(0.1 -0.1)">
       <use xlink:href="#DejaVuSans-34"/>
       <use x="63.623047" xlink:href="#DejaVuSans-30"/>
       <use x="127.246094" xlink:href="#DejaVuSans-30"/>
      </g>
     </g>
    </g>
    <g id="xtick_4">
     <g id="line2d_7">
      <path clip-path="url(#pdd81be8a2a)" d="M 253.680992 252 
L 253.680992 34.56 
" style="fill:none;stroke:#b2b2b2;stroke-dasharray:1.85,0.8;stroke-dashoffset:0;stroke-width:0.5;"/>
     </g>
     <g id="line2d_8">
      <g>
       <use style="stroke:#000000;stroke-width:0.8;" x="253.680992" xlink:href="#m2d56d9fc0b" y="252"/>
      </g>
     </g>
     <g id="text_4">
      <!-- 600 -->
      <defs>
       <path d="M 33.015625 40.375 
Q 26.375 40.375 22.484375 35.828125 
Q 18.609375 31.296875 18.609375 23.390625 
Q 18.609375 15.53125 22.484375 10.953125 
Q 26.375 6.390625 33.015625 6.390625 
Q 39.65625 6.390625 43.53125 10.953125 
Q 47.40625 15.53125 47.40625 23.390625 
Q 47.40625 31.296875 43.53125 35.828125 
Q 39.65625 40.375 33.015625 40.375 
z
M 52.59375 71.296875 
L 52.59375 62.3125 
Q 48.875 64.0625 45.09375 64.984375 
Q 41.3125 65.921875 37.59375 65.921875 
Q 27.828125 65.921875 22.671875 59.328125 
Q 17.53125 52.734375 16.796875 39.40625 
Q 19.671875 43.65625 24.015625 45.921875 
Q 28.375 48.1875 33.59375 48.1875 
Q 44.578125 48.1875 50.953125 41.515625 
Q 57.328125 34.859375 57.328125 23.390625 
Q 57.328125 12.15625 50.6875 5.359375 
Q 44.046875 -1.421875 33.015625 -1.421875 
Q 20.359375 -1.421875 13.671875 8.265625 
Q 6.984375 17.96875 6.984375 36.375 
Q 6.984375 53.65625 15.1875 63.9375 
Q 23.390625 74.21875 37.203125 74.21875 
Q 40.921875 74.21875 44.703125 73.484375 
Q 48.484375 72.75 52.59375 71.296875 
z
" id="DejaVuSans-36"/>
      </defs>
      <g transform="translate(244.137242 263.098437)scale(0.1 -0.1)">
       <use xlink:href="#DejaVuSans-36"/>
       <use x="63.623047" xlink:href="#DejaVuSans-30"/>
       <use x="127.246094" xlink:href="#DejaVuSans-30"/>
      </g>
     </g>
    </g>
    <g id="xtick_5">
     <g id="line2d_9">
      <path clip-path="url(#pdd81be8a2a)" d="M 315.168595 252 
L 315.168595 34.56 
" style="fill:none;stroke:#b2b2b2;stroke-dasharray:1.85,0.8;stroke-dashoffset:0;stroke-width:0.5;"/>
     </g>
     <g id="line2d_10">
      <g>
       <use style="stroke:#000000;stroke-width:0.8;" x="315.168595" xlink:href="#m2d56d9fc0b" y="252"/>
      </g>
     </g>
     <g id="text_5">
      <!-- 800 -->
      <defs>
       <path d="M 31.78125 34.625 
Q 24.75 34.625 20.71875 30.859375 
Q 16.703125 27.09375 16.703125 20.515625 
Q 16.703125 13.921875 20.71875 10.15625 
Q 24.75 6.390625 31.78125 6.390625 
Q 38.8125 6.390625 42.859375 10.171875 
Q 46.921875 13.96875 46.921875 20.515625 
Q 46.921875 27.09375 42.890625 30.859375 
Q 38.875 34.625 31.78125 34.625 
z
M 21.921875 38.8125 
Q 15.578125 40.375 12.03125 44.71875 
Q 8.5 49.078125 8.5 55.328125 
Q 8.5 64.0625 14.71875 69.140625 
Q 20.953125 74.21875 31.78125 74.21875 
Q 42.671875 74.21875 48.875 69.140625 
Q 55.078125 64.0625 55.078125 55.328125 
Q 55.078125 49.078125 51.53125 44.71875 
Q 48 40.375 41.703125 38.8125 
Q 48.828125 37.15625 52.796875 32.3125 
Q 56.78125 27.484375 56.78125 20.515625 
Q 56.78125 9.90625 50.3125 4.234375 
Q 43.84375 -1.421875 31.78125 -1.421875 
Q 19.734375 -1.421875 13.25 4.234375 
Q 6.78125 9.90625 6.78125 20.515625 
Q 6.78125 27.484375 10.78125 32.3125 
Q 14.796875 37.15625 21.921875 38.8125 
z
M 18.3125 54.390625 
Q 18.3125 48.734375 21.84375 45.5625 
Q 25.390625 42.390625 31.78125 42.390625 
Q 38.140625 42.390625 41.71875 45.5625 
Q 45.3125 48.734375 45.3125 54.390625 
Q 45.3125 60.0625 41.71875 63.234375 
Q 38.140625 66.40625 31.78125 66.40625 
Q 25.390625 66.40625 21.84375 63.234375 
Q 18.3125 60.0625 18.3125 54.390625 
z
" id="DejaVuSans-38"/>
      </defs>
      <g transform="translate(305.624845 263.098437)scale(0.1 -0.1)">
       <use xlink:href="#DejaVuSans-38"/>
       <use x="63.623047" xlink:href="#DejaVuSans-30"/>
       <use x="127.246094" xlink:href="#DejaVuSans-30"/>
      </g>
     </g>
    </g>
    <g id="xtick_6">
     <g id="line2d_11">
      <path clip-path="url(#pdd81be8a2a)" d="M 376.656198 252 
L 376.656198 34.56 
" style="fill:none;stroke:#b2b2b2;stroke-dasharray:1.85,0.8;stroke-dashoffset:0;stroke-width:0.5;"/>
     </g>
     <g id="line2d_12">
      <g>
       <use style="stroke:#000000;stroke-width:0.8;" x="376.656198" xlink:href="#m2d56d9fc0b" y="252"/>
      </g>
     </g>
     <g id="text_6">
      <!-- 1000 -->
      <defs>
       <path d="M 12.40625 8.296875 
L 28.515625 8.296875 
L 28.515625 63.921875 
L 10.984375 60.40625 
L 10.984375 69.390625 
L 28.421875 72.90625 
L 38.28125 72.90625 
L 38.28125 8.296875 
L 54.390625 8.296875 
L 54.390625 0 
L 12.40625 0 
z
" id="DejaVuSans-31"/>
      </defs>
      <g transform="translate(363.931198 263.098437)scale(0.1 -0.1)">
       <use xlink:href="#DejaVuSans-31"/>
       <use x="63.623047" xlink:href="#DejaVuSans-30"/>
       <use x="127.246094" xlink:href="#DejaVuSans-30"/>
       <use x="190.869141" xlink:href="#DejaVuSans-30"/>
      </g>
     </g>
    </g>
    <g id="text_7">
     <!-- cantidad de usuarios -->
     <defs>
      <path d="M 48.78125 52.59375 
L 48.78125 44.1875 
Q 44.96875 46.296875 41.140625 47.34375 
Q 37.3125 48.390625 33.40625 48.390625 
Q 24.65625 48.390625 19.8125 42.84375 
Q 14.984375 37.3125 14.984375 27.296875 
Q 14.984375 17.28125 19.8125 11.734375 
Q 24.65625 6.203125 33.40625 6.203125 
Q 37.3125 6.203125 41.140625 7.25 
Q 44.96875 8.296875 48.78125 10.40625 
L 48.78125 2.09375 
Q 45.015625 0.34375 40.984375 -0.53125 
Q 36.96875 -1.421875 32.421875 -1.421875 
Q 20.0625 -1.421875 12.78125 6.34375 
Q 5.515625 14.109375 5.515625 27.296875 
Q 5.515625 40.671875 12.859375 48.328125 
Q 20.21875 56 33.015625 56 
Q 37.15625 56 41.109375 55.140625 
Q 45.0625 54.296875 48.78125 52.59375 
z
" id="DejaVuSans-63"/>
      <path d="M 34.28125 27.484375 
Q 23.390625 27.484375 19.1875 25 
Q 14.984375 22.515625 14.984375 16.5 
Q 14.984375 11.71875 18.140625 8.90625 
Q 21.296875 6.109375 26.703125 6.109375 
Q 34.1875 6.109375 38.703125 11.40625 
Q 43.21875 16.703125 43.21875 25.484375 
L 43.21875 27.484375 
z
M 52.203125 31.203125 
L 52.203125 0 
L 43.21875 0 
L 43.21875 8.296875 
Q 40.140625 3.328125 35.546875 0.953125 
Q 30.953125 -1.421875 24.3125 -1.421875 
Q 15.921875 -1.421875 10.953125 3.296875 
Q 6 8.015625 6 15.921875 
Q 6 25.140625 12.171875 29.828125 
Q 18.359375 34.515625 30.609375 34.515625 
L 43.21875 34.515625 
L 43.21875 35.40625 
Q 43.21875 41.609375 39.140625 45 
Q 35.0625 48.390625 27.6875 48.390625 
Q 23 48.390625 18.546875 47.265625 
Q 14.109375 46.140625 10.015625 43.890625 
L 10.015625 52.203125 
Q 14.9375 54.109375 19.578125 55.046875 
Q 24.21875 56 28.609375 56 
Q 40.484375 56 46.34375 49.84375 
Q 52.203125 43.703125 52.203125 31.203125 
z
" id="DejaVuSans-61"/>
      <path d="M 54.890625 33.015625 
L 54.890625 0 
L 45.90625 0 
L 45.90625 32.71875 
Q 45.90625 40.484375 42.875 44.328125 
Q 39.84375 48.1875 33.796875 48.1875 
Q 26.515625 48.1875 22.3125 43.546875 
Q 18.109375 38.921875 18.109375 30.90625 
L 18.109375 0 
L 9.078125 0 
L 9.078125 54.6875 
L 18.109375 54.6875 
L 18.109375 46.1875 
Q 21.34375 51.125 25.703125 53.5625 
Q 30.078125 56 35.796875 56 
Q 45.21875 56 50.046875 50.171875 
Q 54.890625 44.34375 54.890625 33.015625 
z
" id="DejaVuSans-6e"/>
      <path d="M 18.3125 70.21875 
L 18.3125 54.6875 
L 36.8125 54.6875 
L 36.8125 47.703125 
L 18.3125 47.703125 
L 18.3125 18.015625 
Q 18.3125 11.328125 20.140625 9.421875 
Q 21.96875 7.515625 27.59375 7.515625 
L 36.8125 7.515625 
L 36.8125 0 
L 27.59375 0 
Q 17.1875 0 13.234375 3.875 
Q 9.28125 7.765625 9.28125 18.015625 
L 9.28125 47.703125 
L 2.6875 47.703125 
L 2.6875 54.6875 
L 9.28125 54.6875 
L 9.28125 70.21875 
z
" id="DejaVuSans-74"/>
      <path d="M 9.421875 54.6875 
L 18.40625 54.6875 
L 18.40625 0 
L 9.421875 0 
z
M 9.421875 75.984375 
L 18.40625 75.984375 
L 18.40625 64.59375 
L 9.421875 64.59375 
z
" id="DejaVuSans-69"/>
      <path d="M 45.40625 46.390625 
L 45.40625 75.984375 
L 54.390625 75.984375 
L 54.390625 0 
L 45.40625 0 
L 45.40625 8.203125 
Q 42.578125 3.328125 38.25 0.953125 
Q 33.9375 -1.421875 27.875 -1.421875 
Q 17.96875 -1.421875 11.734375 6.484375 
Q 5.515625 14.40625 5.515625 27.296875 
Q 5.515625 40.1875 11.734375 48.09375 
Q 17.96875 56 27.875 56 
Q 33.9375 56 38.25 53.625 
Q 42.578125 51.265625 45.40625 46.390625 
z
M 14.796875 27.296875 
Q 14.796875 17.390625 18.875 11.75 
Q 22.953125 6.109375 30.078125 6.109375 
Q 37.203125 6.109375 41.296875 11.75 
Q 45.40625 17.390625 45.40625 27.296875 
Q 45.40625 37.203125 41.296875 42.84375 
Q 37.203125 48.484375 30.078125 48.484375 
Q 22.953125 48.484375 18.875 42.84375 
Q 14.796875 37.203125 14.796875 27.296875 
z
" id="DejaVuSans-64"/>
      <path id="DejaVuSans-20"/>
      <path d="M 56.203125 29.59375 
L 56.203125 25.203125 
L 14.890625 25.203125 
Q 15.484375 15.921875 20.484375 11.0625 
Q 25.484375 6.203125 34.421875 6.203125 
Q 39.59375 6.203125 44.453125 7.46875 
Q 49.3125 8.734375 54.109375 11.28125 
L 54.109375 2.78125 
Q 49.265625 0.734375 44.1875 -0.34375 
Q 39.109375 -1.421875 33.890625 -1.421875 
Q 20.796875 -1.421875 13.15625 6.1875 
Q 5.515625 13.8125 5.515625 26.8125 
Q 5.515625 40.234375 12.765625 48.109375 
Q 20.015625 56 32.328125 56 
Q 43.359375 56 49.78125 48.890625 
Q 56.203125 41.796875 56.203125 29.59375 
z
M 47.21875 32.234375 
Q 47.125 39.59375 43.09375 43.984375 
Q 39.0625 48.390625 32.421875 48.390625 
Q 24.90625 48.390625 20.390625 44.140625 
Q 15.875 39.890625 15.1875 32.171875 
z
" id="DejaVuSans-65"/>
      <path d="M 8.5 21.578125 
L 8.5 54.6875 
L 17.484375 54.6875 
L 17.484375 21.921875 
Q 17.484375 14.15625 20.5 10.265625 
Q 23.53125 6.390625 29.59375 6.390625 
Q 36.859375 6.390625 41.078125 11.03125 
Q 45.3125 15.671875 45.3125 23.6875 
L 45.3125 54.6875 
L 54.296875 54.6875 
L 54.296875 0 
L 45.3125 0 
L 45.3125 8.40625 
Q 42.046875 3.421875 37.71875 1 
Q 33.40625 -1.421875 27.6875 -1.421875 
Q 18.265625 -1.421875 13.375 4.4375 
Q 8.5 10.296875 8.5 21.578125 
z
M 31.109375 56 
z
" id="DejaVuSans-75"/>
      <path d="M 44.28125 53.078125 
L 44.28125 44.578125 
Q 40.484375 46.53125 36.375 47.5 
Q 32.28125 48.484375 27.875 48.484375 
Q 21.1875 48.484375 17.84375 46.4375 
Q 14.5 44.390625 14.5 40.28125 
Q 14.5 37.15625 16.890625 35.375 
Q 19.28125 33.59375 26.515625 31.984375 
L 29.59375 31.296875 
Q 39.15625 29.25 43.1875 25.515625 
Q 47.21875 21.78125 47.21875 15.09375 
Q 47.21875 7.46875 41.1875 3.015625 
Q 35.15625 -1.421875 24.609375 -1.421875 
Q 20.21875 -1.421875 15.453125 -0.5625 
Q 10.6875 0.296875 5.421875 2 
L 5.421875 11.28125 
Q 10.40625 8.6875 15.234375 7.390625 
Q 20.0625 6.109375 24.8125 6.109375 
Q 31.15625 6.109375 34.5625 8.28125 
Q 37.984375 10.453125 37.984375 14.40625 
Q 37.984375 18.0625 35.515625 20.015625 
Q 33.0625 21.96875 24.703125 23.78125 
L 21.578125 24.515625 
Q 13.234375 26.265625 9.515625 29.90625 
Q 5.8125 33.546875 5.8125 39.890625 
Q 5.8125 47.609375 11.28125 51.796875 
Q 16.75 56 26.8125 56 
Q 31.78125 56 36.171875 55.265625 
Q 40.578125 54.546875 44.28125 53.078125 
z
" id="DejaVuSans-73"/>
      <path d="M 41.109375 46.296875 
Q 39.59375 47.171875 37.8125 47.578125 
Q 36.03125 48 33.890625 48 
Q 26.265625 48 22.1875 43.046875 
Q 18.109375 38.09375 18.109375 28.8125 
L 18.109375 0 
L 9.078125 0 
L 9.078125 54.6875 
L 18.109375 54.6875 
L 18.109375 46.1875 
Q 20.953125 51.171875 25.484375 53.578125 
Q 30.03125 56 36.53125 56 
Q 37.453125 56 38.578125 55.875 
Q 39.703125 55.765625 41.0625 55.515625 
z
" id="DejaVuSans-72"/>
      <path d="M 30.609375 48.390625 
Q 23.390625 48.390625 19.1875 42.75 
Q 14.984375 37.109375 14.984375 27.296875 
Q 14.984375 17.484375 19.15625 11.84375 
Q 23.34375 6.203125 30.609375 6.203125 
Q 37.796875 6.203125 41.984375 11.859375 
Q 46.1875 17.53125 46.1875 27.296875 
Q 46.1875 37.015625 41.984375 42.703125 
Q 37.796875 48.390625 30.609375 48.390625 
z
M 30.609375 56 
Q 42.328125 56 49.015625 48.375 
Q 55.71875 40.765625 55.71875 27.296875 
Q 55.71875 13.875 49.015625 6.21875 
Q 42.328125 -1.421875 30.609375 -1.421875 
Q 18.84375 -1.421875 12.171875 6.21875 
Q 5.515625 13.875 5.515625 27.296875 
Q 5.515625 40.765625 12.171875 48.375 
Q 18.84375 56 30.609375 56 
z
" id="DejaVuSans-6f"/>
     </defs>
     <g transform="translate(158.655 278.29625)scale(0.12 -0.12)">
      <use xlink:href="#DejaVuSans-63"/>
      <use x="54.980469" xlink:href="#DejaVuSans-61"/>
      <use x="116.259766" xlink:href="#DejaVuSans-6e"/>
      <use x="179.638672" xlink:href="#DejaVuSans-74"/>
      <use x="218.847656" xlink:href="#DejaVuSans-69"/>
      <use x="246.630859" xlink:href="#DejaVuSans-64"/>
      <use x="310.107422" xlink:href="#DejaVuSans-61"/>
      <use x="371.386719" xlink:href="#DejaVuSans-64"/>
      <use x="434.863281" xlink:href="#DejaVuSans-20"/>
      <use x="466.650391" xlink:href="#DejaVuSans-64"/>
      <use x="530.126953" xlink:href="#DejaVuSans-65"/>
      <use x="591.650391" xlink:href="#DejaVuSans-20"/>
      <use x="623.4375" xlink:href="#DejaVuSans-75"/>
      <use x="686.816406" xlink:href="#DejaVuSans-73"/>
      <use x="738.916016" xlink:href="#DejaVuSans-75"/>
      <use x="802.294922" xlink:href="#DejaVuSans-61"/>
      <use x="863.574219" xlink:href="#DejaVuSans-72"/>
      <use x="904.6875" xlink:href="#DejaVuSans-69"/>
      <use x="932.470703" xlink:href="#DejaVuSans-6f"/>
      <use x="993.652344" xlink:href="#DejaVuSans-73"/>
     </g>
    </g>
   </g>
   <g id="matplotlib.axis_2">
    <g id="ytick_1">
     <g id="line2d_13">
      <path clip-path="url(#pdd81be8a2a)" d="M 54 242.116364 
L 388.8 242.116364 
" style="fill:none;stroke:#b2b2b2;stroke-dasharray:1.85,0.8;stroke-dashoffset:0;stroke-width:0.5;"/>
     </g>
     <g id="line2d_14">
      <defs>
       <path d="M 0 0 
L 3.5 0 
" id="mb37199adf5" style="stroke:#000000;stroke-width:0.8;"/>
      </defs>
      <g>
       <use style="stroke:#000000;stroke-width:0.8;" x="54" xlink:href="#mb37199adf5" y="242.116364"/>
      </g>
     </g>
     <g id="text_8">
      <!-- $\mathdefault{10^{0}}$ -->
      <g transform="translate(32.9 245.915582)scale(0.1 -0.1)">
       <use transform="translate(0 0.765625)" xlink:href="#DejaVuSans-31"/>
       <use transform="translate(63.623047 0.765625)" xlink:href="#DejaVuSans-30"/>
       <use transform="translate(128.203125 39.046875)scale(0.7)" xlink:href="#DejaVuSans-30"/>
      </g>
     </g>
    </g>
    <g id="ytick_2">
     <g id="line2d_15">
      <path clip-path="url(#pdd81be8a2a)" d="M 54 193.042716 
L 388.8 193.042716 
" style="fill:none;stroke:#b2b2b2;stroke-dasharray:1.85,0.8;stroke-dashoffset:0;stroke-width:0.5;"/>
     </g>
     <g id="line2d_16">
      <g>
       <use style="stroke:#000000;stroke-width:0.8;" x="54" xlink:href="#mb37199adf5" y="193.042716"/>
      </g>
     </g>
     <g id="text_9">
      <!-- $\mathdefault{10^{1}}$ -->
      <g transform="translate(32.9 196.841934)scale(0.1 -0.1)">
       <use transform="translate(0 0.684375)" xlink:href="#DejaVuSans-31"/>
       <use transform="translate(63.623047 0.684375)" xlink:href="#DejaVuSans-30"/>
       <use transform="translate(128.203125 38.965625)scale(0.7)" xlink:href="#DejaVuSans-31"/>
      </g>
     </g>
    </g>
    <g id="ytick_3">
     <g id="line2d_17">
      <path clip-path="url(#pdd81be8a2a)" d="M 54 143.969068 
L 388.8 143.969068 
" style="fill:none;stroke:#b2b2b2;stroke-dasharray:1.85,0.8;stroke-dashoffset:0;stroke-width:0.5;"/>
     </g>
     <g id="line2d_18">
      <g>
       <use style="stroke:#000000;stroke-width:0.8;" x="54" xlink:href="#mb37199adf5" y="143.969068"/>
      </g>
     </g>
     <g id="text_10">
      <!-- $\mathdefault{10^{2}}$ -->
      <g transform="translate(32.9 147.768287)scale(0.1 -0.1)">
       <use transform="translate(0 0.765625)" xlink:href="#DejaVuSans-31"/>
       <use transform="translate(63.623047 0.765625)" xlink:href="#DejaVuSans-30"/>
       <use transform="translate(128.203125 39.046875)scale(0.7)" xlink:href="#DejaVuSans-32"/>
      </g>
     </g>
    </g>
    <g id="ytick_4">
     <g id="line2d_19">
      <path clip-path="url(#pdd81be8a2a)" d="M 54 94.89542 
L 388.8 94.89542 
" style="fill:none;stroke:#b2b2b2;stroke-dasharray:1.85,0.8;stroke-dashoffset:0;stroke-width:0.5;"/>
     </g>
     <g id="line2d_20">
      <g>
       <use style="stroke:#000000;stroke-width:0.8;" x="54" xlink:href="#mb37199adf5" y="94.89542"/>
      </g>
     </g>
     <g id="text_11">
      <!-- $\mathdefault{10^{3}}$ -->
      <defs>
       <path d="M 40.578125 39.3125 
Q 47.65625 37.796875 51.625 33 
Q 55.609375 28.21875 55.609375 21.1875 
Q 55.609375 10.40625 48.1875 4.484375 
Q 40.765625 -1.421875 27.09375 -1.421875 
Q 22.515625 -1.421875 17.65625 -0.515625 
Q 12.796875 0.390625 7.625 2.203125 
L 7.625 11.71875 
Q 11.71875 9.328125 16.59375 8.109375 
Q 21.484375 6.890625 26.8125 6.890625 
Q 36.078125 6.890625 40.9375 10.546875 
Q 45.796875 14.203125 45.796875 21.1875 
Q 45.796875 27.640625 41.28125 31.265625 
Q 36.765625 34.90625 28.71875 34.90625 
L 20.21875 34.90625 
L 20.21875 43.015625 
L 29.109375 43.015625 
Q 36.375 43.015625 40.234375 45.921875 
Q 44.09375 48.828125 44.09375 54.296875 
Q 44.09375 59.90625 40.109375 62.90625 
Q 36.140625 65.921875 28.71875 65.921875 
Q 24.65625 65.921875 20.015625 65.03125 
Q 15.375 64.15625 9.8125 62.3125 
L 9.8125 71.09375 
Q 15.4375 72.65625 20.34375 73.4375 
Q 25.25 74.21875 29.59375 74.21875 
Q 40.828125 74.21875 47.359375 69.109375 
Q 53.90625 64.015625 53.90625 55.328125 
Q 53.90625 49.265625 50.4375 45.09375 
Q 46.96875 40.921875 40.578125 39.3125 
z
" id="DejaVuSans-33"/>
      </defs>
      <g transform="translate(32.9 98.694639)scale(0.1 -0.1)">
       <use transform="translate(0 0.765625)" xlink:href="#DejaVuSans-31"/>
       <use transform="translate(63.623047 0.765625)" xlink:href="#DejaVuSans-30"/>
       <use transform="translate(128.203125 39.046875)scale(0.7)" xlink:href="#DejaVuSans-33"/>
      </g>
     </g>
    </g>
    <g id="ytick_5">
     <g id="line2d_21">
      <path clip-path="url(#pdd81be8a2a)" d="M 54 45.821772 
L 388.8 45.821772 
" style="fill:none;stroke:#b2b2b2;stroke-dasharray:1.85,0.8;stroke-dashoffset:0;stroke-width:0.5;"/>
     </g>
     <g id="line2d_22">
      <g>
       <use style="stroke:#000000;stroke-width:0.8;" x="54" xlink:href="#mb37199adf5" y="45.821772"/>
      </g>
     </g>
     <g id="text_12">
      <!-- $\mathdefault{10^{4}}$ -->
      <g transform="translate(32.9 49.620991)scale(0.1 -0.1)">
       <use transform="translate(0 0.684375)" xlink:href="#DejaVuSans-31"/>
       <use transform="translate(63.623047 0.684375)" xlink:href="#DejaVuSans-30"/>
       <use transform="translate(128.203125 38.965625)scale(0.7)" xlink:href="#DejaVuSans-34"/>
      </g>
     </g>
    </g>
    <g id="ytick_6">
     <g id="line2d_23">
      <defs>
       <path d="M 0 0 
L 2 0 
" id="m4e3cbe7594" style="stroke:#000000;stroke-width:0.6;"/>
      </defs>
      <g>
       <use style="stroke:#000000;stroke-width:0.6;" x="54" xlink:href="#m4e3cbe7594" y="249.717968"/>
      </g>
     </g>
    </g>
    <g id="ytick_7">
     <g id="line2d_24">
      <g>
       <use style="stroke:#000000;stroke-width:0.6;" x="54" xlink:href="#m4e3cbe7594" y="246.872091"/>
      </g>
     </g>
    </g>
    <g id="ytick_8">
     <g id="line2d_25">
      <g>
       <use style="stroke:#000000;stroke-width:0.6;" x="54" xlink:href="#m4e3cbe7594" y="244.361851"/>
      </g>
     </g>
    </g>
    <g id="ytick_9">
     <g id="line2d_26">
      <g>
       <use style="stroke:#000000;stroke-width:0.6;" x="54" xlink:href="#m4e3cbe7594" y="227.343724"/>
      </g>
     </g>
    </g>
    <g id="ytick_10">
     <g id="line2d_27">
      <g>
       <use style="stroke:#000000;stroke-width:0.6;" x="54" xlink:href="#m4e3cbe7594" y="218.702283"/>
      </g>
     </g>
    </g>
    <g id="ytick_11">
     <g id="line2d_28">
      <g>
       <use style="stroke:#000000;stroke-width:0.6;" x="54" xlink:href="#m4e3cbe7594" y="212.571084"/>
      </g>
     </g>
    </g>
    <g id="ytick_12">
     <g id="line2d_29">
      <g>
       <use style="stroke:#000000;stroke-width:0.6;" x="54" xlink:href="#m4e3cbe7594" y="207.815356"/>
      </g>
     </g>
    </g>
    <g id="ytick_13">
     <g id="line2d_30">
      <g>
       <use style="stroke:#000000;stroke-width:0.6;" x="54" xlink:href="#m4e3cbe7594" y="203.929643"/>
      </g>
     </g>
    </g>
    <g id="ytick_14">
     <g id="line2d_31">
      <g>
       <use style="stroke:#000000;stroke-width:0.6;" x="54" xlink:href="#m4e3cbe7594" y="200.64432"/>
      </g>
     </g>
    </g>
    <g id="ytick_15">
     <g id="line2d_32">
      <g>
       <use style="stroke:#000000;stroke-width:0.6;" x="54" xlink:href="#m4e3cbe7594" y="197.798444"/>
      </g>
     </g>
    </g>
    <g id="ytick_16">
     <g id="line2d_33">
      <g>
       <use style="stroke:#000000;stroke-width:0.6;" x="54" xlink:href="#m4e3cbe7594" y="195.288203"/>
      </g>
     </g>
    </g>
    <g id="ytick_17">
     <g id="line2d_34">
      <g>
       <use style="stroke:#000000;stroke-width:0.6;" x="54" xlink:href="#m4e3cbe7594" y="178.270076"/>
      </g>
     </g>
    </g>
    <g id="ytick_18">
     <g id="line2d_35">
      <g>
       <use style="stroke:#000000;stroke-width:0.6;" x="54" xlink:href="#m4e3cbe7594" y="169.628635"/>
      </g>
     </g>
    </g>
    <g id="ytick_19">
     <g id="line2d_36">
      <g>
       <use style="stroke:#000000;stroke-width:0.6;" x="54" xlink:href="#m4e3cbe7594" y="163.497436"/>
      </g>
     </g>
    </g>
    <g id="ytick_20">
     <g id="line2d_37">
      <g>
       <use style="stroke:#000000;stroke-width:0.6;" x="54" xlink:href="#m4e3cbe7594" y="158.741708"/>
      </g>
     </g>
    </g>
    <g id="ytick_21">
     <g id="line2d_38">
      <g>
       <use style="stroke:#000000;stroke-width:0.6;" x="54" xlink:href="#m4e3cbe7594" y="154.855995"/>
      </g>
     </g>
    </g>
    <g id="ytick_22">
     <g id="line2d_39">
      <g>
       <use style="stroke:#000000;stroke-width:0.6;" x="54" xlink:href="#m4e3cbe7594" y="151.570672"/>
      </g>
     </g>
    </g>
    <g id="ytick_23">
     <g id="line2d_40">
      <g>
       <use style="stroke:#000000;stroke-width:0.6;" x="54" xlink:href="#m4e3cbe7594" y="148.724796"/>
      </g>
     </g>
    </g>
    <g id="ytick_24">
     <g id="line2d_41">
      <g>
       <use style="stroke:#000000;stroke-width:0.6;" x="54" xlink:href="#m4e3cbe7594" y="146.214555"/>
      </g>
     </g>
    </g>
    <g id="ytick_25">
     <g id="line2d_42">
      <g>
       <use style="stroke:#000000;stroke-width:0.6;" x="54" xlink:href="#m4e3cbe7594" y="129.196428"/>
      </g>
     </g>
    </g>
    <g id="ytick_26">
     <g id="line2d_43">
      <g>
       <use style="stroke:#000000;stroke-width:0.6;" x="54" xlink:href="#m4e3cbe7594" y="120.554987"/>
      </g>
     </g>
    </g>
    <g id="ytick_27">
     <g id="line2d_44">
      <g>
       <use style="stroke:#000000;stroke-width:0.6;" x="54" xlink:href="#m4e3cbe7594" y="114.423788"/>
      </g>
     </g>
    </g>
    <g id="ytick_28">
     <g id="line2d_45">
      <g>
       <use style="stroke:#000000;stroke-width:0.6;" x="54" xlink:href="#m4e3cbe7594" y="109.66806"/>
      </g>
     </g>
    </g>
    <g id="ytick_29">
     <g id="line2d_46">
      <g>
       <use style="stroke:#000000;stroke-width:0.6;" x="54" xlink:href="#m4e3cbe7594" y="105.782347"/>
      </g>
     </g>
    </g>
    <g id="ytick_30">
     <g id="line2d_47">
      <g>
       <use style="stroke:#000000;stroke-width:0.6;" x="54" xlink:href="#m4e3cbe7594" y="102.497024"/>
      </g>
     </g>
    </g>
    <g id="ytick_31">
     <g id="line2d_48">
      <g>
       <use style="stroke:#000000;stroke-width:0.6;" x="54" xlink:href="#m4e3cbe7594" y="99.651148"/>
      </g>
     </g>
    </g>
    <g id="ytick_32">
     <g id="line2d_49">
      <g>
       <use style="stroke:#000000;stroke-width:0.6;" x="54" xlink:href="#m4e3cbe7594" y="97.140907"/>
      </g>
     </g>
    </g>
    <g id="ytick_33">
     <g id="line2d_50">
      <g>
       <use style="stroke:#000000;stroke-width:0.6;" x="54" xlink:href="#m4e3cbe7594" y="80.12278"/>
      </g>
     </g>
    </g>
    <g id="ytick_34">
     <g id="line2d_51">
      <g>
       <use style="stroke:#000000;stroke-width:0.6;" x="54" xlink:href="#m4e3cbe7594" y="71.481339"/>
      </g>
     </g>
    </g>
    <g id="ytick_35">
     <g id="line2d_52">
      <g>
       <use style="stroke:#000000;stroke-width:0.6;" x="54" xlink:href="#m4e3cbe7594" y="65.35014"/>
      </g>
     </g>
    </g>
    <g id="ytick_36">
     <g id="line2d_53">
      <g>
       <use style="stroke:#000000;stroke-width:0.6;" x="54" xlink:href="#m4e3cbe7594" y="60.594412"/>
      </g>
     </g>
    </g>
    <g id="ytick_37">
     <g id="line2d_54">
      <g>
       <use style="stroke:#000000;stroke-width:0.6;" x="54" xlink:href="#m4e3cbe7594" y="56.708699"/>
      </g>
     </g>
    </g>
    <g id="ytick_38">
     <g id="line2d_55">
      <g>
       <use style="stroke:#000000;stroke-width:0.6;" x="54" xlink:href="#m4e3cbe7594" y="53.423376"/>
      </g>
     </g>
    </g>
    <g id="ytick_39">
     <g id="line2d_56">
      <g>
       <use style="stroke:#000000;stroke-width:0.6;" x="54" xlink:href="#m4e3cbe7594" y="50.5775"/>
      </g>
     </g>
    </g>
    <g id="ytick_40">
     <g id="line2d_57">
      <g>
       <use style="stroke:#000000;stroke-width:0.6;" x="54" xlink:href="#m4e3cbe7594" y="48.067259"/>
      </g>
     </g>
    </g>
    <g id="text_13">
     <!-- Cantidad de eventos -->
     <defs>
      <path d="M 64.40625 67.28125 
L 64.40625 56.890625 
Q 59.421875 61.53125 53.78125 63.8125 
Q 48.140625 66.109375 41.796875 66.109375 
Q 29.296875 66.109375 22.65625 58.46875 
Q 16.015625 50.828125 16.015625 36.375 
Q 16.015625 21.96875 22.65625 14.328125 
Q 29.296875 6.6875 41.796875 6.6875 
Q 48.140625 6.6875 53.78125 8.984375 
Q 59.421875 11.28125 64.40625 15.921875 
L 64.40625 5.609375 
Q 59.234375 2.09375 53.4375 0.328125 
Q 47.65625 -1.421875 41.21875 -1.421875 
Q 24.65625 -1.421875 15.125 8.703125 
Q 5.609375 18.84375 5.609375 36.375 
Q 5.609375 53.953125 15.125 64.078125 
Q 24.65625 74.21875 41.21875 74.21875 
Q 47.75 74.21875 53.53125 72.484375 
Q 59.328125 70.75 64.40625 67.28125 
z
" id="DejaVuSans-43"/>
      <path d="M 2.984375 54.6875 
L 12.5 54.6875 
L 29.59375 8.796875 
L 46.6875 54.6875 
L 56.203125 54.6875 
L 35.6875 0 
L 23.484375 0 
z
" id="DejaVuSans-76"/>
     </defs>
     <g transform="translate(26.404375 205.464375)rotate(-90)scale(0.12 -0.12)">
      <use xlink:href="#DejaVuSans-43"/>
      <use x="69.824219" xlink:href="#DejaVuSans-61"/>
      <use x="131.103516" xlink:href="#DejaVuSans-6e"/>
      <use x="194.482422" xlink:href="#DejaVuSans-74"/>
      <use x="233.691406" xlink:href="#DejaVuSans-69"/>
      <use x="261.474609" xlink:href="#DejaVuSans-64"/>
      <use x="324.951172" xlink:href="#DejaVuSans-61"/>
      <use x="386.230469" xlink:href="#DejaVuSans-64"/>
      <use x="449.707031" xlink:href="#DejaVuSans-20"/>
      <use x="481.494141" xlink:href="#DejaVuSans-64"/>
      <use x="544.970703" xlink:href="#DejaVuSans-65"/>
      <use x="606.494141" xlink:href="#DejaVuSans-20"/>
      <use x="638.28125" xlink:href="#DejaVuSans-65"/>
      <use x="699.804688" xlink:href="#DejaVuSans-76"/>
      <use x="758.984375" xlink:href="#DejaVuSans-65"/>
      <use x="820.507812" xlink:href="#DejaVuSans-6e"/>
      <use x="883.886719" xlink:href="#DejaVuSans-74"/>
      <use x="923.095703" xlink:href="#DejaVuSans-6f"/>
      <use x="984.277344" xlink:href="#DejaVuSans-73"/>
     </g>
    </g>
   </g>
   <g id="patch_102">
    <path d="M 54 252 
L 54 34.56 
" style="fill:none;stroke:#bcbcbc;stroke-linecap:square;stroke-linejoin:miter;stroke-width:0.8;"/>
   </g>
   <g id="patch_103">
    <path d="M 388.8 252 
L 388.8 34.56 
" style="fill:none;stroke:#bcbcbc;stroke-linecap:square;stroke-linejoin:miter;stroke-width:0.8;"/>
   </g>
   <g id="patch_104">
    <path d="M 54 252 
L 388.8 252 
" style="fill:none;stroke:#bcbcbc;stroke-linecap:square;stroke-linejoin:miter;stroke-width:0.8;"/>
   </g>
   <g id="patch_105">
    <path d="M 54 34.56 
L 388.8 34.56 
" style="fill:none;stroke:#bcbcbc;stroke-linecap:square;stroke-linejoin:miter;stroke-width:0.8;"/>
   </g>
   <g id="text_14">
    <!-- cantidad de eventos por persona -->
    <defs>
     <path d="M 18.109375 8.203125 
L 18.109375 -20.796875 
L 9.078125 -20.796875 
L 9.078125 54.6875 
L 18.109375 54.6875 
L 18.109375 46.390625 
Q 20.953125 51.265625 25.265625 53.625 
Q 29.59375 56 35.59375 56 
Q 45.5625 56 51.78125 48.09375 
Q 58.015625 40.1875 58.015625 27.296875 
Q 58.015625 14.40625 51.78125 6.484375 
Q 45.5625 -1.421875 35.59375 -1.421875 
Q 29.59375 -1.421875 25.265625 0.953125 
Q 20.953125 3.328125 18.109375 8.203125 
z
M 48.6875 27.296875 
Q 48.6875 37.203125 44.609375 42.84375 
Q 40.53125 48.484375 33.40625 48.484375 
Q 26.265625 48.484375 22.1875 42.84375 
Q 18.109375 37.203125 18.109375 27.296875 
Q 18.109375 17.390625 22.1875 11.75 
Q 26.265625 6.109375 33.40625 6.109375 
Q 40.53125 6.109375 44.609375 11.75 
Q 48.6875 17.390625 48.6875 27.296875 
z
" id="DejaVuSans-70"/>
    </defs>
    <g transform="translate(102.24225 28.56)scale(0.144 -0.144)">
     <use xlink:href="#DejaVuSans-63"/>
     <use x="54.980469" xlink:href="#DejaVuSans-61"/>
     <use x="116.259766" xlink:href="#DejaVuSans-6e"/>
     <use x="179.638672" xlink:href="#DejaVuSans-74"/>
     <use x="218.847656" xlink:href="#DejaVuSans-69"/>
     <use x="246.630859" xlink:href="#DejaVuSans-64"/>
     <use x="310.107422" xlink:href="#DejaVuSans-61"/>
     <use x="371.386719" xlink:href="#DejaVuSans-64"/>
     <use x="434.863281" xlink:href="#DejaVuSans-20"/>
     <use x="466.650391" xlink:href="#DejaVuSans-64"/>
     <use x="530.126953" xlink:href="#DejaVuSans-65"/>
     <use x="591.650391" xlink:href="#DejaVuSans-20"/>
     <use x="623.4375" xlink:href="#DejaVuSans-65"/>
     <use x="684.960938" xlink:href="#DejaVuSans-76"/>
     <use x="744.140625" xlink:href="#DejaVuSans-65"/>
     <use x="805.664062" xlink:href="#DejaVuSans-6e"/>
     <use x="869.042969" xlink:href="#DejaVuSans-74"/>
     <use x="908.251953" xlink:href="#DejaVuSans-6f"/>
     <use x="969.433594" xlink:href="#DejaVuSans-73"/>
     <use x="1021.533203" xlink:href="#DejaVuSans-20"/>
     <use x="1053.320312" xlink:href="#DejaVuSans-70"/>
     <use x="1116.796875" xlink:href="#DejaVuSans-6f"/>
     <use x="1177.978516" xlink:href="#DejaVuSans-72"/>
     <use x="1219.091797" xlink:href="#DejaVuSans-20"/>
     <use x="1250.878906" xlink:href="#DejaVuSans-70"/>
     <use x="1314.355469" xlink:href="#DejaVuSans-65"/>
     <use x="1375.878906" xlink:href="#DejaVuSans-72"/>
     <use x="1416.992188" xlink:href="#DejaVuSans-73"/>
     <use x="1469.091797" xlink:href="#DejaVuSans-6f"/>
     <use x="1530.273438" xlink:href="#DejaVuSans-6e"/>
     <use x="1593.652344" xlink:href="#DejaVuSans-61"/>
    </g>
   </g>
  </g>
 </g>
 <defs>
  <clipPath id="pdd81be8a2a">
   <rect height="217.44" width="334.8" x="54" y="34.56"/>
  </clipPath>
 </defs>
</svg>
