<?xml version="1.0" encoding="utf-8" standalone="no"?>
<!DOCTYPE svg PUBLIC "-//W3C//DTD SVG 1.1//EN"
  "http://www.w3.org/Graphics/SVG/1.1/DTD/svg11.dtd">
<!-- Created with matplotlib (http://matplotlib.org/) -->
<svg height="427.717375pt" version="1.1" viewBox="0 0 490.116875 427.717375" width="490.116875pt" xmlns="http://www.w3.org/2000/svg" xmlns:xlink="http://www.w3.org/1999/xlink">
 <defs>
  <style type="text/css">
*{stroke-linecap:butt;stroke-linejoin:round;}
  </style>
 </defs>
 <g id="figure_1">
  <g id="patch_1">
   <path d="M 0 427.717375 
L 490.116875 427.717375 
L 490.116875 0 
L 0 0 
z
" style="fill:#ffffff;"/>
  </g>
  <g id="axes_1">
   <g id="patch_2">
    <path d="M 133.716875 255.98175 
L 468.516875 255.98175 
L 468.516875 38.54175 
L 133.716875 38.54175 
z
" style="fill:#eeeeee;"/>
   </g>
   <g id="QuadMesh_1">
    <path clip-path="url(#p83bf6c0927)" d="M 133.716875 38.54175 
L 148.273397 38.54175 
L 148.273397 58.309023 
L 133.716875 58.309023 
L 133.716875 38.54175 
" style="fill:#03051a;"/>
    <path clip-path="url(#p83bf6c0927)" d="M 148.273397 38.54175 
L 162.829918 38.54175 
L 162.829918 58.309023 
L 148.273397 58.309023 
L 148.273397 38.54175 
" style="fill:#03051a;"/>
    <path clip-path="url(#p83bf6c0927)" d="M 162.829918 38.54175 
L 177.38644 38.54175 
L 177.38644 58.309023 
L 162.829918 58.309023 
L 162.829918 38.54175 
" style="fill:#03051a;"/>
    <path clip-path="url(#p83bf6c0927)" d="M 177.38644 38.54175 
L 191.942962 38.54175 
L 191.942962 58.309023 
L 177.38644 58.309023 
L 177.38644 38.54175 
" style="fill:#faebdd;"/>
    <path clip-path="url(#p83bf6c0927)" d="M 191.942962 38.54175 
L 206.499484 38.54175 
L 206.499484 58.309023 
L 191.942962 58.309023 
L 191.942962 38.54175 
" style="fill:#faebdd;"/>
    <path clip-path="url(#p83bf6c0927)" d="M 206.499484 38.54175 
L 221.056005 38.54175 
L 221.056005 58.309023 
L 206.499484 58.309023 
L 206.499484 38.54175 
" style="fill:#faebdd;"/>
    <path clip-path="url(#p83bf6c0927)" d="M 221.056005 38.54175 
L 235.612527 38.54175 
L 235.612527 58.309023 
L 221.056005 58.309023 
L 221.056005 38.54175 
" style="fill:#faebdd;"/>
    <path clip-path="url(#p83bf6c0927)" d="M 235.612527 38.54175 
L 250.169049 38.54175 
L 250.169049 58.309023 
L 235.612527 58.309023 
L 235.612527 38.54175 
" style="fill:#faebdd;"/>
    <path clip-path="url(#p83bf6c0927)" d="M 250.169049 38.54175 
L 264.725571 38.54175 
L 264.725571 58.309023 
L 250.169049 58.309023 
L 250.169049 38.54175 
" style="fill:#faebdd;"/>
    <path clip-path="url(#p83bf6c0927)" d="M 264.725571 38.54175 
L 279.282092 38.54175 
L 279.282092 58.309023 
L 264.725571 58.309023 
L 264.725571 38.54175 
" style="fill:#faebdd;"/>
    <path clip-path="url(#p83bf6c0927)" d="M 279.282092 38.54175 
L 293.838614 38.54175 
L 293.838614 58.309023 
L 279.282092 58.309023 
L 279.282092 38.54175 
" style="fill:#faebdd;"/>
    <path clip-path="url(#p83bf6c0927)" d="M 293.838614 38.54175 
L 308.395136 38.54175 
L 308.395136 58.309023 
L 293.838614 58.309023 
L 293.838614 38.54175 
" style="fill:#03051a;"/>
    <path clip-path="url(#p83bf6c0927)" d="M 308.395136 38.54175 
L 322.951658 38.54175 
L 322.951658 58.309023 
L 308.395136 58.309023 
L 308.395136 38.54175 
" style="fill:#faebdd;"/>
    <path clip-path="url(#p83bf6c0927)" d="M 322.951658 38.54175 
L 337.508179 38.54175 
L 337.508179 58.309023 
L 322.951658 58.309023 
L 322.951658 38.54175 
" style="fill:#faebdd;"/>
    <path clip-path="url(#p83bf6c0927)" d="M 337.508179 38.54175 
L 352.064701 38.54175 
L 352.064701 58.309023 
L 337.508179 58.309023 
L 337.508179 38.54175 
" style="fill:#faebdd;"/>
    <path clip-path="url(#p83bf6c0927)" d="M 352.064701 38.54175 
L 366.621223 38.54175 
L 366.621223 58.309023 
L 352.064701 58.309023 
L 352.064701 38.54175 
" style="fill:#faebdd;"/>
    <path clip-path="url(#p83bf6c0927)" d="M 366.621223 38.54175 
L 381.177745 38.54175 
L 381.177745 58.309023 
L 366.621223 58.309023 
L 366.621223 38.54175 
" style="fill:#faebdd;"/>
    <path clip-path="url(#p83bf6c0927)" d="M 381.177745 38.54175 
L 395.734266 38.54175 
L 395.734266 58.309023 
L 381.177745 58.309023 
L 381.177745 38.54175 
" style="fill:#faebdd;"/>
    <path clip-path="url(#p83bf6c0927)" d="M 395.734266 38.54175 
L 410.290788 38.54175 
L 410.290788 58.309023 
L 395.734266 58.309023 
L 395.734266 38.54175 
" style="fill:#faebdd;"/>
    <path clip-path="url(#p83bf6c0927)" d="M 410.290788 38.54175 
L 424.84731 38.54175 
L 424.84731 58.309023 
L 410.290788 58.309023 
L 410.290788 38.54175 
" style="fill:#faebdd;"/>
    <path clip-path="url(#p83bf6c0927)" d="M 424.84731 38.54175 
L 439.403832 38.54175 
L 439.403832 58.309023 
L 424.84731 58.309023 
L 424.84731 38.54175 
" style="fill:#faebdd;"/>
    <path clip-path="url(#p83bf6c0927)" d="M 439.403832 38.54175 
L 453.960353 38.54175 
L 453.960353 58.309023 
L 439.403832 58.309023 
L 439.403832 38.54175 
" style="fill:#faebdd;"/>
    <path clip-path="url(#p83bf6c0927)" d="M 453.960353 38.54175 
L 468.516875 38.54175 
L 468.516875 58.309023 
L 453.960353 58.309023 
L 453.960353 38.54175 
" style="fill:#faebdd;"/>
    <path clip-path="url(#p83bf6c0927)" d="M 133.716875 58.309023 
L 148.273397 58.309023 
L 148.273397 78.076295 
L 133.716875 78.076295 
L 133.716875 58.309023 
" style="fill:#03051a;"/>
    <path clip-path="url(#p83bf6c0927)" d="M 148.273397 58.309023 
L 162.829918 58.309023 
L 162.829918 78.076295 
L 148.273397 78.076295 
L 148.273397 58.309023 
" style="fill:#03051a;"/>
    <path clip-path="url(#p83bf6c0927)" d="M 162.829918 58.309023 
L 177.38644 58.309023 
L 177.38644 78.076295 
L 162.829918 78.076295 
L 162.829918 58.309023 
" style="fill:#faebdd;"/>
    <path clip-path="url(#p83bf6c0927)" d="M 177.38644 58.309023 
L 191.942962 58.309023 
L 191.942962 78.076295 
L 177.38644 78.076295 
L 177.38644 58.309023 
" style="fill:#faebdd;"/>
    <path clip-path="url(#p83bf6c0927)" d="M 191.942962 58.309023 
L 206.499484 58.309023 
L 206.499484 78.076295 
L 191.942962 78.076295 
L 191.942962 58.309023 
" style="fill:#faebdd;"/>
    <path clip-path="url(#p83bf6c0927)" d="M 206.499484 58.309023 
L 221.056005 58.309023 
L 221.056005 78.076295 
L 206.499484 78.076295 
L 206.499484 58.309023 
" style="fill:#faebdd;"/>
    <path clip-path="url(#p83bf6c0927)" d="M 221.056005 58.309023 
L 235.612527 58.309023 
L 235.612527 78.076295 
L 221.056005 78.076295 
L 221.056005 58.309023 
" style="fill:#faebdd;"/>
    <path clip-path="url(#p83bf6c0927)" d="M 235.612527 58.309023 
L 250.169049 58.309023 
L 250.169049 78.076295 
L 235.612527 78.076295 
L 235.612527 58.309023 
" style="fill:#faebdd;"/>
    <path clip-path="url(#p83bf6c0927)" d="M 250.169049 58.309023 
L 264.725571 58.309023 
L 264.725571 78.076295 
L 250.169049 78.076295 
L 250.169049 58.309023 
" style="fill:#03051a;"/>
    <path clip-path="url(#p83bf6c0927)" d="M 264.725571 58.309023 
L 279.282092 58.309023 
L 279.282092 78.076295 
L 264.725571 78.076295 
L 264.725571 58.309023 
" style="fill:#faebdd;"/>
    <path clip-path="url(#p83bf6c0927)" d="M 279.282092 58.309023 
L 293.838614 58.309023 
L 293.838614 78.076295 
L 279.282092 78.076295 
L 279.282092 58.309023 
" style="fill:#faebdd;"/>
    <path clip-path="url(#p83bf6c0927)" d="M 293.838614 58.309023 
L 308.395136 58.309023 
L 308.395136 78.076295 
L 293.838614 78.076295 
L 293.838614 58.309023 
" style="fill:#faebdd;"/>
    <path clip-path="url(#p83bf6c0927)" d="M 308.395136 58.309023 
L 322.951658 58.309023 
L 322.951658 78.076295 
L 308.395136 78.076295 
L 308.395136 58.309023 
" style="fill:#faebdd;"/>
    <path clip-path="url(#p83bf6c0927)" d="M 322.951658 58.309023 
L 337.508179 58.309023 
L 337.508179 78.076295 
L 322.951658 78.076295 
L 322.951658 58.309023 
" style="fill:#faebdd;"/>
    <path clip-path="url(#p83bf6c0927)" d="M 337.508179 58.309023 
L 352.064701 58.309023 
L 352.064701 78.076295 
L 337.508179 78.076295 
L 337.508179 58.309023 
" style="fill:#faebdd;"/>
    <path clip-path="url(#p83bf6c0927)" d="M 352.064701 58.309023 
L 366.621223 58.309023 
L 366.621223 78.076295 
L 352.064701 78.076295 
L 352.064701 58.309023 
" style="fill:#faebdd;"/>
    <path clip-path="url(#p83bf6c0927)" d="M 366.621223 58.309023 
L 381.177745 58.309023 
L 381.177745 78.076295 
L 366.621223 78.076295 
L 366.621223 58.309023 
" style="fill:#faebdd;"/>
    <path clip-path="url(#p83bf6c0927)" d="M 381.177745 58.309023 
L 395.734266 58.309023 
L 395.734266 78.076295 
L 381.177745 78.076295 
L 381.177745 58.309023 
" style="fill:#faebdd;"/>
    <path clip-path="url(#p83bf6c0927)" d="M 395.734266 58.309023 
L 410.290788 58.309023 
L 410.290788 78.076295 
L 395.734266 78.076295 
L 395.734266 58.309023 
" style="fill:#faebdd;"/>
    <path clip-path="url(#p83bf6c0927)" d="M 410.290788 58.309023 
L 424.84731 58.309023 
L 424.84731 78.076295 
L 410.290788 78.076295 
L 410.290788 58.309023 
" style="fill:#faebdd;"/>
    <path clip-path="url(#p83bf6c0927)" d="M 424.84731 58.309023 
L 439.403832 58.309023 
L 439.403832 78.076295 
L 424.84731 78.076295 
L 424.84731 58.309023 
" style="fill:#faebdd;"/>
    <path clip-path="url(#p83bf6c0927)" d="M 439.403832 58.309023 
L 453.960353 58.309023 
L 453.960353 78.076295 
L 439.403832 78.076295 
L 439.403832 58.309023 
" style="fill:#faebdd;"/>
    <path clip-path="url(#p83bf6c0927)" d="M 453.960353 58.309023 
L 468.516875 58.309023 
L 468.516875 78.076295 
L 453.960353 78.076295 
L 453.960353 58.309023 
" style="fill:#faebdd;"/>
    <path clip-path="url(#p83bf6c0927)" d="M 133.716875 78.076295 
L 148.273397 78.076295 
L 148.273397 97.843568 
L 133.716875 97.843568 
L 133.716875 78.076295 
" style="fill:#03051a;"/>
    <path clip-path="url(#p83bf6c0927)" d="M 148.273397 78.076295 
L 162.829918 78.076295 
L 162.829918 97.843568 
L 148.273397 97.843568 
L 148.273397 78.076295 
" style="fill:#03051a;"/>
    <path clip-path="url(#p83bf6c0927)" d="M 162.829918 78.076295 
L 177.38644 78.076295 
L 177.38644 97.843568 
L 162.829918 97.843568 
L 162.829918 78.076295 
" style="fill:#faebdd;"/>
    <path clip-path="url(#p83bf6c0927)" d="M 177.38644 78.076295 
L 191.942962 78.076295 
L 191.942962 97.843568 
L 177.38644 97.843568 
L 177.38644 78.076295 
" style="fill:#03051a;"/>
    <path clip-path="url(#p83bf6c0927)" d="M 191.942962 78.076295 
L 206.499484 78.076295 
L 206.499484 97.843568 
L 191.942962 97.843568 
L 191.942962 78.076295 
" style="fill:#03051a;"/>
    <path clip-path="url(#p83bf6c0927)" d="M 206.499484 78.076295 
L 221.056005 78.076295 
L 221.056005 97.843568 
L 206.499484 97.843568 
L 206.499484 78.076295 
" style="fill:#03051a;"/>
    <path clip-path="url(#p83bf6c0927)" d="M 221.056005 78.076295 
L 235.612527 78.076295 
L 235.612527 97.843568 
L 221.056005 97.843568 
L 221.056005 78.076295 
" style="fill:#03051a;"/>
    <path clip-path="url(#p83bf6c0927)" d="M 235.612527 78.076295 
L 250.169049 78.076295 
L 250.169049 97.843568 
L 235.612527 97.843568 
L 235.612527 78.076295 
" style="fill:#03051a;"/>
    <path clip-path="url(#p83bf6c0927)" d="M 250.169049 78.076295 
L 264.725571 78.076295 
L 264.725571 97.843568 
L 250.169049 97.843568 
L 250.169049 78.076295 
" style="fill:#faebdd;"/>
    <path clip-path="url(#p83bf6c0927)" d="M 264.725571 78.076295 
L 279.282092 78.076295 
L 279.282092 97.843568 
L 264.725571 97.843568 
L 264.725571 78.076295 
" style="fill:#faebdd;"/>
    <path clip-path="url(#p83bf6c0927)" d="M 279.282092 78.076295 
L 293.838614 78.076295 
L 293.838614 97.843568 
L 279.282092 97.843568 
L 279.282092 78.076295 
" style="fill:#faebdd;"/>
    <path clip-path="url(#p83bf6c0927)" d="M 293.838614 78.076295 
L 308.395136 78.076295 
L 308.395136 97.843568 
L 293.838614 97.843568 
L 293.838614 78.076295 
" style="fill:#faebdd;"/>
    <path clip-path="url(#p83bf6c0927)" d="M 308.395136 78.076295 
L 322.951658 78.076295 
L 322.951658 97.843568 
L 308.395136 97.843568 
L 308.395136 78.076295 
" style="fill:#faebdd;"/>
    <path clip-path="url(#p83bf6c0927)" d="M 322.951658 78.076295 
L 337.508179 78.076295 
L 337.508179 97.843568 
L 322.951658 97.843568 
L 322.951658 78.076295 
" style="fill:#faebdd;"/>
    <path clip-path="url(#p83bf6c0927)" d="M 337.508179 78.076295 
L 352.064701 78.076295 
L 352.064701 97.843568 
L 337.508179 97.843568 
L 337.508179 78.076295 
" style="fill:#faebdd;"/>
    <path clip-path="url(#p83bf6c0927)" d="M 352.064701 78.076295 
L 366.621223 78.076295 
L 366.621223 97.843568 
L 352.064701 97.843568 
L 352.064701 78.076295 
" style="fill:#faebdd;"/>
    <path clip-path="url(#p83bf6c0927)" d="M 366.621223 78.076295 
L 381.177745 78.076295 
L 381.177745 97.843568 
L 366.621223 97.843568 
L 366.621223 78.076295 
" style="fill:#faebdd;"/>
    <path clip-path="url(#p83bf6c0927)" d="M 381.177745 78.076295 
L 395.734266 78.076295 
L 395.734266 97.843568 
L 381.177745 97.843568 
L 381.177745 78.076295 
" style="fill:#faebdd;"/>
    <path clip-path="url(#p83bf6c0927)" d="M 395.734266 78.076295 
L 410.290788 78.076295 
L 410.290788 97.843568 
L 395.734266 97.843568 
L 395.734266 78.076295 
" style="fill:#faebdd;"/>
    <path clip-path="url(#p83bf6c0927)" d="M 410.290788 78.076295 
L 424.84731 78.076295 
L 424.84731 97.843568 
L 410.290788 97.843568 
L 410.290788 78.076295 
" style="fill:#faebdd;"/>
    <path clip-path="url(#p83bf6c0927)" d="M 424.84731 78.076295 
L 439.403832 78.076295 
L 439.403832 97.843568 
L 424.84731 97.843568 
L 424.84731 78.076295 
" style="fill:#faebdd;"/>
    <path clip-path="url(#p83bf6c0927)" d="M 439.403832 78.076295 
L 453.960353 78.076295 
L 453.960353 97.843568 
L 439.403832 97.843568 
L 439.403832 78.076295 
" style="fill:#faebdd;"/>
    <path clip-path="url(#p83bf6c0927)" d="M 453.960353 78.076295 
L 468.516875 78.076295 
L 468.516875 97.843568 
L 453.960353 97.843568 
L 453.960353 78.076295 
" style="fill:#03051a;"/>
    <path clip-path="url(#p83bf6c0927)" d="M 133.716875 97.843568 
L 148.273397 97.843568 
L 148.273397 117.610841 
L 133.716875 117.610841 
L 133.716875 97.843568 
" style="fill:#03051a;"/>
    <path clip-path="url(#p83bf6c0927)" d="M 148.273397 97.843568 
L 162.829918 97.843568 
L 162.829918 117.610841 
L 148.273397 117.610841 
L 148.273397 97.843568 
" style="fill:#03051a;"/>
    <path clip-path="url(#p83bf6c0927)" d="M 162.829918 97.843568 
L 177.38644 97.843568 
L 177.38644 117.610841 
L 162.829918 117.610841 
L 162.829918 97.843568 
" style="fill:#faebdd;"/>
    <path clip-path="url(#p83bf6c0927)" d="M 177.38644 97.843568 
L 191.942962 97.843568 
L 191.942962 117.610841 
L 177.38644 117.610841 
L 177.38644 97.843568 
" style="fill:#03051a;"/>
    <path clip-path="url(#p83bf6c0927)" d="M 191.942962 97.843568 
L 206.499484 97.843568 
L 206.499484 117.610841 
L 191.942962 117.610841 
L 191.942962 97.843568 
" style="fill:#03051a;"/>
    <path clip-path="url(#p83bf6c0927)" d="M 206.499484 97.843568 
L 221.056005 97.843568 
L 221.056005 117.610841 
L 206.499484 117.610841 
L 206.499484 97.843568 
" style="fill:#03051a;"/>
    <path clip-path="url(#p83bf6c0927)" d="M 221.056005 97.843568 
L 235.612527 97.843568 
L 235.612527 117.610841 
L 221.056005 117.610841 
L 221.056005 97.843568 
" style="fill:#03051a;"/>
    <path clip-path="url(#p83bf6c0927)" d="M 235.612527 97.843568 
L 250.169049 97.843568 
L 250.169049 117.610841 
L 235.612527 117.610841 
L 235.612527 97.843568 
" style="fill:#03051a;"/>
    <path clip-path="url(#p83bf6c0927)" d="M 250.169049 97.843568 
L 264.725571 97.843568 
L 264.725571 117.610841 
L 250.169049 117.610841 
L 250.169049 97.843568 
" style="fill:#faebdd;"/>
    <path clip-path="url(#p83bf6c0927)" d="M 264.725571 97.843568 
L 279.282092 97.843568 
L 279.282092 117.610841 
L 264.725571 117.610841 
L 264.725571 97.843568 
" style="fill:#faebdd;"/>
    <path clip-path="url(#p83bf6c0927)" d="M 279.282092 97.843568 
L 293.838614 97.843568 
L 293.838614 117.610841 
L 279.282092 117.610841 
L 279.282092 97.843568 
" style="fill:#faebdd;"/>
    <path clip-path="url(#p83bf6c0927)" d="M 293.838614 97.843568 
L 308.395136 97.843568 
L 308.395136 117.610841 
L 293.838614 117.610841 
L 293.838614 97.843568 
" style="fill:#faebdd;"/>
    <path clip-path="url(#p83bf6c0927)" d="M 308.395136 97.843568 
L 322.951658 97.843568 
L 322.951658 117.610841 
L 308.395136 117.610841 
L 308.395136 97.843568 
" style="fill:#faebdd;"/>
    <path clip-path="url(#p83bf6c0927)" d="M 322.951658 97.843568 
L 337.508179 97.843568 
L 337.508179 117.610841 
L 322.951658 117.610841 
L 322.951658 97.843568 
" style="fill:#faebdd;"/>
    <path clip-path="url(#p83bf6c0927)" d="M 337.508179 97.843568 
L 352.064701 97.843568 
L 352.064701 117.610841 
L 337.508179 117.610841 
L 337.508179 97.843568 
" style="fill:#faebdd;"/>
    <path clip-path="url(#p83bf6c0927)" d="M 352.064701 97.843568 
L 366.621223 97.843568 
L 366.621223 117.610841 
L 352.064701 117.610841 
L 352.064701 97.843568 
" style="fill:#faebdd;"/>
    <path clip-path="url(#p83bf6c0927)" d="M 366.621223 97.843568 
L 381.177745 97.843568 
L 381.177745 117.610841 
L 366.621223 117.610841 
L 366.621223 97.843568 
" style="fill:#faebdd;"/>
    <path clip-path="url(#p83bf6c0927)" d="M 381.177745 97.843568 
L 395.734266 97.843568 
L 395.734266 117.610841 
L 381.177745 117.610841 
L 381.177745 97.843568 
" style="fill:#faebdd;"/>
    <path clip-path="url(#p83bf6c0927)" d="M 395.734266 97.843568 
L 410.290788 97.843568 
L 410.290788 117.610841 
L 395.734266 117.610841 
L 395.734266 97.843568 
" style="fill:#faebdd;"/>
    <path clip-path="url(#p83bf6c0927)" d="M 410.290788 97.843568 
L 424.84731 97.843568 
L 424.84731 117.610841 
L 410.290788 117.610841 
L 410.290788 97.843568 
" style="fill:#faebdd;"/>
    <path clip-path="url(#p83bf6c0927)" d="M 424.84731 97.843568 
L 439.403832 97.843568 
L 439.403832 117.610841 
L 424.84731 117.610841 
L 424.84731 97.843568 
" style="fill:#faebdd;"/>
    <path clip-path="url(#p83bf6c0927)" d="M 439.403832 97.843568 
L 453.960353 97.843568 
L 453.960353 117.610841 
L 439.403832 117.610841 
L 439.403832 97.843568 
" style="fill:#faebdd;"/>
    <path clip-path="url(#p83bf6c0927)" d="M 453.960353 97.843568 
L 468.516875 97.843568 
L 468.516875 117.610841 
L 453.960353 117.610841 
L 453.960353 97.843568 
" style="fill:#03051a;"/>
    <path clip-path="url(#p83bf6c0927)" d="M 133.716875 117.610841 
L 148.273397 117.610841 
L 148.273397 137.378114 
L 133.716875 137.378114 
L 133.716875 117.610841 
" style="fill:#03051a;"/>
    <path clip-path="url(#p83bf6c0927)" d="M 148.273397 117.610841 
L 162.829918 117.610841 
L 162.829918 137.378114 
L 148.273397 137.378114 
L 148.273397 117.610841 
" style="fill:#03051a;"/>
    <path clip-path="url(#p83bf6c0927)" d="M 162.829918 117.610841 
L 177.38644 117.610841 
L 177.38644 137.378114 
L 162.829918 137.378114 
L 162.829918 117.610841 
" style="fill:#faebdd;"/>
    <path clip-path="url(#p83bf6c0927)" d="M 177.38644 117.610841 
L 191.942962 117.610841 
L 191.942962 137.378114 
L 177.38644 137.378114 
L 177.38644 117.610841 
" style="fill:#faebdd;"/>
    <path clip-path="url(#p83bf6c0927)" d="M 191.942962 117.610841 
L 206.499484 117.610841 
L 206.499484 137.378114 
L 191.942962 137.378114 
L 191.942962 117.610841 
" style="fill:#faebdd;"/>
    <path clip-path="url(#p83bf6c0927)" d="M 206.499484 117.610841 
L 221.056005 117.610841 
L 221.056005 137.378114 
L 206.499484 137.378114 
L 206.499484 117.610841 
" style="fill:#faebdd;"/>
    <path clip-path="url(#p83bf6c0927)" d="M 221.056005 117.610841 
L 235.612527 117.610841 
L 235.612527 137.378114 
L 221.056005 137.378114 
L 221.056005 117.610841 
" style="fill:#faebdd;"/>
    <path clip-path="url(#p83bf6c0927)" d="M 235.612527 117.610841 
L 250.169049 117.610841 
L 250.169049 137.378114 
L 235.612527 137.378114 
L 235.612527 117.610841 
" style="fill:#faebdd;"/>
    <path clip-path="url(#p83bf6c0927)" d="M 250.169049 117.610841 
L 264.725571 117.610841 
L 264.725571 137.378114 
L 250.169049 137.378114 
L 250.169049 117.610841 
" style="fill:#03051a;"/>
    <path clip-path="url(#p83bf6c0927)" d="M 264.725571 117.610841 
L 279.282092 117.610841 
L 279.282092 137.378114 
L 264.725571 137.378114 
L 264.725571 117.610841 
" style="fill:#faebdd;"/>
    <path clip-path="url(#p83bf6c0927)" d="M 279.282092 117.610841 
L 293.838614 117.610841 
L 293.838614 137.378114 
L 279.282092 137.378114 
L 279.282092 117.610841 
" style="fill:#faebdd;"/>
    <path clip-path="url(#p83bf6c0927)" d="M 293.838614 117.610841 
L 308.395136 117.610841 
L 308.395136 137.378114 
L 293.838614 137.378114 
L 293.838614 117.610841 
" style="fill:#faebdd;"/>
    <path clip-path="url(#p83bf6c0927)" d="M 308.395136 117.610841 
L 322.951658 117.610841 
L 322.951658 137.378114 
L 308.395136 137.378114 
L 308.395136 117.610841 
" style="fill:#faebdd;"/>
    <path clip-path="url(#p83bf6c0927)" d="M 322.951658 117.610841 
L 337.508179 117.610841 
L 337.508179 137.378114 
L 322.951658 137.378114 
L 322.951658 117.610841 
" style="fill:#faebdd;"/>
    <path clip-path="url(#p83bf6c0927)" d="M 337.508179 117.610841 
L 352.064701 117.610841 
L 352.064701 137.378114 
L 337.508179 137.378114 
L 337.508179 117.610841 
" style="fill:#faebdd;"/>
    <path clip-path="url(#p83bf6c0927)" d="M 352.064701 117.610841 
L 366.621223 117.610841 
L 366.621223 137.378114 
L 352.064701 137.378114 
L 352.064701 117.610841 
" style="fill:#faebdd;"/>
    <path clip-path="url(#p83bf6c0927)" d="M 366.621223 117.610841 
L 381.177745 117.610841 
L 381.177745 137.378114 
L 366.621223 137.378114 
L 366.621223 117.610841 
" style="fill:#faebdd;"/>
    <path clip-path="url(#p83bf6c0927)" d="M 381.177745 117.610841 
L 395.734266 117.610841 
L 395.734266 137.378114 
L 381.177745 137.378114 
L 381.177745 117.610841 
" style="fill:#faebdd;"/>
    <path clip-path="url(#p83bf6c0927)" d="M 395.734266 117.610841 
L 410.290788 117.610841 
L 410.290788 137.378114 
L 395.734266 137.378114 
L 395.734266 117.610841 
" style="fill:#faebdd;"/>
    <path clip-path="url(#p83bf6c0927)" d="M 410.290788 117.610841 
L 424.84731 117.610841 
L 424.84731 137.378114 
L 410.290788 137.378114 
L 410.290788 117.610841 
" style="fill:#faebdd;"/>
    <path clip-path="url(#p83bf6c0927)" d="M 424.84731 117.610841 
L 439.403832 117.610841 
L 439.403832 137.378114 
L 424.84731 137.378114 
L 424.84731 117.610841 
" style="fill:#faebdd;"/>
    <path clip-path="url(#p83bf6c0927)" d="M 439.403832 117.610841 
L 453.960353 117.610841 
L 453.960353 137.378114 
L 439.403832 137.378114 
L 439.403832 117.610841 
" style="fill:#faebdd;"/>
    <path clip-path="url(#p83bf6c0927)" d="M 453.960353 117.610841 
L 468.516875 117.610841 
L 468.516875 137.378114 
L 453.960353 137.378114 
L 453.960353 117.610841 
" style="fill:#faebdd;"/>
    <path clip-path="url(#p83bf6c0927)" d="M 133.716875 137.378114 
L 148.273397 137.378114 
L 148.273397 157.145386 
L 133.716875 157.145386 
L 133.716875 137.378114 
" style="fill:#03051a;"/>
    <path clip-path="url(#p83bf6c0927)" d="M 148.273397 137.378114 
L 162.829918 137.378114 
L 162.829918 157.145386 
L 148.273397 157.145386 
L 148.273397 137.378114 
" style="fill:#03051a;"/>
    <path clip-path="url(#p83bf6c0927)" d="M 162.829918 137.378114 
L 177.38644 137.378114 
L 177.38644 157.145386 
L 162.829918 157.145386 
L 162.829918 137.378114 
" style="fill:#faebdd;"/>
    <path clip-path="url(#p83bf6c0927)" d="M 177.38644 137.378114 
L 191.942962 137.378114 
L 191.942962 157.145386 
L 177.38644 157.145386 
L 177.38644 137.378114 
" style="fill:#faebdd;"/>
    <path clip-path="url(#p83bf6c0927)" d="M 191.942962 137.378114 
L 206.499484 137.378114 
L 206.499484 157.145386 
L 191.942962 157.145386 
L 191.942962 137.378114 
" style="fill:#03051a;"/>
    <path clip-path="url(#p83bf6c0927)" d="M 206.499484 137.378114 
L 221.056005 137.378114 
L 221.056005 157.145386 
L 206.499484 157.145386 
L 206.499484 137.378114 
" style="fill:#faebdd;"/>
    <path clip-path="url(#p83bf6c0927)" d="M 221.056005 137.378114 
L 235.612527 137.378114 
L 235.612527 157.145386 
L 221.056005 157.145386 
L 221.056005 137.378114 
" style="fill:#faebdd;"/>
    <path clip-path="url(#p83bf6c0927)" d="M 235.612527 137.378114 
L 250.169049 137.378114 
L 250.169049 157.145386 
L 235.612527 157.145386 
L 235.612527 137.378114 
" style="fill:#faebdd;"/>
    <path clip-path="url(#p83bf6c0927)" d="M 250.169049 137.378114 
L 264.725571 137.378114 
L 264.725571 157.145386 
L 250.169049 157.145386 
L 250.169049 137.378114 
" style="fill:#faebdd;"/>
    <path clip-path="url(#p83bf6c0927)" d="M 264.725571 137.378114 
L 279.282092 137.378114 
L 279.282092 157.145386 
L 264.725571 157.145386 
L 264.725571 137.378114 
" style="fill:#faebdd;"/>
    <path clip-path="url(#p83bf6c0927)" d="M 279.282092 137.378114 
L 293.838614 137.378114 
L 293.838614 157.145386 
L 279.282092 157.145386 
L 279.282092 137.378114 
" style="fill:#faebdd;"/>
    <path clip-path="url(#p83bf6c0927)" d="M 293.838614 137.378114 
L 308.395136 137.378114 
L 308.395136 157.145386 
L 293.838614 157.145386 
L 293.838614 137.378114 
" style="fill:#faebdd;"/>
    <path clip-path="url(#p83bf6c0927)" d="M 308.395136 137.378114 
L 322.951658 137.378114 
L 322.951658 157.145386 
L 308.395136 157.145386 
L 308.395136 137.378114 
" style="fill:#faebdd;"/>
    <path clip-path="url(#p83bf6c0927)" d="M 322.951658 137.378114 
L 337.508179 137.378114 
L 337.508179 157.145386 
L 322.951658 157.145386 
L 322.951658 137.378114 
" style="fill:#faebdd;"/>
    <path clip-path="url(#p83bf6c0927)" d="M 337.508179 137.378114 
L 352.064701 137.378114 
L 352.064701 157.145386 
L 337.508179 157.145386 
L 337.508179 137.378114 
" style="fill:#faebdd;"/>
    <path clip-path="url(#p83bf6c0927)" d="M 352.064701 137.378114 
L 366.621223 137.378114 
L 366.621223 157.145386 
L 352.064701 157.145386 
L 352.064701 137.378114 
" style="fill:#faebdd;"/>
    <path clip-path="url(#p83bf6c0927)" d="M 366.621223 137.378114 
L 381.177745 137.378114 
L 381.177745 157.145386 
L 366.621223 157.145386 
L 366.621223 137.378114 
" style="fill:#faebdd;"/>
    <path clip-path="url(#p83bf6c0927)" d="M 381.177745 137.378114 
L 395.734266 137.378114 
L 395.734266 157.145386 
L 381.177745 157.145386 
L 381.177745 137.378114 
" style="fill:#faebdd;"/>
    <path clip-path="url(#p83bf6c0927)" d="M 395.734266 137.378114 
L 410.290788 137.378114 
L 410.290788 157.145386 
L 395.734266 157.145386 
L 395.734266 137.378114 
" style="fill:#faebdd;"/>
    <path clip-path="url(#p83bf6c0927)" d="M 410.290788 137.378114 
L 424.84731 137.378114 
L 424.84731 157.145386 
L 410.290788 157.145386 
L 410.290788 137.378114 
" style="fill:#faebdd;"/>
    <path clip-path="url(#p83bf6c0927)" d="M 424.84731 137.378114 
L 439.403832 137.378114 
L 439.403832 157.145386 
L 424.84731 157.145386 
L 424.84731 137.378114 
" style="fill:#faebdd;"/>
    <path clip-path="url(#p83bf6c0927)" d="M 439.403832 137.378114 
L 453.960353 137.378114 
L 453.960353 157.145386 
L 439.403832 157.145386 
L 439.403832 137.378114 
" style="fill:#faebdd;"/>
    <path clip-path="url(#p83bf6c0927)" d="M 453.960353 137.378114 
L 468.516875 137.378114 
L 468.516875 157.145386 
L 453.960353 157.145386 
L 453.960353 137.378114 
" style="fill:#03051a;"/>
    <path clip-path="url(#p83bf6c0927)" d="M 133.716875 157.145386 
L 148.273397 157.145386 
L 148.273397 176.912659 
L 133.716875 176.912659 
L 133.716875 157.145386 
" style="fill:#03051a;"/>
    <path clip-path="url(#p83bf6c0927)" d="M 148.273397 157.145386 
L 162.829918 157.145386 
L 162.829918 176.912659 
L 148.273397 176.912659 
L 148.273397 157.145386 
" style="fill:#03051a;"/>
    <path clip-path="url(#p83bf6c0927)" d="M 162.829918 157.145386 
L 177.38644 157.145386 
L 177.38644 176.912659 
L 162.829918 176.912659 
L 162.829918 157.145386 
" style="fill:#faebdd;"/>
    <path clip-path="url(#p83bf6c0927)" d="M 177.38644 157.145386 
L 191.942962 157.145386 
L 191.942962 176.912659 
L 177.38644 176.912659 
L 177.38644 157.145386 
" style="fill:#faebdd;"/>
    <path clip-path="url(#p83bf6c0927)" d="M 191.942962 157.145386 
L 206.499484 157.145386 
L 206.499484 176.912659 
L 191.942962 176.912659 
L 191.942962 157.145386 
" style="fill:#faebdd;"/>
    <path clip-path="url(#p83bf6c0927)" d="M 206.499484 157.145386 
L 221.056005 157.145386 
L 221.056005 176.912659 
L 206.499484 176.912659 
L 206.499484 157.145386 
" style="fill:#faebdd;"/>
    <path clip-path="url(#p83bf6c0927)" d="M 221.056005 157.145386 
L 235.612527 157.145386 
L 235.612527 176.912659 
L 221.056005 176.912659 
L 221.056005 157.145386 
" style="fill:#faebdd;"/>
    <path clip-path="url(#p83bf6c0927)" d="M 235.612527 157.145386 
L 250.169049 157.145386 
L 250.169049 176.912659 
L 235.612527 176.912659 
L 235.612527 157.145386 
" style="fill:#faebdd;"/>
    <path clip-path="url(#p83bf6c0927)" d="M 250.169049 157.145386 
L 264.725571 157.145386 
L 264.725571 176.912659 
L 250.169049 176.912659 
L 250.169049 157.145386 
" style="fill:#faebdd;"/>
    <path clip-path="url(#p83bf6c0927)" d="M 264.725571 157.145386 
L 279.282092 157.145386 
L 279.282092 176.912659 
L 264.725571 176.912659 
L 264.725571 157.145386 
" style="fill:#faebdd;"/>
    <path clip-path="url(#p83bf6c0927)" d="M 279.282092 157.145386 
L 293.838614 157.145386 
L 293.838614 176.912659 
L 279.282092 176.912659 
L 279.282092 157.145386 
" style="fill:#faebdd;"/>
    <path clip-path="url(#p83bf6c0927)" d="M 293.838614 157.145386 
L 308.395136 157.145386 
L 308.395136 176.912659 
L 293.838614 176.912659 
L 293.838614 157.145386 
" style="fill:#faebdd;"/>
    <path clip-path="url(#p83bf6c0927)" d="M 308.395136 157.145386 
L 322.951658 157.145386 
L 322.951658 176.912659 
L 308.395136 176.912659 
L 308.395136 157.145386 
" style="fill:#03051a;"/>
    <path clip-path="url(#p83bf6c0927)" d="M 322.951658 157.145386 
L 337.508179 157.145386 
L 337.508179 176.912659 
L 322.951658 176.912659 
L 322.951658 157.145386 
" style="fill:#faebdd;"/>
    <path clip-path="url(#p83bf6c0927)" d="M 337.508179 157.145386 
L 352.064701 157.145386 
L 352.064701 176.912659 
L 337.508179 176.912659 
L 337.508179 157.145386 
" style="fill:#faebdd;"/>
    <path clip-path="url(#p83bf6c0927)" d="M 352.064701 157.145386 
L 366.621223 157.145386 
L 366.621223 176.912659 
L 352.064701 176.912659 
L 352.064701 157.145386 
" style="fill:#faebdd;"/>
    <path clip-path="url(#p83bf6c0927)" d="M 366.621223 157.145386 
L 381.177745 157.145386 
L 381.177745 176.912659 
L 366.621223 176.912659 
L 366.621223 157.145386 
" style="fill:#faebdd;"/>
    <path clip-path="url(#p83bf6c0927)" d="M 381.177745 157.145386 
L 395.734266 157.145386 
L 395.734266 176.912659 
L 381.177745 176.912659 
L 381.177745 157.145386 
" style="fill:#faebdd;"/>
    <path clip-path="url(#p83bf6c0927)" d="M 395.734266 157.145386 
L 410.290788 157.145386 
L 410.290788 176.912659 
L 395.734266 176.912659 
L 395.734266 157.145386 
" style="fill:#faebdd;"/>
    <path clip-path="url(#p83bf6c0927)" d="M 410.290788 157.145386 
L 424.84731 157.145386 
L 424.84731 176.912659 
L 410.290788 176.912659 
L 410.290788 157.145386 
" style="fill:#faebdd;"/>
    <path clip-path="url(#p83bf6c0927)" d="M 424.84731 157.145386 
L 439.403832 157.145386 
L 439.403832 176.912659 
L 424.84731 176.912659 
L 424.84731 157.145386 
" style="fill:#faebdd;"/>
    <path clip-path="url(#p83bf6c0927)" d="M 439.403832 157.145386 
L 453.960353 157.145386 
L 453.960353 176.912659 
L 439.403832 176.912659 
L 439.403832 157.145386 
" style="fill:#faebdd;"/>
    <path clip-path="url(#p83bf6c0927)" d="M 453.960353 157.145386 
L 468.516875 157.145386 
L 468.516875 176.912659 
L 453.960353 176.912659 
L 453.960353 157.145386 
" style="fill:#faebdd;"/>
    <path clip-path="url(#p83bf6c0927)" d="M 133.716875 176.912659 
L 148.273397 176.912659 
L 148.273397 196.679932 
L 133.716875 196.679932 
L 133.716875 176.912659 
" style="fill:#03051a;"/>
    <path clip-path="url(#p83bf6c0927)" d="M 148.273397 176.912659 
L 162.829918 176.912659 
L 162.829918 196.679932 
L 148.273397 196.679932 
L 148.273397 176.912659 
" style="fill:#03051a;"/>
    <path clip-path="url(#p83bf6c0927)" d="M 162.829918 176.912659 
L 177.38644 176.912659 
L 177.38644 196.679932 
L 162.829918 196.679932 
L 162.829918 176.912659 
" style="fill:#faebdd;"/>
    <path clip-path="url(#p83bf6c0927)" d="M 177.38644 176.912659 
L 191.942962 176.912659 
L 191.942962 196.679932 
L 177.38644 196.679932 
L 177.38644 176.912659 
" style="fill:#faebdd;"/>
    <path clip-path="url(#p83bf6c0927)" d="M 191.942962 176.912659 
L 206.499484 176.912659 
L 206.499484 196.679932 
L 191.942962 196.679932 
L 191.942962 176.912659 
" style="fill:#faebdd;"/>
    <path clip-path="url(#p83bf6c0927)" d="M 206.499484 176.912659 
L 221.056005 176.912659 
L 221.056005 196.679932 
L 206.499484 196.679932 
L 206.499484 176.912659 
" style="fill:#faebdd;"/>
    <path clip-path="url(#p83bf6c0927)" d="M 221.056005 176.912659 
L 235.612527 176.912659 
L 235.612527 196.679932 
L 221.056005 196.679932 
L 221.056005 176.912659 
" style="fill:#faebdd;"/>
    <path clip-path="url(#p83bf6c0927)" d="M 235.612527 176.912659 
L 250.169049 176.912659 
L 250.169049 196.679932 
L 235.612527 196.679932 
L 235.612527 176.912659 
" style="fill:#faebdd;"/>
    <path clip-path="url(#p83bf6c0927)" d="M 250.169049 176.912659 
L 264.725571 176.912659 
L 264.725571 196.679932 
L 250.169049 196.679932 
L 250.169049 176.912659 
" style="fill:#03051a;"/>
    <path clip-path="url(#p83bf6c0927)" d="M 264.725571 176.912659 
L 279.282092 176.912659 
L 279.282092 196.679932 
L 264.725571 196.679932 
L 264.725571 176.912659 
" style="fill:#30173a;"/>
    <path clip-path="url(#p83bf6c0927)" d="M 279.282092 176.912659 
L 293.838614 176.912659 
L 293.838614 196.679932 
L 279.282092 196.679932 
L 279.282092 176.912659 
" style="fill:#faebdd;"/>
    <path clip-path="url(#p83bf6c0927)" d="M 293.838614 176.912659 
L 308.395136 176.912659 
L 308.395136 196.679932 
L 293.838614 196.679932 
L 293.838614 176.912659 
" style="fill:#faebdd;"/>
    <path clip-path="url(#p83bf6c0927)" d="M 308.395136 176.912659 
L 322.951658 176.912659 
L 322.951658 196.679932 
L 308.395136 196.679932 
L 308.395136 176.912659 
" style="fill:#faebdd;"/>
    <path clip-path="url(#p83bf6c0927)" d="M 322.951658 176.912659 
L 337.508179 176.912659 
L 337.508179 196.679932 
L 322.951658 196.679932 
L 322.951658 176.912659 
" style="fill:#faebdd;"/>
    <path clip-path="url(#p83bf6c0927)" d="M 337.508179 176.912659 
L 352.064701 176.912659 
L 352.064701 196.679932 
L 337.508179 196.679932 
L 337.508179 176.912659 
" style="fill:#faebdd;"/>
    <path clip-path="url(#p83bf6c0927)" d="M 352.064701 176.912659 
L 366.621223 176.912659 
L 366.621223 196.679932 
L 352.064701 196.679932 
L 352.064701 176.912659 
" style="fill:#faebdd;"/>
    <path clip-path="url(#p83bf6c0927)" d="M 366.621223 176.912659 
L 381.177745 176.912659 
L 381.177745 196.679932 
L 366.621223 196.679932 
L 366.621223 176.912659 
" style="fill:#faebdd;"/>
    <path clip-path="url(#p83bf6c0927)" d="M 381.177745 176.912659 
L 395.734266 176.912659 
L 395.734266 196.679932 
L 381.177745 196.679932 
L 381.177745 176.912659 
" style="fill:#faebdd;"/>
    <path clip-path="url(#p83bf6c0927)" d="M 395.734266 176.912659 
L 410.290788 176.912659 
L 410.290788 196.679932 
L 395.734266 196.679932 
L 395.734266 176.912659 
" style="fill:#faebdd;"/>
    <path clip-path="url(#p83bf6c0927)" d="M 410.290788 176.912659 
L 424.84731 176.912659 
L 424.84731 196.679932 
L 410.290788 196.679932 
L 410.290788 176.912659 
" style="fill:#faebdd;"/>
    <path clip-path="url(#p83bf6c0927)" d="M 424.84731 176.912659 
L 439.403832 176.912659 
L 439.403832 196.679932 
L 424.84731 196.679932 
L 424.84731 176.912659 
" style="fill:#faebdd;"/>
    <path clip-path="url(#p83bf6c0927)" d="M 439.403832 176.912659 
L 453.960353 176.912659 
L 453.960353 196.679932 
L 439.403832 196.679932 
L 439.403832 176.912659 
" style="fill:#faebdd;"/>
    <path clip-path="url(#p83bf6c0927)" d="M 453.960353 176.912659 
L 468.516875 176.912659 
L 468.516875 196.679932 
L 453.960353 196.679932 
L 453.960353 176.912659 
" style="fill:#faebdd;"/>
    <path clip-path="url(#p83bf6c0927)" d="M 133.716875 196.679932 
L 148.273397 196.679932 
L 148.273397 216.447205 
L 133.716875 216.447205 
L 133.716875 196.679932 
" style="fill:#03051a;"/>
    <path clip-path="url(#p83bf6c0927)" d="M 148.273397 196.679932 
L 162.829918 196.679932 
L 162.829918 216.447205 
L 148.273397 216.447205 
L 148.273397 196.679932 
" style="fill:#03051a;"/>
    <path clip-path="url(#p83bf6c0927)" d="M 162.829918 196.679932 
L 177.38644 196.679932 
L 177.38644 216.447205 
L 162.829918 216.447205 
L 162.829918 196.679932 
" style="fill:#faebdd;"/>
    <path clip-path="url(#p83bf6c0927)" d="M 177.38644 196.679932 
L 191.942962 196.679932 
L 191.942962 216.447205 
L 177.38644 216.447205 
L 177.38644 196.679932 
" style="fill:#faebdd;"/>
    <path clip-path="url(#p83bf6c0927)" d="M 191.942962 196.679932 
L 206.499484 196.679932 
L 206.499484 216.447205 
L 191.942962 216.447205 
L 191.942962 196.679932 
" style="fill:#faebdd;"/>
    <path clip-path="url(#p83bf6c0927)" d="M 206.499484 196.679932 
L 221.056005 196.679932 
L 221.056005 216.447205 
L 206.499484 216.447205 
L 206.499484 196.679932 
" style="fill:#faebdd;"/>
    <path clip-path="url(#p83bf6c0927)" d="M 221.056005 196.679932 
L 235.612527 196.679932 
L 235.612527 216.447205 
L 221.056005 216.447205 
L 221.056005 196.679932 
" style="fill:#faebdd;"/>
    <path clip-path="url(#p83bf6c0927)" d="M 235.612527 196.679932 
L 250.169049 196.679932 
L 250.169049 216.447205 
L 235.612527 216.447205 
L 235.612527 196.679932 
" style="fill:#faebdd;"/>
    <path clip-path="url(#p83bf6c0927)" d="M 250.169049 196.679932 
L 264.725571 196.679932 
L 264.725571 216.447205 
L 250.169049 216.447205 
L 250.169049 196.679932 
" style="fill:#faebdd;"/>
    <path clip-path="url(#p83bf6c0927)" d="M 264.725571 196.679932 
L 279.282092 196.679932 
L 279.282092 216.447205 
L 264.725571 216.447205 
L 264.725571 196.679932 
" style="fill:#faebdd;"/>
    <path clip-path="url(#p83bf6c0927)" d="M 279.282092 196.679932 
L 293.838614 196.679932 
L 293.838614 216.447205 
L 279.282092 216.447205 
L 279.282092 196.679932 
" style="fill:#03051a;"/>
    <path clip-path="url(#p83bf6c0927)" d="M 293.838614 196.679932 
L 308.395136 196.679932 
L 308.395136 216.447205 
L 293.838614 216.447205 
L 293.838614 196.679932 
" style="fill:#faebdd;"/>
    <path clip-path="url(#p83bf6c0927)" d="M 308.395136 196.679932 
L 322.951658 196.679932 
L 322.951658 216.447205 
L 308.395136 216.447205 
L 308.395136 196.679932 
" style="fill:#faebdd;"/>
    <path clip-path="url(#p83bf6c0927)" d="M 322.951658 196.679932 
L 337.508179 196.679932 
L 337.508179 216.447205 
L 322.951658 216.447205 
L 322.951658 196.679932 
" style="fill:#faebdd;"/>
    <path clip-path="url(#p83bf6c0927)" d="M 337.508179 196.679932 
L 352.064701 196.679932 
L 352.064701 216.447205 
L 337.508179 216.447205 
L 337.508179 196.679932 
" style="fill:#faebdd;"/>
    <path clip-path="url(#p83bf6c0927)" d="M 352.064701 196.679932 
L 366.621223 196.679932 
L 366.621223 216.447205 
L 352.064701 216.447205 
L 352.064701 196.679932 
" style="fill:#faebdd;"/>
    <path clip-path="url(#p83bf6c0927)" d="M 366.621223 196.679932 
L 381.177745 196.679932 
L 381.177745 216.447205 
L 366.621223 216.447205 
L 366.621223 196.679932 
" style="fill:#faebdd;"/>
    <path clip-path="url(#p83bf6c0927)" d="M 381.177745 196.679932 
L 395.734266 196.679932 
L 395.734266 216.447205 
L 381.177745 216.447205 
L 381.177745 196.679932 
" style="fill:#faebdd;"/>
    <path clip-path="url(#p83bf6c0927)" d="M 395.734266 196.679932 
L 410.290788 196.679932 
L 410.290788 216.447205 
L 395.734266 216.447205 
L 395.734266 196.679932 
" style="fill:#faebdd;"/>
    <path clip-path="url(#p83bf6c0927)" d="M 410.290788 196.679932 
L 424.84731 196.679932 
L 424.84731 216.447205 
L 410.290788 216.447205 
L 410.290788 196.679932 
" style="fill:#faebdd;"/>
    <path clip-path="url(#p83bf6c0927)" d="M 424.84731 196.679932 
L 439.403832 196.679932 
L 439.403832 216.447205 
L 424.84731 216.447205 
L 424.84731 196.679932 
" style="fill:#faebdd;"/>
    <path clip-path="url(#p83bf6c0927)" d="M 439.403832 196.679932 
L 453.960353 196.679932 
L 453.960353 216.447205 
L 439.403832 216.447205 
L 439.403832 196.679932 
" style="fill:#faebdd;"/>
    <path clip-path="url(#p83bf6c0927)" d="M 453.960353 196.679932 
L 468.516875 196.679932 
L 468.516875 216.447205 
L 453.960353 216.447205 
L 453.960353 196.679932 
" style="fill:#faebdd;"/>
    <path clip-path="url(#p83bf6c0927)" d="M 133.716875 216.447205 
L 148.273397 216.447205 
L 148.273397 236.214477 
L 133.716875 236.214477 
L 133.716875 216.447205 
" style="fill:#03051a;"/>
    <path clip-path="url(#p83bf6c0927)" d="M 148.273397 216.447205 
L 162.829918 216.447205 
L 162.829918 236.214477 
L 148.273397 236.214477 
L 148.273397 216.447205 
" style="fill:#03051a;"/>
    <path clip-path="url(#p83bf6c0927)" d="M 162.829918 216.447205 
L 177.38644 216.447205 
L 177.38644 236.214477 
L 162.829918 236.214477 
L 162.829918 216.447205 
" style="fill:#faebdd;"/>
    <path clip-path="url(#p83bf6c0927)" d="M 177.38644 216.447205 
L 191.942962 216.447205 
L 191.942962 236.214477 
L 177.38644 236.214477 
L 177.38644 216.447205 
" style="fill:#03051a;"/>
    <path clip-path="url(#p83bf6c0927)" d="M 191.942962 216.447205 
L 206.499484 216.447205 
L 206.499484 236.214477 
L 191.942962 236.214477 
L 191.942962 216.447205 
" style="fill:#03051a;"/>
    <path clip-path="url(#p83bf6c0927)" d="M 206.499484 216.447205 
L 221.056005 216.447205 
L 221.056005 236.214477 
L 206.499484 236.214477 
L 206.499484 216.447205 
" style="fill:#03051a;"/>
    <path clip-path="url(#p83bf6c0927)" d="M 221.056005 216.447205 
L 235.612527 216.447205 
L 235.612527 236.214477 
L 221.056005 236.214477 
L 221.056005 216.447205 
" style="fill:#03051a;"/>
    <path clip-path="url(#p83bf6c0927)" d="M 235.612527 216.447205 
L 250.169049 216.447205 
L 250.169049 236.214477 
L 235.612527 236.214477 
L 235.612527 216.447205 
" style="fill:#03051a;"/>
    <path clip-path="url(#p83bf6c0927)" d="M 250.169049 216.447205 
L 264.725571 216.447205 
L 264.725571 236.214477 
L 250.169049 236.214477 
L 250.169049 216.447205 
" style="fill:#faebdd;"/>
    <path clip-path="url(#p83bf6c0927)" d="M 264.725571 216.447205 
L 279.282092 216.447205 
L 279.282092 236.214477 
L 264.725571 236.214477 
L 264.725571 216.447205 
" style="fill:#faebdd;"/>
    <path clip-path="url(#p83bf6c0927)" d="M 279.282092 216.447205 
L 293.838614 216.447205 
L 293.838614 236.214477 
L 279.282092 236.214477 
L 279.282092 216.447205 
" style="fill:#faebdd;"/>
    <path clip-path="url(#p83bf6c0927)" d="M 293.838614 216.447205 
L 308.395136 216.447205 
L 308.395136 236.214477 
L 293.838614 236.214477 
L 293.838614 216.447205 
" style="fill:#faebdd;"/>
    <path clip-path="url(#p83bf6c0927)" d="M 308.395136 216.447205 
L 322.951658 216.447205 
L 322.951658 236.214477 
L 308.395136 236.214477 
L 308.395136 216.447205 
" style="fill:#faebdd;"/>
    <path clip-path="url(#p83bf6c0927)" d="M 322.951658 216.447205 
L 337.508179 216.447205 
L 337.508179 236.214477 
L 322.951658 236.214477 
L 322.951658 216.447205 
" style="fill:#faebdd;"/>
    <path clip-path="url(#p83bf6c0927)" d="M 337.508179 216.447205 
L 352.064701 216.447205 
L 352.064701 236.214477 
L 337.508179 236.214477 
L 337.508179 216.447205 
" style="fill:#faebdd;"/>
    <path clip-path="url(#p83bf6c0927)" d="M 352.064701 216.447205 
L 366.621223 216.447205 
L 366.621223 236.214477 
L 352.064701 236.214477 
L 352.064701 216.447205 
" style="fill:#faebdd;"/>
    <path clip-path="url(#p83bf6c0927)" d="M 366.621223 216.447205 
L 381.177745 216.447205 
L 381.177745 236.214477 
L 366.621223 236.214477 
L 366.621223 216.447205 
" style="fill:#faebdd;"/>
    <path clip-path="url(#p83bf6c0927)" d="M 381.177745 216.447205 
L 395.734266 216.447205 
L 395.734266 236.214477 
L 381.177745 236.214477 
L 381.177745 216.447205 
" style="fill:#faebdd;"/>
    <path clip-path="url(#p83bf6c0927)" d="M 395.734266 216.447205 
L 410.290788 216.447205 
L 410.290788 236.214477 
L 395.734266 236.214477 
L 395.734266 216.447205 
" style="fill:#faebdd;"/>
    <path clip-path="url(#p83bf6c0927)" d="M 410.290788 216.447205 
L 424.84731 216.447205 
L 424.84731 236.214477 
L 410.290788 236.214477 
L 410.290788 216.447205 
" style="fill:#faebdd;"/>
    <path clip-path="url(#p83bf6c0927)" d="M 424.84731 216.447205 
L 439.403832 216.447205 
L 439.403832 236.214477 
L 424.84731 236.214477 
L 424.84731 216.447205 
" style="fill:#faebdd;"/>
    <path clip-path="url(#p83bf6c0927)" d="M 439.403832 216.447205 
L 453.960353 216.447205 
L 453.960353 236.214477 
L 439.403832 236.214477 
L 439.403832 216.447205 
" style="fill:#faebdd;"/>
    <path clip-path="url(#p83bf6c0927)" d="M 453.960353 216.447205 
L 468.516875 216.447205 
L 468.516875 236.214477 
L 453.960353 236.214477 
L 453.960353 216.447205 
" style="fill:#03051a;"/>
    <path clip-path="url(#p83bf6c0927)" d="M 133.716875 236.214477 
L 148.273397 236.214477 
L 148.273397 255.98175 
L 133.716875 255.98175 
L 133.716875 236.214477 
" style="fill:#03051a;"/>
    <path clip-path="url(#p83bf6c0927)" d="M 148.273397 236.214477 
L 162.829918 236.214477 
L 162.829918 255.98175 
L 148.273397 255.98175 
L 148.273397 236.214477 
" style="fill:#03051a;"/>
    <path clip-path="url(#p83bf6c0927)" d="M 162.829918 236.214477 
L 177.38644 236.214477 
L 177.38644 255.98175 
L 162.829918 255.98175 
L 162.829918 236.214477 
" style="fill:#faebdd;"/>
    <path clip-path="url(#p83bf6c0927)" d="M 177.38644 236.214477 
L 191.942962 236.214477 
L 191.942962 255.98175 
L 177.38644 255.98175 
L 177.38644 236.214477 
" style="fill:#faebdd;"/>
    <path clip-path="url(#p83bf6c0927)" d="M 191.942962 236.214477 
L 206.499484 236.214477 
L 206.499484 255.98175 
L 191.942962 255.98175 
L 191.942962 236.214477 
" style="fill:#faebdd;"/>
    <path clip-path="url(#p83bf6c0927)" d="M 206.499484 236.214477 
L 221.056005 236.214477 
L 221.056005 255.98175 
L 206.499484 255.98175 
L 206.499484 236.214477 
" style="fill:#faebdd;"/>
    <path clip-path="url(#p83bf6c0927)" d="M 221.056005 236.214477 
L 235.612527 236.214477 
L 235.612527 255.98175 
L 221.056005 255.98175 
L 221.056005 236.214477 
" style="fill:#faebdd;"/>
    <path clip-path="url(#p83bf6c0927)" d="M 235.612527 236.214477 
L 250.169049 236.214477 
L 250.169049 255.98175 
L 235.612527 255.98175 
L 235.612527 236.214477 
" style="fill:#faebdd;"/>
    <path clip-path="url(#p83bf6c0927)" d="M 250.169049 236.214477 
L 264.725571 236.214477 
L 264.725571 255.98175 
L 250.169049 255.98175 
L 250.169049 236.214477 
" style="fill:#faebdd;"/>
    <path clip-path="url(#p83bf6c0927)" d="M 264.725571 236.214477 
L 279.282092 236.214477 
L 279.282092 255.98175 
L 264.725571 255.98175 
L 264.725571 236.214477 
" style="fill:#faebdd;"/>
    <path clip-path="url(#p83bf6c0927)" d="M 279.282092 236.214477 
L 293.838614 236.214477 
L 293.838614 255.98175 
L 279.282092 255.98175 
L 279.282092 236.214477 
" style="fill:#faebdd;"/>
    <path clip-path="url(#p83bf6c0927)" d="M 293.838614 236.214477 
L 308.395136 236.214477 
L 308.395136 255.98175 
L 293.838614 255.98175 
L 293.838614 236.214477 
" style="fill:#faebdd;"/>
    <path clip-path="url(#p83bf6c0927)" d="M 308.395136 236.214477 
L 322.951658 236.214477 
L 322.951658 255.98175 
L 308.395136 255.98175 
L 308.395136 236.214477 
" style="fill:#faebdd;"/>
    <path clip-path="url(#p83bf6c0927)" d="M 322.951658 236.214477 
L 337.508179 236.214477 
L 337.508179 255.98175 
L 322.951658 255.98175 
L 322.951658 236.214477 
" style="fill:#03051a;"/>
    <path clip-path="url(#p83bf6c0927)" d="M 337.508179 236.214477 
L 352.064701 236.214477 
L 352.064701 255.98175 
L 337.508179 255.98175 
L 337.508179 236.214477 
" style="fill:#03051a;"/>
    <path clip-path="url(#p83bf6c0927)" d="M 352.064701 236.214477 
L 366.621223 236.214477 
L 366.621223 255.98175 
L 352.064701 255.98175 
L 352.064701 236.214477 
" style="fill:#03051a;"/>
    <path clip-path="url(#p83bf6c0927)" d="M 366.621223 236.214477 
L 381.177745 236.214477 
L 381.177745 255.98175 
L 366.621223 255.98175 
L 366.621223 236.214477 
" style="fill:#03051a;"/>
    <path clip-path="url(#p83bf6c0927)" d="M 381.177745 236.214477 
L 395.734266 236.214477 
L 395.734266 255.98175 
L 381.177745 255.98175 
L 381.177745 236.214477 
" style="fill:#03051a;"/>
    <path clip-path="url(#p83bf6c0927)" d="M 395.734266 236.214477 
L 410.290788 236.214477 
L 410.290788 255.98175 
L 395.734266 255.98175 
L 395.734266 236.214477 
" style="fill:#03051a;"/>
    <path clip-path="url(#p83bf6c0927)" d="M 410.290788 236.214477 
L 424.84731 236.214477 
L 424.84731 255.98175 
L 410.290788 255.98175 
L 410.290788 236.214477 
" style="fill:#03051a;"/>
    <path clip-path="url(#p83bf6c0927)" d="M 424.84731 236.214477 
L 439.403832 236.214477 
L 439.403832 255.98175 
L 424.84731 255.98175 
L 424.84731 236.214477 
" style="fill:#03051a;"/>
    <path clip-path="url(#p83bf6c0927)" d="M 439.403832 236.214477 
L 453.960353 236.214477 
L 453.960353 255.98175 
L 439.403832 255.98175 
L 439.403832 236.214477 
" style="fill:#03051a;"/>
    <path clip-path="url(#p83bf6c0927)" d="M 453.960353 236.214477 
L 468.516875 236.214477 
L 468.516875 255.98175 
L 453.960353 255.98175 
L 453.960353 236.214477 
" style="fill:#faebdd;"/>
   </g>
   <g id="matplotlib.axis_1">
    <g id="xtick_1">
     <g id="line2d_1">
      <defs>
       <path d="M 0 0 
L 0 -3.5 
" id="m096633c69d" style="stroke:#000000;stroke-width:0.8;"/>
      </defs>
      <g>
       <use style="stroke:#000000;stroke-width:0.8;" x="140.995136" xlink:href="#m096633c69d" y="255.98175"/>
      </g>
     </g>
     <g id="text_1">
      <!-- timestamp -->
      <defs>
       <path d="M 18.3125 70.21875 
L 18.3125 54.6875 
L 36.8125 54.6875 
L 36.8125 47.703125 
L 18.3125 47.703125 
L 18.3125 18.015625 
Q 18.3125 11.328125 20.140625 9.421875 
Q 21.96875 7.515625 27.59375 7.515625 
L 36.8125 7.515625 
L 36.8125 0 
L 27.59375 0 
Q 17.1875 0 13.234375 3.875 
Q 9.28125 7.765625 9.28125 18.015625 
L 9.28125 47.703125 
L 2.6875 47.703125 
L 2.6875 54.6875 
L 9.28125 54.6875 
L 9.28125 70.21875 
z
" id="DejaVuSans-74"/>
       <path d="M 9.421875 54.6875 
L 18.40625 54.6875 
L 18.40625 0 
L 9.421875 0 
z
M 9.421875 75.984375 
L 18.40625 75.984375 
L 18.40625 64.59375 
L 9.421875 64.59375 
z
" id="DejaVuSans-69"/>
       <path d="M 52 44.1875 
Q 55.375 50.25 60.0625 53.125 
Q 64.75 56 71.09375 56 
Q 79.640625 56 84.28125 50.015625 
Q 88.921875 44.046875 88.921875 33.015625 
L 88.921875 0 
L 79.890625 0 
L 79.890625 32.71875 
Q 79.890625 40.578125 77.09375 44.375 
Q 74.3125 48.1875 68.609375 48.1875 
Q 61.625 48.1875 57.5625 43.546875 
Q 53.515625 38.921875 53.515625 30.90625 
L 53.515625 0 
L 44.484375 0 
L 44.484375 32.71875 
Q 44.484375 40.625 41.703125 44.40625 
Q 38.921875 48.1875 33.109375 48.1875 
Q 26.21875 48.1875 22.15625 43.53125 
Q 18.109375 38.875 18.109375 30.90625 
L 18.109375 0 
L 9.078125 0 
L 9.078125 54.6875 
L 18.109375 54.6875 
L 18.109375 46.1875 
Q 21.1875 51.21875 25.484375 53.609375 
Q 29.78125 56 35.6875 56 
Q 41.65625 56 45.828125 52.96875 
Q 50 49.953125 52 44.1875 
z
" id="DejaVuSans-6d"/>
       <path d="M 56.203125 29.59375 
L 56.203125 25.203125 
L 14.890625 25.203125 
Q 15.484375 15.921875 20.484375 11.0625 
Q 25.484375 6.203125 34.421875 6.203125 
Q 39.59375 6.203125 44.453125 7.46875 
Q 49.3125 8.734375 54.109375 11.28125 
L 54.109375 2.78125 
Q 49.265625 0.734375 44.1875 -0.34375 
Q 39.109375 -1.421875 33.890625 -1.421875 
Q 20.796875 -1.421875 13.15625 6.1875 
Q 5.515625 13.8125 5.515625 26.8125 
Q 5.515625 40.234375 12.765625 48.109375 
Q 20.015625 56 32.328125 56 
Q 43.359375 56 49.78125 48.890625 
Q 56.203125 41.796875 56.203125 29.59375 
z
M 47.21875 32.234375 
Q 47.125 39.59375 43.09375 43.984375 
Q 39.0625 48.390625 32.421875 48.390625 
Q 24.90625 48.390625 20.390625 44.140625 
Q 15.875 39.890625 15.1875 32.171875 
z
" id="DejaVuSans-65"/>
       <path d="M 44.28125 53.078125 
L 44.28125 44.578125 
Q 40.484375 46.53125 36.375 47.5 
Q 32.28125 48.484375 27.875 48.484375 
Q 21.1875 48.484375 17.84375 46.4375 
Q 14.5 44.390625 14.5 40.28125 
Q 14.5 37.15625 16.890625 35.375 
Q 19.28125 33.59375 26.515625 31.984375 
L 29.59375 31.296875 
Q 39.15625 29.25 43.1875 25.515625 
Q 47.21875 21.78125 47.21875 15.09375 
Q 47.21875 7.46875 41.1875 3.015625 
Q 35.15625 -1.421875 24.609375 -1.421875 
Q 20.21875 -1.421875 15.453125 -0.5625 
Q 10.6875 0.296875 5.421875 2 
L 5.421875 11.28125 
Q 10.40625 8.6875 15.234375 7.390625 
Q 20.0625 6.109375 24.8125 6.109375 
Q 31.15625 6.109375 34.5625 8.28125 
Q 37.984375 10.453125 37.984375 14.40625 
Q 37.984375 18.0625 35.515625 20.015625 
Q 33.0625 21.96875 24.703125 23.78125 
L 21.578125 24.515625 
Q 13.234375 26.265625 9.515625 29.90625 
Q 5.8125 33.546875 5.8125 39.890625 
Q 5.8125 47.609375 11.28125 51.796875 
Q 16.75 56 26.8125 56 
Q 31.78125 56 36.171875 55.265625 
Q 40.578125 54.546875 44.28125 53.078125 
z
" id="DejaVuSans-73"/>
       <path d="M 34.28125 27.484375 
Q 23.390625 27.484375 19.1875 25 
Q 14.984375 22.515625 14.984375 16.5 
Q 14.984375 11.71875 18.140625 8.90625 
Q 21.296875 6.109375 26.703125 6.109375 
Q 34.1875 6.109375 38.703125 11.40625 
Q 43.21875 16.703125 43.21875 25.484375 
L 43.21875 27.484375 
z
M 52.203125 31.203125 
L 52.203125 0 
L 43.21875 0 
L 43.21875 8.296875 
Q 40.140625 3.328125 35.546875 0.953125 
Q 30.953125 -1.421875 24.3125 -1.421875 
Q 15.921875 -1.421875 10.953125 3.296875 
Q 6 8.015625 6 15.921875 
Q 6 25.140625 12.171875 29.828125 
Q 18.359375 34.515625 30.609375 34.515625 
L 43.21875 34.515625 
L 43.21875 35.40625 
Q 43.21875 41.609375 39.140625 45 
Q 35.0625 48.390625 27.6875 48.390625 
Q 23 48.390625 18.546875 47.265625 
Q 14.109375 46.140625 10.015625 43.890625 
L 10.015625 52.203125 
Q 14.9375 54.109375 19.578125 55.046875 
Q 24.21875 56 28.609375 56 
Q 40.484375 56 46.34375 49.84375 
Q 52.203125 43.703125 52.203125 31.203125 
z
" id="DejaVuSans-61"/>
       <path d="M 18.109375 8.203125 
L 18.109375 -20.796875 
L 9.078125 -20.796875 
L 9.078125 54.6875 
L 18.109375 54.6875 
L 18.109375 46.390625 
Q 20.953125 51.265625 25.265625 53.625 
Q 29.59375 56 35.59375 56 
Q 45.5625 56 51.78125 48.09375 
Q 58.015625 40.1875 58.015625 27.296875 
Q 58.015625 14.40625 51.78125 6.484375 
Q 45.5625 -1.421875 35.59375 -1.421875 
Q 29.59375 -1.421875 25.265625 0.953125 
Q 20.953125 3.328125 18.109375 8.203125 
z
M 48.6875 27.296875 
Q 48.6875 37.203125 44.609375 42.84375 
Q 40.53125 48.484375 33.40625 48.484375 
Q 26.265625 48.484375 22.1875 42.84375 
Q 18.109375 37.203125 18.109375 27.296875 
Q 18.109375 17.390625 22.1875 11.75 
Q 26.265625 6.109375 33.40625 6.109375 
Q 40.53125 6.109375 44.609375 11.75 
Q 48.6875 17.390625 48.6875 27.296875 
z
" id="DejaVuSans-70"/>
      </defs>
      <g transform="translate(143.754511 313.420813)rotate(-90)scale(0.1 -0.1)">
       <use xlink:href="#DejaVuSans-74"/>
       <use x="39.208984" xlink:href="#DejaVuSans-69"/>
       <use x="66.992188" xlink:href="#DejaVuSans-6d"/>
       <use x="164.404297" xlink:href="#DejaVuSans-65"/>
       <use x="225.927734" xlink:href="#DejaVuSans-73"/>
       <use x="278.027344" xlink:href="#DejaVuSans-74"/>
       <use x="317.236328" xlink:href="#DejaVuSans-61"/>
       <use x="378.515625" xlink:href="#DejaVuSans-6d"/>
       <use x="475.927734" xlink:href="#DejaVuSans-70"/>
      </g>
     </g>
    </g>
    <g id="xtick_2">
     <g id="line2d_2">
      <g>
       <use style="stroke:#000000;stroke-width:0.8;" x="155.551658" xlink:href="#m096633c69d" y="255.98175"/>
      </g>
     </g>
     <g id="text_2">
      <!-- person -->
      <defs>
       <path d="M 41.109375 46.296875 
Q 39.59375 47.171875 37.8125 47.578125 
Q 36.03125 48 33.890625 48 
Q 26.265625 48 22.1875 43.046875 
Q 18.109375 38.09375 18.109375 28.8125 
L 18.109375 0 
L 9.078125 0 
L 9.078125 54.6875 
L 18.109375 54.6875 
L 18.109375 46.1875 
Q 20.953125 51.171875 25.484375 53.578125 
Q 30.03125 56 36.53125 56 
Q 37.453125 56 38.578125 55.875 
Q 39.703125 55.765625 41.0625 55.515625 
z
" id="DejaVuSans-72"/>
       <path d="M 30.609375 48.390625 
Q 23.390625 48.390625 19.1875 42.75 
Q 14.984375 37.109375 14.984375 27.296875 
Q 14.984375 17.484375 19.15625 11.84375 
Q 23.34375 6.203125 30.609375 6.203125 
Q 37.796875 6.203125 41.984375 11.859375 
Q 46.1875 17.53125 46.1875 27.296875 
Q 46.1875 37.015625 41.984375 42.703125 
Q 37.796875 48.390625 30.609375 48.390625 
z
M 30.609375 56 
Q 42.328125 56 49.015625 48.375 
Q 55.71875 40.765625 55.71875 27.296875 
Q 55.71875 13.875 49.015625 6.21875 
Q 42.328125 -1.421875 30.609375 -1.421875 
Q 18.84375 -1.421875 12.171875 6.21875 
Q 5.515625 13.875 5.515625 27.296875 
Q 5.515625 40.765625 12.171875 48.375 
Q 18.84375 56 30.609375 56 
z
" id="DejaVuSans-6f"/>
       <path d="M 54.890625 33.015625 
L 54.890625 0 
L 45.90625 0 
L 45.90625 32.71875 
Q 45.90625 40.484375 42.875 44.328125 
Q 39.84375 48.1875 33.796875 48.1875 
Q 26.515625 48.1875 22.3125 43.546875 
Q 18.109375 38.921875 18.109375 30.90625 
L 18.109375 0 
L 9.078125 0 
L 9.078125 54.6875 
L 18.109375 54.6875 
L 18.109375 46.1875 
Q 21.34375 51.125 25.703125 53.5625 
Q 30.078125 56 35.796875 56 
Q 45.21875 56 50.046875 50.171875 
Q 54.890625 44.34375 54.890625 33.015625 
z
" id="DejaVuSans-6e"/>
      </defs>
      <g transform="translate(158.311033 293.759875)rotate(-90)scale(0.1 -0.1)">
       <use xlink:href="#DejaVuSans-70"/>
       <use x="63.476562" xlink:href="#DejaVuSans-65"/>
       <use x="125" xlink:href="#DejaVuSans-72"/>
       <use x="166.113281" xlink:href="#DejaVuSans-73"/>
       <use x="218.212891" xlink:href="#DejaVuSans-6f"/>
       <use x="279.394531" xlink:href="#DejaVuSans-6e"/>
      </g>
     </g>
    </g>
    <g id="xtick_3">
     <g id="line2d_3">
      <g>
       <use style="stroke:#000000;stroke-width:0.8;" x="170.108179" xlink:href="#m096633c69d" y="255.98175"/>
      </g>
     </g>
     <g id="text_3">
      <!-- url -->
      <defs>
       <path d="M 8.5 21.578125 
L 8.5 54.6875 
L 17.484375 54.6875 
L 17.484375 21.921875 
Q 17.484375 14.15625 20.5 10.265625 
Q 23.53125 6.390625 29.59375 6.390625 
Q 36.859375 6.390625 41.078125 11.03125 
Q 45.3125 15.671875 45.3125 23.6875 
L 45.3125 54.6875 
L 54.296875 54.6875 
L 54.296875 0 
L 45.3125 0 
L 45.3125 8.40625 
Q 42.046875 3.421875 37.71875 1 
Q 33.40625 -1.421875 27.6875 -1.421875 
Q 18.265625 -1.421875 13.375 4.4375 
Q 8.5 10.296875 8.5 21.578125 
z
M 31.109375 56 
z
" id="DejaVuSans-75"/>
       <path d="M 9.421875 75.984375 
L 18.40625 75.984375 
L 18.40625 0 
L 9.421875 0 
z
" id="DejaVuSans-6c"/>
      </defs>
      <g transform="translate(172.867554 272.708312)rotate(-90)scale(0.1 -0.1)">
       <use xlink:href="#DejaVuSans-75"/>
       <use x="63.378906" xlink:href="#DejaVuSans-72"/>
       <use x="104.492188" xlink:href="#DejaVuSans-6c"/>
      </g>
     </g>
    </g>
    <g id="xtick_4">
     <g id="line2d_4">
      <g>
       <use style="stroke:#000000;stroke-width:0.8;" x="184.664701" xlink:href="#m096633c69d" y="255.98175"/>
      </g>
     </g>
     <g id="text_4">
      <!-- sku -->
      <defs>
       <path d="M 9.078125 75.984375 
L 18.109375 75.984375 
L 18.109375 31.109375 
L 44.921875 54.6875 
L 56.390625 54.6875 
L 27.390625 29.109375 
L 57.625 0 
L 45.90625 0 
L 18.109375 26.703125 
L 18.109375 0 
L 9.078125 0 
z
" id="DejaVuSans-6b"/>
      </defs>
      <g transform="translate(187.424076 276.814562)rotate(-90)scale(0.1 -0.1)">
       <use xlink:href="#DejaVuSans-73"/>
       <use x="52.099609" xlink:href="#DejaVuSans-6b"/>
       <use x="109.962891" xlink:href="#DejaVuSans-75"/>
      </g>
     </g>
    </g>
    <g id="xtick_5">
     <g id="line2d_5">
      <g>
       <use style="stroke:#000000;stroke-width:0.8;" x="199.221223" xlink:href="#m096633c69d" y="255.98175"/>
      </g>
     </g>
     <g id="text_5">
      <!-- model -->
      <defs>
       <path d="M 45.40625 46.390625 
L 45.40625 75.984375 
L 54.390625 75.984375 
L 54.390625 0 
L 45.40625 0 
L 45.40625 8.203125 
Q 42.578125 3.328125 38.25 0.953125 
Q 33.9375 -1.421875 27.875 -1.421875 
Q 17.96875 -1.421875 11.734375 6.484375 
Q 5.515625 14.40625 5.515625 27.296875 
Q 5.515625 40.1875 11.734375 48.09375 
Q 17.96875 56 27.875 56 
Q 33.9375 56 38.25 53.625 
Q 42.578125 51.265625 45.40625 46.390625 
z
M 14.796875 27.296875 
Q 14.796875 17.390625 18.875 11.75 
Q 22.953125 6.109375 30.078125 6.109375 
Q 37.203125 6.109375 41.296875 11.75 
Q 45.40625 17.390625 45.40625 27.296875 
Q 45.40625 37.203125 41.296875 42.84375 
Q 37.203125 48.484375 30.078125 48.484375 
Q 22.953125 48.484375 18.875 42.84375 
Q 14.796875 37.203125 14.796875 27.296875 
z
" id="DejaVuSans-64"/>
      </defs>
      <g transform="translate(201.980598 290.620812)rotate(-90)scale(0.1 -0.1)">
       <use xlink:href="#DejaVuSans-6d"/>
       <use x="97.412109" xlink:href="#DejaVuSans-6f"/>
       <use x="158.59375" xlink:href="#DejaVuSans-64"/>
       <use x="222.070312" xlink:href="#DejaVuSans-65"/>
       <use x="283.59375" xlink:href="#DejaVuSans-6c"/>
      </g>
     </g>
    </g>
    <g id="xtick_6">
     <g id="line2d_6">
      <g>
       <use style="stroke:#000000;stroke-width:0.8;" x="213.777745" xlink:href="#m096633c69d" y="255.98175"/>
      </g>
     </g>
     <g id="text_6">
      <!-- condition -->
      <defs>
       <path d="M 48.78125 52.59375 
L 48.78125 44.1875 
Q 44.96875 46.296875 41.140625 47.34375 
Q 37.3125 48.390625 33.40625 48.390625 
Q 24.65625 48.390625 19.8125 42.84375 
Q 14.984375 37.3125 14.984375 27.296875 
Q 14.984375 17.28125 19.8125 11.734375 
Q 24.65625 6.203125 33.40625 6.203125 
Q 37.3125 6.203125 41.140625 7.25 
Q 44.96875 8.296875 48.78125 10.40625 
L 48.78125 2.09375 
Q 45.015625 0.34375 40.984375 -0.53125 
Q 36.96875 -1.421875 32.421875 -1.421875 
Q 20.0625 -1.421875 12.78125 6.34375 
Q 5.515625 14.109375 5.515625 27.296875 
Q 5.515625 40.671875 12.859375 48.328125 
Q 20.21875 56 33.015625 56 
Q 37.15625 56 41.109375 55.140625 
Q 45.0625 54.296875 48.78125 52.59375 
z
" id="DejaVuSans-63"/>
      </defs>
      <g transform="translate(216.53712 305.717688)rotate(-90)scale(0.1 -0.1)">
       <use xlink:href="#DejaVuSans-63"/>
       <use x="54.980469" xlink:href="#DejaVuSans-6f"/>
       <use x="116.162109" xlink:href="#DejaVuSans-6e"/>
       <use x="179.541016" xlink:href="#DejaVuSans-64"/>
       <use x="243.017578" xlink:href="#DejaVuSans-69"/>
       <use x="270.800781" xlink:href="#DejaVuSans-74"/>
       <use x="310.009766" xlink:href="#DejaVuSans-69"/>
       <use x="337.792969" xlink:href="#DejaVuSans-6f"/>
       <use x="398.974609" xlink:href="#DejaVuSans-6e"/>
      </g>
     </g>
    </g>
    <g id="xtick_7">
     <g id="line2d_7">
      <g>
       <use style="stroke:#000000;stroke-width:0.8;" x="228.334266" xlink:href="#m096633c69d" y="255.98175"/>
      </g>
     </g>
     <g id="text_7">
      <!-- storage -->
      <defs>
       <path d="M 45.40625 27.984375 
Q 45.40625 37.75 41.375 43.109375 
Q 37.359375 48.484375 30.078125 48.484375 
Q 22.859375 48.484375 18.828125 43.109375 
Q 14.796875 37.75 14.796875 27.984375 
Q 14.796875 18.265625 18.828125 12.890625 
Q 22.859375 7.515625 30.078125 7.515625 
Q 37.359375 7.515625 41.375 12.890625 
Q 45.40625 18.265625 45.40625 27.984375 
z
M 54.390625 6.78125 
Q 54.390625 -7.171875 48.1875 -13.984375 
Q 42 -20.796875 29.203125 -20.796875 
Q 24.46875 -20.796875 20.265625 -20.09375 
Q 16.0625 -19.390625 12.109375 -17.921875 
L 12.109375 -9.1875 
Q 16.0625 -11.328125 19.921875 -12.34375 
Q 23.78125 -13.375 27.78125 -13.375 
Q 36.625 -13.375 41.015625 -8.765625 
Q 45.40625 -4.15625 45.40625 5.171875 
L 45.40625 9.625 
Q 42.625 4.78125 38.28125 2.390625 
Q 33.9375 0 27.875 0 
Q 17.828125 0 11.671875 7.65625 
Q 5.515625 15.328125 5.515625 27.984375 
Q 5.515625 40.671875 11.671875 48.328125 
Q 17.828125 56 27.875 56 
Q 33.9375 56 38.28125 53.609375 
Q 42.625 51.21875 45.40625 46.390625 
L 45.40625 54.6875 
L 54.390625 54.6875 
z
" id="DejaVuSans-67"/>
      </defs>
      <g transform="translate(231.093641 297.470812)rotate(-90)scale(0.1 -0.1)">
       <use xlink:href="#DejaVuSans-73"/>
       <use x="52.099609" xlink:href="#DejaVuSans-74"/>
       <use x="91.308594" xlink:href="#DejaVuSans-6f"/>
       <use x="152.490234" xlink:href="#DejaVuSans-72"/>
       <use x="193.603516" xlink:href="#DejaVuSans-61"/>
       <use x="254.882812" xlink:href="#DejaVuSans-67"/>
       <use x="318.359375" xlink:href="#DejaVuSans-65"/>
      </g>
     </g>
    </g>
    <g id="xtick_8">
     <g id="line2d_8">
      <g>
       <use style="stroke:#000000;stroke-width:0.8;" x="242.890788" xlink:href="#m096633c69d" y="255.98175"/>
      </g>
     </g>
     <g id="text_8">
      <!-- color -->
      <g transform="translate(245.650163 284.10675)rotate(-90)scale(0.1 -0.1)">
       <use xlink:href="#DejaVuSans-63"/>
       <use x="54.980469" xlink:href="#DejaVuSans-6f"/>
       <use x="116.162109" xlink:href="#DejaVuSans-6c"/>
       <use x="143.945312" xlink:href="#DejaVuSans-6f"/>
       <use x="205.126953" xlink:href="#DejaVuSans-72"/>
      </g>
     </g>
    </g>
    <g id="xtick_9">
     <g id="line2d_9">
      <g>
       <use style="stroke:#000000;stroke-width:0.8;" x="257.44731" xlink:href="#m096633c69d" y="255.98175"/>
      </g>
     </g>
     <g id="text_9">
      <!-- skus -->
      <g transform="translate(260.206685 282.023937)rotate(-90)scale(0.1 -0.1)">
       <use xlink:href="#DejaVuSans-73"/>
       <use x="52.099609" xlink:href="#DejaVuSans-6b"/>
       <use x="109.962891" xlink:href="#DejaVuSans-75"/>
       <use x="173.341797" xlink:href="#DejaVuSans-73"/>
      </g>
     </g>
    </g>
    <g id="xtick_10">
     <g id="line2d_10">
      <g>
       <use style="stroke:#000000;stroke-width:0.8;" x="272.003832" xlink:href="#m096633c69d" y="255.98175"/>
      </g>
     </g>
     <g id="text_10">
      <!-- search_term -->
      <defs>
       <path d="M 54.890625 33.015625 
L 54.890625 0 
L 45.90625 0 
L 45.90625 32.71875 
Q 45.90625 40.484375 42.875 44.328125 
Q 39.84375 48.1875 33.796875 48.1875 
Q 26.515625 48.1875 22.3125 43.546875 
Q 18.109375 38.921875 18.109375 30.90625 
L 18.109375 0 
L 9.078125 0 
L 9.078125 75.984375 
L 18.109375 75.984375 
L 18.109375 46.1875 
Q 21.34375 51.125 25.703125 53.5625 
Q 30.078125 56 35.796875 56 
Q 45.21875 56 50.046875 50.171875 
Q 54.890625 44.34375 54.890625 33.015625 
z
" id="DejaVuSans-68"/>
       <path d="M 50.984375 -16.609375 
L 50.984375 -23.578125 
L -0.984375 -23.578125 
L -0.984375 -16.609375 
z
" id="DejaVuSans-5f"/>
      </defs>
      <g transform="translate(274.624144 321.839562)rotate(-90)scale(0.1 -0.1)">
       <use xlink:href="#DejaVuSans-73"/>
       <use x="52.099609" xlink:href="#DejaVuSans-65"/>
       <use x="113.623047" xlink:href="#DejaVuSans-61"/>
       <use x="174.902344" xlink:href="#DejaVuSans-72"/>
       <use x="215.984375" xlink:href="#DejaVuSans-63"/>
       <use x="270.964844" xlink:href="#DejaVuSans-68"/>
       <use x="334.34375" xlink:href="#DejaVuSans-5f"/>
       <use x="384.34375" xlink:href="#DejaVuSans-74"/>
       <use x="423.552734" xlink:href="#DejaVuSans-65"/>
       <use x="485.076172" xlink:href="#DejaVuSans-72"/>
       <use x="526.173828" xlink:href="#DejaVuSans-6d"/>
      </g>
     </g>
    </g>
    <g id="xtick_11">
     <g id="line2d_11">
      <g>
       <use style="stroke:#000000;stroke-width:0.8;" x="286.560353" xlink:href="#m096633c69d" y="255.98175"/>
      </g>
     </g>
     <g id="text_11">
      <!-- staticpage -->
      <g transform="translate(289.319728 311.914562)rotate(-90)scale(0.1 -0.1)">
       <use xlink:href="#DejaVuSans-73"/>
       <use x="52.099609" xlink:href="#DejaVuSans-74"/>
       <use x="91.308594" xlink:href="#DejaVuSans-61"/>
       <use x="152.587891" xlink:href="#DejaVuSans-74"/>
       <use x="191.796875" xlink:href="#DejaVuSans-69"/>
       <use x="219.580078" xlink:href="#DejaVuSans-63"/>
       <use x="274.560547" xlink:href="#DejaVuSans-70"/>
       <use x="338.037109" xlink:href="#DejaVuSans-61"/>
       <use x="399.316406" xlink:href="#DejaVuSans-67"/>
       <use x="462.792969" xlink:href="#DejaVuSans-65"/>
      </g>
     </g>
    </g>
    <g id="xtick_12">
     <g id="line2d_12">
      <g>
       <use style="stroke:#000000;stroke-width:0.8;" x="301.116875" xlink:href="#m096633c69d" y="255.98175"/>
      </g>
     </g>
     <g id="text_12">
      <!-- campaign_source -->
      <g transform="translate(303.737188 347.214562)rotate(-90)scale(0.1 -0.1)">
       <use xlink:href="#DejaVuSans-63"/>
       <use x="54.980469" xlink:href="#DejaVuSans-61"/>
       <use x="116.259766" xlink:href="#DejaVuSans-6d"/>
       <use x="213.671875" xlink:href="#DejaVuSans-70"/>
       <use x="277.148438" xlink:href="#DejaVuSans-61"/>
       <use x="338.427734" xlink:href="#DejaVuSans-69"/>
       <use x="366.210938" xlink:href="#DejaVuSans-67"/>
       <use x="429.6875" xlink:href="#DejaVuSans-6e"/>
       <use x="493.066406" xlink:href="#DejaVuSans-5f"/>
       <use x="543.066406" xlink:href="#DejaVuSans-73"/>
       <use x="595.166016" xlink:href="#DejaVuSans-6f"/>
       <use x="656.347656" xlink:href="#DejaVuSans-75"/>
       <use x="719.726562" xlink:href="#DejaVuSans-72"/>
       <use x="760.808594" xlink:href="#DejaVuSans-63"/>
       <use x="815.789062" xlink:href="#DejaVuSans-65"/>
      </g>
     </g>
    </g>
    <g id="xtick_13">
     <g id="line2d_13">
      <g>
       <use style="stroke:#000000;stroke-width:0.8;" x="315.673397" xlink:href="#m096633c69d" y="255.98175"/>
      </g>
     </g>
     <g id="text_13">
      <!-- search_engine -->
      <g transform="translate(318.293709 332.023937)rotate(-90)scale(0.1 -0.1)">
       <use xlink:href="#DejaVuSans-73"/>
       <use x="52.099609" xlink:href="#DejaVuSans-65"/>
       <use x="113.623047" xlink:href="#DejaVuSans-61"/>
       <use x="174.902344" xlink:href="#DejaVuSans-72"/>
       <use x="215.984375" xlink:href="#DejaVuSans-63"/>
       <use x="270.964844" xlink:href="#DejaVuSans-68"/>
       <use x="334.34375" xlink:href="#DejaVuSans-5f"/>
       <use x="384.34375" xlink:href="#DejaVuSans-65"/>
       <use x="445.867188" xlink:href="#DejaVuSans-6e"/>
       <use x="509.246094" xlink:href="#DejaVuSans-67"/>
       <use x="572.722656" xlink:href="#DejaVuSans-69"/>
       <use x="600.505859" xlink:href="#DejaVuSans-6e"/>
       <use x="663.884766" xlink:href="#DejaVuSans-65"/>
      </g>
     </g>
    </g>
    <g id="xtick_14">
     <g id="line2d_14">
      <g>
       <use style="stroke:#000000;stroke-width:0.8;" x="330.229918" xlink:href="#m096633c69d" y="255.98175"/>
      </g>
     </g>
     <g id="text_14">
      <!-- channel -->
      <g transform="translate(332.989293 299.052062)rotate(-90)scale(0.1 -0.1)">
       <use xlink:href="#DejaVuSans-63"/>
       <use x="54.980469" xlink:href="#DejaVuSans-68"/>
       <use x="118.359375" xlink:href="#DejaVuSans-61"/>
       <use x="179.638672" xlink:href="#DejaVuSans-6e"/>
       <use x="243.017578" xlink:href="#DejaVuSans-6e"/>
       <use x="306.396484" xlink:href="#DejaVuSans-65"/>
       <use x="367.919922" xlink:href="#DejaVuSans-6c"/>
      </g>
     </g>
    </g>
    <g id="xtick_15">
     <g id="line2d_15">
      <g>
       <use style="stroke:#000000;stroke-width:0.8;" x="344.78644" xlink:href="#m096633c69d" y="255.98175"/>
      </g>
     </g>
     <g id="text_15">
      <!-- new_vs_returning -->
      <defs>
       <path d="M 4.203125 54.6875 
L 13.1875 54.6875 
L 24.421875 12.015625 
L 35.59375 54.6875 
L 46.1875 54.6875 
L 57.421875 12.015625 
L 68.609375 54.6875 
L 77.59375 54.6875 
L 63.28125 0 
L 52.6875 0 
L 40.921875 44.828125 
L 29.109375 0 
L 18.5 0 
z
" id="DejaVuSans-77"/>
       <path d="M 2.984375 54.6875 
L 12.5 54.6875 
L 29.59375 8.796875 
L 46.6875 54.6875 
L 56.203125 54.6875 
L 35.6875 0 
L 23.484375 0 
z
" id="DejaVuSans-76"/>
      </defs>
      <g transform="translate(347.406753 347.708312)rotate(-90)scale(0.1 -0.1)">
       <use xlink:href="#DejaVuSans-6e"/>
       <use x="63.378906" xlink:href="#DejaVuSans-65"/>
       <use x="124.902344" xlink:href="#DejaVuSans-77"/>
       <use x="206.689453" xlink:href="#DejaVuSans-5f"/>
       <use x="256.689453" xlink:href="#DejaVuSans-76"/>
       <use x="315.869141" xlink:href="#DejaVuSans-73"/>
       <use x="367.96875" xlink:href="#DejaVuSans-5f"/>
       <use x="417.96875" xlink:href="#DejaVuSans-72"/>
       <use x="459.050781" xlink:href="#DejaVuSans-65"/>
       <use x="520.574219" xlink:href="#DejaVuSans-74"/>
       <use x="559.783203" xlink:href="#DejaVuSans-75"/>
       <use x="623.162109" xlink:href="#DejaVuSans-72"/>
       <use x="664.259766" xlink:href="#DejaVuSans-6e"/>
       <use x="727.638672" xlink:href="#DejaVuSans-69"/>
       <use x="755.421875" xlink:href="#DejaVuSans-6e"/>
       <use x="818.800781" xlink:href="#DejaVuSans-67"/>
      </g>
     </g>
    </g>
    <g id="xtick_16">
     <g id="line2d_16">
      <g>
       <use style="stroke:#000000;stroke-width:0.8;" x="359.342962" xlink:href="#m096633c69d" y="255.98175"/>
      </g>
     </g>
     <g id="text_16">
      <!-- city -->
      <defs>
       <path d="M 32.171875 -5.078125 
Q 28.375 -14.84375 24.75 -17.8125 
Q 21.140625 -20.796875 15.09375 -20.796875 
L 7.90625 -20.796875 
L 7.90625 -13.28125 
L 13.1875 -13.28125 
Q 16.890625 -13.28125 18.9375 -11.515625 
Q 21 -9.765625 23.484375 -3.21875 
L 25.09375 0.875 
L 2.984375 54.6875 
L 12.5 54.6875 
L 29.59375 11.921875 
L 46.6875 54.6875 
L 56.203125 54.6875 
z
" id="DejaVuSans-79"/>
      </defs>
      <g transform="translate(362.102337 277.597375)rotate(-90)scale(0.1 -0.1)">
       <use xlink:href="#DejaVuSans-63"/>
       <use x="54.980469" xlink:href="#DejaVuSans-69"/>
       <use x="82.763672" xlink:href="#DejaVuSans-74"/>
       <use x="121.972656" xlink:href="#DejaVuSans-79"/>
      </g>
     </g>
    </g>
    <g id="xtick_17">
     <g id="line2d_17">
      <g>
       <use style="stroke:#000000;stroke-width:0.8;" x="373.899484" xlink:href="#m096633c69d" y="255.98175"/>
      </g>
     </g>
     <g id="text_17">
      <!-- region -->
      <g transform="translate(376.658859 291.3255)rotate(-90)scale(0.1 -0.1)">
       <use xlink:href="#DejaVuSans-72"/>
       <use x="41.082031" xlink:href="#DejaVuSans-65"/>
       <use x="102.605469" xlink:href="#DejaVuSans-67"/>
       <use x="166.082031" xlink:href="#DejaVuSans-69"/>
       <use x="193.865234" xlink:href="#DejaVuSans-6f"/>
       <use x="255.046875" xlink:href="#DejaVuSans-6e"/>
      </g>
     </g>
    </g>
    <g id="xtick_18">
     <g id="line2d_18">
      <g>
       <use style="stroke:#000000;stroke-width:0.8;" x="388.456005" xlink:href="#m096633c69d" y="255.98175"/>
      </g>
     </g>
     <g id="text_18">
      <!-- country -->
      <g transform="translate(391.21538 297.723937)rotate(-90)scale(0.1 -0.1)">
       <use xlink:href="#DejaVuSans-63"/>
       <use x="54.980469" xlink:href="#DejaVuSans-6f"/>
       <use x="116.162109" xlink:href="#DejaVuSans-75"/>
       <use x="179.541016" xlink:href="#DejaVuSans-6e"/>
       <use x="242.919922" xlink:href="#DejaVuSans-74"/>
       <use x="282.128906" xlink:href="#DejaVuSans-72"/>
       <use x="323.242188" xlink:href="#DejaVuSans-79"/>
      </g>
     </g>
    </g>
    <g id="xtick_19">
     <g id="line2d_19">
      <g>
       <use style="stroke:#000000;stroke-width:0.8;" x="403.012527" xlink:href="#m096633c69d" y="255.98175"/>
      </g>
     </g>
     <g id="text_19">
      <!-- device_type -->
      <g transform="translate(405.63284 319.672375)rotate(-90)scale(0.1 -0.1)">
       <use xlink:href="#DejaVuSans-64"/>
       <use x="63.476562" xlink:href="#DejaVuSans-65"/>
       <use x="125" xlink:href="#DejaVuSans-76"/>
       <use x="184.179688" xlink:href="#DejaVuSans-69"/>
       <use x="211.962891" xlink:href="#DejaVuSans-63"/>
       <use x="266.943359" xlink:href="#DejaVuSans-65"/>
       <use x="328.466797" xlink:href="#DejaVuSans-5f"/>
       <use x="378.466797" xlink:href="#DejaVuSans-74"/>
       <use x="417.675781" xlink:href="#DejaVuSans-79"/>
       <use x="476.855469" xlink:href="#DejaVuSans-70"/>
       <use x="540.332031" xlink:href="#DejaVuSans-65"/>
      </g>
     </g>
    </g>
    <g id="xtick_20">
     <g id="line2d_20">
      <g>
       <use style="stroke:#000000;stroke-width:0.8;" x="417.569049" xlink:href="#m096633c69d" y="255.98175"/>
      </g>
     </g>
     <g id="text_20">
      <!-- screen_resolution -->
      <g transform="translate(420.189361 347.8005)rotate(-90)scale(0.1 -0.1)">
       <use xlink:href="#DejaVuSans-73"/>
       <use x="52.099609" xlink:href="#DejaVuSans-63"/>
       <use x="107.080078" xlink:href="#DejaVuSans-72"/>
       <use x="148.162109" xlink:href="#DejaVuSans-65"/>
       <use x="209.685547" xlink:href="#DejaVuSans-65"/>
       <use x="271.208984" xlink:href="#DejaVuSans-6e"/>
       <use x="334.587891" xlink:href="#DejaVuSans-5f"/>
       <use x="384.587891" xlink:href="#DejaVuSans-72"/>
       <use x="425.669922" xlink:href="#DejaVuSans-65"/>
       <use x="487.193359" xlink:href="#DejaVuSans-73"/>
       <use x="539.292969" xlink:href="#DejaVuSans-6f"/>
       <use x="600.474609" xlink:href="#DejaVuSans-6c"/>
       <use x="628.257812" xlink:href="#DejaVuSans-75"/>
       <use x="691.636719" xlink:href="#DejaVuSans-74"/>
       <use x="730.845703" xlink:href="#DejaVuSans-69"/>
       <use x="758.628906" xlink:href="#DejaVuSans-6f"/>
       <use x="819.810547" xlink:href="#DejaVuSans-6e"/>
      </g>
     </g>
    </g>
    <g id="xtick_21">
     <g id="line2d_21">
      <g>
       <use style="stroke:#000000;stroke-width:0.8;" x="432.125571" xlink:href="#m096633c69d" y="255.98175"/>
      </g>
     </g>
     <g id="text_21">
      <!-- operating_system_version -->
      <g transform="translate(434.745883 390.503625)rotate(-90)scale(0.1 -0.1)">
       <use xlink:href="#DejaVuSans-6f"/>
       <use x="61.181641" xlink:href="#DejaVuSans-70"/>
       <use x="124.658203" xlink:href="#DejaVuSans-65"/>
       <use x="186.181641" xlink:href="#DejaVuSans-72"/>
       <use x="227.294922" xlink:href="#DejaVuSans-61"/>
       <use x="288.574219" xlink:href="#DejaVuSans-74"/>
       <use x="327.783203" xlink:href="#DejaVuSans-69"/>
       <use x="355.566406" xlink:href="#DejaVuSans-6e"/>
       <use x="418.945312" xlink:href="#DejaVuSans-67"/>
       <use x="482.421875" xlink:href="#DejaVuSans-5f"/>
       <use x="532.421875" xlink:href="#DejaVuSans-73"/>
       <use x="584.521484" xlink:href="#DejaVuSans-79"/>
       <use x="643.701172" xlink:href="#DejaVuSans-73"/>
       <use x="695.800781" xlink:href="#DejaVuSans-74"/>
       <use x="735.009766" xlink:href="#DejaVuSans-65"/>
       <use x="796.533203" xlink:href="#DejaVuSans-6d"/>
       <use x="893.945312" xlink:href="#DejaVuSans-5f"/>
       <use x="943.945312" xlink:href="#DejaVuSans-76"/>
       <use x="1003.125" xlink:href="#DejaVuSans-65"/>
       <use x="1064.648438" xlink:href="#DejaVuSans-72"/>
       <use x="1105.761719" xlink:href="#DejaVuSans-73"/>
       <use x="1157.861328" xlink:href="#DejaVuSans-69"/>
       <use x="1185.644531" xlink:href="#DejaVuSans-6f"/>
       <use x="1246.826172" xlink:href="#DejaVuSans-6e"/>
      </g>
     </g>
    </g>
    <g id="xtick_22">
     <g id="line2d_22">
      <g>
       <use style="stroke:#000000;stroke-width:0.8;" x="446.682092" xlink:href="#m096633c69d" y="255.98175"/>
      </g>
     </g>
     <g id="text_22">
      <!-- browser_version -->
      <defs>
       <path d="M 48.6875 27.296875 
Q 48.6875 37.203125 44.609375 42.84375 
Q 40.53125 48.484375 33.40625 48.484375 
Q 26.265625 48.484375 22.1875 42.84375 
Q 18.109375 37.203125 18.109375 27.296875 
Q 18.109375 17.390625 22.1875 11.75 
Q 26.265625 6.109375 33.40625 6.109375 
Q 40.53125 6.109375 44.609375 11.75 
Q 48.6875 17.390625 48.6875 27.296875 
z
M 18.109375 46.390625 
Q 20.953125 51.265625 25.265625 53.625 
Q 29.59375 56 35.59375 56 
Q 45.5625 56 51.78125 48.09375 
Q 58.015625 40.1875 58.015625 27.296875 
Q 58.015625 14.40625 51.78125 6.484375 
Q 45.5625 -1.421875 35.59375 -1.421875 
Q 29.59375 -1.421875 25.265625 0.953125 
Q 20.953125 3.328125 18.109375 8.203125 
L 18.109375 0 
L 9.078125 0 
L 9.078125 75.984375 
L 18.109375 75.984375 
z
" id="DejaVuSans-62"/>
      </defs>
      <g transform="translate(449.302405 341.334875)rotate(-90)scale(0.1 -0.1)">
       <use xlink:href="#DejaVuSans-62"/>
       <use x="63.476562" xlink:href="#DejaVuSans-72"/>
       <use x="104.558594" xlink:href="#DejaVuSans-6f"/>
       <use x="165.740234" xlink:href="#DejaVuSans-77"/>
       <use x="247.527344" xlink:href="#DejaVuSans-73"/>
       <use x="299.626953" xlink:href="#DejaVuSans-65"/>
       <use x="361.150391" xlink:href="#DejaVuSans-72"/>
       <use x="402.263672" xlink:href="#DejaVuSans-5f"/>
       <use x="452.263672" xlink:href="#DejaVuSans-76"/>
       <use x="511.443359" xlink:href="#DejaVuSans-65"/>
       <use x="572.966797" xlink:href="#DejaVuSans-72"/>
       <use x="614.080078" xlink:href="#DejaVuSans-73"/>
       <use x="666.179688" xlink:href="#DejaVuSans-69"/>
       <use x="693.962891" xlink:href="#DejaVuSans-6f"/>
       <use x="755.144531" xlink:href="#DejaVuSans-6e"/>
      </g>
     </g>
    </g>
    <g id="xtick_23">
     <g id="line2d_23">
      <g>
       <use style="stroke:#000000;stroke-width:0.8;" x="461.238614" xlink:href="#m096633c69d" y="255.98175"/>
      </g>
     </g>
     <g id="text_23">
      <!-- brand -->
      <g transform="translate(463.997989 288.755187)rotate(-90)scale(0.1 -0.1)">
       <use xlink:href="#DejaVuSans-62"/>
       <use x="63.476562" xlink:href="#DejaVuSans-72"/>
       <use x="104.589844" xlink:href="#DejaVuSans-61"/>
       <use x="165.869141" xlink:href="#DejaVuSans-6e"/>
       <use x="229.248047" xlink:href="#DejaVuSans-64"/>
      </g>
     </g>
    </g>
    <g id="text_24">
     <!-- Columna -->
     <defs>
      <path d="M 64.40625 67.28125 
L 64.40625 56.890625 
Q 59.421875 61.53125 53.78125 63.8125 
Q 48.140625 66.109375 41.796875 66.109375 
Q 29.296875 66.109375 22.65625 58.46875 
Q 16.015625 50.828125 16.015625 36.375 
Q 16.015625 21.96875 22.65625 14.328125 
Q 29.296875 6.6875 41.796875 6.6875 
Q 48.140625 6.6875 53.78125 8.984375 
Q 59.421875 11.28125 64.40625 15.921875 
L 64.40625 5.609375 
Q 59.234375 2.09375 53.4375 0.328125 
Q 47.65625 -1.421875 41.21875 -1.421875 
Q 24.65625 -1.421875 15.125 8.703125 
Q 5.609375 18.84375 5.609375 36.375 
Q 5.609375 53.953125 15.125 64.078125 
Q 24.65625 74.21875 41.21875 74.21875 
Q 47.75 74.21875 53.53125 72.484375 
Q 59.328125 70.75 64.40625 67.28125 
z
" id="DejaVuSans-43"/>
     </defs>
     <g transform="translate(274.462813 403.62175)scale(0.12 -0.12)">
      <use xlink:href="#DejaVuSans-43"/>
      <use x="69.824219" xlink:href="#DejaVuSans-6f"/>
      <use x="131.005859" xlink:href="#DejaVuSans-6c"/>
      <use x="158.789062" xlink:href="#DejaVuSans-75"/>
      <use x="222.167969" xlink:href="#DejaVuSans-6d"/>
      <use x="319.580078" xlink:href="#DejaVuSans-6e"/>
      <use x="382.958984" xlink:href="#DejaVuSans-61"/>
     </g>
    </g>
   </g>
   <g id="matplotlib.axis_2">
    <g id="ytick_1">
     <g id="line2d_24">
      <defs>
       <path d="M 0 0 
L 3.5 0 
" id="m44c8f23059" style="stroke:#000000;stroke-width:0.8;"/>
      </defs>
      <g>
       <use style="stroke:#000000;stroke-width:0.8;" x="133.716875" xlink:href="#m44c8f23059" y="48.425386"/>
      </g>
     </g>
     <g id="text_25">
      <!-- ad campaign hit -->
      <defs>
       <path id="DejaVuSans-20"/>
      </defs>
      <g transform="translate(49.040313 52.224605)scale(0.1 -0.1)">
       <use xlink:href="#DejaVuSans-61"/>
       <use x="61.279297" xlink:href="#DejaVuSans-64"/>
       <use x="124.755859" xlink:href="#DejaVuSans-20"/>
       <use x="156.542969" xlink:href="#DejaVuSans-63"/>
       <use x="211.523438" xlink:href="#DejaVuSans-61"/>
       <use x="272.802734" xlink:href="#DejaVuSans-6d"/>
       <use x="370.214844" xlink:href="#DejaVuSans-70"/>
       <use x="433.691406" xlink:href="#DejaVuSans-61"/>
       <use x="494.970703" xlink:href="#DejaVuSans-69"/>
       <use x="522.753906" xlink:href="#DejaVuSans-67"/>
       <use x="586.230469" xlink:href="#DejaVuSans-6e"/>
       <use x="649.609375" xlink:href="#DejaVuSans-20"/>
       <use x="681.396484" xlink:href="#DejaVuSans-68"/>
       <use x="744.775391" xlink:href="#DejaVuSans-69"/>
       <use x="772.558594" xlink:href="#DejaVuSans-74"/>
      </g>
     </g>
    </g>
    <g id="ytick_2">
     <g id="line2d_25">
      <g>
       <use style="stroke:#000000;stroke-width:0.8;" x="133.716875" xlink:href="#m44c8f23059" y="68.192659"/>
      </g>
     </g>
     <g id="text_26">
      <!-- brand listing -->
      <g transform="translate(67.615313 71.991878)scale(0.1 -0.1)">
       <use xlink:href="#DejaVuSans-62"/>
       <use x="63.476562" xlink:href="#DejaVuSans-72"/>
       <use x="104.589844" xlink:href="#DejaVuSans-61"/>
       <use x="165.869141" xlink:href="#DejaVuSans-6e"/>
       <use x="229.248047" xlink:href="#DejaVuSans-64"/>
       <use x="292.724609" xlink:href="#DejaVuSans-20"/>
       <use x="324.511719" xlink:href="#DejaVuSans-6c"/>
       <use x="352.294922" xlink:href="#DejaVuSans-69"/>
       <use x="380.078125" xlink:href="#DejaVuSans-73"/>
       <use x="432.177734" xlink:href="#DejaVuSans-74"/>
       <use x="471.386719" xlink:href="#DejaVuSans-69"/>
       <use x="499.169922" xlink:href="#DejaVuSans-6e"/>
       <use x="562.548828" xlink:href="#DejaVuSans-67"/>
      </g>
     </g>
    </g>
    <g id="ytick_3">
     <g id="line2d_26">
      <g>
       <use style="stroke:#000000;stroke-width:0.8;" x="133.716875" xlink:href="#m44c8f23059" y="87.959932"/>
      </g>
     </g>
     <g id="text_27">
      <!-- checkout -->
      <g transform="translate(84.566875 91.759151)scale(0.1 -0.1)">
       <use xlink:href="#DejaVuSans-63"/>
       <use x="54.980469" xlink:href="#DejaVuSans-68"/>
       <use x="118.359375" xlink:href="#DejaVuSans-65"/>
       <use x="179.882812" xlink:href="#DejaVuSans-63"/>
       <use x="234.863281" xlink:href="#DejaVuSans-6b"/>
       <use x="292.726562" xlink:href="#DejaVuSans-6f"/>
       <use x="353.908203" xlink:href="#DejaVuSans-75"/>
       <use x="417.287109" xlink:href="#DejaVuSans-74"/>
      </g>
     </g>
    </g>
    <g id="ytick_4">
     <g id="line2d_27">
      <g>
       <use style="stroke:#000000;stroke-width:0.8;" x="133.716875" xlink:href="#m44c8f23059" y="107.727205"/>
      </g>
     </g>
     <g id="text_28">
      <!-- conversion -->
      <g transform="translate(75.635625 111.526423)scale(0.1 -0.1)">
       <use xlink:href="#DejaVuSans-63"/>
       <use x="54.980469" xlink:href="#DejaVuSans-6f"/>
       <use x="116.162109" xlink:href="#DejaVuSans-6e"/>
       <use x="179.541016" xlink:href="#DejaVuSans-76"/>
       <use x="238.720703" xlink:href="#DejaVuSans-65"/>
       <use x="300.244141" xlink:href="#DejaVuSans-72"/>
       <use x="341.357422" xlink:href="#DejaVuSans-73"/>
       <use x="393.457031" xlink:href="#DejaVuSans-69"/>
       <use x="421.240234" xlink:href="#DejaVuSans-6f"/>
       <use x="482.421875" xlink:href="#DejaVuSans-6e"/>
      </g>
     </g>
    </g>
    <g id="ytick_5">
     <g id="line2d_28">
      <g>
       <use style="stroke:#000000;stroke-width:0.8;" x="133.716875" xlink:href="#m44c8f23059" y="127.494477"/>
      </g>
     </g>
     <g id="text_29">
      <!-- generic listing -->
      <g transform="translate(59.509063 131.293696)scale(0.1 -0.1)">
       <use xlink:href="#DejaVuSans-67"/>
       <use x="63.476562" xlink:href="#DejaVuSans-65"/>
       <use x="125" xlink:href="#DejaVuSans-6e"/>
       <use x="188.378906" xlink:href="#DejaVuSans-65"/>
       <use x="249.902344" xlink:href="#DejaVuSans-72"/>
       <use x="291.015625" xlink:href="#DejaVuSans-69"/>
       <use x="318.798828" xlink:href="#DejaVuSans-63"/>
       <use x="373.779297" xlink:href="#DejaVuSans-20"/>
       <use x="405.566406" xlink:href="#DejaVuSans-6c"/>
       <use x="433.349609" xlink:href="#DejaVuSans-69"/>
       <use x="461.132812" xlink:href="#DejaVuSans-73"/>
       <use x="513.232422" xlink:href="#DejaVuSans-74"/>
       <use x="552.441406" xlink:href="#DejaVuSans-69"/>
       <use x="580.224609" xlink:href="#DejaVuSans-6e"/>
       <use x="643.603516" xlink:href="#DejaVuSans-67"/>
      </g>
     </g>
    </g>
    <g id="ytick_6">
     <g id="line2d_29">
      <g>
       <use style="stroke:#000000;stroke-width:0.8;" x="133.716875" xlink:href="#m44c8f23059" y="147.26175"/>
      </g>
     </g>
     <g id="text_30">
      <!-- lead -->
      <g transform="translate(108.809063 151.060969)scale(0.1 -0.1)">
       <use xlink:href="#DejaVuSans-6c"/>
       <use x="27.783203" xlink:href="#DejaVuSans-65"/>
       <use x="89.306641" xlink:href="#DejaVuSans-61"/>
       <use x="150.585938" xlink:href="#DejaVuSans-64"/>
      </g>
     </g>
    </g>
    <g id="ytick_7">
     <g id="line2d_30">
      <g>
       <use style="stroke:#000000;stroke-width:0.8;" x="133.716875" xlink:href="#m44c8f23059" y="167.029023"/>
      </g>
     </g>
     <g id="text_31">
      <!-- search engine hit -->
      <g transform="translate(43.2825 170.828241)scale(0.1 -0.1)">
       <use xlink:href="#DejaVuSans-73"/>
       <use x="52.099609" xlink:href="#DejaVuSans-65"/>
       <use x="113.623047" xlink:href="#DejaVuSans-61"/>
       <use x="174.902344" xlink:href="#DejaVuSans-72"/>
       <use x="215.984375" xlink:href="#DejaVuSans-63"/>
       <use x="270.964844" xlink:href="#DejaVuSans-68"/>
       <use x="334.34375" xlink:href="#DejaVuSans-20"/>
       <use x="366.130859" xlink:href="#DejaVuSans-65"/>
       <use x="427.654297" xlink:href="#DejaVuSans-6e"/>
       <use x="491.033203" xlink:href="#DejaVuSans-67"/>
       <use x="554.509766" xlink:href="#DejaVuSans-69"/>
       <use x="582.292969" xlink:href="#DejaVuSans-6e"/>
       <use x="645.671875" xlink:href="#DejaVuSans-65"/>
       <use x="707.195312" xlink:href="#DejaVuSans-20"/>
       <use x="738.982422" xlink:href="#DejaVuSans-68"/>
       <use x="802.361328" xlink:href="#DejaVuSans-69"/>
       <use x="830.144531" xlink:href="#DejaVuSans-74"/>
      </g>
     </g>
    </g>
    <g id="ytick_8">
     <g id="line2d_31">
      <g>
       <use style="stroke:#000000;stroke-width:0.8;" x="133.716875" xlink:href="#m44c8f23059" y="186.796295"/>
      </g>
     </g>
     <g id="text_32">
      <!-- searched products -->
      <g transform="translate(37.21375 190.595514)scale(0.1 -0.1)">
       <use xlink:href="#DejaVuSans-73"/>
       <use x="52.099609" xlink:href="#DejaVuSans-65"/>
       <use x="113.623047" xlink:href="#DejaVuSans-61"/>
       <use x="174.902344" xlink:href="#DejaVuSans-72"/>
       <use x="215.984375" xlink:href="#DejaVuSans-63"/>
       <use x="270.964844" xlink:href="#DejaVuSans-68"/>
       <use x="334.34375" xlink:href="#DejaVuSans-65"/>
       <use x="395.867188" xlink:href="#DejaVuSans-64"/>
       <use x="459.34375" xlink:href="#DejaVuSans-20"/>
       <use x="491.130859" xlink:href="#DejaVuSans-70"/>
       <use x="554.607422" xlink:href="#DejaVuSans-72"/>
       <use x="595.689453" xlink:href="#DejaVuSans-6f"/>
       <use x="656.871094" xlink:href="#DejaVuSans-64"/>
       <use x="720.347656" xlink:href="#DejaVuSans-75"/>
       <use x="783.726562" xlink:href="#DejaVuSans-63"/>
       <use x="838.707031" xlink:href="#DejaVuSans-74"/>
       <use x="877.916016" xlink:href="#DejaVuSans-73"/>
      </g>
     </g>
    </g>
    <g id="ytick_9">
     <g id="line2d_32">
      <g>
       <use style="stroke:#000000;stroke-width:0.8;" x="133.716875" xlink:href="#m44c8f23059" y="206.563568"/>
      </g>
     </g>
     <g id="text_33">
      <!-- staticpage -->
      <g transform="translate(77.784063 210.362787)scale(0.1 -0.1)">
       <use xlink:href="#DejaVuSans-73"/>
       <use x="52.099609" xlink:href="#DejaVuSans-74"/>
       <use x="91.308594" xlink:href="#DejaVuSans-61"/>
       <use x="152.587891" xlink:href="#DejaVuSans-74"/>
       <use x="191.796875" xlink:href="#DejaVuSans-69"/>
       <use x="219.580078" xlink:href="#DejaVuSans-63"/>
       <use x="274.560547" xlink:href="#DejaVuSans-70"/>
       <use x="338.037109" xlink:href="#DejaVuSans-61"/>
       <use x="399.316406" xlink:href="#DejaVuSans-67"/>
       <use x="462.792969" xlink:href="#DejaVuSans-65"/>
      </g>
     </g>
    </g>
    <g id="ytick_10">
     <g id="line2d_33">
      <g>
       <use style="stroke:#000000;stroke-width:0.8;" x="133.716875" xlink:href="#m44c8f23059" y="226.330841"/>
      </g>
     </g>
     <g id="text_34">
      <!-- viewed product -->
      <g transform="translate(52.829375 230.13006)scale(0.1 -0.1)">
       <use xlink:href="#DejaVuSans-76"/>
       <use x="59.179688" xlink:href="#DejaVuSans-69"/>
       <use x="86.962891" xlink:href="#DejaVuSans-65"/>
       <use x="148.486328" xlink:href="#DejaVuSans-77"/>
       <use x="230.273438" xlink:href="#DejaVuSans-65"/>
       <use x="291.796875" xlink:href="#DejaVuSans-64"/>
       <use x="355.273438" xlink:href="#DejaVuSans-20"/>
       <use x="387.060547" xlink:href="#DejaVuSans-70"/>
       <use x="450.537109" xlink:href="#DejaVuSans-72"/>
       <use x="491.619141" xlink:href="#DejaVuSans-6f"/>
       <use x="552.800781" xlink:href="#DejaVuSans-64"/>
       <use x="616.277344" xlink:href="#DejaVuSans-75"/>
       <use x="679.65625" xlink:href="#DejaVuSans-63"/>
       <use x="734.636719" xlink:href="#DejaVuSans-74"/>
      </g>
     </g>
    </g>
    <g id="ytick_11">
     <g id="line2d_34">
      <g>
       <use style="stroke:#000000;stroke-width:0.8;" x="133.716875" xlink:href="#m44c8f23059" y="246.098114"/>
      </g>
     </g>
     <g id="text_35">
      <!-- visited site -->
      <g transform="translate(75.871563 249.897332)scale(0.1 -0.1)">
       <use xlink:href="#DejaVuSans-76"/>
       <use x="59.179688" xlink:href="#DejaVuSans-69"/>
       <use x="86.962891" xlink:href="#DejaVuSans-73"/>
       <use x="139.0625" xlink:href="#DejaVuSans-69"/>
       <use x="166.845703" xlink:href="#DejaVuSans-74"/>
       <use x="206.054688" xlink:href="#DejaVuSans-65"/>
       <use x="267.578125" xlink:href="#DejaVuSans-64"/>
       <use x="331.054688" xlink:href="#DejaVuSans-20"/>
       <use x="362.841797" xlink:href="#DejaVuSans-73"/>
       <use x="414.941406" xlink:href="#DejaVuSans-69"/>
       <use x="442.724609" xlink:href="#DejaVuSans-74"/>
       <use x="481.933594" xlink:href="#DejaVuSans-65"/>
      </g>
     </g>
    </g>
    <g id="text_36">
     <!-- Evento -->
     <defs>
      <path d="M 9.8125 72.90625 
L 55.90625 72.90625 
L 55.90625 64.59375 
L 19.671875 64.59375 
L 19.671875 43.015625 
L 54.390625 43.015625 
L 54.390625 34.71875 
L 19.671875 34.71875 
L 19.671875 8.296875 
L 56.78125 8.296875 
L 56.78125 0 
L 9.8125 0 
z
" id="DejaVuSans-45"/>
     </defs>
     <g transform="translate(30.718125 168.122063)rotate(-90)scale(0.12 -0.12)">
      <use xlink:href="#DejaVuSans-45"/>
      <use x="63.183594" xlink:href="#DejaVuSans-76"/>
      <use x="122.363281" xlink:href="#DejaVuSans-65"/>
      <use x="183.886719" xlink:href="#DejaVuSans-6e"/>
      <use x="247.265625" xlink:href="#DejaVuSans-74"/>
      <use x="286.474609" xlink:href="#DejaVuSans-6f"/>
     </g>
    </g>
   </g>
   <g id="text_37">
    <!-- Columnas nulas por evento -->
    <g transform="translate(202.377875 32.54175)scale(0.144 -0.144)">
     <use xlink:href="#DejaVuSans-43"/>
     <use x="69.824219" xlink:href="#DejaVuSans-6f"/>
     <use x="131.005859" xlink:href="#DejaVuSans-6c"/>
     <use x="158.789062" xlink:href="#DejaVuSans-75"/>
     <use x="222.167969" xlink:href="#DejaVuSans-6d"/>
     <use x="319.580078" xlink:href="#DejaVuSans-6e"/>
     <use x="382.958984" xlink:href="#DejaVuSans-61"/>
     <use x="444.238281" xlink:href="#DejaVuSans-73"/>
     <use x="496.337891" xlink:href="#DejaVuSans-20"/>
     <use x="528.125" xlink:href="#DejaVuSans-6e"/>
     <use x="591.503906" xlink:href="#DejaVuSans-75"/>
     <use x="654.882812" xlink:href="#DejaVuSans-6c"/>
     <use x="682.666016" xlink:href="#DejaVuSans-61"/>
     <use x="743.945312" xlink:href="#DejaVuSans-73"/>
     <use x="796.044922" xlink:href="#DejaVuSans-20"/>
     <use x="827.832031" xlink:href="#DejaVuSans-70"/>
     <use x="891.308594" xlink:href="#DejaVuSans-6f"/>
     <use x="952.490234" xlink:href="#DejaVuSans-72"/>
     <use x="993.603516" xlink:href="#DejaVuSans-20"/>
     <use x="1025.390625" xlink:href="#DejaVuSans-65"/>
     <use x="1086.914062" xlink:href="#DejaVuSans-76"/>
     <use x="1146.09375" xlink:href="#DejaVuSans-65"/>
     <use x="1207.617188" xlink:href="#DejaVuSans-6e"/>
     <use x="1270.996094" xlink:href="#DejaVuSans-74"/>
     <use x="1310.205078" xlink:href="#DejaVuSans-6f"/>
    </g>
   </g>
  </g>
 </g>
 <defs>
  <clipPath id="p83bf6c0927">
   <rect height="217.44" width="334.8" x="133.716875" y="38.54175"/>
  </clipPath>
 </defs>
</svg>
