<?xml version="1.0" encoding="utf-8" standalone="no"?>
<!DOCTYPE svg PUBLIC "-//W3C//DTD SVG 1.1//EN"
  "http://www.w3.org/Graphics/SVG/1.1/DTD/svg11.dtd">
<!-- Created with matplotlib (https://matplotlib.org/) -->
<svg height="290.759875pt" version="1.1" viewBox="0 0 642.458062 290.759875" width="642.458062pt" xmlns="http://www.w3.org/2000/svg" xmlns:xlink="http://www.w3.org/1999/xlink">
 <defs>
  <style type="text/css">
*{stroke-linecap:butt;stroke-linejoin:round;}
  </style>
 </defs>
 <g id="figure_1">
  <g id="patch_1">
   <path d="M 0 290.759875 
L 642.458062 290.759875 
L 642.458062 0 
L 0 0 
z
" style="fill:#ffffff;"/>
  </g>
  <g id="axes_1">
   <g id="patch_2">
    <path d="M 214.673437 255.98175 
L 549.473438 255.98175 
L 549.473438 38.54175 
L 214.673437 38.54175 
z
" style="fill:#eeeeee;"/>
   </g>
   <g id="patch_3">
    <path clip-path="url(#pc6c63a024f)" d="M -100848.148244 249.18675 
L 534.053876 249.18675 
L 534.053876 245.78925 
L -100848.148244 245.78925 
z
" style="fill:#348abd;"/>
   </g>
   <g id="patch_4">
    <path clip-path="url(#pc6c63a024f)" d="M -100848.148244 222.00675 
L 532.7225 222.00675 
L 532.7225 218.60925 
L -100848.148244 218.60925 
z
" style="fill:#348abd;"/>
   </g>
   <g id="patch_5">
    <path clip-path="url(#pc6c63a024f)" d="M -100848.148244 194.82675 
L 532.538722 194.82675 
L 532.538722 191.42925 
L -100848.148244 191.42925 
z
" style="fill:#348abd;"/>
   </g>
   <g id="patch_6">
    <path clip-path="url(#pc6c63a024f)" d="M -100848.148244 167.64675 
L 530.10563 167.64675 
L 530.10563 164.24925 
L -100848.148244 164.24925 
z
" style="fill:#348abd;"/>
   </g>
   <g id="patch_7">
    <path clip-path="url(#pc6c63a024f)" d="M -100848.148244 140.46675 
L 534.062375 140.46675 
L 534.062375 137.06925 
L -100848.148244 137.06925 
z
" style="fill:#348abd;"/>
   </g>
   <g id="patch_8">
    <path clip-path="url(#pc6c63a024f)" d="M -100848.148244 113.28675 
L 531.707222 113.28675 
L 531.707222 109.88925 
L -100848.148244 109.88925 
z
" style="fill:#348abd;"/>
   </g>
   <g id="patch_9">
    <path clip-path="url(#pc6c63a024f)" d="M -100848.148244 86.10675 
L 534.255256 86.10675 
L 534.255256 82.70925 
L -100848.148244 82.70925 
z
" style="fill:#348abd;"/>
   </g>
   <g id="patch_10">
    <path clip-path="url(#pc6c63a024f)" d="M -100848.148244 58.92675 
L 529.504647 58.92675 
L 529.504647 55.52925 
L -100848.148244 55.52925 
z
" style="fill:#348abd;"/>
   </g>
   <g id="patch_11">
    <path clip-path="url(#pc6c63a024f)" d="M -100848.148244 245.78925 
L 392.915032 245.78925 
L 392.915032 242.39175 
L -100848.148244 242.39175 
z
" style="fill:#a60628;"/>
   </g>
   <g id="patch_12">
    <path clip-path="url(#pc6c63a024f)" d="M -100848.148244 218.60925 
L 417.980178 218.60925 
L 417.980178 215.21175 
L -100848.148244 215.21175 
z
" style="fill:#a60628;"/>
   </g>
   <g id="patch_13">
    <path clip-path="url(#pc6c63a024f)" d="M -100848.148244 191.42925 
L 421.178014 191.42925 
L 421.178014 188.03175 
L -100848.148244 188.03175 
z
" style="fill:#a60628;"/>
   </g>
   <g id="patch_14">
    <path clip-path="url(#pc6c63a024f)" d="M -100848.148244 164.24925 
L 443.13987 164.24925 
L 443.13987 160.85175 
L -100848.148244 160.85175 
z
" style="fill:#a60628;"/>
   </g>
   <g id="patch_15">
    <path clip-path="url(#pc6c63a024f)" d="M -100848.148244 137.06925 
L 397.961118 137.06925 
L 397.961118 133.67175 
L -100848.148244 133.67175 
z
" style="fill:#a60628;"/>
   </g>
   <g id="patch_16">
    <path clip-path="url(#pc6c63a024f)" d="M -100848.148244 109.88925 
L 430.93397 109.88925 
L 430.93397 106.49175 
L -100848.148244 106.49175 
z
" style="fill:#a60628;"/>
   </g>
   <g id="patch_17">
    <path clip-path="url(#pc6c63a024f)" d="M -100848.148244 82.70925 
L 395.617932 82.70925 
L 395.617932 79.31175 
L -100848.148244 79.31175 
z
" style="fill:#a60628;"/>
   </g>
   <g id="patch_18">
    <path clip-path="url(#pc6c63a024f)" d="M -100848.148244 55.52925 
L 449.021485 55.52925 
L 449.021485 52.13175 
L -100848.148244 52.13175 
z
" style="fill:#a60628;"/>
   </g>
   <g id="patch_19">
    <path clip-path="url(#pc6c63a024f)" d="M -100848.148244 242.39175 
L 362.395166 242.39175 
L 362.395166 238.99425 
L -100848.148244 238.99425 
z
" style="fill:#7a68a6;"/>
   </g>
   <g id="patch_20">
    <path clip-path="url(#pc6c63a024f)" d="M -100848.148244 215.21175 
L 356.940446 215.21175 
L 356.940446 211.81425 
L -100848.148244 211.81425 
z
" style="fill:#7a68a6;"/>
   </g>
   <g id="patch_21">
    <path clip-path="url(#pc6c63a024f)" d="M -100848.148244 188.03175 
L 356.19258 188.03175 
L 356.19258 184.63425 
L -100848.148244 184.63425 
z
" style="fill:#7a68a6;"/>
   </g>
   <g id="patch_22">
    <path clip-path="url(#pc6c63a024f)" d="M -100848.148244 160.85175 
L 354.421957 160.85175 
L 354.421957 157.45425 
L -100848.148244 157.45425 
z
" style="fill:#7a68a6;"/>
   </g>
   <g id="patch_23">
    <path clip-path="url(#pc6c63a024f)" d="M -100848.148244 133.67175 
L 349.588274 133.67175 
L 349.588274 130.27425 
L -100848.148244 130.27425 
z
" style="fill:#7a68a6;"/>
   </g>
   <g id="patch_24">
    <path clip-path="url(#pc6c63a024f)" d="M -100848.148244 106.49175 
L 343.708772 106.49175 
L 343.708772 103.09425 
L -100848.148244 103.09425 
z
" style="fill:#7a68a6;"/>
   </g>
   <g id="patch_25">
    <path clip-path="url(#pc6c63a024f)" d="M -100848.148244 79.31175 
L 343.239522 79.31175 
L 343.239522 75.91425 
L -100848.148244 75.91425 
z
" style="fill:#7a68a6;"/>
   </g>
   <g id="patch_26">
    <path clip-path="url(#pc6c63a024f)" d="M -100848.148244 52.13175 
L 342.828545 52.13175 
L 342.828545 48.73425 
L -100848.148244 48.73425 
z
" style="fill:#7a68a6;"/>
   </g>
   <g id="patch_27">
    <path clip-path="url(#pc6c63a024f)" d="M -100848.148244 238.99425 
L -100848.148244 238.99425 
L -100848.148244 235.59675 
L -100848.148244 235.59675 
z
" style="fill:#467821;"/>
   </g>
   <g id="patch_28">
    <path clip-path="url(#pc6c63a024f)" d="M -100848.148244 211.81425 
L 232.191626 211.81425 
L 232.191626 208.41675 
L -100848.148244 208.41675 
z
" style="fill:#467821;"/>
   </g>
   <g id="patch_29">
    <path clip-path="url(#pc6c63a024f)" d="M -100848.148244 184.63425 
L -100848.148244 184.63425 
L -100848.148244 181.23675 
L -100848.148244 181.23675 
z
" style="fill:#467821;"/>
   </g>
   <g id="patch_30">
    <path clip-path="url(#pc6c63a024f)" d="M -100848.148244 157.45425 
L 275.529247 157.45425 
L 275.529247 154.05675 
L -100848.148244 154.05675 
z
" style="fill:#467821;"/>
   </g>
   <g id="patch_31">
    <path clip-path="url(#pc6c63a024f)" d="M -100848.148244 130.27425 
L -100848.148244 130.27425 
L -100848.148244 126.87675 
L -100848.148244 126.87675 
z
" style="fill:#467821;"/>
   </g>
   <g id="patch_32">
    <path clip-path="url(#pc6c63a024f)" d="M -100848.148244 103.09425 
L 282.66904 103.09425 
L 282.66904 99.69675 
L -100848.148244 99.69675 
z
" style="fill:#467821;"/>
   </g>
   <g id="patch_33">
    <path clip-path="url(#pc6c63a024f)" d="M -100848.148244 75.91425 
L -100848.148244 75.91425 
L -100848.148244 72.51675 
L -100848.148244 72.51675 
z
" style="fill:#467821;"/>
   </g>
   <g id="patch_34">
    <path clip-path="url(#pc6c63a024f)" d="M -100848.148244 48.73425 
L 229.891619 48.73425 
L 229.891619 45.33675 
L -100848.148244 45.33675 
z
" style="fill:#467821;"/>
   </g>
   <g id="matplotlib.axis_1">
    <g id="xtick_1">
     <g id="line2d_1">
      <path clip-path="url(#pc6c63a024f)" d="M 232.498768 255.98175 
L 232.498768 38.54175 
" style="fill:none;stroke:#b2b2b2;stroke-dasharray:1.85,0.8;stroke-dashoffset:0;stroke-width:0.5;"/>
     </g>
     <g id="line2d_2">
      <defs>
       <path d="M 0 0 
L 0 -3.5 
" id="md955aa9427" style="stroke:#000000;stroke-width:0.8;"/>
      </defs>
      <g>
       <use style="stroke:#000000;stroke-width:0.8;" x="232.498768" xlink:href="#md955aa9427" y="255.98175"/>
      </g>
     </g>
     <g id="text_1">
      <!-- $\mathdefault{10^{-3}}$ -->
      <defs>
       <path d="M 12.40625 8.296875 
L 28.515625 8.296875 
L 28.515625 63.921875 
L 10.984375 60.40625 
L 10.984375 69.390625 
L 28.421875 72.90625 
L 38.28125 72.90625 
L 38.28125 8.296875 
L 54.390625 8.296875 
L 54.390625 0 
L 12.40625 0 
z
" id="DejaVuSans-49"/>
       <path d="M 31.78125 66.40625 
Q 24.171875 66.40625 20.328125 58.90625 
Q 16.5 51.421875 16.5 36.375 
Q 16.5 21.390625 20.328125 13.890625 
Q 24.171875 6.390625 31.78125 6.390625 
Q 39.453125 6.390625 43.28125 13.890625 
Q 47.125 21.390625 47.125 36.375 
Q 47.125 51.421875 43.28125 58.90625 
Q 39.453125 66.40625 31.78125 66.40625 
z
M 31.78125 74.21875 
Q 44.046875 74.21875 50.515625 64.515625 
Q 56.984375 54.828125 56.984375 36.375 
Q 56.984375 17.96875 50.515625 8.265625 
Q 44.046875 -1.421875 31.78125 -1.421875 
Q 19.53125 -1.421875 13.0625 8.265625 
Q 6.59375 17.96875 6.59375 36.375 
Q 6.59375 54.828125 13.0625 64.515625 
Q 19.53125 74.21875 31.78125 74.21875 
z
" id="DejaVuSans-48"/>
       <path d="M 4.890625 31.390625 
L 31.203125 31.390625 
L 31.203125 23.390625 
L 4.890625 23.390625 
z
" id="DejaVuSans-45"/>
       <path d="M 40.578125 39.3125 
Q 47.65625 37.796875 51.625 33 
Q 55.609375 28.21875 55.609375 21.1875 
Q 55.609375 10.40625 48.1875 4.484375 
Q 40.765625 -1.421875 27.09375 -1.421875 
Q 22.515625 -1.421875 17.65625 -0.515625 
Q 12.796875 0.390625 7.625 2.203125 
L 7.625 11.71875 
Q 11.71875 9.328125 16.59375 8.109375 
Q 21.484375 6.890625 26.8125 6.890625 
Q 36.078125 6.890625 40.9375 10.546875 
Q 45.796875 14.203125 45.796875 21.1875 
Q 45.796875 27.640625 41.28125 31.265625 
Q 36.765625 34.90625 28.71875 34.90625 
L 20.21875 34.90625 
L 20.21875 43.015625 
L 29.109375 43.015625 
Q 36.375 43.015625 40.234375 45.921875 
Q 44.09375 48.828125 44.09375 54.296875 
Q 44.09375 59.90625 40.109375 62.90625 
Q 36.140625 65.921875 28.71875 65.921875 
Q 24.65625 65.921875 20.015625 65.03125 
Q 15.375 64.15625 9.8125 62.3125 
L 9.8125 71.09375 
Q 15.4375 72.65625 20.34375 73.4375 
Q 25.25 74.21875 29.59375 74.21875 
Q 40.828125 74.21875 47.359375 69.109375 
Q 53.90625 64.015625 53.90625 55.328125 
Q 53.90625 49.265625 50.4375 45.09375 
Q 46.96875 40.921875 40.578125 39.3125 
z
" id="DejaVuSans-51"/>
      </defs>
      <g transform="translate(222.448768 267.080188)scale(0.1 -0.1)">
       <use transform="translate(0 0.765625)" xlink:href="#DejaVuSans-49"/>
       <use transform="translate(63.623047 0.765625)" xlink:href="#DejaVuSans-48"/>
       <use transform="translate(128.203125 39.046875)scale(0.7)" xlink:href="#DejaVuSans-45"/>
       <use transform="translate(153.461914 39.046875)scale(0.7)" xlink:href="#DejaVuSans-51"/>
      </g>
     </g>
    </g>
    <g id="xtick_2">
     <g id="line2d_3">
      <path clip-path="url(#pc6c63a024f)" d="M 333.88357 255.98175 
L 333.88357 38.54175 
" style="fill:none;stroke:#b2b2b2;stroke-dasharray:1.85,0.8;stroke-dashoffset:0;stroke-width:0.5;"/>
     </g>
     <g id="line2d_4">
      <g>
       <use style="stroke:#000000;stroke-width:0.8;" x="333.88357" xlink:href="#md955aa9427" y="255.98175"/>
      </g>
     </g>
     <g id="text_2">
      <!-- $\mathdefault{10^{-2}}$ -->
      <defs>
       <path d="M 19.1875 8.296875 
L 53.609375 8.296875 
L 53.609375 0 
L 7.328125 0 
L 7.328125 8.296875 
Q 12.9375 14.109375 22.625 23.890625 
Q 32.328125 33.6875 34.8125 36.53125 
Q 39.546875 41.84375 41.421875 45.53125 
Q 43.3125 49.21875 43.3125 52.78125 
Q 43.3125 58.59375 39.234375 62.25 
Q 35.15625 65.921875 28.609375 65.921875 
Q 23.96875 65.921875 18.8125 64.3125 
Q 13.671875 62.703125 7.8125 59.421875 
L 7.8125 69.390625 
Q 13.765625 71.78125 18.9375 73 
Q 24.125 74.21875 28.421875 74.21875 
Q 39.75 74.21875 46.484375 68.546875 
Q 53.21875 62.890625 53.21875 53.421875 
Q 53.21875 48.921875 51.53125 44.890625 
Q 49.859375 40.875 45.40625 35.40625 
Q 44.1875 33.984375 37.640625 27.21875 
Q 31.109375 20.453125 19.1875 8.296875 
z
" id="DejaVuSans-50"/>
      </defs>
      <g transform="translate(323.83357 267.080188)scale(0.1 -0.1)">
       <use transform="translate(0 0.765625)" xlink:href="#DejaVuSans-49"/>
       <use transform="translate(63.623047 0.765625)" xlink:href="#DejaVuSans-48"/>
       <use transform="translate(128.203125 39.046875)scale(0.7)" xlink:href="#DejaVuSans-45"/>
       <use transform="translate(153.461914 39.046875)scale(0.7)" xlink:href="#DejaVuSans-50"/>
      </g>
     </g>
    </g>
    <g id="xtick_3">
     <g id="line2d_5">
      <path clip-path="url(#pc6c63a024f)" d="M 435.268371 255.98175 
L 435.268371 38.54175 
" style="fill:none;stroke:#b2b2b2;stroke-dasharray:1.85,0.8;stroke-dashoffset:0;stroke-width:0.5;"/>
     </g>
     <g id="line2d_6">
      <g>
       <use style="stroke:#000000;stroke-width:0.8;" x="435.268371" xlink:href="#md955aa9427" y="255.98175"/>
      </g>
     </g>
     <g id="text_3">
      <!-- $\mathdefault{10^{-1}}$ -->
      <g transform="translate(425.218371 267.080188)scale(0.1 -0.1)">
       <use transform="translate(0 0.684375)" xlink:href="#DejaVuSans-49"/>
       <use transform="translate(63.623047 0.684375)" xlink:href="#DejaVuSans-48"/>
       <use transform="translate(128.203125 38.965625)scale(0.7)" xlink:href="#DejaVuSans-45"/>
       <use transform="translate(153.461914 38.965625)scale(0.7)" xlink:href="#DejaVuSans-49"/>
      </g>
     </g>
    </g>
    <g id="xtick_4">
     <g id="line2d_7">
      <path clip-path="url(#pc6c63a024f)" d="M 536.653173 255.98175 
L 536.653173 38.54175 
" style="fill:none;stroke:#b2b2b2;stroke-dasharray:1.85,0.8;stroke-dashoffset:0;stroke-width:0.5;"/>
     </g>
     <g id="line2d_8">
      <g>
       <use style="stroke:#000000;stroke-width:0.8;" x="536.653173" xlink:href="#md955aa9427" y="255.98175"/>
      </g>
     </g>
     <g id="text_4">
      <!-- $\mathdefault{10^{0}}$ -->
      <g transform="translate(527.853173 267.080188)scale(0.1 -0.1)">
       <use transform="translate(0 0.765625)" xlink:href="#DejaVuSans-49"/>
       <use transform="translate(63.623047 0.765625)" xlink:href="#DejaVuSans-48"/>
       <use transform="translate(128.203125 39.046875)scale(0.7)" xlink:href="#DejaVuSans-48"/>
      </g>
     </g>
    </g>
    <g id="xtick_5">
     <g id="line2d_9">
      <defs>
       <path d="M 0 0 
L 0 -2 
" id="m9a4b1f46d1" style="stroke:#000000;stroke-width:0.6;"/>
      </defs>
      <g>
       <use style="stroke:#000000;stroke-width:0.6;" x="216.794064" xlink:href="#m9a4b1f46d1" y="255.98175"/>
      </g>
     </g>
    </g>
    <g id="xtick_6">
     <g id="line2d_10">
      <g>
       <use style="stroke:#000000;stroke-width:0.6;" x="222.673566" xlink:href="#m9a4b1f46d1" y="255.98175"/>
      </g>
     </g>
    </g>
    <g id="xtick_7">
     <g id="line2d_11">
      <g>
       <use style="stroke:#000000;stroke-width:0.6;" x="227.859654" xlink:href="#m9a4b1f46d1" y="255.98175"/>
      </g>
     </g>
    </g>
    <g id="xtick_8">
     <g id="line2d_12">
      <g>
       <use style="stroke:#000000;stroke-width:0.6;" x="263.018635" xlink:href="#m9a4b1f46d1" y="255.98175"/>
      </g>
     </g>
    </g>
    <g id="xtick_9">
     <g id="line2d_13">
      <g>
       <use style="stroke:#000000;stroke-width:0.6;" x="280.871612" xlink:href="#m9a4b1f46d1" y="255.98175"/>
      </g>
     </g>
    </g>
    <g id="xtick_10">
     <g id="line2d_14">
      <g>
       <use style="stroke:#000000;stroke-width:0.6;" x="293.538501" xlink:href="#m9a4b1f46d1" y="255.98175"/>
      </g>
     </g>
    </g>
    <g id="xtick_11">
     <g id="line2d_15">
      <g>
       <use style="stroke:#000000;stroke-width:0.6;" x="303.363703" xlink:href="#m9a4b1f46d1" y="255.98175"/>
      </g>
     </g>
    </g>
    <g id="xtick_12">
     <g id="line2d_16">
      <g>
       <use style="stroke:#000000;stroke-width:0.6;" x="311.391478" xlink:href="#m9a4b1f46d1" y="255.98175"/>
      </g>
     </g>
    </g>
    <g id="xtick_13">
     <g id="line2d_17">
      <g>
       <use style="stroke:#000000;stroke-width:0.6;" x="318.178865" xlink:href="#m9a4b1f46d1" y="255.98175"/>
      </g>
     </g>
    </g>
    <g id="xtick_14">
     <g id="line2d_18">
      <g>
       <use style="stroke:#000000;stroke-width:0.6;" x="324.058367" xlink:href="#m9a4b1f46d1" y="255.98175"/>
      </g>
     </g>
    </g>
    <g id="xtick_15">
     <g id="line2d_19">
      <g>
       <use style="stroke:#000000;stroke-width:0.6;" x="329.244456" xlink:href="#m9a4b1f46d1" y="255.98175"/>
      </g>
     </g>
    </g>
    <g id="xtick_16">
     <g id="line2d_20">
      <g>
       <use style="stroke:#000000;stroke-width:0.6;" x="364.403436" xlink:href="#m9a4b1f46d1" y="255.98175"/>
      </g>
     </g>
    </g>
    <g id="xtick_17">
     <g id="line2d_21">
      <g>
       <use style="stroke:#000000;stroke-width:0.6;" x="382.256413" xlink:href="#m9a4b1f46d1" y="255.98175"/>
      </g>
     </g>
    </g>
    <g id="xtick_18">
     <g id="line2d_22">
      <g>
       <use style="stroke:#000000;stroke-width:0.6;" x="394.923302" xlink:href="#m9a4b1f46d1" y="255.98175"/>
      </g>
     </g>
    </g>
    <g id="xtick_19">
     <g id="line2d_23">
      <g>
       <use style="stroke:#000000;stroke-width:0.6;" x="404.748505" xlink:href="#m9a4b1f46d1" y="255.98175"/>
      </g>
     </g>
    </g>
    <g id="xtick_20">
     <g id="line2d_24">
      <g>
       <use style="stroke:#000000;stroke-width:0.6;" x="412.77628" xlink:href="#m9a4b1f46d1" y="255.98175"/>
      </g>
     </g>
    </g>
    <g id="xtick_21">
     <g id="line2d_25">
      <g>
       <use style="stroke:#000000;stroke-width:0.6;" x="419.563667" xlink:href="#m9a4b1f46d1" y="255.98175"/>
      </g>
     </g>
    </g>
    <g id="xtick_22">
     <g id="line2d_26">
      <g>
       <use style="stroke:#000000;stroke-width:0.6;" x="425.443169" xlink:href="#m9a4b1f46d1" y="255.98175"/>
      </g>
     </g>
    </g>
    <g id="xtick_23">
     <g id="line2d_27">
      <g>
       <use style="stroke:#000000;stroke-width:0.6;" x="430.629257" xlink:href="#m9a4b1f46d1" y="255.98175"/>
      </g>
     </g>
    </g>
    <g id="xtick_24">
     <g id="line2d_28">
      <g>
       <use style="stroke:#000000;stroke-width:0.6;" x="465.788238" xlink:href="#m9a4b1f46d1" y="255.98175"/>
      </g>
     </g>
    </g>
    <g id="xtick_25">
     <g id="line2d_29">
      <g>
       <use style="stroke:#000000;stroke-width:0.6;" x="483.641215" xlink:href="#m9a4b1f46d1" y="255.98175"/>
      </g>
     </g>
    </g>
    <g id="xtick_26">
     <g id="line2d_30">
      <g>
       <use style="stroke:#000000;stroke-width:0.6;" x="496.308104" xlink:href="#m9a4b1f46d1" y="255.98175"/>
      </g>
     </g>
    </g>
    <g id="xtick_27">
     <g id="line2d_31">
      <g>
       <use style="stroke:#000000;stroke-width:0.6;" x="506.133306" xlink:href="#m9a4b1f46d1" y="255.98175"/>
      </g>
     </g>
    </g>
    <g id="xtick_28">
     <g id="line2d_32">
      <g>
       <use style="stroke:#000000;stroke-width:0.6;" x="514.161081" xlink:href="#m9a4b1f46d1" y="255.98175"/>
      </g>
     </g>
    </g>
    <g id="xtick_29">
     <g id="line2d_33">
      <g>
       <use style="stroke:#000000;stroke-width:0.6;" x="520.948468" xlink:href="#m9a4b1f46d1" y="255.98175"/>
      </g>
     </g>
    </g>
    <g id="xtick_30">
     <g id="line2d_34">
      <g>
       <use style="stroke:#000000;stroke-width:0.6;" x="526.82797" xlink:href="#m9a4b1f46d1" y="255.98175"/>
      </g>
     </g>
    </g>
    <g id="xtick_31">
     <g id="line2d_35">
      <g>
       <use style="stroke:#000000;stroke-width:0.6;" x="532.014059" xlink:href="#m9a4b1f46d1" y="255.98175"/>
      </g>
     </g>
    </g>
   </g>
   <g id="matplotlib.axis_2">
    <g id="ytick_1">
     <g id="line2d_36">
      <path clip-path="url(#pc6c63a024f)" d="M 214.673437 242.39175 
L 549.473438 242.39175 
" style="fill:none;stroke:#b2b2b2;stroke-dasharray:1.85,0.8;stroke-dashoffset:0;stroke-width:0.5;"/>
     </g>
     <g id="line2d_37">
      <defs>
       <path d="M 0 0 
L 3.5 0 
" id="m14f821cecb" style="stroke:#000000;stroke-width:0.8;"/>
      </defs>
      <g>
       <use style="stroke:#000000;stroke-width:0.8;" x="214.673437" xlink:href="#m14f821cecb" y="242.39175"/>
      </g>
     </g>
     <g id="text_5">
      <!-- Samsung Galaxy S4 i9500 -->
      <defs>
       <path d="M 53.515625 70.515625 
L 53.515625 60.890625 
Q 47.90625 63.578125 42.921875 64.890625 
Q 37.9375 66.21875 33.296875 66.21875 
Q 25.25 66.21875 20.875 63.09375 
Q 16.5 59.96875 16.5 54.203125 
Q 16.5 49.359375 19.40625 46.890625 
Q 22.3125 44.4375 30.421875 42.921875 
L 36.375 41.703125 
Q 47.40625 39.59375 52.65625 34.296875 
Q 57.90625 29 57.90625 20.125 
Q 57.90625 9.515625 50.796875 4.046875 
Q 43.703125 -1.421875 29.984375 -1.421875 
Q 24.8125 -1.421875 18.96875 -0.25 
Q 13.140625 0.921875 6.890625 3.21875 
L 6.890625 13.375 
Q 12.890625 10.015625 18.65625 8.296875 
Q 24.421875 6.59375 29.984375 6.59375 
Q 38.421875 6.59375 43.015625 9.90625 
Q 47.609375 13.234375 47.609375 19.390625 
Q 47.609375 24.75 44.3125 27.78125 
Q 41.015625 30.8125 33.5 32.328125 
L 27.484375 33.5 
Q 16.453125 35.6875 11.515625 40.375 
Q 6.59375 45.0625 6.59375 53.421875 
Q 6.59375 63.09375 13.40625 68.65625 
Q 20.21875 74.21875 32.171875 74.21875 
Q 37.3125 74.21875 42.625 73.28125 
Q 47.953125 72.359375 53.515625 70.515625 
z
" id="DejaVuSans-83"/>
       <path d="M 34.28125 27.484375 
Q 23.390625 27.484375 19.1875 25 
Q 14.984375 22.515625 14.984375 16.5 
Q 14.984375 11.71875 18.140625 8.90625 
Q 21.296875 6.109375 26.703125 6.109375 
Q 34.1875 6.109375 38.703125 11.40625 
Q 43.21875 16.703125 43.21875 25.484375 
L 43.21875 27.484375 
z
M 52.203125 31.203125 
L 52.203125 0 
L 43.21875 0 
L 43.21875 8.296875 
Q 40.140625 3.328125 35.546875 0.953125 
Q 30.953125 -1.421875 24.3125 -1.421875 
Q 15.921875 -1.421875 10.953125 3.296875 
Q 6 8.015625 6 15.921875 
Q 6 25.140625 12.171875 29.828125 
Q 18.359375 34.515625 30.609375 34.515625 
L 43.21875 34.515625 
L 43.21875 35.40625 
Q 43.21875 41.609375 39.140625 45 
Q 35.0625 48.390625 27.6875 48.390625 
Q 23 48.390625 18.546875 47.265625 
Q 14.109375 46.140625 10.015625 43.890625 
L 10.015625 52.203125 
Q 14.9375 54.109375 19.578125 55.046875 
Q 24.21875 56 28.609375 56 
Q 40.484375 56 46.34375 49.84375 
Q 52.203125 43.703125 52.203125 31.203125 
z
" id="DejaVuSans-97"/>
       <path d="M 52 44.1875 
Q 55.375 50.25 60.0625 53.125 
Q 64.75 56 71.09375 56 
Q 79.640625 56 84.28125 50.015625 
Q 88.921875 44.046875 88.921875 33.015625 
L 88.921875 0 
L 79.890625 0 
L 79.890625 32.71875 
Q 79.890625 40.578125 77.09375 44.375 
Q 74.3125 48.1875 68.609375 48.1875 
Q 61.625 48.1875 57.5625 43.546875 
Q 53.515625 38.921875 53.515625 30.90625 
L 53.515625 0 
L 44.484375 0 
L 44.484375 32.71875 
Q 44.484375 40.625 41.703125 44.40625 
Q 38.921875 48.1875 33.109375 48.1875 
Q 26.21875 48.1875 22.15625 43.53125 
Q 18.109375 38.875 18.109375 30.90625 
L 18.109375 0 
L 9.078125 0 
L 9.078125 54.6875 
L 18.109375 54.6875 
L 18.109375 46.1875 
Q 21.1875 51.21875 25.484375 53.609375 
Q 29.78125 56 35.6875 56 
Q 41.65625 56 45.828125 52.96875 
Q 50 49.953125 52 44.1875 
z
" id="DejaVuSans-109"/>
       <path d="M 44.28125 53.078125 
L 44.28125 44.578125 
Q 40.484375 46.53125 36.375 47.5 
Q 32.28125 48.484375 27.875 48.484375 
Q 21.1875 48.484375 17.84375 46.4375 
Q 14.5 44.390625 14.5 40.28125 
Q 14.5 37.15625 16.890625 35.375 
Q 19.28125 33.59375 26.515625 31.984375 
L 29.59375 31.296875 
Q 39.15625 29.25 43.1875 25.515625 
Q 47.21875 21.78125 47.21875 15.09375 
Q 47.21875 7.46875 41.1875 3.015625 
Q 35.15625 -1.421875 24.609375 -1.421875 
Q 20.21875 -1.421875 15.453125 -0.5625 
Q 10.6875 0.296875 5.421875 2 
L 5.421875 11.28125 
Q 10.40625 8.6875 15.234375 7.390625 
Q 20.0625 6.109375 24.8125 6.109375 
Q 31.15625 6.109375 34.5625 8.28125 
Q 37.984375 10.453125 37.984375 14.40625 
Q 37.984375 18.0625 35.515625 20.015625 
Q 33.0625 21.96875 24.703125 23.78125 
L 21.578125 24.515625 
Q 13.234375 26.265625 9.515625 29.90625 
Q 5.8125 33.546875 5.8125 39.890625 
Q 5.8125 47.609375 11.28125 51.796875 
Q 16.75 56 26.8125 56 
Q 31.78125 56 36.171875 55.265625 
Q 40.578125 54.546875 44.28125 53.078125 
z
" id="DejaVuSans-115"/>
       <path d="M 8.5 21.578125 
L 8.5 54.6875 
L 17.484375 54.6875 
L 17.484375 21.921875 
Q 17.484375 14.15625 20.5 10.265625 
Q 23.53125 6.390625 29.59375 6.390625 
Q 36.859375 6.390625 41.078125 11.03125 
Q 45.3125 15.671875 45.3125 23.6875 
L 45.3125 54.6875 
L 54.296875 54.6875 
L 54.296875 0 
L 45.3125 0 
L 45.3125 8.40625 
Q 42.046875 3.421875 37.71875 1 
Q 33.40625 -1.421875 27.6875 -1.421875 
Q 18.265625 -1.421875 13.375 4.4375 
Q 8.5 10.296875 8.5 21.578125 
z
M 31.109375 56 
z
" id="DejaVuSans-117"/>
       <path d="M 54.890625 33.015625 
L 54.890625 0 
L 45.90625 0 
L 45.90625 32.71875 
Q 45.90625 40.484375 42.875 44.328125 
Q 39.84375 48.1875 33.796875 48.1875 
Q 26.515625 48.1875 22.3125 43.546875 
Q 18.109375 38.921875 18.109375 30.90625 
L 18.109375 0 
L 9.078125 0 
L 9.078125 54.6875 
L 18.109375 54.6875 
L 18.109375 46.1875 
Q 21.34375 51.125 25.703125 53.5625 
Q 30.078125 56 35.796875 56 
Q 45.21875 56 50.046875 50.171875 
Q 54.890625 44.34375 54.890625 33.015625 
z
" id="DejaVuSans-110"/>
       <path d="M 45.40625 27.984375 
Q 45.40625 37.75 41.375 43.109375 
Q 37.359375 48.484375 30.078125 48.484375 
Q 22.859375 48.484375 18.828125 43.109375 
Q 14.796875 37.75 14.796875 27.984375 
Q 14.796875 18.265625 18.828125 12.890625 
Q 22.859375 7.515625 30.078125 7.515625 
Q 37.359375 7.515625 41.375 12.890625 
Q 45.40625 18.265625 45.40625 27.984375 
z
M 54.390625 6.78125 
Q 54.390625 -7.171875 48.1875 -13.984375 
Q 42 -20.796875 29.203125 -20.796875 
Q 24.46875 -20.796875 20.265625 -20.09375 
Q 16.0625 -19.390625 12.109375 -17.921875 
L 12.109375 -9.1875 
Q 16.0625 -11.328125 19.921875 -12.34375 
Q 23.78125 -13.375 27.78125 -13.375 
Q 36.625 -13.375 41.015625 -8.765625 
Q 45.40625 -4.15625 45.40625 5.171875 
L 45.40625 9.625 
Q 42.625 4.78125 38.28125 2.390625 
Q 33.9375 0 27.875 0 
Q 17.828125 0 11.671875 7.65625 
Q 5.515625 15.328125 5.515625 27.984375 
Q 5.515625 40.671875 11.671875 48.328125 
Q 17.828125 56 27.875 56 
Q 33.9375 56 38.28125 53.609375 
Q 42.625 51.21875 45.40625 46.390625 
L 45.40625 54.6875 
L 54.390625 54.6875 
z
" id="DejaVuSans-103"/>
       <path id="DejaVuSans-32"/>
       <path d="M 59.515625 10.40625 
L 59.515625 29.984375 
L 43.40625 29.984375 
L 43.40625 38.09375 
L 69.28125 38.09375 
L 69.28125 6.78125 
Q 63.578125 2.734375 56.6875 0.65625 
Q 49.8125 -1.421875 42 -1.421875 
Q 24.90625 -1.421875 15.25 8.5625 
Q 5.609375 18.5625 5.609375 36.375 
Q 5.609375 54.25 15.25 64.234375 
Q 24.90625 74.21875 42 74.21875 
Q 49.125 74.21875 55.546875 72.453125 
Q 61.96875 70.703125 67.390625 67.28125 
L 67.390625 56.78125 
Q 61.921875 61.421875 55.765625 63.765625 
Q 49.609375 66.109375 42.828125 66.109375 
Q 29.4375 66.109375 22.71875 58.640625 
Q 16.015625 51.171875 16.015625 36.375 
Q 16.015625 21.625 22.71875 14.15625 
Q 29.4375 6.6875 42.828125 6.6875 
Q 48.046875 6.6875 52.140625 7.59375 
Q 56.25 8.5 59.515625 10.40625 
z
" id="DejaVuSans-71"/>
       <path d="M 9.421875 75.984375 
L 18.40625 75.984375 
L 18.40625 0 
L 9.421875 0 
z
" id="DejaVuSans-108"/>
       <path d="M 54.890625 54.6875 
L 35.109375 28.078125 
L 55.90625 0 
L 45.3125 0 
L 29.390625 21.484375 
L 13.484375 0 
L 2.875 0 
L 24.125 28.609375 
L 4.6875 54.6875 
L 15.28125 54.6875 
L 29.78125 35.203125 
L 44.28125 54.6875 
z
" id="DejaVuSans-120"/>
       <path d="M 32.171875 -5.078125 
Q 28.375 -14.84375 24.75 -17.8125 
Q 21.140625 -20.796875 15.09375 -20.796875 
L 7.90625 -20.796875 
L 7.90625 -13.28125 
L 13.1875 -13.28125 
Q 16.890625 -13.28125 18.9375 -11.515625 
Q 21 -9.765625 23.484375 -3.21875 
L 25.09375 0.875 
L 2.984375 54.6875 
L 12.5 54.6875 
L 29.59375 11.921875 
L 46.6875 54.6875 
L 56.203125 54.6875 
z
" id="DejaVuSans-121"/>
       <path d="M 37.796875 64.3125 
L 12.890625 25.390625 
L 37.796875 25.390625 
z
M 35.203125 72.90625 
L 47.609375 72.90625 
L 47.609375 25.390625 
L 58.015625 25.390625 
L 58.015625 17.1875 
L 47.609375 17.1875 
L 47.609375 0 
L 37.796875 0 
L 37.796875 17.1875 
L 4.890625 17.1875 
L 4.890625 26.703125 
z
" id="DejaVuSans-52"/>
       <path d="M 9.421875 54.6875 
L 18.40625 54.6875 
L 18.40625 0 
L 9.421875 0 
z
M 9.421875 75.984375 
L 18.40625 75.984375 
L 18.40625 64.59375 
L 9.421875 64.59375 
z
" id="DejaVuSans-105"/>
       <path d="M 10.984375 1.515625 
L 10.984375 10.5 
Q 14.703125 8.734375 18.5 7.8125 
Q 22.3125 6.890625 25.984375 6.890625 
Q 35.75 6.890625 40.890625 13.453125 
Q 46.046875 20.015625 46.78125 33.40625 
Q 43.953125 29.203125 39.59375 26.953125 
Q 35.25 24.703125 29.984375 24.703125 
Q 19.046875 24.703125 12.671875 31.3125 
Q 6.296875 37.9375 6.296875 49.421875 
Q 6.296875 60.640625 12.9375 67.421875 
Q 19.578125 74.21875 30.609375 74.21875 
Q 43.265625 74.21875 49.921875 64.515625 
Q 56.59375 54.828125 56.59375 36.375 
Q 56.59375 19.140625 48.40625 8.859375 
Q 40.234375 -1.421875 26.421875 -1.421875 
Q 22.703125 -1.421875 18.890625 -0.6875 
Q 15.09375 0.046875 10.984375 1.515625 
z
M 30.609375 32.421875 
Q 37.25 32.421875 41.125 36.953125 
Q 45.015625 41.5 45.015625 49.421875 
Q 45.015625 57.28125 41.125 61.84375 
Q 37.25 66.40625 30.609375 66.40625 
Q 23.96875 66.40625 20.09375 61.84375 
Q 16.21875 57.28125 16.21875 49.421875 
Q 16.21875 41.5 20.09375 36.953125 
Q 23.96875 32.421875 30.609375 32.421875 
z
" id="DejaVuSans-57"/>
       <path d="M 10.796875 72.90625 
L 49.515625 72.90625 
L 49.515625 64.59375 
L 19.828125 64.59375 
L 19.828125 46.734375 
Q 21.96875 47.46875 24.109375 47.828125 
Q 26.265625 48.1875 28.421875 48.1875 
Q 40.625 48.1875 47.75 41.5 
Q 54.890625 34.8125 54.890625 23.390625 
Q 54.890625 11.625 47.5625 5.09375 
Q 40.234375 -1.421875 26.90625 -1.421875 
Q 22.3125 -1.421875 17.546875 -0.640625 
Q 12.796875 0.140625 7.71875 1.703125 
L 7.71875 11.625 
Q 12.109375 9.234375 16.796875 8.0625 
Q 21.484375 6.890625 26.703125 6.890625 
Q 35.15625 6.890625 40.078125 11.328125 
Q 45.015625 15.765625 45.015625 23.390625 
Q 45.015625 31 40.078125 35.4375 
Q 35.15625 39.890625 26.703125 39.890625 
Q 22.75 39.890625 18.8125 39.015625 
Q 14.890625 38.140625 10.796875 36.28125 
z
" id="DejaVuSans-53"/>
      </defs>
      <g transform="translate(79.629687 246.190969)scale(0.1 -0.1)">
       <use xlink:href="#DejaVuSans-83"/>
       <use x="63.476562" xlink:href="#DejaVuSans-97"/>
       <use x="124.755859" xlink:href="#DejaVuSans-109"/>
       <use x="222.167969" xlink:href="#DejaVuSans-115"/>
       <use x="274.267578" xlink:href="#DejaVuSans-117"/>
       <use x="337.646484" xlink:href="#DejaVuSans-110"/>
       <use x="401.025391" xlink:href="#DejaVuSans-103"/>
       <use x="464.501953" xlink:href="#DejaVuSans-32"/>
       <use x="496.289062" xlink:href="#DejaVuSans-71"/>
       <use x="573.779297" xlink:href="#DejaVuSans-97"/>
       <use x="635.058594" xlink:href="#DejaVuSans-108"/>
       <use x="662.841797" xlink:href="#DejaVuSans-97"/>
       <use x="724.121094" xlink:href="#DejaVuSans-120"/>
       <use x="783.300781" xlink:href="#DejaVuSans-121"/>
       <use x="842.480469" xlink:href="#DejaVuSans-32"/>
       <use x="874.267578" xlink:href="#DejaVuSans-83"/>
       <use x="937.744141" xlink:href="#DejaVuSans-52"/>
       <use x="1001.367188" xlink:href="#DejaVuSans-32"/>
       <use x="1033.154297" xlink:href="#DejaVuSans-105"/>
       <use x="1060.9375" xlink:href="#DejaVuSans-57"/>
       <use x="1124.560547" xlink:href="#DejaVuSans-53"/>
       <use x="1188.183594" xlink:href="#DejaVuSans-48"/>
       <use x="1251.806641" xlink:href="#DejaVuSans-48"/>
      </g>
     </g>
    </g>
    <g id="ytick_2">
     <g id="line2d_38">
      <path clip-path="url(#pc6c63a024f)" d="M 214.673437 215.21175 
L 549.473438 215.21175 
" style="fill:none;stroke:#b2b2b2;stroke-dasharray:1.85,0.8;stroke-dashoffset:0;stroke-width:0.5;"/>
     </g>
     <g id="line2d_39">
      <g>
       <use style="stroke:#000000;stroke-width:0.8;" x="214.673437" xlink:href="#m14f821cecb" y="215.21175"/>
      </g>
     </g>
     <g id="text_6">
      <!-- Samsung Galaxy S3 Mini -->
      <defs>
       <path d="M 9.8125 72.90625 
L 24.515625 72.90625 
L 43.109375 23.296875 
L 61.8125 72.90625 
L 76.515625 72.90625 
L 76.515625 0 
L 66.890625 0 
L 66.890625 64.015625 
L 48.09375 14.015625 
L 38.1875 14.015625 
L 19.390625 64.015625 
L 19.390625 0 
L 9.8125 0 
z
" id="DejaVuSans-77"/>
      </defs>
      <g transform="translate(87.335937 219.010969)scale(0.1 -0.1)">
       <use xlink:href="#DejaVuSans-83"/>
       <use x="63.476562" xlink:href="#DejaVuSans-97"/>
       <use x="124.755859" xlink:href="#DejaVuSans-109"/>
       <use x="222.167969" xlink:href="#DejaVuSans-115"/>
       <use x="274.267578" xlink:href="#DejaVuSans-117"/>
       <use x="337.646484" xlink:href="#DejaVuSans-110"/>
       <use x="401.025391" xlink:href="#DejaVuSans-103"/>
       <use x="464.501953" xlink:href="#DejaVuSans-32"/>
       <use x="496.289062" xlink:href="#DejaVuSans-71"/>
       <use x="573.779297" xlink:href="#DejaVuSans-97"/>
       <use x="635.058594" xlink:href="#DejaVuSans-108"/>
       <use x="662.841797" xlink:href="#DejaVuSans-97"/>
       <use x="724.121094" xlink:href="#DejaVuSans-120"/>
       <use x="783.300781" xlink:href="#DejaVuSans-121"/>
       <use x="842.480469" xlink:href="#DejaVuSans-32"/>
       <use x="874.267578" xlink:href="#DejaVuSans-83"/>
       <use x="937.744141" xlink:href="#DejaVuSans-51"/>
       <use x="1001.367188" xlink:href="#DejaVuSans-32"/>
       <use x="1033.154297" xlink:href="#DejaVuSans-77"/>
       <use x="1119.433594" xlink:href="#DejaVuSans-105"/>
       <use x="1147.216797" xlink:href="#DejaVuSans-110"/>
       <use x="1210.595703" xlink:href="#DejaVuSans-105"/>
      </g>
     </g>
    </g>
    <g id="ytick_3">
     <g id="line2d_40">
      <path clip-path="url(#pc6c63a024f)" d="M 214.673437 188.03175 
L 549.473438 188.03175 
" style="fill:none;stroke:#b2b2b2;stroke-dasharray:1.85,0.8;stroke-dashoffset:0;stroke-width:0.5;"/>
     </g>
     <g id="line2d_41">
      <g>
       <use style="stroke:#000000;stroke-width:0.8;" x="214.673437" xlink:href="#m14f821cecb" y="188.03175"/>
      </g>
     </g>
     <g id="text_7">
      <!-- Samsung Galaxy S4 Mini -->
      <g transform="translate(87.335937 191.830969)scale(0.1 -0.1)">
       <use xlink:href="#DejaVuSans-83"/>
       <use x="63.476562" xlink:href="#DejaVuSans-97"/>
       <use x="124.755859" xlink:href="#DejaVuSans-109"/>
       <use x="222.167969" xlink:href="#DejaVuSans-115"/>
       <use x="274.267578" xlink:href="#DejaVuSans-117"/>
       <use x="337.646484" xlink:href="#DejaVuSans-110"/>
       <use x="401.025391" xlink:href="#DejaVuSans-103"/>
       <use x="464.501953" xlink:href="#DejaVuSans-32"/>
       <use x="496.289062" xlink:href="#DejaVuSans-71"/>
       <use x="573.779297" xlink:href="#DejaVuSans-97"/>
       <use x="635.058594" xlink:href="#DejaVuSans-108"/>
       <use x="662.841797" xlink:href="#DejaVuSans-97"/>
       <use x="724.121094" xlink:href="#DejaVuSans-120"/>
       <use x="783.300781" xlink:href="#DejaVuSans-121"/>
       <use x="842.480469" xlink:href="#DejaVuSans-32"/>
       <use x="874.267578" xlink:href="#DejaVuSans-83"/>
       <use x="937.744141" xlink:href="#DejaVuSans-52"/>
       <use x="1001.367188" xlink:href="#DejaVuSans-32"/>
       <use x="1033.154297" xlink:href="#DejaVuSans-77"/>
       <use x="1119.433594" xlink:href="#DejaVuSans-105"/>
       <use x="1147.216797" xlink:href="#DejaVuSans-110"/>
       <use x="1210.595703" xlink:href="#DejaVuSans-105"/>
      </g>
     </g>
    </g>
    <g id="ytick_4">
     <g id="line2d_42">
      <path clip-path="url(#pc6c63a024f)" d="M 214.673437 160.85175 
L 549.473438 160.85175 
" style="fill:none;stroke:#b2b2b2;stroke-dasharray:1.85,0.8;stroke-dashoffset:0;stroke-width:0.5;"/>
     </g>
     <g id="line2d_43">
      <g>
       <use style="stroke:#000000;stroke-width:0.8;" x="214.673437" xlink:href="#m14f821cecb" y="160.85175"/>
      </g>
     </g>
     <g id="text_8">
      <!-- Samsung Galaxy Gran Prime 3G Duos -->
      <defs>
       <path d="M 41.109375 46.296875 
Q 39.59375 47.171875 37.8125 47.578125 
Q 36.03125 48 33.890625 48 
Q 26.265625 48 22.1875 43.046875 
Q 18.109375 38.09375 18.109375 28.8125 
L 18.109375 0 
L 9.078125 0 
L 9.078125 54.6875 
L 18.109375 54.6875 
L 18.109375 46.1875 
Q 20.953125 51.171875 25.484375 53.578125 
Q 30.03125 56 36.53125 56 
Q 37.453125 56 38.578125 55.875 
Q 39.703125 55.765625 41.0625 55.515625 
z
" id="DejaVuSans-114"/>
       <path d="M 19.671875 64.796875 
L 19.671875 37.40625 
L 32.078125 37.40625 
Q 38.96875 37.40625 42.71875 40.96875 
Q 46.484375 44.53125 46.484375 51.125 
Q 46.484375 57.671875 42.71875 61.234375 
Q 38.96875 64.796875 32.078125 64.796875 
z
M 9.8125 72.90625 
L 32.078125 72.90625 
Q 44.34375 72.90625 50.609375 67.359375 
Q 56.890625 61.8125 56.890625 51.125 
Q 56.890625 40.328125 50.609375 34.8125 
Q 44.34375 29.296875 32.078125 29.296875 
L 19.671875 29.296875 
L 19.671875 0 
L 9.8125 0 
z
" id="DejaVuSans-80"/>
       <path d="M 56.203125 29.59375 
L 56.203125 25.203125 
L 14.890625 25.203125 
Q 15.484375 15.921875 20.484375 11.0625 
Q 25.484375 6.203125 34.421875 6.203125 
Q 39.59375 6.203125 44.453125 7.46875 
Q 49.3125 8.734375 54.109375 11.28125 
L 54.109375 2.78125 
Q 49.265625 0.734375 44.1875 -0.34375 
Q 39.109375 -1.421875 33.890625 -1.421875 
Q 20.796875 -1.421875 13.15625 6.1875 
Q 5.515625 13.8125 5.515625 26.8125 
Q 5.515625 40.234375 12.765625 48.109375 
Q 20.015625 56 32.328125 56 
Q 43.359375 56 49.78125 48.890625 
Q 56.203125 41.796875 56.203125 29.59375 
z
M 47.21875 32.234375 
Q 47.125 39.59375 43.09375 43.984375 
Q 39.0625 48.390625 32.421875 48.390625 
Q 24.90625 48.390625 20.390625 44.140625 
Q 15.875 39.890625 15.1875 32.171875 
z
" id="DejaVuSans-101"/>
       <path d="M 19.671875 64.796875 
L 19.671875 8.109375 
L 31.59375 8.109375 
Q 46.6875 8.109375 53.6875 14.9375 
Q 60.6875 21.78125 60.6875 36.53125 
Q 60.6875 51.171875 53.6875 57.984375 
Q 46.6875 64.796875 31.59375 64.796875 
z
M 9.8125 72.90625 
L 30.078125 72.90625 
Q 51.265625 72.90625 61.171875 64.09375 
Q 71.09375 55.28125 71.09375 36.53125 
Q 71.09375 17.671875 61.125 8.828125 
Q 51.171875 0 30.078125 0 
L 9.8125 0 
z
" id="DejaVuSans-68"/>
       <path d="M 30.609375 48.390625 
Q 23.390625 48.390625 19.1875 42.75 
Q 14.984375 37.109375 14.984375 27.296875 
Q 14.984375 17.484375 19.15625 11.84375 
Q 23.34375 6.203125 30.609375 6.203125 
Q 37.796875 6.203125 41.984375 11.859375 
Q 46.1875 17.53125 46.1875 27.296875 
Q 46.1875 37.015625 41.984375 42.703125 
Q 37.796875 48.390625 30.609375 48.390625 
z
M 30.609375 56 
Q 42.328125 56 49.015625 48.375 
Q 55.71875 40.765625 55.71875 27.296875 
Q 55.71875 13.875 49.015625 6.21875 
Q 42.328125 -1.421875 30.609375 -1.421875 
Q 18.84375 -1.421875 12.171875 6.21875 
Q 5.515625 13.875 5.515625 27.296875 
Q 5.515625 40.765625 12.171875 48.375 
Q 18.84375 56 30.609375 56 
z
" id="DejaVuSans-111"/>
      </defs>
      <g transform="translate(21.6 164.650969)scale(0.1 -0.1)">
       <use xlink:href="#DejaVuSans-83"/>
       <use x="63.476562" xlink:href="#DejaVuSans-97"/>
       <use x="124.755859" xlink:href="#DejaVuSans-109"/>
       <use x="222.167969" xlink:href="#DejaVuSans-115"/>
       <use x="274.267578" xlink:href="#DejaVuSans-117"/>
       <use x="337.646484" xlink:href="#DejaVuSans-110"/>
       <use x="401.025391" xlink:href="#DejaVuSans-103"/>
       <use x="464.501953" xlink:href="#DejaVuSans-32"/>
       <use x="496.289062" xlink:href="#DejaVuSans-71"/>
       <use x="573.779297" xlink:href="#DejaVuSans-97"/>
       <use x="635.058594" xlink:href="#DejaVuSans-108"/>
       <use x="662.841797" xlink:href="#DejaVuSans-97"/>
       <use x="724.121094" xlink:href="#DejaVuSans-120"/>
       <use x="783.300781" xlink:href="#DejaVuSans-121"/>
       <use x="842.480469" xlink:href="#DejaVuSans-32"/>
       <use x="874.267578" xlink:href="#DejaVuSans-71"/>
       <use x="951.757812" xlink:href="#DejaVuSans-114"/>
       <use x="992.871094" xlink:href="#DejaVuSans-97"/>
       <use x="1054.150391" xlink:href="#DejaVuSans-110"/>
       <use x="1117.529297" xlink:href="#DejaVuSans-32"/>
       <use x="1149.316406" xlink:href="#DejaVuSans-80"/>
       <use x="1209.603516" xlink:href="#DejaVuSans-114"/>
       <use x="1250.716797" xlink:href="#DejaVuSans-105"/>
       <use x="1278.5" xlink:href="#DejaVuSans-109"/>
       <use x="1375.912109" xlink:href="#DejaVuSans-101"/>
       <use x="1437.435547" xlink:href="#DejaVuSans-32"/>
       <use x="1469.222656" xlink:href="#DejaVuSans-51"/>
       <use x="1532.845703" xlink:href="#DejaVuSans-71"/>
       <use x="1610.335938" xlink:href="#DejaVuSans-32"/>
       <use x="1642.123047" xlink:href="#DejaVuSans-68"/>
       <use x="1719.125" xlink:href="#DejaVuSans-117"/>
       <use x="1782.503906" xlink:href="#DejaVuSans-111"/>
       <use x="1843.685547" xlink:href="#DejaVuSans-115"/>
      </g>
     </g>
    </g>
    <g id="ytick_5">
     <g id="line2d_44">
      <path clip-path="url(#pc6c63a024f)" d="M 214.673437 133.67175 
L 549.473438 133.67175 
" style="fill:none;stroke:#b2b2b2;stroke-dasharray:1.85,0.8;stroke-dashoffset:0;stroke-width:0.5;"/>
     </g>
     <g id="line2d_45">
      <g>
       <use style="stroke:#000000;stroke-width:0.8;" x="214.673437" xlink:href="#m14f821cecb" y="133.67175"/>
      </g>
     </g>
     <g id="text_9">
      <!-- Motorola Moto E2 3G Dual -->
      <defs>
       <path d="M 18.3125 70.21875 
L 18.3125 54.6875 
L 36.8125 54.6875 
L 36.8125 47.703125 
L 18.3125 47.703125 
L 18.3125 18.015625 
Q 18.3125 11.328125 20.140625 9.421875 
Q 21.96875 7.515625 27.59375 7.515625 
L 36.8125 7.515625 
L 36.8125 0 
L 27.59375 0 
Q 17.1875 0 13.234375 3.875 
Q 9.28125 7.765625 9.28125 18.015625 
L 9.28125 47.703125 
L 2.6875 47.703125 
L 2.6875 54.6875 
L 9.28125 54.6875 
L 9.28125 70.21875 
z
" id="DejaVuSans-116"/>
       <path d="M 9.8125 72.90625 
L 55.90625 72.90625 
L 55.90625 64.59375 
L 19.671875 64.59375 
L 19.671875 43.015625 
L 54.390625 43.015625 
L 54.390625 34.71875 
L 19.671875 34.71875 
L 19.671875 8.296875 
L 56.78125 8.296875 
L 56.78125 0 
L 9.8125 0 
z
" id="DejaVuSans-69"/>
      </defs>
      <g transform="translate(80.020312 137.470969)scale(0.1 -0.1)">
       <use xlink:href="#DejaVuSans-77"/>
       <use x="86.279297" xlink:href="#DejaVuSans-111"/>
       <use x="147.460938" xlink:href="#DejaVuSans-116"/>
       <use x="186.669922" xlink:href="#DejaVuSans-111"/>
       <use x="247.851562" xlink:href="#DejaVuSans-114"/>
       <use x="288.933594" xlink:href="#DejaVuSans-111"/>
       <use x="350.115234" xlink:href="#DejaVuSans-108"/>
       <use x="377.898438" xlink:href="#DejaVuSans-97"/>
       <use x="439.177734" xlink:href="#DejaVuSans-32"/>
       <use x="470.964844" xlink:href="#DejaVuSans-77"/>
       <use x="557.244141" xlink:href="#DejaVuSans-111"/>
       <use x="618.425781" xlink:href="#DejaVuSans-116"/>
       <use x="657.634766" xlink:href="#DejaVuSans-111"/>
       <use x="718.816406" xlink:href="#DejaVuSans-32"/>
       <use x="750.603516" xlink:href="#DejaVuSans-69"/>
       <use x="813.787109" xlink:href="#DejaVuSans-50"/>
       <use x="877.410156" xlink:href="#DejaVuSans-32"/>
       <use x="909.197266" xlink:href="#DejaVuSans-51"/>
       <use x="972.820312" xlink:href="#DejaVuSans-71"/>
       <use x="1050.310547" xlink:href="#DejaVuSans-32"/>
       <use x="1082.097656" xlink:href="#DejaVuSans-68"/>
       <use x="1159.099609" xlink:href="#DejaVuSans-117"/>
       <use x="1222.478516" xlink:href="#DejaVuSans-97"/>
       <use x="1283.757812" xlink:href="#DejaVuSans-108"/>
      </g>
     </g>
    </g>
    <g id="ytick_6">
     <g id="line2d_46">
      <path clip-path="url(#pc6c63a024f)" d="M 214.673437 106.49175 
L 549.473438 106.49175 
" style="fill:none;stroke:#b2b2b2;stroke-dasharray:1.85,0.8;stroke-dashoffset:0;stroke-width:0.5;"/>
     </g>
     <g id="line2d_47">
      <g>
       <use style="stroke:#000000;stroke-width:0.8;" x="214.673437" xlink:href="#m14f821cecb" y="106.49175"/>
      </g>
     </g>
     <g id="text_10">
      <!-- Samsung Galaxy Grand Duos i9082 -->
      <defs>
       <path d="M 45.40625 46.390625 
L 45.40625 75.984375 
L 54.390625 75.984375 
L 54.390625 0 
L 45.40625 0 
L 45.40625 8.203125 
Q 42.578125 3.328125 38.25 0.953125 
Q 33.9375 -1.421875 27.875 -1.421875 
Q 17.96875 -1.421875 11.734375 6.484375 
Q 5.515625 14.40625 5.515625 27.296875 
Q 5.515625 40.1875 11.734375 48.09375 
Q 17.96875 56 27.875 56 
Q 33.9375 56 38.25 53.625 
Q 42.578125 51.265625 45.40625 46.390625 
z
M 14.796875 27.296875 
Q 14.796875 17.390625 18.875 11.75 
Q 22.953125 6.109375 30.078125 6.109375 
Q 37.203125 6.109375 41.296875 11.75 
Q 45.40625 17.390625 45.40625 27.296875 
Q 45.40625 37.203125 41.296875 42.84375 
Q 37.203125 48.484375 30.078125 48.484375 
Q 22.953125 48.484375 18.875 42.84375 
Q 14.796875 37.203125 14.796875 27.296875 
z
" id="DejaVuSans-100"/>
       <path d="M 31.78125 34.625 
Q 24.75 34.625 20.71875 30.859375 
Q 16.703125 27.09375 16.703125 20.515625 
Q 16.703125 13.921875 20.71875 10.15625 
Q 24.75 6.390625 31.78125 6.390625 
Q 38.8125 6.390625 42.859375 10.171875 
Q 46.921875 13.96875 46.921875 20.515625 
Q 46.921875 27.09375 42.890625 30.859375 
Q 38.875 34.625 31.78125 34.625 
z
M 21.921875 38.8125 
Q 15.578125 40.375 12.03125 44.71875 
Q 8.5 49.078125 8.5 55.328125 
Q 8.5 64.0625 14.71875 69.140625 
Q 20.953125 74.21875 31.78125 74.21875 
Q 42.671875 74.21875 48.875 69.140625 
Q 55.078125 64.0625 55.078125 55.328125 
Q 55.078125 49.078125 51.53125 44.71875 
Q 48 40.375 41.703125 38.8125 
Q 48.828125 37.15625 52.796875 32.3125 
Q 56.78125 27.484375 56.78125 20.515625 
Q 56.78125 9.90625 50.3125 4.234375 
Q 43.84375 -1.421875 31.78125 -1.421875 
Q 19.734375 -1.421875 13.25 4.234375 
Q 6.78125 9.90625 6.78125 20.515625 
Q 6.78125 27.484375 10.78125 32.3125 
Q 14.796875 37.15625 21.921875 38.8125 
z
M 18.3125 54.390625 
Q 18.3125 48.734375 21.84375 45.5625 
Q 25.390625 42.390625 31.78125 42.390625 
Q 38.140625 42.390625 41.71875 45.5625 
Q 45.3125 48.734375 45.3125 54.390625 
Q 45.3125 60.0625 41.71875 63.234375 
Q 38.140625 66.40625 31.78125 66.40625 
Q 25.390625 66.40625 21.84375 63.234375 
Q 18.3125 60.0625 18.3125 54.390625 
z
" id="DejaVuSans-56"/>
      </defs>
      <g transform="translate(33.123437 110.290969)scale(0.1 -0.1)">
       <use xlink:href="#DejaVuSans-83"/>
       <use x="63.476562" xlink:href="#DejaVuSans-97"/>
       <use x="124.755859" xlink:href="#DejaVuSans-109"/>
       <use x="222.167969" xlink:href="#DejaVuSans-115"/>
       <use x="274.267578" xlink:href="#DejaVuSans-117"/>
       <use x="337.646484" xlink:href="#DejaVuSans-110"/>
       <use x="401.025391" xlink:href="#DejaVuSans-103"/>
       <use x="464.501953" xlink:href="#DejaVuSans-32"/>
       <use x="496.289062" xlink:href="#DejaVuSans-71"/>
       <use x="573.779297" xlink:href="#DejaVuSans-97"/>
       <use x="635.058594" xlink:href="#DejaVuSans-108"/>
       <use x="662.841797" xlink:href="#DejaVuSans-97"/>
       <use x="724.121094" xlink:href="#DejaVuSans-120"/>
       <use x="783.300781" xlink:href="#DejaVuSans-121"/>
       <use x="842.480469" xlink:href="#DejaVuSans-32"/>
       <use x="874.267578" xlink:href="#DejaVuSans-71"/>
       <use x="951.757812" xlink:href="#DejaVuSans-114"/>
       <use x="992.871094" xlink:href="#DejaVuSans-97"/>
       <use x="1054.150391" xlink:href="#DejaVuSans-110"/>
       <use x="1117.529297" xlink:href="#DejaVuSans-100"/>
       <use x="1181.005859" xlink:href="#DejaVuSans-32"/>
       <use x="1212.792969" xlink:href="#DejaVuSans-68"/>
       <use x="1289.794922" xlink:href="#DejaVuSans-117"/>
       <use x="1353.173828" xlink:href="#DejaVuSans-111"/>
       <use x="1414.355469" xlink:href="#DejaVuSans-115"/>
       <use x="1466.455078" xlink:href="#DejaVuSans-32"/>
       <use x="1498.242188" xlink:href="#DejaVuSans-105"/>
       <use x="1526.025391" xlink:href="#DejaVuSans-57"/>
       <use x="1589.648438" xlink:href="#DejaVuSans-48"/>
       <use x="1653.271484" xlink:href="#DejaVuSans-56"/>
       <use x="1716.894531" xlink:href="#DejaVuSans-50"/>
      </g>
     </g>
    </g>
    <g id="ytick_7">
     <g id="line2d_48">
      <path clip-path="url(#pc6c63a024f)" d="M 214.673437 79.31175 
L 549.473438 79.31175 
" style="fill:none;stroke:#b2b2b2;stroke-dasharray:1.85,0.8;stroke-dashoffset:0;stroke-width:0.5;"/>
     </g>
     <g id="line2d_49">
      <g>
       <use style="stroke:#000000;stroke-width:0.8;" x="214.673437" xlink:href="#m14f821cecb" y="79.31175"/>
      </g>
     </g>
     <g id="text_11">
      <!-- Samsung Galaxy Note 3 Neo Duos -->
      <defs>
       <path d="M 9.8125 72.90625 
L 23.09375 72.90625 
L 55.421875 11.921875 
L 55.421875 72.90625 
L 64.984375 72.90625 
L 64.984375 0 
L 51.703125 0 
L 19.390625 60.984375 
L 19.390625 0 
L 9.8125 0 
z
" id="DejaVuSans-78"/>
      </defs>
      <g transform="translate(39.057812 83.110969)scale(0.1 -0.1)">
       <use xlink:href="#DejaVuSans-83"/>
       <use x="63.476562" xlink:href="#DejaVuSans-97"/>
       <use x="124.755859" xlink:href="#DejaVuSans-109"/>
       <use x="222.167969" xlink:href="#DejaVuSans-115"/>
       <use x="274.267578" xlink:href="#DejaVuSans-117"/>
       <use x="337.646484" xlink:href="#DejaVuSans-110"/>
       <use x="401.025391" xlink:href="#DejaVuSans-103"/>
       <use x="464.501953" xlink:href="#DejaVuSans-32"/>
       <use x="496.289062" xlink:href="#DejaVuSans-71"/>
       <use x="573.779297" xlink:href="#DejaVuSans-97"/>
       <use x="635.058594" xlink:href="#DejaVuSans-108"/>
       <use x="662.841797" xlink:href="#DejaVuSans-97"/>
       <use x="724.121094" xlink:href="#DejaVuSans-120"/>
       <use x="783.300781" xlink:href="#DejaVuSans-121"/>
       <use x="842.480469" xlink:href="#DejaVuSans-32"/>
       <use x="874.267578" xlink:href="#DejaVuSans-78"/>
       <use x="949.072266" xlink:href="#DejaVuSans-111"/>
       <use x="1010.253906" xlink:href="#DejaVuSans-116"/>
       <use x="1049.462891" xlink:href="#DejaVuSans-101"/>
       <use x="1110.986328" xlink:href="#DejaVuSans-32"/>
       <use x="1142.773438" xlink:href="#DejaVuSans-51"/>
       <use x="1206.396484" xlink:href="#DejaVuSans-32"/>
       <use x="1238.183594" xlink:href="#DejaVuSans-78"/>
       <use x="1312.988281" xlink:href="#DejaVuSans-101"/>
       <use x="1374.511719" xlink:href="#DejaVuSans-111"/>
       <use x="1435.693359" xlink:href="#DejaVuSans-32"/>
       <use x="1467.480469" xlink:href="#DejaVuSans-68"/>
       <use x="1544.482422" xlink:href="#DejaVuSans-117"/>
       <use x="1607.861328" xlink:href="#DejaVuSans-111"/>
       <use x="1669.042969" xlink:href="#DejaVuSans-115"/>
      </g>
     </g>
    </g>
    <g id="ytick_8">
     <g id="line2d_50">
      <path clip-path="url(#pc6c63a024f)" d="M 214.673437 52.13175 
L 549.473438 52.13175 
" style="fill:none;stroke:#b2b2b2;stroke-dasharray:1.85,0.8;stroke-dashoffset:0;stroke-width:0.5;"/>
     </g>
     <g id="line2d_51">
      <g>
       <use style="stroke:#000000;stroke-width:0.8;" x="214.673437" xlink:href="#m14f821cecb" y="52.13175"/>
      </g>
     </g>
     <g id="text_12">
      <!-- Samsung Galaxy Core 2 Duos -->
      <defs>
       <path d="M 64.40625 67.28125 
L 64.40625 56.890625 
Q 59.421875 61.53125 53.78125 63.8125 
Q 48.140625 66.109375 41.796875 66.109375 
Q 29.296875 66.109375 22.65625 58.46875 
Q 16.015625 50.828125 16.015625 36.375 
Q 16.015625 21.96875 22.65625 14.328125 
Q 29.296875 6.6875 41.796875 6.6875 
Q 48.140625 6.6875 53.78125 8.984375 
Q 59.421875 11.28125 64.40625 15.921875 
L 64.40625 5.609375 
Q 59.234375 2.09375 53.4375 0.328125 
Q 47.65625 -1.421875 41.21875 -1.421875 
Q 24.65625 -1.421875 15.125 8.703125 
Q 5.609375 18.84375 5.609375 36.375 
Q 5.609375 53.953125 15.125 64.078125 
Q 24.65625 74.21875 41.21875 74.21875 
Q 47.75 74.21875 53.53125 72.484375 
Q 59.328125 70.75 64.40625 67.28125 
z
" id="DejaVuSans-67"/>
      </defs>
      <g transform="translate(62.3 55.930969)scale(0.1 -0.1)">
       <use xlink:href="#DejaVuSans-83"/>
       <use x="63.476562" xlink:href="#DejaVuSans-97"/>
       <use x="124.755859" xlink:href="#DejaVuSans-109"/>
       <use x="222.167969" xlink:href="#DejaVuSans-115"/>
       <use x="274.267578" xlink:href="#DejaVuSans-117"/>
       <use x="337.646484" xlink:href="#DejaVuSans-110"/>
       <use x="401.025391" xlink:href="#DejaVuSans-103"/>
       <use x="464.501953" xlink:href="#DejaVuSans-32"/>
       <use x="496.289062" xlink:href="#DejaVuSans-71"/>
       <use x="573.779297" xlink:href="#DejaVuSans-97"/>
       <use x="635.058594" xlink:href="#DejaVuSans-108"/>
       <use x="662.841797" xlink:href="#DejaVuSans-97"/>
       <use x="724.121094" xlink:href="#DejaVuSans-120"/>
       <use x="783.300781" xlink:href="#DejaVuSans-121"/>
       <use x="842.480469" xlink:href="#DejaVuSans-32"/>
       <use x="874.267578" xlink:href="#DejaVuSans-67"/>
       <use x="944.091797" xlink:href="#DejaVuSans-111"/>
       <use x="1005.273438" xlink:href="#DejaVuSans-114"/>
       <use x="1046.355469" xlink:href="#DejaVuSans-101"/>
       <use x="1107.878906" xlink:href="#DejaVuSans-32"/>
       <use x="1139.666016" xlink:href="#DejaVuSans-50"/>
       <use x="1203.289062" xlink:href="#DejaVuSans-32"/>
       <use x="1235.076172" xlink:href="#DejaVuSans-68"/>
       <use x="1312.078125" xlink:href="#DejaVuSans-117"/>
       <use x="1375.457031" xlink:href="#DejaVuSans-111"/>
       <use x="1436.638672" xlink:href="#DejaVuSans-115"/>
      </g>
     </g>
    </g>
   </g>
   <g id="patch_35">
    <path d="M 214.673437 255.98175 
L 214.673437 38.54175 
" style="fill:none;stroke:#bcbcbc;stroke-linecap:square;stroke-linejoin:miter;stroke-width:0.8;"/>
   </g>
   <g id="patch_36">
    <path d="M 549.473438 255.98175 
L 549.473438 38.54175 
" style="fill:none;stroke:#bcbcbc;stroke-linecap:square;stroke-linejoin:miter;stroke-width:0.8;"/>
   </g>
   <g id="patch_37">
    <path d="M 214.673438 255.98175 
L 549.473438 255.98175 
" style="fill:none;stroke:#bcbcbc;stroke-linecap:square;stroke-linejoin:miter;stroke-width:0.8;"/>
   </g>
   <g id="patch_38">
    <path d="M 214.673438 38.54175 
L 549.473438 38.54175 
" style="fill:none;stroke:#bcbcbc;stroke-linecap:square;stroke-linejoin:miter;stroke-width:0.8;"/>
   </g>
   <g id="text_13">
    <!-- Distribucion de eventos en los modelos con mejor conversion rate -->
    <defs>
     <path d="M 48.6875 27.296875 
Q 48.6875 37.203125 44.609375 42.84375 
Q 40.53125 48.484375 33.40625 48.484375 
Q 26.265625 48.484375 22.1875 42.84375 
Q 18.109375 37.203125 18.109375 27.296875 
Q 18.109375 17.390625 22.1875 11.75 
Q 26.265625 6.109375 33.40625 6.109375 
Q 40.53125 6.109375 44.609375 11.75 
Q 48.6875 17.390625 48.6875 27.296875 
z
M 18.109375 46.390625 
Q 20.953125 51.265625 25.265625 53.625 
Q 29.59375 56 35.59375 56 
Q 45.5625 56 51.78125 48.09375 
Q 58.015625 40.1875 58.015625 27.296875 
Q 58.015625 14.40625 51.78125 6.484375 
Q 45.5625 -1.421875 35.59375 -1.421875 
Q 29.59375 -1.421875 25.265625 0.953125 
Q 20.953125 3.328125 18.109375 8.203125 
L 18.109375 0 
L 9.078125 0 
L 9.078125 75.984375 
L 18.109375 75.984375 
z
" id="DejaVuSans-98"/>
     <path d="M 48.78125 52.59375 
L 48.78125 44.1875 
Q 44.96875 46.296875 41.140625 47.34375 
Q 37.3125 48.390625 33.40625 48.390625 
Q 24.65625 48.390625 19.8125 42.84375 
Q 14.984375 37.3125 14.984375 27.296875 
Q 14.984375 17.28125 19.8125 11.734375 
Q 24.65625 6.203125 33.40625 6.203125 
Q 37.3125 6.203125 41.140625 7.25 
Q 44.96875 8.296875 48.78125 10.40625 
L 48.78125 2.09375 
Q 45.015625 0.34375 40.984375 -0.53125 
Q 36.96875 -1.421875 32.421875 -1.421875 
Q 20.0625 -1.421875 12.78125 6.34375 
Q 5.515625 14.109375 5.515625 27.296875 
Q 5.515625 40.671875 12.859375 48.328125 
Q 20.21875 56 33.015625 56 
Q 37.15625 56 41.109375 55.140625 
Q 45.0625 54.296875 48.78125 52.59375 
z
" id="DejaVuSans-99"/>
     <path d="M 2.984375 54.6875 
L 12.5 54.6875 
L 29.59375 8.796875 
L 46.6875 54.6875 
L 56.203125 54.6875 
L 35.6875 0 
L 23.484375 0 
z
" id="DejaVuSans-118"/>
     <path d="M 9.421875 54.6875 
L 18.40625 54.6875 
L 18.40625 -0.984375 
Q 18.40625 -11.421875 14.421875 -16.109375 
Q 10.453125 -20.796875 1.609375 -20.796875 
L -1.8125 -20.796875 
L -1.8125 -13.1875 
L 0.59375 -13.1875 
Q 5.71875 -13.1875 7.5625 -10.8125 
Q 9.421875 -8.453125 9.421875 -0.984375 
z
M 9.421875 75.984375 
L 18.40625 75.984375 
L 18.40625 64.59375 
L 9.421875 64.59375 
z
" id="DejaVuSans-106"/>
    </defs>
    <g transform="translate(143.288813 32.54175)scale(0.144 -0.144)">
     <use xlink:href="#DejaVuSans-68"/>
     <use x="77.001953" xlink:href="#DejaVuSans-105"/>
     <use x="104.785156" xlink:href="#DejaVuSans-115"/>
     <use x="156.884766" xlink:href="#DejaVuSans-116"/>
     <use x="196.09375" xlink:href="#DejaVuSans-114"/>
     <use x="237.207031" xlink:href="#DejaVuSans-105"/>
     <use x="264.990234" xlink:href="#DejaVuSans-98"/>
     <use x="328.466797" xlink:href="#DejaVuSans-117"/>
     <use x="391.845703" xlink:href="#DejaVuSans-99"/>
     <use x="446.826172" xlink:href="#DejaVuSans-105"/>
     <use x="474.609375" xlink:href="#DejaVuSans-111"/>
     <use x="535.791016" xlink:href="#DejaVuSans-110"/>
     <use x="599.169922" xlink:href="#DejaVuSans-32"/>
     <use x="630.957031" xlink:href="#DejaVuSans-100"/>
     <use x="694.433594" xlink:href="#DejaVuSans-101"/>
     <use x="755.957031" xlink:href="#DejaVuSans-32"/>
     <use x="787.744141" xlink:href="#DejaVuSans-101"/>
     <use x="849.267578" xlink:href="#DejaVuSans-118"/>
     <use x="908.447266" xlink:href="#DejaVuSans-101"/>
     <use x="969.970703" xlink:href="#DejaVuSans-110"/>
     <use x="1033.349609" xlink:href="#DejaVuSans-116"/>
     <use x="1072.558594" xlink:href="#DejaVuSans-111"/>
     <use x="1133.740234" xlink:href="#DejaVuSans-115"/>
     <use x="1185.839844" xlink:href="#DejaVuSans-32"/>
     <use x="1217.626953" xlink:href="#DejaVuSans-101"/>
     <use x="1279.150391" xlink:href="#DejaVuSans-110"/>
     <use x="1342.529297" xlink:href="#DejaVuSans-32"/>
     <use x="1374.316406" xlink:href="#DejaVuSans-108"/>
     <use x="1402.099609" xlink:href="#DejaVuSans-111"/>
     <use x="1463.28125" xlink:href="#DejaVuSans-115"/>
     <use x="1515.380859" xlink:href="#DejaVuSans-32"/>
     <use x="1547.167969" xlink:href="#DejaVuSans-109"/>
     <use x="1644.580078" xlink:href="#DejaVuSans-111"/>
     <use x="1705.761719" xlink:href="#DejaVuSans-100"/>
     <use x="1769.238281" xlink:href="#DejaVuSans-101"/>
     <use x="1830.761719" xlink:href="#DejaVuSans-108"/>
     <use x="1858.544922" xlink:href="#DejaVuSans-111"/>
     <use x="1919.726562" xlink:href="#DejaVuSans-115"/>
     <use x="1971.826172" xlink:href="#DejaVuSans-32"/>
     <use x="2003.613281" xlink:href="#DejaVuSans-99"/>
     <use x="2058.59375" xlink:href="#DejaVuSans-111"/>
     <use x="2119.775391" xlink:href="#DejaVuSans-110"/>
     <use x="2183.154297" xlink:href="#DejaVuSans-32"/>
     <use x="2214.941406" xlink:href="#DejaVuSans-109"/>
     <use x="2312.353516" xlink:href="#DejaVuSans-101"/>
     <use x="2373.876953" xlink:href="#DejaVuSans-106"/>
     <use x="2401.660156" xlink:href="#DejaVuSans-111"/>
     <use x="2462.841797" xlink:href="#DejaVuSans-114"/>
     <use x="2503.955078" xlink:href="#DejaVuSans-32"/>
     <use x="2535.742188" xlink:href="#DejaVuSans-99"/>
     <use x="2590.722656" xlink:href="#DejaVuSans-111"/>
     <use x="2651.904297" xlink:href="#DejaVuSans-110"/>
     <use x="2715.283203" xlink:href="#DejaVuSans-118"/>
     <use x="2774.462891" xlink:href="#DejaVuSans-101"/>
     <use x="2835.986328" xlink:href="#DejaVuSans-114"/>
     <use x="2877.099609" xlink:href="#DejaVuSans-115"/>
     <use x="2929.199219" xlink:href="#DejaVuSans-105"/>
     <use x="2956.982422" xlink:href="#DejaVuSans-111"/>
     <use x="3018.164062" xlink:href="#DejaVuSans-110"/>
     <use x="3081.542969" xlink:href="#DejaVuSans-32"/>
     <use x="3113.330078" xlink:href="#DejaVuSans-114"/>
     <use x="3154.443359" xlink:href="#DejaVuSans-97"/>
     <use x="3215.722656" xlink:href="#DejaVuSans-116"/>
     <use x="3254.931641" xlink:href="#DejaVuSans-101"/>
    </g>
   </g>
   <g id="legend_1">
    <g id="patch_39">
     <path d="M 431.264063 105.532375 
L 542.473438 105.532375 
Q 544.473438 105.532375 544.473438 103.532375 
L 544.473438 45.54175 
Q 544.473438 43.54175 542.473438 43.54175 
L 431.264063 43.54175 
Q 429.264063 43.54175 429.264063 45.54175 
L 429.264063 103.532375 
Q 429.264063 105.532375 431.264063 105.532375 
z
" style="fill:#eeeeee;opacity:0.8;stroke:#cccccc;stroke-linejoin:miter;stroke-width:0.5;"/>
    </g>
    <g id="patch_40">
     <path d="M 433.264063 55.140187 
L 453.264063 55.140187 
L 453.264063 48.140187 
L 433.264063 48.140187 
z
" style="fill:#348abd;"/>
    </g>
    <g id="text_14">
     <!-- viewed_product -->
     <defs>
      <path d="M 4.203125 54.6875 
L 13.1875 54.6875 
L 24.421875 12.015625 
L 35.59375 54.6875 
L 46.1875 54.6875 
L 57.421875 12.015625 
L 68.609375 54.6875 
L 77.59375 54.6875 
L 63.28125 0 
L 52.6875 0 
L 40.921875 44.828125 
L 29.109375 0 
L 18.5 0 
z
" id="DejaVuSans-119"/>
      <path d="M 50.984375 -16.609375 
L 50.984375 -23.578125 
L -0.984375 -23.578125 
L -0.984375 -16.609375 
z
" id="DejaVuSans-95"/>
      <path d="M 18.109375 8.203125 
L 18.109375 -20.796875 
L 9.078125 -20.796875 
L 9.078125 54.6875 
L 18.109375 54.6875 
L 18.109375 46.390625 
Q 20.953125 51.265625 25.265625 53.625 
Q 29.59375 56 35.59375 56 
Q 45.5625 56 51.78125 48.09375 
Q 58.015625 40.1875 58.015625 27.296875 
Q 58.015625 14.40625 51.78125 6.484375 
Q 45.5625 -1.421875 35.59375 -1.421875 
Q 29.59375 -1.421875 25.265625 0.953125 
Q 20.953125 3.328125 18.109375 8.203125 
z
M 48.6875 27.296875 
Q 48.6875 37.203125 44.609375 42.84375 
Q 40.53125 48.484375 33.40625 48.484375 
Q 26.265625 48.484375 22.1875 42.84375 
Q 18.109375 37.203125 18.109375 27.296875 
Q 18.109375 17.390625 22.1875 11.75 
Q 26.265625 6.109375 33.40625 6.109375 
Q 40.53125 6.109375 44.609375 11.75 
Q 48.6875 17.390625 48.6875 27.296875 
z
" id="DejaVuSans-112"/>
     </defs>
     <g transform="translate(461.264063 55.140187)scale(0.1 -0.1)">
      <use xlink:href="#DejaVuSans-118"/>
      <use x="59.179688" xlink:href="#DejaVuSans-105"/>
      <use x="86.962891" xlink:href="#DejaVuSans-101"/>
      <use x="148.486328" xlink:href="#DejaVuSans-119"/>
      <use x="230.273438" xlink:href="#DejaVuSans-101"/>
      <use x="291.796875" xlink:href="#DejaVuSans-100"/>
      <use x="355.273438" xlink:href="#DejaVuSans-95"/>
      <use x="405.273438" xlink:href="#DejaVuSans-112"/>
      <use x="468.75" xlink:href="#DejaVuSans-114"/>
      <use x="509.832031" xlink:href="#DejaVuSans-111"/>
      <use x="571.013672" xlink:href="#DejaVuSans-100"/>
      <use x="634.490234" xlink:href="#DejaVuSans-117"/>
      <use x="697.869141" xlink:href="#DejaVuSans-99"/>
      <use x="752.849609" xlink:href="#DejaVuSans-116"/>
     </g>
    </g>
    <g id="patch_41">
     <path d="M 433.264063 70.096437 
L 453.264063 70.096437 
L 453.264063 63.096437 
L 433.264063 63.096437 
z
" style="fill:#a60628;"/>
    </g>
    <g id="text_15">
     <!-- checkout -->
     <defs>
      <path d="M 54.890625 33.015625 
L 54.890625 0 
L 45.90625 0 
L 45.90625 32.71875 
Q 45.90625 40.484375 42.875 44.328125 
Q 39.84375 48.1875 33.796875 48.1875 
Q 26.515625 48.1875 22.3125 43.546875 
Q 18.109375 38.921875 18.109375 30.90625 
L 18.109375 0 
L 9.078125 0 
L 9.078125 75.984375 
L 18.109375 75.984375 
L 18.109375 46.1875 
Q 21.34375 51.125 25.703125 53.5625 
Q 30.078125 56 35.796875 56 
Q 45.21875 56 50.046875 50.171875 
Q 54.890625 44.34375 54.890625 33.015625 
z
" id="DejaVuSans-104"/>
      <path d="M 9.078125 75.984375 
L 18.109375 75.984375 
L 18.109375 31.109375 
L 44.921875 54.6875 
L 56.390625 54.6875 
L 27.390625 29.109375 
L 57.625 0 
L 45.90625 0 
L 18.109375 26.703125 
L 18.109375 0 
L 9.078125 0 
z
" id="DejaVuSans-107"/>
     </defs>
     <g transform="translate(461.264063 70.096437)scale(0.1 -0.1)">
      <use xlink:href="#DejaVuSans-99"/>
      <use x="54.980469" xlink:href="#DejaVuSans-104"/>
      <use x="118.359375" xlink:href="#DejaVuSans-101"/>
      <use x="179.882812" xlink:href="#DejaVuSans-99"/>
      <use x="234.863281" xlink:href="#DejaVuSans-107"/>
      <use x="292.726562" xlink:href="#DejaVuSans-111"/>
      <use x="353.908203" xlink:href="#DejaVuSans-117"/>
      <use x="417.287109" xlink:href="#DejaVuSans-116"/>
     </g>
    </g>
    <g id="patch_42">
     <path d="M 433.264063 84.774563 
L 453.264063 84.774563 
L 453.264063 77.774563 
L 433.264063 77.774563 
z
" style="fill:#7a68a6;"/>
    </g>
    <g id="text_16">
     <!-- conversion -->
     <g transform="translate(461.264063 84.774563)scale(0.1 -0.1)">
      <use xlink:href="#DejaVuSans-99"/>
      <use x="54.980469" xlink:href="#DejaVuSans-111"/>
      <use x="116.162109" xlink:href="#DejaVuSans-110"/>
      <use x="179.541016" xlink:href="#DejaVuSans-118"/>
      <use x="238.720703" xlink:href="#DejaVuSans-101"/>
      <use x="300.244141" xlink:href="#DejaVuSans-114"/>
      <use x="341.357422" xlink:href="#DejaVuSans-115"/>
      <use x="393.457031" xlink:href="#DejaVuSans-105"/>
      <use x="421.240234" xlink:href="#DejaVuSans-111"/>
      <use x="482.421875" xlink:href="#DejaVuSans-110"/>
     </g>
    </g>
    <g id="patch_43">
     <path d="M 433.264063 99.452687 
L 453.264063 99.452687 
L 453.264063 92.452687 
L 433.264063 92.452687 
z
" style="fill:#467821;"/>
    </g>
    <g id="text_17">
     <!-- lead -->
     <g transform="translate(461.264063 99.452687)scale(0.1 -0.1)">
      <use xlink:href="#DejaVuSans-108"/>
      <use x="27.783203" xlink:href="#DejaVuSans-101"/>
      <use x="89.306641" xlink:href="#DejaVuSans-97"/>
      <use x="150.585938" xlink:href="#DejaVuSans-100"/>
     </g>
    </g>
   </g>
  </g>
 </g>
 <defs>
  <clipPath id="pc6c63a024f">
   <rect height="217.44" width="334.8" x="214.673437" y="38.54175"/>
  </clipPath>
 </defs>
</svg>
