<?xml version="1.0" encoding="utf-8" standalone="no"?>
<!DOCTYPE svg PUBLIC "-//W3C//DTD SVG 1.1//EN"
  "http://www.w3.org/Graphics/SVG/1.1/DTD/svg11.dtd">
<!-- Created with matplotlib (http://matplotlib.org/) -->
<svg height="288pt" version="1.1" viewBox="0 0 432 288" width="432pt" xmlns="http://www.w3.org/2000/svg" xmlns:xlink="http://www.w3.org/1999/xlink">
 <defs>
  <style type="text/css">
*{stroke-linecap:butt;stroke-linejoin:round;}
  </style>
 </defs>
 <g id="figure_1">
  <g id="patch_1">
   <path d="M 0 288 
L 432 288 
L 432 0 
L 0 0 
z
" style="fill:#ffffff;"/>
  </g>
  <g id="axes_1">
   <g id="patch_2">
    <path d="M 355.32 143.28 
C 355.32 130.997518 351.314008 118.853204 343.566458 107.648699 
C 335.818909 96.444195 324.504107 86.431582 310.368941 78.271789 
C 296.233776 70.111997 279.596261 63.988607 261.554636 60.305822 
C 243.513011 56.623037 224.473179 55.463713 205.691956 56.904377 
C 186.910732 58.345042 168.81066 62.353282 152.586521 68.664514 
C 136.362381 74.975747 122.379189 83.447981 111.55997 93.521966 
C 100.740751 103.595952 93.328919 115.045042 89.813727 127.113486 
C 86.298535 139.181929 86.759068 151.598207 91.164926 163.542726 
L 221.4 143.28 
L 355.32 143.28 
z
" style="fill:#348abd;"/>
   </g>
   <g id="patch_3">
    <path d="M 91.164926 163.542726 
C 95.57937 175.510518 103.85492 186.734666 115.443222 196.471434 
C 127.031523 206.208201 141.670839 214.237672 158.391136 220.027794 
C 175.111433 225.817916 193.535062 229.237912 212.441232 230.061167 
C 231.347403 230.884422 250.309096 229.092341 268.069867 224.803671 
L 221.4 143.28 
L 91.164926 163.542726 
z
" style="fill:#a60628;"/>
   </g>
   <g id="patch_4">
    <path d="M 268.069867 224.803671 
C 286.176107 220.431581 302.613268 213.566489 316.25026 204.680801 
C 329.887252 195.795112 340.403933 185.09743 347.07662 173.323891 
L 221.4 143.28 
L 268.069867 224.803671 
z
" style="fill:#7a68a6;"/>
   </g>
   <g id="patch_5">
    <path d="M 347.07662 173.323891 
C 348.184582 171.36896 349.184046 169.388808 350.073077 167.387267 
C 350.962108 165.385725 351.740132 163.364086 352.405645 161.326261 
L 221.4 143.28 
L 347.07662 173.323891 
z
" style="fill:#467821;"/>
   </g>
   <g id="patch_6">
    <path d="M 352.405645 161.326261 
C 352.950136 159.659008 353.419052 157.981722 353.811788 156.296574 
C 354.204523 154.611427 354.520908 152.919146 354.760531 151.221924 
L 221.4 143.28 
L 352.405645 161.326261 
z
" style="fill:#d55e00;"/>
   </g>
   <g id="patch_7">
    <path d="M 354.760531 151.221924 
C 354.920273 150.090488 355.045864 148.957128 355.137231 147.822496 
C 355.228598 146.687864 355.285724 145.552178 355.308575 144.416092 
L 221.4 143.28 
L 354.760531 151.221924 
z
" style="fill:#cc79a7;"/>
   </g>
   <g id="patch_8">
    <path d="M 355.308575 144.416092 
C 355.312383 144.226751 355.31524 144.037401 355.317144 143.848047 
C 355.319048 143.658694 355.32 143.469336 355.32 143.279978 
L 221.4 143.28 
L 355.308575 144.416092 
z
" style="fill:#56b4e9;"/>
   </g>
   <g id="matplotlib.axis_1"/>
   <g id="matplotlib.axis_2"/>
   <g id="text_1">
    <!-- samsung -->
    <defs>
     <path d="M 44.28125 53.078125 
L 44.28125 44.578125 
Q 40.484375 46.53125 36.375 47.5 
Q 32.28125 48.484375 27.875 48.484375 
Q 21.1875 48.484375 17.84375 46.4375 
Q 14.5 44.390625 14.5 40.28125 
Q 14.5 37.15625 16.890625 35.375 
Q 19.28125 33.59375 26.515625 31.984375 
L 29.59375 31.296875 
Q 39.15625 29.25 43.1875 25.515625 
Q 47.21875 21.78125 47.21875 15.09375 
Q 47.21875 7.46875 41.1875 3.015625 
Q 35.15625 -1.421875 24.609375 -1.421875 
Q 20.21875 -1.421875 15.453125 -0.5625 
Q 10.6875 0.296875 5.421875 2 
L 5.421875 11.28125 
Q 10.40625 8.6875 15.234375 7.390625 
Q 20.0625 6.109375 24.8125 6.109375 
Q 31.15625 6.109375 34.5625 8.28125 
Q 37.984375 10.453125 37.984375 14.40625 
Q 37.984375 18.0625 35.515625 20.015625 
Q 33.0625 21.96875 24.703125 23.78125 
L 21.578125 24.515625 
Q 13.234375 26.265625 9.515625 29.90625 
Q 5.8125 33.546875 5.8125 39.890625 
Q 5.8125 47.609375 11.28125 51.796875 
Q 16.75 56 26.8125 56 
Q 31.78125 56 36.171875 55.265625 
Q 40.578125 54.546875 44.28125 53.078125 
z
" id="DejaVuSans-73"/>
     <path d="M 34.28125 27.484375 
Q 23.390625 27.484375 19.1875 25 
Q 14.984375 22.515625 14.984375 16.5 
Q 14.984375 11.71875 18.140625 8.90625 
Q 21.296875 6.109375 26.703125 6.109375 
Q 34.1875 6.109375 38.703125 11.40625 
Q 43.21875 16.703125 43.21875 25.484375 
L 43.21875 27.484375 
z
M 52.203125 31.203125 
L 52.203125 0 
L 43.21875 0 
L 43.21875 8.296875 
Q 40.140625 3.328125 35.546875 0.953125 
Q 30.953125 -1.421875 24.3125 -1.421875 
Q 15.921875 -1.421875 10.953125 3.296875 
Q 6 8.015625 6 15.921875 
Q 6 25.140625 12.171875 29.828125 
Q 18.359375 34.515625 30.609375 34.515625 
L 43.21875 34.515625 
L 43.21875 35.40625 
Q 43.21875 41.609375 39.140625 45 
Q 35.0625 48.390625 27.6875 48.390625 
Q 23 48.390625 18.546875 47.265625 
Q 14.109375 46.140625 10.015625 43.890625 
L 10.015625 52.203125 
Q 14.9375 54.109375 19.578125 55.046875 
Q 24.21875 56 28.609375 56 
Q 40.484375 56 46.34375 49.84375 
Q 52.203125 43.703125 52.203125 31.203125 
z
" id="DejaVuSans-61"/>
     <path d="M 52 44.1875 
Q 55.375 50.25 60.0625 53.125 
Q 64.75 56 71.09375 56 
Q 79.640625 56 84.28125 50.015625 
Q 88.921875 44.046875 88.921875 33.015625 
L 88.921875 0 
L 79.890625 0 
L 79.890625 32.71875 
Q 79.890625 40.578125 77.09375 44.375 
Q 74.3125 48.1875 68.609375 48.1875 
Q 61.625 48.1875 57.5625 43.546875 
Q 53.515625 38.921875 53.515625 30.90625 
L 53.515625 0 
L 44.484375 0 
L 44.484375 32.71875 
Q 44.484375 40.625 41.703125 44.40625 
Q 38.921875 48.1875 33.109375 48.1875 
Q 26.21875 48.1875 22.15625 43.53125 
Q 18.109375 38.875 18.109375 30.90625 
L 18.109375 0 
L 9.078125 0 
L 9.078125 54.6875 
L 18.109375 54.6875 
L 18.109375 46.1875 
Q 21.1875 51.21875 25.484375 53.609375 
Q 29.78125 56 35.6875 56 
Q 41.65625 56 45.828125 52.96875 
Q 50 49.953125 52 44.1875 
z
" id="DejaVuSans-6d"/>
     <path d="M 8.5 21.578125 
L 8.5 54.6875 
L 17.484375 54.6875 
L 17.484375 21.921875 
Q 17.484375 14.15625 20.5 10.265625 
Q 23.53125 6.390625 29.59375 6.390625 
Q 36.859375 6.390625 41.078125 11.03125 
Q 45.3125 15.671875 45.3125 23.6875 
L 45.3125 54.6875 
L 54.296875 54.6875 
L 54.296875 0 
L 45.3125 0 
L 45.3125 8.40625 
Q 42.046875 3.421875 37.71875 1 
Q 33.40625 -1.421875 27.6875 -1.421875 
Q 18.265625 -1.421875 13.375 4.4375 
Q 8.5 10.296875 8.5 21.578125 
z
M 31.109375 56 
z
" id="DejaVuSans-75"/>
     <path d="M 54.890625 33.015625 
L 54.890625 0 
L 45.90625 0 
L 45.90625 32.71875 
Q 45.90625 40.484375 42.875 44.328125 
Q 39.84375 48.1875 33.796875 48.1875 
Q 26.515625 48.1875 22.3125 43.546875 
Q 18.109375 38.921875 18.109375 30.90625 
L 18.109375 0 
L 9.078125 0 
L 9.078125 54.6875 
L 18.109375 54.6875 
L 18.109375 46.1875 
Q 21.34375 51.125 25.703125 53.5625 
Q 30.078125 56 35.796875 56 
Q 45.21875 56 50.046875 50.171875 
Q 54.890625 44.34375 54.890625 33.015625 
z
" id="DejaVuSans-6e"/>
     <path d="M 45.40625 27.984375 
Q 45.40625 37.75 41.375 43.109375 
Q 37.359375 48.484375 30.078125 48.484375 
Q 22.859375 48.484375 18.828125 43.109375 
Q 14.796875 37.75 14.796875 27.984375 
Q 14.796875 18.265625 18.828125 12.890625 
Q 22.859375 7.515625 30.078125 7.515625 
Q 37.359375 7.515625 41.375 12.890625 
Q 45.40625 18.265625 45.40625 27.984375 
z
M 54.390625 6.78125 
Q 54.390625 -7.171875 48.1875 -13.984375 
Q 42 -20.796875 29.203125 -20.796875 
Q 24.46875 -20.796875 20.265625 -20.09375 
Q 16.0625 -19.390625 12.109375 -17.921875 
L 12.109375 -9.1875 
Q 16.0625 -11.328125 19.921875 -12.34375 
Q 23.78125 -13.375 27.78125 -13.375 
Q 36.625 -13.375 41.015625 -8.765625 
Q 45.40625 -4.15625 45.40625 5.171875 
L 45.40625 9.625 
Q 42.625 4.78125 38.28125 2.390625 
Q 33.9375 0 27.875 0 
Q 17.828125 0 11.671875 7.65625 
Q 5.515625 15.328125 5.515625 27.984375 
Q 5.515625 40.671875 11.671875 48.328125 
Q 17.828125 56 27.875 56 
Q 33.9375 56 38.28125 53.609375 
Q 42.625 51.21875 45.40625 46.390625 
L 45.40625 54.6875 
L 54.390625 54.6875 
z
" id="DejaVuSans-67"/>
    </defs>
    <g transform="translate(158.810214 51.02619)scale(0.1 -0.1)">
     <use xlink:href="#DejaVuSans-73"/>
     <use x="52.099609" xlink:href="#DejaVuSans-61"/>
     <use x="113.378906" xlink:href="#DejaVuSans-6d"/>
     <use x="210.791016" xlink:href="#DejaVuSans-73"/>
     <use x="262.890625" xlink:href="#DejaVuSans-75"/>
     <use x="326.269531" xlink:href="#DejaVuSans-6e"/>
     <use x="389.648438" xlink:href="#DejaVuSans-67"/>
    </g>
   </g>
   <g id="text_2">
    <!-- apple -->
    <defs>
     <path d="M 18.109375 8.203125 
L 18.109375 -20.796875 
L 9.078125 -20.796875 
L 9.078125 54.6875 
L 18.109375 54.6875 
L 18.109375 46.390625 
Q 20.953125 51.265625 25.265625 53.625 
Q 29.59375 56 35.59375 56 
Q 45.5625 56 51.78125 48.09375 
Q 58.015625 40.1875 58.015625 27.296875 
Q 58.015625 14.40625 51.78125 6.484375 
Q 45.5625 -1.421875 35.59375 -1.421875 
Q 29.59375 -1.421875 25.265625 0.953125 
Q 20.953125 3.328125 18.109375 8.203125 
z
M 48.6875 27.296875 
Q 48.6875 37.203125 44.609375 42.84375 
Q 40.53125 48.484375 33.40625 48.484375 
Q 26.265625 48.484375 22.1875 42.84375 
Q 18.109375 37.203125 18.109375 27.296875 
Q 18.109375 17.390625 22.1875 11.75 
Q 26.265625 6.109375 33.40625 6.109375 
Q 40.53125 6.109375 44.609375 11.75 
Q 48.6875 17.390625 48.6875 27.296875 
z
" id="DejaVuSans-70"/>
     <path d="M 9.421875 75.984375 
L 18.40625 75.984375 
L 18.40625 0 
L 9.421875 0 
z
" id="DejaVuSans-6c"/>
     <path d="M 56.203125 29.59375 
L 56.203125 25.203125 
L 14.890625 25.203125 
Q 15.484375 15.921875 20.484375 11.0625 
Q 25.484375 6.203125 34.421875 6.203125 
Q 39.59375 6.203125 44.453125 7.46875 
Q 49.3125 8.734375 54.109375 11.28125 
L 54.109375 2.78125 
Q 49.265625 0.734375 44.1875 -0.34375 
Q 39.109375 -1.421875 33.890625 -1.421875 
Q 20.796875 -1.421875 13.15625 6.1875 
Q 5.515625 13.8125 5.515625 26.8125 
Q 5.515625 40.234375 12.765625 48.109375 
Q 20.015625 56 32.328125 56 
Q 43.359375 56 49.78125 48.890625 
Q 56.203125 41.796875 56.203125 29.59375 
z
M 47.21875 32.234375 
Q 47.125 39.59375 43.09375 43.984375 
Q 39.0625 48.390625 32.421875 48.390625 
Q 24.90625 48.390625 20.390625 44.140625 
Q 15.875 39.890625 15.1875 32.171875 
z
" id="DejaVuSans-65"/>
    </defs>
    <g transform="translate(124.333999 230.461948)scale(0.1 -0.1)">
     <use xlink:href="#DejaVuSans-61"/>
     <use x="61.279297" xlink:href="#DejaVuSans-70"/>
     <use x="124.755859" xlink:href="#DejaVuSans-70"/>
     <use x="188.232422" xlink:href="#DejaVuSans-6c"/>
     <use x="216.015625" xlink:href="#DejaVuSans-65"/>
    </g>
   </g>
   <g id="text_3">
    <!-- motorola -->
    <defs>
     <path d="M 30.609375 48.390625 
Q 23.390625 48.390625 19.1875 42.75 
Q 14.984375 37.109375 14.984375 27.296875 
Q 14.984375 17.484375 19.15625 11.84375 
Q 23.34375 6.203125 30.609375 6.203125 
Q 37.796875 6.203125 41.984375 11.859375 
Q 46.1875 17.53125 46.1875 27.296875 
Q 46.1875 37.015625 41.984375 42.703125 
Q 37.796875 48.390625 30.609375 48.390625 
z
M 30.609375 56 
Q 42.328125 56 49.015625 48.375 
Q 55.71875 40.765625 55.71875 27.296875 
Q 55.71875 13.875 49.015625 6.21875 
Q 42.328125 -1.421875 30.609375 -1.421875 
Q 18.84375 -1.421875 12.171875 6.21875 
Q 5.515625 13.875 5.515625 27.296875 
Q 5.515625 40.765625 12.171875 48.375 
Q 18.84375 56 30.609375 56 
z
" id="DejaVuSans-6f"/>
     <path d="M 18.3125 70.21875 
L 18.3125 54.6875 
L 36.8125 54.6875 
L 36.8125 47.703125 
L 18.3125 47.703125 
L 18.3125 18.015625 
Q 18.3125 11.328125 20.140625 9.421875 
Q 21.96875 7.515625 27.59375 7.515625 
L 36.8125 7.515625 
L 36.8125 0 
L 27.59375 0 
Q 17.1875 0 13.234375 3.875 
Q 9.28125 7.765625 9.28125 18.015625 
L 9.28125 47.703125 
L 2.6875 47.703125 
L 2.6875 54.6875 
L 9.28125 54.6875 
L 9.28125 70.21875 
z
" id="DejaVuSans-74"/>
     <path d="M 41.109375 46.296875 
Q 39.59375 47.171875 37.8125 47.578125 
Q 36.03125 48 33.890625 48 
Q 26.265625 48 22.1875 43.046875 
Q 18.109375 38.09375 18.109375 28.8125 
L 18.109375 0 
L 9.078125 0 
L 9.078125 54.6875 
L 18.109375 54.6875 
L 18.109375 46.1875 
Q 20.953125 51.171875 25.484375 53.578125 
Q 30.03125 56 36.53125 56 
Q 37.453125 56 38.578125 55.875 
Q 39.703125 55.765625 41.0625 55.515625 
z
" id="DejaVuSans-72"/>
    </defs>
    <g transform="translate(325.735286 213.580256)scale(0.1 -0.1)">
     <use xlink:href="#DejaVuSans-6d"/>
     <use x="97.412109" xlink:href="#DejaVuSans-6f"/>
     <use x="158.59375" xlink:href="#DejaVuSans-74"/>
     <use x="197.802734" xlink:href="#DejaVuSans-6f"/>
     <use x="258.984375" xlink:href="#DejaVuSans-72"/>
     <use x="300.066406" xlink:href="#DejaVuSans-6f"/>
     <use x="361.248047" xlink:href="#DejaVuSans-6c"/>
     <use x="389.03125" xlink:href="#DejaVuSans-61"/>
    </g>
   </g>
   <g id="text_4">
    <!-- sony -->
    <defs>
     <path d="M 32.171875 -5.078125 
Q 28.375 -14.84375 24.75 -17.8125 
Q 21.140625 -20.796875 15.09375 -20.796875 
L 7.90625 -20.796875 
L 7.90625 -13.28125 
L 13.1875 -13.28125 
Q 16.890625 -13.28125 18.9375 -11.515625 
Q 21 -9.765625 23.484375 -3.21875 
L 25.09375 0.875 
L 2.984375 54.6875 
L 12.5 54.6875 
L 29.59375 11.921875 
L 46.6875 54.6875 
L 56.203125 54.6875 
z
" id="DejaVuSans-79"/>
    </defs>
    <g transform="translate(362.940385 172.557368)scale(0.1 -0.1)">
     <use xlink:href="#DejaVuSans-73"/>
     <use x="52.099609" xlink:href="#DejaVuSans-6f"/>
     <use x="113.28125" xlink:href="#DejaVuSans-6e"/>
     <use x="176.660156" xlink:href="#DejaVuSans-79"/>
    </g>
   </g>
   <g id="text_5">
    <!-- lg -->
    <g transform="translate(367.052967 160.357607)scale(0.1 -0.1)">
     <use xlink:href="#DejaVuSans-6c"/>
     <use x="27.783203" xlink:href="#DejaVuSans-67"/>
    </g>
   </g>
   <g id="text_6">
    <!-- lenovo -->
    <defs>
     <path d="M 2.984375 54.6875 
L 12.5 54.6875 
L 29.59375 8.796875 
L 46.6875 54.6875 
L 56.203125 54.6875 
L 35.6875 0 
L 23.484375 0 
z
" id="DejaVuSans-76"/>
    </defs>
    <g transform="translate(368.510954 151.03612)scale(0.1 -0.1)">
     <use xlink:href="#DejaVuSans-6c"/>
     <use x="27.783203" xlink:href="#DejaVuSans-65"/>
     <use x="89.306641" xlink:href="#DejaVuSans-6e"/>
     <use x="152.685547" xlink:href="#DejaVuSans-6f"/>
     <use x="213.867188" xlink:href="#DejaVuSans-76"/>
     <use x="273.046875" xlink:href="#DejaVuSans-6f"/>
    </g>
   </g>
   <g id="text_7">
    <!-- asus -->
    <g transform="translate(368.708858 146.664227)scale(0.1 -0.1)">
     <use xlink:href="#DejaVuSans-61"/>
     <use x="61.279297" xlink:href="#DejaVuSans-73"/>
     <use x="113.378906" xlink:href="#DejaVuSans-75"/>
     <use x="176.757812" xlink:href="#DejaVuSans-73"/>
    </g>
   </g>
   <g id="text_8">
    <!-- Marcas mas buscadas y compradas a traves de motor de busqueda -->
    <defs>
     <path d="M 9.8125 72.90625 
L 24.515625 72.90625 
L 43.109375 23.296875 
L 61.8125 72.90625 
L 76.515625 72.90625 
L 76.515625 0 
L 66.890625 0 
L 66.890625 64.015625 
L 48.09375 14.015625 
L 38.1875 14.015625 
L 19.390625 64.015625 
L 19.390625 0 
L 9.8125 0 
z
" id="DejaVuSans-4d"/>
     <path d="M 48.78125 52.59375 
L 48.78125 44.1875 
Q 44.96875 46.296875 41.140625 47.34375 
Q 37.3125 48.390625 33.40625 48.390625 
Q 24.65625 48.390625 19.8125 42.84375 
Q 14.984375 37.3125 14.984375 27.296875 
Q 14.984375 17.28125 19.8125 11.734375 
Q 24.65625 6.203125 33.40625 6.203125 
Q 37.3125 6.203125 41.140625 7.25 
Q 44.96875 8.296875 48.78125 10.40625 
L 48.78125 2.09375 
Q 45.015625 0.34375 40.984375 -0.53125 
Q 36.96875 -1.421875 32.421875 -1.421875 
Q 20.0625 -1.421875 12.78125 6.34375 
Q 5.515625 14.109375 5.515625 27.296875 
Q 5.515625 40.671875 12.859375 48.328125 
Q 20.21875 56 33.015625 56 
Q 37.15625 56 41.109375 55.140625 
Q 45.0625 54.296875 48.78125 52.59375 
z
" id="DejaVuSans-63"/>
     <path id="DejaVuSans-20"/>
     <path d="M 48.6875 27.296875 
Q 48.6875 37.203125 44.609375 42.84375 
Q 40.53125 48.484375 33.40625 48.484375 
Q 26.265625 48.484375 22.1875 42.84375 
Q 18.109375 37.203125 18.109375 27.296875 
Q 18.109375 17.390625 22.1875 11.75 
Q 26.265625 6.109375 33.40625 6.109375 
Q 40.53125 6.109375 44.609375 11.75 
Q 48.6875 17.390625 48.6875 27.296875 
z
M 18.109375 46.390625 
Q 20.953125 51.265625 25.265625 53.625 
Q 29.59375 56 35.59375 56 
Q 45.5625 56 51.78125 48.09375 
Q 58.015625 40.1875 58.015625 27.296875 
Q 58.015625 14.40625 51.78125 6.484375 
Q 45.5625 -1.421875 35.59375 -1.421875 
Q 29.59375 -1.421875 25.265625 0.953125 
Q 20.953125 3.328125 18.109375 8.203125 
L 18.109375 0 
L 9.078125 0 
L 9.078125 75.984375 
L 18.109375 75.984375 
z
" id="DejaVuSans-62"/>
     <path d="M 45.40625 46.390625 
L 45.40625 75.984375 
L 54.390625 75.984375 
L 54.390625 0 
L 45.40625 0 
L 45.40625 8.203125 
Q 42.578125 3.328125 38.25 0.953125 
Q 33.9375 -1.421875 27.875 -1.421875 
Q 17.96875 -1.421875 11.734375 6.484375 
Q 5.515625 14.40625 5.515625 27.296875 
Q 5.515625 40.1875 11.734375 48.09375 
Q 17.96875 56 27.875 56 
Q 33.9375 56 38.25 53.625 
Q 42.578125 51.265625 45.40625 46.390625 
z
M 14.796875 27.296875 
Q 14.796875 17.390625 18.875 11.75 
Q 22.953125 6.109375 30.078125 6.109375 
Q 37.203125 6.109375 41.296875 11.75 
Q 45.40625 17.390625 45.40625 27.296875 
Q 45.40625 37.203125 41.296875 42.84375 
Q 37.203125 48.484375 30.078125 48.484375 
Q 22.953125 48.484375 18.875 42.84375 
Q 14.796875 37.203125 14.796875 27.296875 
z
" id="DejaVuSans-64"/>
     <path d="M 14.796875 27.296875 
Q 14.796875 17.390625 18.875 11.75 
Q 22.953125 6.109375 30.078125 6.109375 
Q 37.203125 6.109375 41.296875 11.75 
Q 45.40625 17.390625 45.40625 27.296875 
Q 45.40625 37.203125 41.296875 42.84375 
Q 37.203125 48.484375 30.078125 48.484375 
Q 22.953125 48.484375 18.875 42.84375 
Q 14.796875 37.203125 14.796875 27.296875 
z
M 45.40625 8.203125 
Q 42.578125 3.328125 38.25 0.953125 
Q 33.9375 -1.421875 27.875 -1.421875 
Q 17.96875 -1.421875 11.734375 6.484375 
Q 5.515625 14.40625 5.515625 27.296875 
Q 5.515625 40.1875 11.734375 48.09375 
Q 17.96875 56 27.875 56 
Q 33.9375 56 38.25 53.625 
Q 42.578125 51.265625 45.40625 46.390625 
L 45.40625 54.6875 
L 54.390625 54.6875 
L 54.390625 -20.796875 
L 45.40625 -20.796875 
z
" id="DejaVuSans-71"/>
    </defs>
    <g transform="translate(-22.75875 28.56)scale(0.144 -0.144)">
     <use xlink:href="#DejaVuSans-4d"/>
     <use x="86.279297" xlink:href="#DejaVuSans-61"/>
     <use x="147.558594" xlink:href="#DejaVuSans-72"/>
     <use x="188.640625" xlink:href="#DejaVuSans-63"/>
     <use x="243.621094" xlink:href="#DejaVuSans-61"/>
     <use x="304.900391" xlink:href="#DejaVuSans-73"/>
     <use x="357" xlink:href="#DejaVuSans-20"/>
     <use x="388.787109" xlink:href="#DejaVuSans-6d"/>
     <use x="486.199219" xlink:href="#DejaVuSans-61"/>
     <use x="547.478516" xlink:href="#DejaVuSans-73"/>
     <use x="599.578125" xlink:href="#DejaVuSans-20"/>
     <use x="631.365234" xlink:href="#DejaVuSans-62"/>
     <use x="694.841797" xlink:href="#DejaVuSans-75"/>
     <use x="758.220703" xlink:href="#DejaVuSans-73"/>
     <use x="810.320312" xlink:href="#DejaVuSans-63"/>
     <use x="865.300781" xlink:href="#DejaVuSans-61"/>
     <use x="926.580078" xlink:href="#DejaVuSans-64"/>
     <use x="990.056641" xlink:href="#DejaVuSans-61"/>
     <use x="1051.335938" xlink:href="#DejaVuSans-73"/>
     <use x="1103.435547" xlink:href="#DejaVuSans-20"/>
     <use x="1135.222656" xlink:href="#DejaVuSans-79"/>
     <use x="1194.402344" xlink:href="#DejaVuSans-20"/>
     <use x="1226.189453" xlink:href="#DejaVuSans-63"/>
     <use x="1281.169922" xlink:href="#DejaVuSans-6f"/>
     <use x="1342.351562" xlink:href="#DejaVuSans-6d"/>
     <use x="1439.763672" xlink:href="#DejaVuSans-70"/>
     <use x="1503.240234" xlink:href="#DejaVuSans-72"/>
     <use x="1544.353516" xlink:href="#DejaVuSans-61"/>
     <use x="1605.632812" xlink:href="#DejaVuSans-64"/>
     <use x="1669.109375" xlink:href="#DejaVuSans-61"/>
     <use x="1730.388672" xlink:href="#DejaVuSans-73"/>
     <use x="1782.488281" xlink:href="#DejaVuSans-20"/>
     <use x="1814.275391" xlink:href="#DejaVuSans-61"/>
     <use x="1875.554688" xlink:href="#DejaVuSans-20"/>
     <use x="1907.341797" xlink:href="#DejaVuSans-74"/>
     <use x="1946.550781" xlink:href="#DejaVuSans-72"/>
     <use x="1987.664062" xlink:href="#DejaVuSans-61"/>
     <use x="2048.943359" xlink:href="#DejaVuSans-76"/>
     <use x="2108.123047" xlink:href="#DejaVuSans-65"/>
     <use x="2169.646484" xlink:href="#DejaVuSans-73"/>
     <use x="2221.746094" xlink:href="#DejaVuSans-20"/>
     <use x="2253.533203" xlink:href="#DejaVuSans-64"/>
     <use x="2317.009766" xlink:href="#DejaVuSans-65"/>
     <use x="2378.533203" xlink:href="#DejaVuSans-20"/>
     <use x="2410.320312" xlink:href="#DejaVuSans-6d"/>
     <use x="2507.732422" xlink:href="#DejaVuSans-6f"/>
     <use x="2568.914062" xlink:href="#DejaVuSans-74"/>
     <use x="2608.123047" xlink:href="#DejaVuSans-6f"/>
     <use x="2669.304688" xlink:href="#DejaVuSans-72"/>
     <use x="2710.417969" xlink:href="#DejaVuSans-20"/>
     <use x="2742.205078" xlink:href="#DejaVuSans-64"/>
     <use x="2805.681641" xlink:href="#DejaVuSans-65"/>
     <use x="2867.205078" xlink:href="#DejaVuSans-20"/>
     <use x="2898.992188" xlink:href="#DejaVuSans-62"/>
     <use x="2962.46875" xlink:href="#DejaVuSans-75"/>
     <use x="3025.847656" xlink:href="#DejaVuSans-73"/>
     <use x="3077.947266" xlink:href="#DejaVuSans-71"/>
     <use x="3141.423828" xlink:href="#DejaVuSans-75"/>
     <use x="3204.802734" xlink:href="#DejaVuSans-65"/>
     <use x="3266.326172" xlink:href="#DejaVuSans-64"/>
     <use x="3329.802734" xlink:href="#DejaVuSans-61"/>
    </g>
   </g>
  </g>
 </g>
</svg>
